<?xml version="1.0" encoding="utf-8" ?><svg xmlns="http://www.w3.org/2000/svg" xmlns:xlink="http://www.w3.org/1999/xlink" width="683" height="683" viewBox="0 0 683 683"><path fill="#D5CDE3" transform="scale(0.666992 0.666992)" d="M0 0L376.741 0L392.386 0L429.626 0L445.783 0L1024 0L1024 371.808L1024 387.766L1024 459.662L1024 477.227L1024 1024L185.649 1024L169.29 1024L66.7477 1024L50.2138 1024L0 1024L0 869.287L0 853.279L0 448.273L0 432.445L0 395.74L0 379.348L0 0Z"/><path fill="#F4F4F3" transform="scale(0.666992 0.666992)" d="M380.353 66.8915C395.579 66.4561 411.226 66.6999 426.496 66.6712L531.904 66.8951L765.482 66.8774L889.102 66.7347L927.784 66.6459C933.99 66.6348 940.533 66.4347 946.703 66.7183C951.602 66.9436 956.673 72.4943 956.793 77.5176C957.115 91.0545 957.05 104.579 957.053 118.11L957.025 195.193L957.341 412.596L957.104 775.896L957.217 890.76L957.428 931.286C957.456 938.034 959.313 952.225 954.52 956.724C950.488 960.51 937.029 958.902 931.188 959.095C930.974 962.97 930.395 964.28 928.42 967.646C921.271 977.38 911.283 986.345 902.472 994.502C888.442 1007.33 873.172 1018.67 853.814 1021.4C841.269 1023.17 826.674 1022.24 822.224 1007.66C818.01 993.842 833.224 990.173 842.108 984.112C848.241 979.929 857.876 974.164 863.028 968.66C860.909 967.886 841.526 968.465 837.848 968.456L767.2 968.105C754.014 968.118 734.577 968.771 722.095 967.812C718.252 974.277 714.029 981.676 710.064 987.361C704.247 995.702 691.872 993.505 689.138 984.273C687.708 979.441 692.834 972.291 694.981 968.643C695.852 967.609 699.512 961.188 700.425 959.642C689.3 958.635 675.899 958.965 664.596 958.962L609.595 958.977L604.063 968.397C601.598 973.17 599.02 978.024 593.511 979.584C586.095 981.683 580.659 977.847 578.12 971.207C578.806 965.329 579.972 964.241 583.043 959.096C563.449 958.862 543.519 959.113 523.871 959.059L349.438 958.982L284.428 959.054C276.043 959.088 259.589 959.692 251.72 959.135C268.911 941.02 288.22 923.328 305.998 905.644L435.827 776.349L478.223 734.032C485.109 727.157 492.068 720.184 498.835 713.184C500.229 711.741 501.221 709.563 501.167 707.535C500.84 701.858 494.181 701.701 490.934 704.879C483.09 712.558 475.605 720.501 467.845 728.222L407.842 788.342L306.932 888.302C283.365 911.605 259.19 936.245 235.257 958.993L132.624 959.035L315.486 777.798L378.532 715.429L408.376 685.474C411.258 682.537 414.912 679.417 417.598 676.479C423.622 669.891 415.579 661.699 408.645 668.955C401.635 676.291 394.238 683.394 386.999 690.519L325.441 751.727L179.639 896.666C161.278 914.956 143.114 933.442 124.4 951.372C121.834 953.831 119.325 956.363 116.559 958.6C104.344 959.293 90.2265 958.763 77.9038 958.633C71.8637 958.569 68.4715 954.301 68.4422 948.237C68.3289 924.746 68.5956 901.099 68.2606 877.594C68.2222 874.9 68.0679 871.904 68.2105 869.228C83.591 853.3 100.743 837.565 116.661 821.982L205.523 734.431L241.146 699.143C245.661 694.672 250.315 690.311 254.882 685.945C258.606 682.383 257.634 674.41 251.523 674.497C249.442 674.529 245.626 678.661 244.021 679.919C235.204 688.475 226.49 697.251 217.78 705.922L168.994 754.143L115.701 806.395C99.84 821.891 83.5054 837.599 68.418 853.832C68.419 836.625 68.5823 819.13 68.0096 801.957C69.8278 799.089 72.574 796.567 74.9291 794.111C88.7409 779.711 103.105 765.879 117.304 751.88L210.78 657.93L241.911 626.88C247.157 621.654 253.214 616.455 257.853 610.718C259.074 609.208 259.975 607.817 259.482 605.762C259.063 604.013 257.618 602.478 255.987 601.777C254.485 601.132 252.908 601.223 251.424 601.854C246.257 604.052 202.471 649.831 194.68 657.631L123.128 729.132C104.604 747.652 86.1162 765.892 68.4465 785.219L68.8898 530.151L68.8768 428.411C68.9016 412.524 68.5378 396.102 69.0071 380.264C159.433 286.509 253.729 195.891 344.684 102.598C356.424 90.5558 368.254 78.5711 380.353 66.8915Z"/><defs><linearGradient id="gradient_0" gradientUnits="userSpaceOnUse" x1="1030.4028" y1="720.75708" x2="443.64694" y2="476.15106"><stop offset="0" stop-color="#1E055B"/><stop offset="1" stop-color="#41306B"/></linearGradient></defs><path fill="url(#gradient_0)" transform="scale(0.666992 0.666992)" d="M759.815 208.782C775.72 195.638 789.457 187.497 811.058 189.513C828.155 191.108 842.897 197.407 853.583 211.306C864.423 224.797 870.106 238.977 868.22 256.606C867.458 263.726 863.653 276.028 858.286 281.104C857.304 282.033 855.346 282.471 854.016 282.732C850.482 300.544 846.666 314.255 831.506 325.616C834.296 327.063 835.197 327.578 836.332 330.577C838.502 336.31 840.475 343.455 839.766 349.553C844.852 358.568 849.174 363.92 853.956 373.772C875.877 418.94 875.747 466.558 877.099 515.462C894.638 517.035 886.941 530.701 886.497 540.415C885.932 552.742 890.731 562.038 883.59 574.196C890 582.056 888.765 586.24 888.462 596.24C885.671 599.227 884.604 600.042 880.84 601.869C879.996 636.71 881.936 676.001 885.452 710.613L889.59 748.244C890.419 755.176 892.003 764.44 891.883 771.129L892.399 771.683C894.87 774.292 906.052 782.638 906.611 784.156C910.643 795.108 907.737 817.979 908.479 830.577C908.56 831.953 908.324 835.9 908.23 836.947C921.435 862.998 927.475 864.715 916.055 893.142C920.488 902.745 923.197 909.366 912.242 915.854C913.341 920.493 914.54 926.06 915.298 930.804C916.234 931.259 919.049 932.596 919.647 933.354C923.91 938.76 926.451 945.805 929.515 951.94C930.623 954.158 930.927 956.732 931.188 959.095C930.974 962.97 930.395 964.28 928.42 967.646C921.271 977.38 911.283 986.345 902.472 994.502C888.442 1007.33 873.172 1018.67 853.814 1021.4C841.269 1023.17 826.674 1022.24 822.224 1007.66C818.01 993.842 833.224 990.173 842.108 984.112C848.241 979.929 857.876 974.164 863.028 968.66C860.909 967.886 841.526 968.465 837.848 968.456L767.2 968.105C754.014 968.118 734.577 968.771 722.095 967.812C718.252 974.277 714.029 981.676 710.064 987.361C704.247 995.702 691.872 993.505 689.138 984.273C687.708 979.441 692.834 972.291 694.981 968.643C695.852 967.609 699.512 961.188 700.425 959.642C689.3 958.635 675.899 958.965 664.596 958.962L609.595 958.977L604.063 968.397C601.598 973.17 599.02 978.024 593.511 979.584C586.095 981.683 580.659 977.847 578.12 971.207C578.806 965.329 579.972 964.241 583.043 959.096C593.579 941.691 603.825 923.599 614.085 906.013L652.776 840.218L670.204 810.155C675.112 801.541 680.46 791.336 686.548 783.727C665.313 759.346 645.977 738.822 639.327 705.544C635.037 684.079 634.154 671.114 649.141 653.879C667.465 632.764 687.941 613.604 708.591 594.801C709.899 593.611 718.288 587.178 717.948 585.766C715.884 577.19 719.998 567.875 728.088 563.75C738.566 541.783 744.999 517.526 747.012 493.269C747.36 489.067 747.819 481.949 747.258 477.957C743.216 473.977 743.919 472.654 743.266 467.1C734.898 469.325 709.664 476.901 703.166 473.483C691.642 467.421 679.381 442.024 672.828 430.653C661.908 438.186 651.297 445.906 640.295 453.392C636.75 465.222 633.938 481.283 631.415 493.649L618.354 557.932C611.011 594.499 607.678 625.845 570.824 645.676C528.697 668.345 468.532 658.633 444.767 614.046L443.83 612.25C453.895 606.284 466.619 598.25 476.674 592.863C487.465 605.795 499.821 613.993 516.981 615.44C565.067 619.495 568.167 576.441 574.963 540.835C579.453 517.309 584.712 492.854 589.911 469.468C587.843 463.134 585.005 457.081 582.614 450.867C568.563 414.361 555.44 377.504 541.192 341.073L529.468 310.377C527.79 306.035 520.767 291.005 522.004 287.094C525.231 282.708 537.122 276.023 542.342 272.598L574.875 251.071C589.834 241.18 604.555 230.52 619.978 221.389C622.114 220.125 624.695 218.708 627.155 218.338C628.584 218.123 630.009 218.857 631.126 219.733C632.024 220.437 632.782 221.339 633.218 222.4C635.34 227.564 636.113 233.781 637.3 239.256C639.573 249.742 642.078 260.174 644.526 270.62C645.597 275.187 646.258 280.185 647.708 284.624C649.085 288.838 653.386 292.361 655.597 296.271C662.076 307.73 664.023 319.387 673.203 330.224C679.001 337.069 744.321 382.25 752.949 386.707C758.199 378.405 762.769 373.089 769.632 366.057C769.878 360.515 770.01 353.489 770.579 348.141C773.256 345.619 775.44 344.796 778.347 342.863C776.811 339.145 775.901 337.181 773.159 334.02C764.501 337.854 753.732 343.602 744.331 339.533C727.263 332.144 740.469 307.243 740.598 293.512C729.015 278.879 740.625 276.99 748.686 265.71C747.907 258.897 747.377 255.081 747.866 248.252C745.567 250.637 743.682 252.616 741.575 255.169C741.298 249.218 741.4 247.304 742.28 241.41L741.716 241.067C738.896 241.975 738.569 243.355 736.638 243.236C736.118 240.749 739.294 234.852 740.423 232.41C726.304 225.512 712.765 216.865 705.725 202.202C703.509 197.586 706.188 194.449 709.865 192.158C727.903 195.056 743.503 200.834 759.815 208.782Z"/><path fill="#F4F4F3" transform="scale(0.666992 0.666992)" d="M815.517 815.167C821.589 825.78 827.694 836.309 834.212 846.656C829.364 866.418 837.685 879.102 847.246 896.429C850.432 902.203 854.625 907.607 860.737 910.417C862.27 916.761 864.246 924.598 870.013 928.447C874.209 931.248 877.792 929.725 881.886 927.925C882.652 930.335 885.933 939.723 884.786 941.108C880.679 946.069 875.377 954.538 871.337 959.16C868.981 962.077 865.788 966.301 863.028 968.66C860.909 967.886 841.526 968.465 837.848 968.456L767.2 968.105C754.014 968.118 734.577 968.771 722.095 967.812C723.924 964.641 725.593 961.974 727.605 958.913C752.623 916.458 779.84 875.051 805.188 832.776C808.566 827.142 811.891 820.537 815.517 815.167Z"/><path fill="#D5CDE3" transform="scale(0.666992 0.666992)" d="M727.605 958.913C759.452 959.355 791.821 958.784 823.687 959.055C837.896 959.176 857.784 958.349 871.337 959.16C868.981 962.077 865.788 966.301 863.028 968.66C860.909 967.886 841.526 968.465 837.848 968.456L767.2 968.105C754.014 968.118 734.577 968.771 722.095 967.812C723.924 964.641 725.593 961.974 727.605 958.913Z"/><path fill="#F4F4F3" transform="scale(0.666992 0.666992)" d="M623.323 935.353L684.965 942.234C692.598 943.027 701.231 944.202 708.763 944.744C705.992 949.664 703.092 954.681 700.425 959.642C689.3 958.635 675.899 958.965 664.596 958.962L609.595 958.977C613.164 952.666 619.401 941.165 623.323 935.353Z"/><path fill="#8B78A5" transform="scale(0.666992 0.666992)" d="M706.883 794.86C705.506 794.269 704.195 793.614 702.961 792.757C694.972 787.211 687.763 778.184 681.564 770.704C661.846 746.911 648.205 728.728 643.066 697.055C641.727 688.803 641.242 679.699 644.122 671.7C650.478 654.051 691.012 618.052 706.146 604.268C711.44 599.447 719.256 593.748 723.251 587.995C723.353 587.849 723.448 587.698 723.546 587.549C725.96 588.411 728.348 589.334 730.743 590.247C740.797 593.377 751.201 597.683 761.202 600.613C794.052 610.237 840.392 617.98 873.073 606.146L875.196 604.812L876.027 605.112C876.761 607.198 875.947 610.361 875.866 612.664C874.198 659.913 878.695 707.338 885.869 754.006C886.439 757.712 887.479 762.381 887.678 766.062L888.04 767.29C887.695 771.74 886.785 767.724 887.139 771.238L888.706 772.991C888.522 774.518 888.504 774.247 886.971 774.671C892.398 778.469 898.426 782.525 903.661 786.494C904.62 799.604 902.732 818.396 902.844 832.19L894.319 825.346C881.637 816.034 869.637 804.964 858.58 793.769C852.78 787.898 847.865 780.164 841.292 775.245C846.498 789.007 863.848 806.885 875.1 816.782C876.932 818.394 884.319 824.27 885.134 825.559C887.814 827.746 901.378 837.066 902.268 838.384C905.377 842.993 915.791 863.861 917.105 869.955C917.94 873.83 913.534 884.99 911.93 888.837C909.06 890.74 908.436 891.036 905.292 892.292C894.18 897.537 882.892 901.204 871.216 904.983C866.932 906.199 865.677 905.944 861.406 905.298C857.36 902.609 854.066 897.09 851.677 892.923C843.505 878.672 836.833 867.77 837.671 850.863C840.457 854.196 843.318 857.402 846.199 860.649C847.578 861.535 847.985 861.924 849.623 862.219L850.096 861.637C849.52 859.398 845.758 854.213 844.302 851.995C822.44 825.047 803.563 775.866 791.25 743.452C789.227 738.128 772.696 690.688 772.59 688.044C773.579 686.241 773.392 686.764 775.592 685.634C778.628 684.076 783.105 681.602 786.133 680.319C796.395 681.94 817.477 681.243 826.952 676.756L827.577 675.944C825.6 674.311 797.377 676.35 793.168 676.929C804.273 671.246 815.461 665.24 826.477 659.373C833.4 655.685 847.845 650.61 852.074 644.724L851.866 644.093C841.015 644.369 786.411 674.539 774.483 680.56C758.647 688.553 736.78 699.207 721.101 707.733C711.817 700.491 705.242 691.511 698.731 681.932C698.132 681.052 697.979 681.101 697.113 681.151C696.351 682.782 696.983 684.676 697.624 686.288C702.905 699.586 713.897 709.632 725.995 716.57C716.355 713.334 707.602 709.598 698.7 704.667C694.981 702.606 691.155 699.905 687.605 697.96C696.15 713.746 716.146 719.727 732.822 722.041C733.941 741.079 739.973 751.604 751.228 767.435C741.017 778.168 729.905 786.521 716.043 791.941L706.883 794.86Z"/><path fill="#F4F4F3" transform="scale(0.666992 0.666992)" d="M706.883 794.86C705.506 794.269 704.195 793.614 702.961 792.757C694.972 787.211 687.763 778.184 681.564 770.704C661.846 746.911 648.205 728.728 643.066 697.055C641.727 688.803 641.242 679.699 644.122 671.7C650.478 654.051 691.012 618.052 706.146 604.268C711.44 599.447 719.256 593.748 723.251 587.995C723.353 587.849 723.448 587.698 723.546 587.549C725.96 588.411 728.348 589.334 730.743 590.247C726.833 595.043 723.024 600.15 718.438 604.326C711.981 610.206 704.544 615.278 697.819 620.895C685.597 631.104 657.849 657.057 651.574 671.288C648.934 677.278 648.188 683.333 648.826 689.82C649.372 695.373 651.156 700.813 652.896 706.091C663.118 737.108 687.564 769.153 712.796 789.49C713.855 790.343 714.923 791.17 716.043 791.941L706.883 794.86Z"/><path fill="#F4F4F3" transform="scale(0.666992 0.666992)" d="M775.592 685.634C779.961 690.864 791.918 726.33 795.156 734.182C805.39 759 814.388 784.753 826.257 808.991C830.379 817.41 845.542 844.17 844.302 851.995C822.44 825.047 803.563 775.866 791.25 743.452C789.227 738.128 772.696 690.688 772.59 688.044C773.579 686.241 773.392 686.764 775.592 685.634Z"/><path fill="#F4F4F3" transform="scale(0.666992 0.666992)" d="M873.073 606.146L875.196 604.812L876.027 605.112C876.761 607.198 875.947 610.361 875.866 612.664C874.198 659.913 878.695 707.338 885.869 754.006C886.439 757.712 887.479 762.381 887.678 766.062L887.141 766.245C885.667 765.859 884.249 764.401 883.03 763.353C880.931 756.624 879.814 746.992 878.638 739.638C872.618 702.007 868.898 663.683 868.43 625.577C868.358 619.653 871.551 612.76 872.856 607.124L873.073 606.146Z"/><path fill="#F4F4F3" transform="scale(0.666992 0.666992)" d="M885.134 825.559C887.814 827.746 901.378 837.066 902.268 838.384C905.377 842.993 915.791 863.861 917.105 869.955C917.94 873.83 913.534 884.99 911.93 888.837C909.06 890.74 908.436 891.036 905.292 892.292C907.056 888.83 910.539 880.433 909.709 876.315C907.51 865.401 900.453 849.51 895.925 839.227C894.948 837.009 885.658 829.973 885.134 825.559Z"/><path fill="#F4F4F3" transform="scale(0.666992 0.666992)" d="M837.671 850.863C840.457 854.196 843.318 857.402 846.199 860.649C847.557 872.907 849.309 876.29 855.04 887.167C860.059 896.695 862.455 898.913 871.216 904.983C866.932 906.199 865.677 905.944 861.406 905.298C857.36 902.609 854.066 897.09 851.677 892.923C843.505 878.672 836.833 867.77 837.671 850.863Z"/><path fill="#F4F4F3" transform="scale(0.666992 0.666992)" d="M883.64 771.606L886.971 774.671C892.398 778.469 898.426 782.525 903.661 786.494C904.62 799.604 902.732 818.396 902.844 832.19L894.319 825.346C896.818 818.458 899.431 788.19 894.77 783.838C893.885 784.601 894.224 784.387 893.078 784.847C890.147 783.089 883.423 775.101 883.64 771.606Z"/><path fill="#3E2C66" transform="scale(0.666992 0.666992)" d="M866.524 750.052L867.201 750.535C873.294 754.834 879.778 763.308 886.069 767.505C886.793 767.989 887.021 767.653 888.04 767.29C887.695 771.74 886.785 767.724 887.139 771.238L888.706 772.991C888.522 774.518 888.504 774.247 886.971 774.671L883.64 771.606C877.503 764.396 870.455 759.09 866.524 750.052Z"/><path fill="#8B78A5" transform="scale(0.666992 0.666992)" d="M775.816 350.553C787.448 343.285 817.973 330.76 830.93 331.853C831.487 334.89 834.34 341.912 835.549 345.197C831.326 346.089 823.264 347.988 819.37 348.975C815.593 349.932 787.283 360.645 785.864 363.015L786.297 363.811C787.486 364.136 789.026 364.052 790.157 363.618C802.314 358.946 821.957 350.755 835.002 350.87L834.792 350.554L836.04 350.553C836.279 351.023 836.627 351.61 836.752 352.089C868.277 399.943 871.666 462.369 871.512 518.041C868.015 518.911 864.49 519.89 860.917 520.292L855.702 521.195C852.696 543.914 851.529 553.529 852.571 576.567L853.229 576.892C862.938 581.599 869.224 580.199 878.633 576.653C879.056 578.195 879.007 577.392 878.454 579.14C876.736 580.611 872.57 581.289 870.224 581.896C837.273 590.429 804.209 586.114 772.102 576.232C761.822 573.068 751.139 569.084 740.685 566.145C738.72 565.551 735.445 564.988 733.345 564.56C747.698 530.943 751.675 514.171 752.62 477.325C755.053 476.683 757.12 475.937 759.485 475.11C761.618 473.562 766.787 471.552 768.817 470.048C771.217 467.679 770.145 466.275 773.393 464.649C790.1 456.241 811.14 447.526 822.79 432.321C836.109 414.082 838.188 385.795 823.482 367.734C812.114 353.773 793.033 361.904 781.91 371.644C780.084 375.28 778.808 377.506 774.248 376.909C773.467 372.564 775.318 356.018 775.816 350.553Z"/><path fill="#F4F4F3" transform="scale(0.666992 0.666992)" d="M836.752 352.089C868.277 399.943 871.666 462.369 871.512 518.041C868.015 518.911 864.49 519.89 860.917 520.292C861.533 515.016 862.699 512.09 862.992 505.715C864.029 483.146 861.676 459.688 858.775 437.33C857.74 429.35 856.72 418.895 855.054 411.24C852.759 400.694 848.391 388.849 846.256 378.2C845.059 372.226 836.915 356.53 836.752 352.089Z"/><path fill="#F4F4F3" transform="scale(0.666992 0.666992)" d="M759.485 475.11C759.634 486.163 757.736 498.346 756.197 509.286C753.256 530.197 749.737 546.812 740.685 566.145C738.72 565.551 735.445 564.988 733.345 564.56C747.698 530.943 751.675 514.171 752.62 477.325C755.053 476.683 757.12 475.937 759.485 475.11Z"/><path fill="#F4F4F3" transform="scale(0.666992 0.666992)" d="M775.816 350.553C787.448 343.285 817.973 330.76 830.93 331.853C828.702 334.899 821.944 336.143 818.383 337.788C807.177 342.962 792.1 347.942 783.748 357.21C782.57 362.152 782.328 366.609 781.91 371.644C780.084 375.28 778.808 377.506 774.248 376.909C773.467 372.564 775.318 356.018 775.816 350.553Z"/><path fill="#3E2C66" transform="scale(0.666992 0.666992)" d="M782.309 508.715C786.251 510.119 785.984 513.746 790.36 515.758C807.655 523.709 825.326 525.597 843.359 519.848C843.7 529.163 844.833 537.298 838.314 544.577C837.716 550.275 836.699 574.021 833.734 577.008C823.081 580.516 810.692 582.406 799.623 580.04C788.9 577.747 776.229 569.963 774.723 558.284C773.835 551.4 776.815 539.092 778.674 532.083L778.333 531.191C775.308 523.387 775.469 514.499 782.309 508.715Z"/><path fill="#8B78A5" transform="scale(0.666992 0.666992)" d="M782.144 536.419C783.34 537.357 784.628 538.484 785.805 539.471C799.333 547.004 817.845 549.409 832.965 545.948C831.625 556.347 831.201 562.992 831.014 573.48C819.13 577.152 800.767 580.159 790.373 571.407C784.181 567.255 781.228 562.541 778.69 555.765C780.293 549.791 781.23 542.627 782.144 536.419Z"/><path fill="#F4F4F3" transform="scale(0.666992 0.666992)" d="M782.144 536.419C783.34 537.357 784.628 538.484 785.805 539.471C785.249 544.579 786.128 551.789 786.866 556.872C787.379 560.402 790.755 569.209 790.373 571.407C784.181 567.255 781.228 562.541 778.69 555.765C780.293 549.791 781.23 542.627 782.144 536.419Z"/><path fill="#8B78A5" transform="scale(0.666992 0.666992)" d="M782.038 514.348C790.529 524.789 807.178 527.965 819.978 528.554C827.52 528.472 832.773 528.628 840.056 526.145C839.676 529.949 839.51 537.32 836.262 539.457C826.211 546.066 801.909 542.618 792.552 536.862C781.907 531.308 779.177 525.895 782.038 514.348Z"/><path fill="#F4F4F3" transform="scale(0.666992 0.666992)" d="M782.038 514.348C790.529 524.789 807.178 527.965 819.978 528.554C822.966 528.981 824.646 529.021 827.644 529.078C814.293 534.987 803.57 534.932 790.217 529.954C791.138 531.794 792.466 534.109 792.828 536.065L792.552 536.862C781.907 531.308 779.177 525.895 782.038 514.348Z"/><path fill="#F4F4F3" transform="scale(0.666992 0.666992)" d="M812.72 809.116C806.813 820.011 799.617 830.961 792.433 842.255C762.306 889.618 733.363 938.19 703.607 985.73C703.002 986.697 692.831 987.747 696.062 979.009C698.708 971.854 716.737 947.021 715.031 941.729C711.43 938.268 700.404 937.784 695.158 937.191L669.387 934.328L636.41 930.869C632.402 930.459 628.162 929.54 624.181 929.382C623.038 929.337 621.898 929.672 620.893 930.201C612.705 934.518 601.326 968.384 592.855 973.113C591.325 973.967 589.31 974.314 587.643 973.656C586.206 973.089 584.916 971.686 584.611 970.144C584.24 968.267 585.599 965.764 586.497 964.21C590.517 957.263 595.122 950.584 599.23 943.661L644.885 866.162C660.092 840.265 674.8 813.147 690.248 787.444C694.643 791.863 698.119 795.092 702.799 799.105L703.008 800.696C700.348 799.941 698.243 800.211 695.475 800.31C689.392 808.7 684.652 819.842 679.048 828.704C676.918 832.073 675.309 836.582 672.474 839.327C667.021 844.606 665.488 848.007 672.518 852.621L674.976 860.528C690.916 871.98 722.551 864.833 740.55 862.218C746.929 861.291 755.894 862.216 762.661 862.099C767.261 858.245 770.281 852.34 773.067 847.145C780.313 846.331 781.889 844.12 785.678 838.132C793.616 825.585 800.433 812.387 807.985 799.614C809.673 802.488 811.267 806.062 812.72 809.116Z"/><path fill="#3E2C66" transform="scale(0.666992 0.666992)" d="M659.972 865.526C691.309 867.962 723.517 871.902 754.857 874.844C755.939 874.945 756.64 876.306 757.016 877.145C755.679 882.304 730.602 920.7 726.001 927.276C724.01 928.609 721.692 928.787 719.431 928.235C703.127 924.255 643.295 923.281 631.294 917.215C630.503 915.521 630.549 914.276 631.025 912.501C632.279 907.825 652.545 873.719 656.234 868.725C657.279 867.31 658.484 866.434 659.972 865.526Z"/><path fill="#F4F4F3" transform="scale(0.666992 0.666992)" d="M661.308 871.423C664.234 871.625 667.267 872.202 670.206 872.466C696.664 874.842 723.976 878.979 750.523 879.668C740.857 892.429 732.181 906.717 723.439 920.237C722.899 921.048 722.448 921.592 721.842 922.363C721.195 922.539 643.184 914.027 636.919 912.995C638.572 908.886 644.619 899.739 647.214 895.42C652.006 887.442 656.624 879.469 661.308 871.423Z"/><path fill="#F4F4F3" transform="scale(0.666992 0.666992)" d="M616.612 254.598C624.953 254.944 625.297 259.428 626.858 266.834C627.906 271.812 628.904 276.791 630.038 281.754C625.253 284.294 627.314 285.119 624.538 288.82C609.729 296.136 625.966 312.009 632.043 320.287C621.522 318.53 601.057 305.513 605.987 325.49C609.247 338.699 602.578 353.882 611.117 365.437C618.929 376.005 632.842 365.728 639.938 375.754C648.225 388.271 656.07 405.327 656.272 420.483C656.323 424.306 635.018 437.461 631.242 440.136C626.871 443.25 621.342 447.942 616.333 449.528C613.172 450.529 611.229 449.439 608.476 447.987C607.553 446.53 606.724 444.877 606.09 443.265C597.67 421.853 590.709 399.581 582.515 378.134L563.638 328.056C559.232 316.443 552.148 306.047 557.396 293.51C557.878 292.358 561.81 288.924 562.953 288.166C567.607 285.079 572.481 282.333 577.123 279.216C584.728 274.871 610.289 256.527 616.612 254.598Z"/><path fill="#F4F4F3" transform="scale(0.666992 0.666992)" d="M611.001 319.779C615.478 321.386 622.498 333.867 628.953 334.512C630.614 333.728 629.951 334.314 630.87 332.547C630.76 329.584 625.864 325.934 623.447 323.679C626.499 324.235 631.007 325.074 633.866 325.904C645.878 329.393 652.178 347.502 657.563 358.835C656.131 357.519 654.642 355.809 652.83 355.365L652.338 355.978C655.292 368.17 672.608 380.892 681.549 389.424C692.55 399.921 703.449 412.29 715.759 421.133C720.528 417.726 722.193 418.079 728.173 417.166C731.599 425.168 735.815 438.438 738.491 446.896C739.845 451.119 741.072 457.119 742.111 461.552C735.617 463.65 710.156 471.26 704.504 467.744C696.629 462.846 688.294 446.014 683.182 437.453C675.558 424.684 667.781 411.368 660.175 398.553C655.565 390.734 649.06 383.449 645.206 375.183C644.689 374.074 645.603 372.774 646.09 371.88C642.188 363.27 622.766 367.779 616.672 363.08C610.281 358.152 613.386 343.599 612.872 336.431C612.459 330.671 611.75 325.379 611.001 319.779Z"/><path fill="#F4F4F3" transform="scale(0.666992 0.666992)" d="M768.361 689.492C768.983 690.274 776.839 716.951 777.703 719.893C785.298 745.753 794.683 768.978 805.248 793.726C797.982 803.247 787.002 825.473 779.69 836.873C775.57 826.43 775.604 831.462 773.79 817.616C773.012 814.198 769.043 801.794 764.782 802.683C764.098 804.037 764.273 803.851 763.338 805.003C761.69 801.465 759.118 792.644 758.546 788.776C759.966 787.313 761.127 786.029 762.479 784.504C766.965 779.449 763.102 770.476 759.175 766.239C757.34 764.258 752.616 761.131 751.432 759.068C745.687 749.058 739.178 739.379 738.249 727.587C737.553 718.737 732.654 715.019 726.057 710.111C737.05 706.054 757.383 695.147 768.361 689.492Z"/><path fill="#F4F4F3" transform="scale(0.666992 0.666992)" d="M798.368 195.675C809.995 193.788 828.161 198.22 838.551 203.906C821.659 204.249 804.264 205.062 792.038 218.953C790.66 220.519 790.11 221.019 790.292 223.056L791.096 223.566C793.15 223.128 800.932 215.234 805.462 213.295C814.687 209.136 824.563 207.144 834.678 207.31C838.374 207.371 841.867 207.459 842.933 212.007C846.285 226.306 842.757 242.67 835.418 255.222C834.751 256.363 834.916 257.254 835.337 258.352L836.481 258.585C836.934 258.239 837.277 258.013 837.63 257.53C845.804 246.35 849.151 229.266 846.812 216.123L845.069 209.749C862.418 229.709 870.307 254.529 854.054 277.994C853.662 277.891 853.271 277.788 852.879 277.685C818.872 265.83 782.32 244.015 764.52 212.494C774.203 203.201 785.164 197.702 798.368 195.675Z"/><path fill="#8B78A5" transform="scale(0.666992 0.666992)" d="M807.523 365.414C822.822 364.852 827.726 385.008 828.005 397.116C828.285 409.264 824.467 423.527 815.818 432.506C806.274 442.035 783.216 455.057 770.603 460.302C770.058 448.097 766.811 429.786 762.849 417.915C760.198 411.133 756.389 404.851 750.562 400.396C754.824 396.964 759.457 394.077 763.717 390.666L762.832 390.374C765.274 389.161 771.106 384.937 773.09 384.396C783.582 381.53 789.925 363.262 801.251 366.29C802.636 366.35 805.989 365.672 807.523 365.414Z"/><path fill="#F4F4F3" transform="scale(0.666992 0.666992)" d="M763.717 390.666C765.401 390.272 774.958 384.489 777.058 383.256L778.882 390.096C775.541 394.717 767.643 400.547 762.992 403.914C763.063 406.422 763.654 416.256 762.849 417.915C760.198 411.133 756.389 404.851 750.562 400.396C754.824 396.964 759.457 394.077 763.717 390.666Z"/><path fill="#F4F4F3" transform="scale(0.666992 0.666992)" d="M801.251 366.29C802.636 366.35 805.989 365.672 807.523 365.414C804.935 368.677 784.361 388.162 781.733 388.658L779.871 381.85C788.812 374.37 788.02 369.009 801.251 366.29Z"/><path fill="#3E2C66" transform="scale(0.666992 0.666992)" d="M763.717 390.666L762.832 390.374C765.274 389.161 771.106 384.937 773.09 384.396C783.582 381.53 789.925 363.262 801.251 366.29C788.02 369.009 788.812 374.37 779.871 381.85L781.733 388.658C783.125 395.587 781.778 403.954 780.216 410.783C779.231 404.013 780.206 395.702 778.882 390.096L777.058 383.256C774.958 384.489 765.401 390.272 763.717 390.666Z"/><path fill="#F4F4F3" transform="scale(0.666992 0.666992)" d="M534.703 291.952C542.064 287.769 548.89 282.822 555.747 278.158C562.48 273.578 572.134 268.148 578.413 263.693C584.424 259.428 624.432 231.834 628.654 230.798C629.849 233.337 640.471 282.123 640.269 282.717C637.983 282.193 636.491 281.485 634.347 280.586C632.001 273.191 630.102 256.069 623.734 251.969C617.662 248.059 609.632 253.184 604.573 256.438C588.832 266.782 572.536 276.65 557.044 287.337C555.349 288.686 554.081 290.747 553.272 292.732C548.594 304.205 553.284 313.895 557.427 324.509C561.286 334.399 565.107 344.303 568.748 354.243L588.731 408.489C593.139 420.725 597.427 433.105 602.188 445.126C604.628 451.711 611.909 457.867 618.963 453.657C631.543 446.147 643.496 436.979 655.526 428.595C657.121 427.484 660.689 422.906 660.484 420.862C659.685 412.924 655.233 406.046 653.551 398.167C659.059 407.559 664.379 416.576 670.217 425.778C667.076 427.446 664.825 429.294 661.923 431.144C642.238 443.694 623.46 461.132 603.726 473.254L602.868 472.487C600.953 463.377 591.526 443.397 587.926 433.327C585.649 426.956 580.54 412.309 577.947 406.742C574.617 396.711 570.955 386.908 567.12 377.074C557.324 351.959 549.285 326.191 538.45 301.487C537.111 298.434 535.904 295.08 534.703 291.952Z"/><path fill="#F4F4F3" transform="scale(0.666992 0.666992)" d="M633.413 298.239C635.215 297.087 635.029 297.602 635.588 295.986C634.345 292.269 630.221 290.334 630.337 287.463C634.796 283.885 647.297 294.948 649.698 298.444C656.633 308.542 659.651 322.249 667.495 331.933C674.692 340.817 686.263 346.572 695.182 353.642C712.917 366.33 733.229 381.788 752.04 392.617C749.593 394.458 744.341 399.04 742.329 400.287C735.585 404.465 728.513 402.399 726.645 411.755L721.379 413.057C713.613 405.218 706.57 397.219 698.537 389.573C685.648 376.994 674.548 362.76 663.118 348.882C660.907 346.197 656.436 343.74 653.868 340.966C650.736 337.583 648.592 331.905 645.818 328.64C637.507 318.859 628.257 308.936 622.119 297.617C626.014 300.342 640.338 315.518 643.476 311.72C643.516 308.141 635.984 301.501 633.073 299.538L633.413 298.239Z"/><path fill="#F4F4F3" transform="scale(0.666992 0.666992)" d="M916.768 935.887C917.76 937.272 922.364 948.507 923.28 950.677C908.634 971.584 879.455 999.592 854.558 1006.49C848.373 1008.21 837.629 1009.89 831.937 1006.23C831.191 1005.75 831.644 1005.87 830.588 1006.05L830.246 1006.95C831.388 1012.11 840.762 1012.26 845.002 1011.92C871.777 1009.77 894.491 988.252 912.243 969.78C916.923 964.91 920.623 959.709 924.935 954.78L925.607 954.879C927.946 957.776 925.684 961.923 922.931 963.634L923.382 964.355C922.435 965.804 918.422 969.762 916.892 971.398C909.071 979.757 901.561 987.324 892.855 994.855C879.18 1006.68 860.73 1017.34 841.994 1016.28C837.358 1015.78 833.178 1014.57 830.112 1010.96C827.941 1008.41 826.05 1001.63 829.046 999.222C835.105 994.349 842.326 990.541 848.806 986.119C854.142 982.479 858.444 978.166 863.518 974.352C865.911 976.69 867.203 977.799 869.87 979.821C875.53 977.468 885.882 968.466 887.113 961.743C887.986 956.973 881.068 957.386 877.84 957.4C880.854 953.234 883.513 949.884 886.755 945.942C901.909 951.29 908.933 950.254 916.768 935.887Z"/><path fill="#8B78A5" transform="scale(0.666992 0.666992)" d="M721.341 580.815C724.651 572.299 725.519 568.53 735.264 570.481C742.393 571.626 758.801 577.578 766.563 580.201C802.586 592.373 834.445 595.342 871.855 587.143L883.804 583.068C883.696 586.938 883.867 589.528 884.177 593.411C880.025 596.156 875.702 597.674 871.547 599.975L871.213 600.547C865.928 603.617 857.757 605.154 851.759 605.84C812.421 610.343 773.093 599.582 736.451 586.252C734.349 585.487 732.192 584.752 729.983 584.343C726.481 583.198 724.531 582.666 721.341 580.815Z"/><path fill="#F4F4F3" transform="scale(0.666992 0.666992)" d="M871.855 587.143L883.804 583.068C883.696 586.938 883.867 589.528 884.177 593.411C880.025 596.156 875.702 597.674 871.547 599.975L870.349 598.994C870.218 597.425 871.923 594.607 872.692 592.927C872.433 590.998 872.139 589.069 871.855 587.143Z"/><path fill="#F4F4F3" transform="scale(0.666992 0.666992)" d="M721.341 580.815C724.651 572.299 725.519 568.53 735.264 570.481C731.013 575.79 728.619 577.376 729.983 584.343C726.481 583.198 724.531 582.666 721.341 580.815Z"/><path fill="#F4F4F3" transform="scale(0.666992 0.666992)" d="M766.93 810.615C770.134 813.994 770.718 825.991 770.958 830.335C769.394 831.918 766.7 833.893 764.707 834.915C740.195 847.478 701.831 856.567 675.39 849.175C675.615 846.36 676.198 844.571 676.944 841.886C684.981 833.652 710.568 829.858 722.3 827.037C725.077 837.789 730.785 831.044 736.705 826.531C748.698 829.473 748.458 825.098 756.378 817.992C759.141 815.513 763.761 813.41 766.93 810.615Z"/><path fill="#F4F4F3" transform="scale(0.666992 0.666992)" d="M760.135 245.508C767.828 244.923 780.283 255.864 783.986 262.206C789.939 273.127 778.277 281.984 773.114 290.105C767.953 298.222 761.342 300.627 754.677 306.643C752.287 308.8 749.729 315.782 747.3 318.309C745.511 320.17 742.136 320.482 741.303 317.457C742.697 310.67 744.164 304.013 745.696 297.255C750.894 297.802 758.701 298.22 763.359 295.841C764.824 294.089 765.686 291.35 764.21 289.393L763.303 289.581C763.044 290.82 763.082 290.985 762.486 292.077C752.664 295.725 745.015 291.672 739.772 283.354C741.382 281.109 745.058 277.674 747.255 275.973C760.01 266.094 748.151 256.423 760.135 245.508Z"/><path fill="#3E2C66" transform="scale(0.666992 0.666992)" d="M757.707 259.281C761.479 261.894 760.284 264.79 758.086 267.802L756.478 267.192C754.673 264.282 755.852 261.767 757.707 259.281Z"/><path fill="#3E2C66" transform="scale(0.666992 0.666992)" d="M759.687 252.711C761.912 252.966 761.767 252.949 762.839 254.263C763.049 256.209 762.719 256.641 761.985 258.43C760.371 257.335 760.026 257.159 758.758 255.726C758.531 253.693 758.367 254.694 759.687 252.711Z"/><path fill="#8B78A5" transform="scale(0.666992 0.666992)" d="M752.608 472.018C750.674 472.045 751.476 472.326 750.011 471.501C748.851 469.222 745.996 453.903 745.327 450.359C743.834 442.448 732.538 416.3 732.532 410.303C734.155 407.913 743.801 405.695 747.179 404.724C755.944 412.433 759.763 426.903 762.147 437.849C764.389 444.807 765.475 458.255 766.166 465.948C762.768 467.473 755.526 470.394 752.608 472.018Z"/><path fill="#F4F4F3" transform="scale(0.666992 0.666992)" d="M752.608 472.018C750.674 472.045 751.476 472.326 750.011 471.501C748.851 469.222 745.996 453.903 745.327 450.359C743.834 442.448 732.538 416.3 732.532 410.303C734.155 407.913 743.801 405.695 747.179 404.724C755.944 412.433 759.763 426.903 762.147 437.849C756.458 431.507 754.236 413.797 743.316 410.425C735.28 412.426 744.91 430.767 746.381 435.652C750.025 447.757 751.559 459.488 752.608 472.018Z"/><path fill="#F4F4F3" transform="scale(0.666992 0.666992)" d="M800.51 269.47C807.46 270.983 808.801 277.266 807.299 283.628C805.668 290.538 799.43 289.298 794.82 291.784L794.957 292.579C796.636 294.11 797.71 294.279 799.919 295.053C801.788 305.687 802.949 312.43 811.815 319.866C814.02 321.714 817.359 325.082 818.956 327.432C812.859 329.238 807.55 330.934 801.561 333.063C795.763 334.852 789.138 337.86 783.553 340.308C781.613 337.469 779.707 334.487 777.817 331.604C798.82 319.507 789.132 316.584 790.113 296.699C790.519 288.452 792.453 273.653 800.51 269.47Z"/><path fill="#8B78A5" transform="scale(0.666992 0.666992)" d="M702.799 799.105C724.418 797.185 740.678 782.08 755.634 768.047C758.379 772.139 759.427 774.161 761.078 778.89C750.174 794.21 730.073 807.83 710.691 806.983C707.922 803.575 707.135 801.76 703.008 800.696L702.799 799.105Z"/><path fill="#8B78A5" transform="scale(0.666992 0.666992)" d="M858.344 536.681C860.121 538.972 861.773 541.085 863.404 543.486C868.865 546.274 875.648 544.337 881.382 542.59C881.777 549.432 882.557 560.474 881.356 567.028C876.311 574.078 869.451 576.066 861.074 574.913C860.073 574.635 859.187 574.311 858.209 573.972C855.944 571.378 858.117 541.693 858.344 536.681Z"/><path fill="#F4F4F3" transform="scale(0.666992 0.666992)" d="M858.344 536.681C860.121 538.972 861.773 541.085 863.404 543.486C862.833 552.003 861.493 566.05 861.889 573.773C861.569 574.314 861.522 574.558 861.074 574.913C860.073 574.635 859.187 574.311 858.209 573.972C855.944 571.378 858.117 541.693 858.344 536.681Z"/><path fill="#8B78A5" transform="scale(0.666992 0.666992)" d="M909.036 895.245L910.753 894.805C914.039 897.093 915.453 904.861 913.673 908.469C905.596 913.432 881.165 924.659 872.091 924.549C869.304 922.392 864.287 913.514 865.843 910.294L867.76 910.432C877.995 907.256 901.31 900.901 909.036 895.245Z"/><path fill="#F4F4F3" transform="scale(0.666992 0.666992)" d="M872.091 924.549C869.304 922.392 864.287 913.514 865.843 910.294L867.76 910.432C870.568 913.602 872.046 920.435 872.091 924.549Z"/><path fill="#F4F4F3" transform="scale(0.666992 0.666992)" d="M909.036 895.245L910.753 894.805C914.039 897.093 915.453 904.861 913.673 908.469C912.448 906.302 910.19 898.209 909.036 895.245Z"/><path fill="#F4F4F3" transform="scale(0.666992 0.666992)" d="M710.252 198.051C723.864 200.651 744.511 208.399 757.721 213.614C758.861 214.064 759.414 215.066 759.777 216.199L758.923 217.911C760.228 218.394 761.322 218.758 762.577 219.373C762.245 220.722 762.387 220.41 761.763 221.64C763.643 222.54 763.294 221.911 763.846 223.257L763.387 223.513L762.329 225.388C756.773 228.639 748.693 224.004 740.832 223.002C743.873 224.761 746.958 226.382 750.034 228.184C734.257 226.292 716.073 212.77 710.252 198.051Z"/><path fill="#3E2C66" transform="scale(0.666992 0.666992)" d="M737.872 216.065C744.418 218.469 754.701 220.542 761.763 221.64C763.643 222.54 763.294 221.911 763.846 223.257L763.387 223.513L762.329 225.388C756.558 224.545 740.549 221.915 736.733 217.902L737.183 217.291L737.872 216.065Z"/><path fill="#F4F4F3" transform="scale(0.666992 0.666992)" d="M737.872 216.065C744.418 218.469 754.701 220.542 761.763 221.64C763.643 222.54 763.294 221.911 763.846 223.257L763.387 223.513C758.221 223.35 742.526 218.911 737.183 217.291L737.872 216.065Z"/><path fill="#3E2C66" transform="scale(0.666992 0.666992)" d="M758.923 217.911C754.07 216.734 732.029 209.886 729.665 206.492C731.46 206.213 756.098 214.888 759.777 216.199L758.923 217.911Z"/><path fill="#3E2C66" transform="scale(0.666992 0.666992)" d="M737.872 216.065C736.064 215.22 733.194 214.219 732.259 212.647L732.495 211.874C734.434 212.006 737.588 213.781 739.605 214.324C743.479 215.367 759.644 220.641 762.577 219.373C762.245 220.722 762.387 220.41 761.763 221.64C754.701 220.542 744.418 218.469 737.872 216.065Z"/><path fill="#F4F4F3" transform="scale(0.666992 0.666992)" d="M601.243 474.047L600.676 474.744L599.757 474.733C595.453 470.05 576.248 416.103 573.094 407.68L550.114 347.427C543.638 330.551 537.261 313.523 530.527 296.734C529.528 294.243 527.964 290.361 529.707 288.099C531.105 288.066 531.531 288.553 532.745 289.32C532.079 290.183 531.803 290.385 530.961 291.072L530.958 292.312C535.321 299.577 542.858 320.598 546.01 328.991C555.706 354.811 564.486 381.488 575.276 406.923L576.63 405.752L577.947 406.742C580.54 412.309 585.649 426.956 587.926 433.327C591.526 443.397 600.953 463.377 602.868 472.487C602.145 473.284 602.107 473.442 601.243 474.047Z"/><path fill="#3E2C66" transform="scale(0.666992 0.666992)" d="M575.276 406.923L576.63 405.752L577.947 406.742C580.54 412.309 585.649 426.956 587.926 433.327C591.526 443.397 600.953 463.377 602.868 472.487C602.145 473.284 602.107 473.442 601.243 474.047C593.592 455.866 586.219 437.723 579.626 419.128C578.19 415.078 576.88 410.888 575.276 406.923Z"/><path fill="#F4F4F3" transform="scale(0.666992 0.666992)" d="M773.745 834.955C774.673 836.082 775.855 838.779 776.559 840.213C753.505 855.406 706.775 866.99 679.971 859.494C678.369 858.382 676.639 856.639 676.715 854.604C677.847 854.365 677.419 854.311 678.445 854.562C705.067 861.076 752.01 850.565 773.745 834.955Z"/><path fill="#F4F4F3" transform="scale(0.666992 0.666992)" d="M698.948 805.913C703.413 806.89 702.765 806.474 707.042 808.874C713.834 812.686 719.804 811.582 726.917 809.314C728.933 811.291 729.252 811.607 731.773 812.84C726.001 819.616 722.398 821.2 714.123 823.508C703.584 825.838 695.328 827.038 684.935 830.421C686.695 825.817 695.961 810.758 698.948 805.913Z"/><path fill="#F4F4F3" transform="scale(0.666992 0.666992)" d="M907.007 917.08C907.826 919.397 908.163 920.589 908.675 922.992C912.187 934.827 913.943 938.661 901.286 944.848C896.78 944.58 895.009 944.514 890.636 943.012C890.132 937.579 888.552 933.571 886.617 928.47L886.151 926.854C887.496 925.01 903.442 918.733 907.007 917.08Z"/><path fill="#8B78A5" transform="scale(0.666992 0.666992)" d="M907.007 917.08C907.826 919.397 908.163 920.589 908.675 922.992C902.138 926.936 899.748 927.363 891.994 927.977C890.334 928.109 888.074 927.951 886.617 928.47L886.151 926.854C887.496 925.01 903.442 918.733 907.007 917.08Z"/><path fill="#F4F4F3" transform="scale(0.666992 0.666992)" d="M753.274 794.371C755.584 796.228 757.7 805.169 758.982 808.754C744.923 819.548 751.094 824.336 731.577 820.983L734.86 817.321C738.356 818.85 742.243 820.053 745.924 818.661L746.247 817.823C744.636 815.284 742.084 814.787 739.327 813.89C737.642 810.762 736.633 808.918 734.577 806.042C742.622 801.955 746.165 799.609 753.274 794.371Z"/><path fill="#8B78A5" transform="scale(0.666992 0.666992)" d="M859.483 525.243C861.764 524.998 864.36 524.768 866.595 524.305C872.62 523.057 876.022 519.372 882.12 521.819C883.53 522.869 884.065 523.637 884.297 525.421C885.498 534.689 878.192 539.872 869.683 540.141C868.47 540.18 868.605 540.313 867.428 539.841C863.276 535.477 861.3 530.834 859.483 525.243Z"/><path fill="#F4F4F3" transform="scale(0.666992 0.666992)" d="M859.483 525.243C861.764 524.998 864.36 524.768 866.595 524.305C872.62 523.057 876.022 519.372 882.12 521.819C878.303 524.086 870.646 526.376 866.213 527.374C866.44 529.789 867.901 538.675 867.428 539.841C863.276 535.477 861.3 530.834 859.483 525.243Z"/><path fill="#F4F4F3" transform="scale(0.666992 0.666992)" d="M661.081 355.061C669.604 365.052 677.471 375.052 686.263 384.969L685.76 386.091C672.063 371.72 668.987 373.996 661.081 355.061Z"/><path fill="#F4F4F3" transform="scale(0.666992 0.666992)" d="M770.121 374.115C771.268 375.046 772.966 376.078 774.248 376.909L774.518 377.399L774.172 378.152C771.521 379.972 760.831 387.682 758.476 387.962L758.416 387.435C762.397 382.185 765.17 378.412 770.121 374.115Z"/><path fill="#F4F4F3" transform="scale(0.666992 0.666992)" d="M872.259 964.625C874.611 966.34 875.484 967.066 878.315 967.954L875.694 970.693L874.739 972.144C873.416 973.476 871.928 974.809 870.547 976.093C869.004 974.824 867.389 973.111 865.959 971.679C868.849 968.915 869.845 967.81 872.259 964.625Z"/><path fill="#3E2C66" transform="scale(0.666992 0.666992)" d="M874.739 972.144C872.951 971.499 870.982 971.076 870.582 969.048L871.512 968.587C873.533 968.862 873.98 969.426 875.694 970.693L874.739 972.144Z"/><path fill="#F4F4F3" transform="scale(0.666992 0.666992)" d="M873.488 962.568C877.379 958.987 878.079 960.418 883.372 961.237L879.8 966.268L878.315 967.954C875.484 967.066 874.611 966.34 872.259 964.625C872.471 963.45 872.586 963.673 873.488 962.568Z"/><path fill="#3E2C66" transform="scale(0.666992 0.666992)" d="M872.259 964.625C872.471 963.45 872.586 963.673 873.488 962.568L879.8 966.268L878.315 967.954C875.484 967.066 874.611 966.34 872.259 964.625Z"/><path fill="#F4F4F3" transform="scale(0.666992 0.666992)" d="M547.859 276.97L548.298 277.439C548.777 280.623 545.494 280.917 542.96 281.424L542.238 281.564C541.767 282.556 541.847 282.705 541.737 283.812C538.766 285.576 537.041 286.849 534.276 288.938L533.702 287.466C534.426 285.062 544.927 278.876 547.859 276.97Z"/><path fill="#F4F4F3" transform="scale(0.666992 0.666992)" d="M594.521 244.894L595.635 245.908L595.583 246.956C594.599 248.065 588.784 252.015 586.884 253.516L585.861 253.054L585.744 252.146C587.255 250.345 591.992 247.185 594.521 244.894Z"/><path fill="#F4F4F3" transform="scale(0.666992 0.666992)" d="M740.572 320.734C743.332 320.838 746.482 320.355 746.8 323.55C744.72 323.887 743.488 324.272 741.473 323.858C740.239 322.635 740.628 323.071 740.572 320.734Z"/><path fill="#F4F4F3" transform="scale(0.666992 0.666992)" d="M727.625 823.178C729.133 823.888 730.759 824.383 731.602 825.712L730.634 826.71C728.996 827.303 727.878 827.955 726.331 826.955C726.099 825.341 726.779 824.613 727.625 823.178Z"/><path fill="#F4F4F3" transform="scale(0.666992 0.666992)" d="M633.073 299.538C631.613 298.713 626.283 295.309 626.242 293.763C629.545 295.127 630.048 296.227 633.009 298L633.413 298.239L633.073 299.538Z"/><path fill="#F4F4F3" transform="scale(0.666992 0.666992)" d="M579.687 255.939C580.618 256.105 580.231 255.874 580.818 256.676C580.043 258.16 577.738 259.529 576.286 260.57C575.573 260.251 575.989 260.491 575.15 259.687C575.751 258.205 578.228 256.904 579.687 255.939Z"/><path fill="#F4F4F3" transform="scale(0.666992 0.666992)" d="M605.125 238.351C605.804 238.472 606.187 238.692 606.839 238.961L607.071 239.787C606.112 240.981 604.612 241.404 603.15 242.032L602.386 242.472L602.062 241.817C603.052 239.821 603.298 239.756 605.125 238.351Z"/><path fill="#D5CDE3" transform="scale(0.666992 0.666992)" d="M686.263 384.969C689.002 387.822 691.07 390.062 693.251 393.403C690.803 391.026 688.125 388.521 685.76 386.091L686.263 384.969Z"/><path fill="#3E2C66" transform="scale(0.666992 0.666992)" d="M354.042 364.18L413.721 364.307C431.038 364.318 449.87 363.058 466.764 366.919C482.268 370.463 497.832 378.92 509.211 390.085C546.018 426.201 540.783 491.237 505.03 526.126C486.84 543.948 462.526 554.107 437.406 557.332C426.486 558.733 415.697 558.317 404.751 558.249L370.7 558.127C366.427 558.121 362.093 558.207 357.815 558.252C350.621 590.367 342.18 622.924 334.526 654.998L286.158 655.028C288.767 642.619 291.744 629.919 294.793 617.603C315.616 533.462 333.379 448.309 354.042 364.18Z"/><path fill="#F4F4F3" transform="scale(0.666992 0.666992)" d="M391.802 405.981C408.152 405.906 441.72 404.053 455.622 408.347C466.473 411.699 475.101 418.651 480.303 428.798C487.745 443.315 487.415 461.749 482.376 476.985C477.366 492.133 467.718 502.186 453.645 509.244C436.576 517.037 423.983 516.052 405.89 515.996L366.81 515.729L391.802 405.981Z"/><path fill="#F4F4F3" transform="scale(0.666992 0.666992)" d="M967.008 533.757C985.468 515.22 1005.03 495.042 1024 477.227L1024 1024L185.649 1024L220.019 989.811C226.827 983.053 234.77 974.665 241.858 968.449C266.308 968.002 291.739 968.323 316.269 968.277L476.177 968.216L545.036 968.075C550.732 968.05 572.987 967.535 577.679 968.221L578.12 971.207C580.659 977.847 586.095 981.683 593.511 979.584C599.02 978.024 601.598 973.17 604.063 968.397L609.595 958.977L664.596 958.962C675.899 958.965 689.3 958.635 700.425 959.642C699.512 961.188 695.852 967.609 694.981 968.643C692.834 972.291 687.708 979.441 689.138 984.273C691.872 993.505 704.247 995.702 710.064 987.361C714.029 981.676 718.252 974.277 722.095 967.812C734.577 968.771 754.014 968.118 767.2 968.105L837.848 968.456C841.526 968.465 860.909 967.886 863.028 968.66C857.876 974.164 848.241 979.929 842.108 984.112C833.224 990.173 818.01 993.842 822.224 1007.66C826.674 1022.24 841.269 1023.17 853.814 1021.4C873.172 1018.67 888.442 1007.33 902.472 994.502C911.283 986.345 921.271 977.38 928.42 967.646C938.186 968.827 952.796 969.275 960.121 961.705C967.877 953.693 966.431 944.046 966.442 933.711L966.435 906.977L966.385 818.878L967.008 533.757Z"/><path fill="#D5CDE3" transform="scale(0.666992 0.666992)" d="M609.595 958.977L664.596 958.962C675.899 958.965 689.3 958.635 700.425 959.642C699.512 961.188 695.852 967.609 694.981 968.643C692.806 967.665 611.635 968.261 604.063 968.397L609.595 958.977Z"/><path fill="#F4F4F3" transform="scale(0.666992 0.666992)" d="M445.783 0L1024 0L1024 371.808L987.806 407.486C981.221 413.992 972.298 422.534 966.48 429.41L966.5 195.283L966.549 118.683C966.56 107.031 967.17 85.3723 965.825 72.9529C964.563 69.8077 962.673 66.3786 960.42 64.1061C951.682 55.2923 937.723 57.4862 925.976 57.5095L892.364 57.4303L775.883 57.4635L388.97 57.4552C392.216 53.0784 402.649 43.0795 406.941 38.8594C420.13 25.8921 433.04 13.4674 445.783 0Z"/><path fill="#F4F4F3" transform="scale(0.666992 0.666992)" d="M0 0L376.741 0C357.511 19.2391 339.394 38.1004 320.441 57.4661L143.684 57.4396L97.9831 57.3673C90.9861 57.3532 82.4904 56.9633 75.6999 57.7444C67.7874 58.6544 59.1936 69.1572 58.49 76.9183C57.7648 84.9192 58.257 92.7333 58.2278 100.697L58.0433 152.556L58.0971 321.104C53.5751 324.666 44.1576 334.581 39.7598 338.972L0 379.348L0 0Z"/><path fill="#F4F4F3" transform="scale(0.666992 0.666992)" d="M0 448.273C7.24659 441.97 15.4711 432.853 22.3794 425.879L58.029 390.294L58.095 650.956C58.1217 698.353 57.3025 747.299 58.2838 794.57C38.73 814.086 19.0655 833.284 0 853.279L0 448.273Z"/><path fill="#F4F4F3" transform="scale(0.666992 0.666992)" d="M0 869.287L38.0587 831.197C44.4132 824.868 51.541 817.308 57.9775 811.276C57.9921 828.339 57.7231 846.155 58.1034 863.143C45.1768 877.789 29.6961 891.279 16.1654 905.447C13.1309 908.624 6.03672 914.93 11.0248 919.574C11.8822 920.372 15.2443 920.585 16.4798 920.26C28.6257 911.11 46.9722 888.233 58.0129 879.944L58.0212 925.646C58.0224 930.033 58.3096 935.652 58.0351 939.916C55.8184 974.348 81.8087 968.3 107.38 967.971C96.3201 978.932 85.2303 989.79 73.9896 1000.56C66.3613 1007.87 58.2957 1017.38 50.2138 1024L0 1024L0 869.287Z"/><path fill="#F4F4F3" transform="scale(0.666992 0.666992)" d="M123.215 968.096C157.368 967.948 192.042 968.944 226.16 968.136C207.477 985.971 187.459 1005.6 169.29 1024L66.7477 1024C85 1005.78 104.7 985.951 123.215 968.096Z"/><path fill="#F4F4F3" transform="scale(0.666992 0.666992)" d="M1024 387.766L1024 459.662C1018.38 466.75 1007.44 476.883 1000.89 483.476C989.474 494.974 977.872 506.369 966.957 518.373L966.96 443.021C985.671 426.058 1005.88 405.652 1024 387.766Z"/><path fill="#F4F4F3" transform="scale(0.666992 0.666992)" d="M392.386 0L429.626 0C421.713 8.91043 413.675 16.3611 405.248 24.6703L372.637 57.2667C361.119 57.7739 347.386 57.4899 335.712 57.5026C339.386 52.8306 349.916 42.9134 354.632 38.1881L392.386 0Z"/><path fill="#F4F4F3" transform="scale(0.666992 0.666992)" d="M57.9966 336.637C57.2719 348.575 58.0669 361.41 57.741 373.457C54.8529 377.374 45.1434 386.674 41.137 390.709L15.199 417.112C10.5379 421.83 4.36228 427.644 0 432.445L0 395.74C12.8979 382.079 26.3339 368.967 39.5031 355.579C45.6016 349.38 52.3636 343.162 57.9966 336.637Z"/><path fill="#F4F4F3" transform="scale(0.666992 0.666992)" d="M181.625 66.7458L260.25 66.9179C276.948 66.8978 293.858 66.4075 310.54 66.7792C306.615 71.6516 295.951 81.7295 291.042 86.6483L251.874 125.849L132.356 246.053C112.088 266.248 87.8962 289.352 68.9718 310.34C68.046 293.881 68.5133 273.869 68.4646 257.16L68.3379 163.909C92.4527 139.038 117.582 115.047 141.861 90.3243C149.57 82.4741 157.162 74.5146 165.266 67.068L181.625 66.7458Z"/><path fill="#F4F4F3" transform="scale(0.666992 0.666992)" d="M326.381 66.5249C338.744 66.3749 351.366 66.4939 363.75 66.4806L87.0591 344.715C80.5576 351.286 74.927 357.425 68.7413 364.328C68.3416 353.068 68.289 337.247 68.7961 326.036L326.381 66.5249Z"/><path fill="#F4F4F3" transform="scale(0.666992 0.666992)" d="M78.4062 66.6977L151.098 66.4213C147.332 69.0402 138.593 78.1484 134.881 81.8598L105.014 111.718C92.5247 123.677 80.6393 135.854 68.5483 148.203L68.4872 100.415C68.4801 95.5208 68.5183 90.5148 68.4498 85.6274C68.3301 77.0706 67.674 68.5162 78.4062 66.6977Z"/></svg>