<?xml version="1.0" encoding="utf-8" ?><svg xmlns="http://www.w3.org/2000/svg" xmlns:xlink="http://www.w3.org/1999/xlink" width="1024" height="683" viewBox="0 0 1024 683"><path fill="#7B74D4" transform="scale(0.666667 0.666992)" d="M0 0L371 0L1536 0L1536 1024L1529.6 1024L0 1024L0 0Z"/><path fill="#FEFEFE" transform="scale(0.666667 0.666992)" d="M371 0L1536 0L1536 1024L1529.6 1024C1498.8 1015.34 1468.07 1005.28 1437.43 995.841C1368.92 974.729 1301.1 951.253 1234.4 924.956C1227.31 922.162 1217.66 918.682 1211.22 914.988C1188.85 922.872 1166.92 932.448 1144.52 940.251C1141.84 941.185 1138.33 941.943 1135.62 940.968C1130.88 935.72 1115.95 894.723 1111.95 885.076C1108.88 890.899 1106.37 896.786 1103.51 902.592C1098.51 911.645 1094.86 924.905 1087.46 932.272C1071.3 947.902 1056.22 939.797 1039.23 931.986C1004.83 916.161 969.433 902.082 935.138 886.285L819.162 928.114C799.617 935.254 779.958 943.035 760.03 948.859C757.065 949.535 754.288 949.398 751.308 949.159C731.59 947.573 727.241 928.382 721.256 912.975C716.823 901.565 712.592 889.924 708.279 878.407L669.854 777.024C656.368 740.576 676.064 738.38 705.45 727.78L754.523 710.263L903.625 656.229C888.858 648.6 761.02 474.296 739.829 446.482L684.343 373.838C669.983 355.071 653.725 334.301 641.045 314.566C655.036 307.926 665.236 302.318 678.383 294.439C697.392 297.507 713.382 299.642 733.052 299.642C787.726 299.332 846.08 283.419 886.18 244.725C925.232 207.043 925.704 152.433 887.066 114.427C846.629 74.6496 790.262 60.398 735.058 59.623C665.285 58.6434 559.2 97.4444 559.511 181.069C555.602 176.059 549.417 170.018 544.836 165.39C505.006 125.047 464.221 85.7045 423.016 46.7706C406.151 30.835 387.576 16.0829 371 0Z"/><path fill="#3A3363" transform="scale(0.666667 0.666992)" d="M915.121 652.686C932.452 611.569 951.075 570.713 969.344 529.978L983.865 497.445C996.064 469.428 1001.42 449.964 1036.77 465.692C1069.67 480.331 1104 493.696 1136.99 508.17L1211.85 540.638C1222.81 545.343 1235.05 549.84 1245.43 555.545C1253.13 560.208 1259.07 574.634 1256.27 583.049C1251.82 596.383 1245.47 610.345 1239.55 623.139C1228.79 646.355 1219.92 671.793 1208.67 694.616C1255.78 676.765 1303.5 660.515 1350.44 642.142C1355.47 640.173 1364.79 636.231 1370.26 637.233C1372.19 637.861 1376.32 644.172 1377.33 645.968C1393.28 674.717 1408.56 704.025 1424.26 732.883L1457.02 793.875C1460.1 799.689 1469.18 812.077 1466.04 817.807C1463.44 819.693 1459.96 820.733 1456.95 821.878C1375.45 852.832 1291.8 881.814 1211.22 914.988C1188.85 922.872 1166.92 932.448 1144.52 940.251C1141.84 941.185 1138.33 941.943 1135.62 940.968C1130.88 935.72 1115.95 894.723 1111.95 885.076C1108.88 890.899 1106.37 896.786 1103.51 902.592C1098.51 911.645 1094.86 924.905 1087.46 932.272C1071.3 947.902 1056.22 939.797 1039.23 931.986C1004.83 916.161 969.433 902.082 935.138 886.285L819.162 928.114C799.617 935.254 779.958 943.035 760.03 948.859C757.065 949.535 754.288 949.398 751.308 949.159C731.59 947.573 727.241 928.382 721.256 912.975C716.823 901.565 712.592 889.924 708.279 878.407L669.854 777.024C656.368 740.576 676.064 738.38 705.45 727.78L754.523 710.263L903.625 656.229C907.719 654.808 910.922 653.704 915.121 652.686Z"/><path fill="#FEFEFE" transform="scale(0.666667 0.666992)" d="M916.44 661.06C925.316 660.431 932.847 664.377 936.425 672.795C940.098 681.436 943.309 690.493 946.674 699.286L969.295 758.713L987.551 805.571C991.465 815.494 995.908 825.692 998.71 835.989C1000.25 841.635 1000.59 847.186 997.206 852.248C995.165 855.297 992.396 857.861 988.954 859.275C977.882 863.201 966.582 866.88 955.524 870.85L869.99 901.62L794.663 928.919C784.936 932.419 766.08 939.897 757.152 941.967C750.245 941.84 740.567 939.339 737.473 932.318C733.58 923.485 730.406 913.868 727.029 904.785L708.311 855.339L686.102 796.931C681.896 785.875 677.355 774.61 673.934 763.421C671.711 756.15 675.547 747.297 682.619 744.573C694.8 739.88 707.355 735.451 719.618 731.032L801.56 701.807L876.637 674.452C887.001 670.713 906.552 663.126 916.44 661.06Z"/><path fill="#3C3960" transform="scale(0.666667 0.666992)" d="M913.258 670.65C920.836 668.46 927.816 672.641 930.727 679.812C939.536 701.512 947.114 723.832 955.612 745.617L978.884 805.627C982.727 815.714 986.774 825.825 990.122 836.086C992.149 841.966 991.618 847.713 985.08 850.331C965.255 858.268 944.53 864.482 924.516 871.822L760.66 931.459C748.924 933.855 744.849 929.644 740.896 918.912C729.78 888.739 718.568 858.59 707.127 828.538L691.248 787.348C687.804 778.331 675.717 756.007 689.922 750.993C764.453 724.686 838.597 696.557 913.258 670.65Z"/><path fill="#FEFEFE" transform="scale(0.666667 0.666992)" d="M916.601 678.269C918.558 678.079 918.79 678.195 920.741 678.639C924.065 681.552 939.75 725.626 942.63 733.135L984.253 842.208C975.758 846.334 958.347 851.886 948.817 855.279L882.899 878.774L804.046 907.723C789.018 913.246 772.619 919.561 757.369 924.159C752 923.345 750.349 922.431 748.483 917.14C730.951 867.411 711.049 818.563 692.965 769.042C690.854 763.26 689.723 758.538 696.63 756.402C733.26 742.709 770.467 730.489 807.187 717.08L874.849 692.48C886.729 688.19 904.8 681.221 916.601 678.269Z"/><path fill="#3C3960" transform="scale(0.666667 0.666992)" d="M807.68 736.228C813.111 737.385 839.63 764.585 844.79 770.145C852.105 767.842 885.826 754.605 890.757 756.709C891.915 757.203 891.851 757.764 892.343 758.848C891.827 765.63 875.794 792.424 871.475 801.821C876.657 808.94 881.993 816.103 887.061 823.294C890.205 827.754 900.534 839.948 897.609 845.021C892.448 846.359 866.118 840.508 858.587 839.082L848.555 837.083C839.823 848.068 831.792 859.716 823.405 870.961C821.694 873.255 820.039 874.785 817.136 874.214C813.06 869.942 809.151 836.371 807.511 827.764C799.88 825.33 762.873 816.164 762.464 809.523C765.202 804.644 796.566 790.313 804.549 785.79C804.603 776.345 803.19 741.906 807.68 736.228Z"/><path fill="#EAB951" transform="scale(0.666667 0.666992)" d="M812.544 749.727C822.496 758.051 833.225 769.541 843.245 778.484C855.877 774.683 870.329 770.332 882.416 765.221C876.45 777.551 868.933 789.33 862.469 801.508C868.343 811.449 880.417 826.243 887.722 837.374C877.635 834.919 867.243 832.998 857.045 830.992L844.808 828.942C837.259 839.887 828.907 850.976 821.009 861.731C818.673 848.594 816.672 835.05 814.053 822.029C803.52 818.096 786.042 813.336 774.716 809.79C785.999 803.337 802.052 797.242 812.176 790.508L812.544 749.727Z"/><path fill="#3C3960" transform="scale(0.666667 0.666992)" d="M820.312 766.163C825.105 767.885 836.729 781.484 841.034 786.05C846.228 784.539 861.198 777.571 864.913 780.702C865.181 785.328 857.207 797.275 854.403 801.975C858.121 807.847 863.165 813.056 867.019 818.823C868.709 821.353 869.517 822.952 867.414 825.335C862.055 826.952 851.864 823.487 846.177 822L841.501 820.969C838.983 825.334 830.675 843.564 824.786 840.012C821.491 834.637 821.295 823.319 820.739 816.624C815.308 815.301 798.772 812.687 797.535 807.411C799.598 803.272 813.85 796.846 818.831 794.194C818.655 786.433 816.503 771.879 820.312 766.163Z"/><path fill="#EAB951" transform="scale(0.666667 0.666992)" d="M826.061 781.353C827.463 782.388 836.575 793.26 838.321 795.301C844.066 793.488 847.778 792.31 853.314 789.797C849.819 794.898 847.83 798.133 844.888 803.569L855.86 816.939C851.231 815.073 846.45 813.758 841.664 812.345L839.611 812.2C836.917 814.255 831.434 822.494 829.021 825.861C828.887 820.916 828.514 815.47 828.266 810.491L811.61 806.597C816.757 804.516 822.436 801.839 827.553 799.546C826.695 793.664 826.437 787.313 826.061 781.353Z"/><path fill="#FEFEFE" transform="scale(0.666667 0.666992)" d="M1366.54 644.477C1371.29 648.268 1451.34 798.353 1458.18 813.298C1448.96 816.137 1435.21 821.68 1425.83 825.15L1363.42 848.48L1181.1 918.227C1169.1 922.155 1152.32 929.38 1139.73 934.09C1128.91 905.549 1116.84 876.735 1105.95 848.208C1104.82 844.78 1107.48 837.366 1109.24 834.488C1134.14 793.635 1159.82 752.662 1184.39 711.623C1228.29 694.387 1273.39 679.3 1317.49 662.48C1333.67 656.311 1350.13 649.912 1366.54 644.477Z"/><path fill="#3A3363" transform="scale(0.666667 0.666992)" d="M1170.06 819.715C1189 818.629 1205.23 833.082 1206.35 852.018C1207.47 870.953 1193.04 887.217 1174.12 888.366C1155.14 889.518 1138.84 875.05 1137.72 856.07C1136.6 837.091 1151.09 820.804 1170.06 819.715Z"/><path fill="#FEFEFE" transform="scale(0.666667 0.666992)" d="M1167.99 825.601C1183.58 823.3 1198.12 833.982 1200.59 849.553C1203.06 865.124 1192.54 879.783 1177 882.422C1166.8 884.155 1156.45 880.271 1149.9 872.251C1143.36 864.231 1141.63 853.313 1145.37 843.661C1149.11 834.008 1157.75 827.111 1167.99 825.601Z"/><path fill="#3A3363" transform="scale(0.666667 0.666992)" d="M1163.69 830.144C1170.29 830.717 1172.7 835.189 1176.69 839.956C1180.66 838.738 1192.43 834.01 1192.76 842.805C1192.92 847.268 1187.75 851.459 1184.59 854.378C1188.3 858.729 1195.85 866.212 1189.62 871.364C1185.08 872.425 1182.05 870.629 1177.97 868.707L1176.01 867.807C1171.3 869.368 1167.51 878.778 1162.48 876.394C1159.95 871.877 1160.37 866.36 1160.4 861.24C1155.83 859.452 1149.3 857.9 1148.56 852.515C1150.64 847.958 1156.65 846.489 1161.46 844.559C1160.59 838.39 1160.25 835.209 1163.69 830.144Z"/><path fill="#FEFEFE" transform="scale(0.666667 0.666992)" d="M1167.53 840.653C1169.63 843.366 1171.6 846.199 1173.58 848.997C1178.14 847.661 1182.04 845.906 1186.39 844.052C1181.95 847.544 1179.9 849.239 1175.93 853.397C1177.6 856.556 1180.15 859.424 1182.29 862.441L1181.87 862.783L1178.65 861.14C1175.17 859.564 1175.1 859.132 1171.77 859.601C1168.41 861.896 1169.99 864.195 1167.4 866.157L1167.64 858.125C1165.1 853.152 1162.57 855.543 1158.88 853.463C1161.35 851.999 1164.44 851.318 1167.25 850.511C1167.17 847.471 1167.41 843.743 1167.53 840.653Z"/><path fill="#3C3960" transform="scale(0.666667 0.666992)" d="M1351.77 698.354C1353.28 698.58 1353.66 698.898 1355.06 699.539C1356.14 701.831 1356.07 700.689 1355.34 703.076C1349.71 708.89 1231.95 750.956 1214.76 756.155C1213.22 756.272 1213.05 755.976 1211.71 755.185C1210.43 752.938 1210.65 754.115 1211.05 751.525C1212.73 749.514 1215.22 748.532 1217.66 747.642C1262.33 731.36 1307.63 716.037 1351.77 698.354Z"/><path fill="#3C3960" transform="scale(0.666667 0.666992)" d="M1377.16 777.146C1380.18 777.301 1379.32 776.863 1381.64 778.35C1382.51 780.593 1382.53 779.515 1381.64 781.691C1377.43 785.724 1348.98 795.189 1341.91 797.908L1245.5 834.263C1242.61 834.31 1243.36 834.718 1241.35 833.332C1240.37 830.944 1240.4 831.957 1241.09 829.596C1245.2 824.956 1273.56 816.309 1281.4 813.237C1313.1 800.804 1345.51 789.729 1377.16 777.146Z"/><path fill="#3C3960" transform="scale(0.666667 0.666992)" d="M1305.67 760.632C1308.11 760.502 1308.8 761.592 1310 763.306L1309.62 765.119C1304.36 770.161 1240.67 792.157 1228.87 796.628C1227.99 796.546 1227.2 796.125 1226.35 795.78C1224.53 793.434 1224.77 794.43 1224.78 791.844C1227.15 788.214 1295.3 764.864 1305.67 760.632Z"/><path fill="#FEFEFE" transform="scale(0.666667 0.666992)" d="M1016.5 485.099C1022.61 485.984 1048.63 497.664 1055.36 500.562L1135.16 535.193C1166.31 548.76 1202.08 562.226 1232.35 576.835C1213.63 623.386 1192.29 669.664 1172.74 715.914C1170.5 721.226 1164 730.756 1160.76 736.007C1130.06 726.111 1100.33 711.127 1069.91 700.23C1065.07 698.496 1060.11 696.302 1055.37 694.291L982.691 663.772C977.091 661.468 965.15 654.391 959.472 656.844L959.151 658.101C961.757 662.841 968.048 664.38 973.125 666.286C1022.16 686.937 1071.18 707.306 1120.62 726.966C1132.57 731.718 1145.94 736.846 1157.43 742.375L1146.58 759.769C1134.42 754.069 1119.21 748.325 1106.5 743.059L1034.76 712.949C1008.92 701.97 971.804 683.762 946.436 675.342C943.925 669.774 942.447 666.357 939.099 661.189C943.149 649.889 949.361 636.356 954.166 625.283L982.364 561.553C992.974 537.904 1005.11 507.52 1016.5 485.099Z"/><path fill="#3C3960" transform="scale(0.666667 0.666992)" d="M1050.88 619.806C1063.8 618.346 1078.19 629.141 1090.63 632.911C1105.29 637.351 1106.72 650.012 1099.93 662.34C1093.78 673.503 1091.07 692.105 1078.2 697.251C1068.46 698.545 1042.98 685.25 1032.82 680.389C1015.42 671.371 1034.66 647.454 1038.52 635.052C1040.56 628.479 1045.17 622.923 1050.88 619.806Z"/><path fill="#FEFEFE" transform="scale(0.666667 0.666992)" d="M1053.81 624.859C1055.05 625.078 1058.09 625.621 1059 626.089C1068.43 630.96 1089.67 637.777 1097.08 643.763C1102.47 648.111 1084.25 683.725 1080.71 689.135C1080.04 690.153 1077.21 691.37 1076.18 691.805C1068.37 691.864 1052.96 683.023 1045.17 680.115C1034.7 676.208 1027.42 671.15 1033.99 659.462C1038.98 650.597 1044.54 628.813 1053.81 624.859Z"/><path fill="#3C3960" transform="scale(0.666667 0.666992)" d="M1071.08 641.011C1072.27 642.099 1071.76 641.45 1072.31 643.241C1069.51 650.495 1060.65 669.676 1056.81 676.309L1056.05 675.512C1055.27 671.986 1068.5 645.832 1071.08 641.011Z"/><path fill="#3C3960" transform="scale(0.666667 0.666992)" d="M1089.3 537.196C1093.23 536.867 1097.03 536.928 1100.73 538.68C1109.76 542.818 1118.98 547.311 1128.29 550.824C1141.1 555.657 1142.78 564.567 1137.57 576.376C1132.8 587.203 1128.22 599.417 1121.31 609.024C1120.28 610.448 1116.95 611.792 1115.27 612.495C1104.28 614.167 1092.19 605.98 1082.18 602.185C1070.25 597.667 1060.25 591.124 1066.1 577.142C1071.19 564.992 1076.18 551.781 1083.47 540.815C1084.18 539.742 1088.04 537.827 1089.3 537.196Z"/><path fill="#FEFEFE" transform="scale(0.666667 0.666992)" d="M1089.66 543.092C1090.21 543.055 1090.76 543.022 1091.32 543.004C1097.73 542.794 1128.29 556.385 1132.89 561.044C1134.08 562.249 1134.66 563.326 1134.57 565.07C1134.19 572.496 1120.51 602.166 1114.83 606.868C1107 608.182 1078.58 594.334 1072.14 589.011C1066.11 584.023 1084.83 547.445 1089.66 543.092Z"/><path fill="#3C3960" transform="scale(0.666667 0.666992)" d="M1108.38 558.546C1109.6 559.198 1109.06 558.738 1109.67 560.342C1108.22 565.481 1098.78 584.117 1095.93 589.842L1095 589.141C1094.54 585.36 1105.99 563.435 1108.38 558.546Z"/><path fill="#3A3363" transform="scale(0.666667 0.666992)" d="M1075.47 609.008C1080.4 610.895 1088.46 613.198 1091.33 617.356C1091.68 620.121 1091.75 619.062 1090.02 621.908C1084.77 619.692 1076.61 617.965 1073.37 613.854C1073.23 611.068 1073.51 611.62 1075.47 609.008Z"/><path fill="#3A3363" transform="scale(0.666667 0.666992)" d="M1082.39 714.912C1086.52 716.174 1091.22 717.06 1093.73 720.513C1094.04 723.501 1094.16 722.315 1092.19 725.553L1089.73 724.769C1085.93 723.538 1082.62 723.006 1080.77 719.396C1080.92 716.479 1080.62 717.63 1082.39 714.912Z"/><path fill="#FEFEFE" transform="scale(0.666667 0.666992)" d="M949.518 683.105C956.353 685.963 963.297 688.784 970.063 691.785C1027.53 717.269 1085.56 741.229 1143.74 765.031C1130 788.23 1114.72 810.616 1101.11 833.849C1098.12 838.949 1099.89 850.874 1097.17 855.36C1092.26 863.438 1072.79 912.241 1067.24 914.526C1060.3 914.245 1037.23 903.098 1029.5 899.66C1020.1 895.123 1007.81 890.193 998.052 885.982C1002.81 880.612 1007.77 870.842 1010.51 864.103C1014.44 854.466 1024.44 839.865 1022.41 829.505C1021.49 824.846 1004.27 817.606 999.875 815.477C998.127 811.199 996.313 805.991 994.67 801.607C1006.44 807.169 1030.91 822.911 1037.77 805.877C1042.79 793.404 1054.74 772.207 1057.58 759.848C1054.46 746.888 1049.05 747.728 1038.33 742.725C998.436 724.096 998.434 729.251 980.489 765.408C971.043 742.515 957.306 706.474 949.518 683.105Z"/><path fill="#FEFEFE" transform="scale(0.666667 0.666992)" d="M1012.58 467.507C1016.01 467.272 1019.1 466.999 1022.36 468.226C1032.21 471.925 1042.08 476.163 1051.76 480.265L1109.29 505.062C1150.44 522.852 1191.95 540.233 1233.19 557.845C1241.22 561.273 1244.91 563.283 1248.1 571.651C1249.68 575.146 1249.03 581.791 1247.56 585.282C1231.83 622.57 1215.54 661.07 1198.91 697.936L1186.86 702.367C1192.26 690.841 1197.43 677.577 1202.51 665.751L1240.29 577.757C1239.86 575.957 1238.53 572.951 1237.79 571.132C1226.83 564.919 1199.62 554.088 1187.44 548.857L1075.01 500.791C1064.19 496.219 1023.9 477.393 1014.86 477.807C1007.42 482.023 992.687 519.996 988.334 529.898L955.253 604.483C948.169 620.725 940.081 640.91 932.231 656.484C929.457 655.491 925.902 654.515 923.025 653.64C945.882 596.662 974.832 539.733 998.258 482.768C1001.61 474.625 1004.48 470.765 1012.58 467.507Z"/><path fill="#FEFEFE" transform="scale(0.666667 0.666992)" d="M1005.01 738.297C1012.79 737.744 1048.47 751.049 1050.99 758.85C1050.69 764.755 1033.4 802.852 1029.3 807.257C1027.99 807.547 1025.53 808.016 1024.31 807.581C1013.72 803.819 1001.27 797.503 991.117 792.797C988.724 787.93 985.279 777.734 983.274 772.301C989.892 761.814 995.158 743.976 1005.01 738.297Z"/><path fill="#3C3960" transform="scale(0.666667 0.666992)" d="M1017.12 757.484C1020.58 757.408 1024.35 759.77 1027.52 761.394C1026.06 763.68 1023.11 767.356 1021.39 769.647C1019.59 770.953 1020.5 770.798 1018.69 770.656C1018.14 767.177 1021.83 765.312 1021.15 762.122C1017.67 760.844 1017.58 760.93 1017.12 757.484Z"/><path fill="#FEFEFE" transform="scale(0.666667 0.666992)" d="M1102.07 862.386C1104.27 864.024 1106.82 872.023 1107.89 874.953C1100.71 888.523 1088.03 926.122 1075.09 931.656C1071.01 933.402 1066.07 933.824 1061.75 932.775C1050.94 930.15 1039.74 923.615 1029.51 919.122C1004.61 908.186 979.753 896.823 954.495 886.769L945.24 882.816L959.019 877.667C988.937 890.06 1018.63 903.064 1048.23 916.17C1053.02 918.287 1058.31 920.865 1063.25 922.203C1073.5 924.976 1077.63 916.249 1080.94 908.53C1088.06 893.13 1094.7 877.569 1102.07 862.386Z"/><defs><linearGradient id="gradient_0" gradientUnits="userSpaceOnUse" x1="1011.585" y1="855.57758" x2="978.76105" y2="850.34753"><stop offset="0" stop-color="#E1DCE4"/><stop offset="1" stop-color="#F2F1EC"/></linearGradient></defs><path fill="url(#gradient_0)" transform="scale(0.666667 0.666992)" d="M1003.45 824.544C1008.67 826.287 1014.37 828.195 1016.42 833.718C1016.49 839.431 997.665 877.531 992.705 882.966L983.519 879.231C979.339 877.562 975.185 875.777 971.038 874.023C1000.01 865.844 1016.26 858.095 1003.45 824.544Z"/><path fill="#3A3363" transform="scale(0.666667 0.666992)" d="M1150.95 156.355C1168.88 154.9 1192.05 157.169 1209.99 160.899C1224.21 163.854 1269.82 173.362 1258.98 196.519C1255.93 203.028 1245.66 212.525 1240.92 218.983C1224.5 241.315 1214.23 267.2 1208.77 294.265C1207.48 302.386 1204.11 312.237 1194.34 312.529C1180.91 312.93 1161.58 299.416 1151.61 291.378C1127.6 272.01 1116.93 245.899 1115.01 215.645C1113.96 202.281 1113.3 176.231 1122.24 165.374C1128.94 157.24 1141.34 156.937 1150.95 156.355Z"/><path fill="#FEFEFE" transform="scale(0.666667 0.666992)" d="M1149.83 161.654C1168.22 161.037 1189.05 162.384 1207.3 166.125C1221.73 169.685 1243.75 172.903 1253.61 184.852C1258.65 190.943 1251.65 198.602 1247.45 203.174C1225.33 227.28 1213.18 255.013 1205.21 286.352C1203.93 293.042 1202.68 307.545 1193.73 307.56C1183.48 307.577 1166.37 296.119 1158.21 290.094C1136.67 274.175 1123.92 251.244 1121.33 224.667C1119.86 211.091 1117.03 180.947 1125.82 169.092C1130.84 162.326 1142.2 162.111 1149.83 161.654Z"/><path fill="#3A3363" transform="scale(0.666667 0.666992)" d="M1205.33 196.62C1209.81 195.991 1214.48 197.215 1215.93 201.842C1219.2 212.299 1199.8 216.186 1193.41 218.367C1181.52 222.421 1169.65 225.35 1158.18 230.062C1156.07 230.273 1154.02 230.232 1152.02 229.464C1149.99 228.688 1148.53 227.011 1147.69 225.043C1146.8 222.953 1146.78 220.436 1147.8 218.385C1150.73 212.476 1196.79 199.163 1205.33 196.62Z"/><path fill="#7B74D4" transform="scale(0.666667 0.666992)" d="M1208.55 201.022C1211.33 202.079 1210.64 201.342 1211.69 203.561L1211.06 205.256C1207.06 208.953 1164.11 222.539 1155.93 225.348C1154.24 225.339 1153.43 224.668 1151.96 223.824C1151.63 222.382 1151.85 222.615 1152.54 220.963C1157.47 216.795 1199.64 203.927 1208.55 201.022Z"/><path fill="#3A3363" transform="scale(0.666667 0.666992)" d="M1166.42 233.729C1171.9 231.984 1177.76 235.034 1179.48 240.53C1181.2 246.027 1178.12 251.873 1172.62 253.568C1167.15 255.251 1161.35 252.199 1159.65 246.738C1157.94 241.277 1160.96 235.463 1166.42 233.729Z"/><path fill="#7B74D4" transform="scale(0.666667 0.666992)" d="M1167.87 238.236C1169.74 237.74 1171.72 238.291 1173.06 239.677C1174.4 241.062 1174.89 243.064 1174.34 244.911C1173.78 246.758 1172.27 248.16 1170.39 248.576C1167.56 249.201 1164.76 247.451 1164.07 244.638C1163.39 241.824 1165.08 238.98 1167.87 238.236Z"/><path fill="#3A3363" transform="scale(0.666667 0.666992)" d="M1155.19 181.533C1157.91 180.331 1161.07 180.685 1163.46 182.461C1165.85 184.237 1167.1 187.16 1166.73 190.114C1166.36 193.068 1164.43 195.596 1161.68 196.732C1157.5 198.458 1152.71 196.501 1150.93 192.34C1149.15 188.179 1151.05 183.362 1155.19 181.533Z"/><path fill="#7B74D4" transform="scale(0.666667 0.666992)" d="M1156.76 186.657C1157.74 185.976 1159.01 185.907 1160.06 186.48C1161.1 187.053 1161.73 188.168 1161.68 189.356C1161.62 190.545 1160.9 191.602 1159.82 192.083C1158.34 192.735 1156.62 192.161 1155.83 190.757C1155.04 189.353 1155.44 187.579 1156.76 186.657Z"/><path fill="#3A3363" transform="scale(0.666667 0.666992)" d="M1357.26 350.517C1386.93 348.616 1412.56 371.056 1414.6 400.725C1416.64 430.394 1394.33 456.137 1364.68 458.323C1334.82 460.524 1308.87 438.022 1306.82 408.15C1304.76 378.279 1327.38 352.431 1357.26 350.517Z"/><path fill="#FEFEFE" transform="scale(0.666667 0.666992)" d="M1353.96 358.305C1379.41 354.561 1403.05 372.239 1406.67 397.717C1410.28 423.195 1392.48 446.752 1366.99 450.236C1341.69 453.695 1318.34 436.052 1314.76 410.757C1311.17 385.463 1328.69 362.022 1353.96 358.305Z"/><path fill="#3A3363" transform="scale(0.666667 0.666992)" d="M1376.32 379.448C1378.25 380.276 1378.28 380.367 1379.59 382.079C1380.85 386.613 1379.33 394.021 1378.64 398.933C1395.93 415.33 1395.18 415.491 1372.65 420.607C1370.28 425.934 1367.71 433.605 1363.05 436.791C1356.71 437.694 1354.66 430.407 1352.21 425.46C1347.41 414.604 1332.94 421.789 1330.97 413.646C1332.33 408.448 1338.68 403.775 1342.78 400.172C1342.05 395.18 1339.48 385.511 1342.03 381.72C1346.68 380.555 1353.59 385.239 1359.85 386.865L1360.81 387.107C1365.98 384.481 1371.08 381.96 1376.32 379.448Z"/><path fill="#4653DC" transform="scale(0.666667 0.666992)" d="M1361.29 395.214L1372.69 388.436C1372.36 393.122 1371.93 397.781 1371.52 402.459L1382.92 411.885C1378.17 412.914 1372.28 413.154 1367.9 414.622C1365.59 419.683 1364.25 422.671 1361.21 427.422C1358.49 423.113 1356.42 418.233 1354.3 413.585L1339.77 411.812C1343.74 408.587 1346.73 406.138 1350.41 402.514C1349.42 397.876 1348.69 393.729 1347.92 389.059C1352.85 391.601 1356.06 393.124 1361.29 395.214Z"/><path fill="#3A3363" transform="scale(0.666667 0.666992)" d="M846.752 407.189C875.618 402.108 903.139 421.391 908.225 450.263C913.312 479.135 894.04 506.667 865.176 511.762C836.302 516.858 808.766 497.574 803.678 468.692C798.589 439.81 817.876 412.272 846.752 407.189Z"/><path fill="#FEFEFE" transform="scale(0.666667 0.666992)" d="M855.887 413.86C880.951 413.796 901.379 433.955 901.652 459.023C901.925 484.091 881.942 504.691 856.883 505.174C831.527 505.662 810.634 485.384 810.358 460.019C810.081 434.654 830.527 413.926 855.887 413.86Z"/><path fill="#3A3363" transform="scale(0.666667 0.666992)" d="M854.2 429.031C864.946 431.034 865.32 438.825 868.471 447.964C873.457 449.827 884.596 451.732 886.546 458.019C889.04 466.06 874.722 469.831 869.059 471.711C865.234 479.76 866.456 485.824 858.329 490.27C846.861 489.605 846.556 482.206 843.756 472.709C838.868 469.85 827.114 467.457 825.179 460.817C822.965 453.221 838.333 449.393 843.438 447.901C847.237 439.954 845.38 433.749 854.2 429.031Z"/><path fill="#4653DC" transform="scale(0.666667 0.666992)" d="M853.632 433.768L855.755 434.084C859.556 436.489 861.312 446.122 864.342 451.653L864.806 452.49C869.385 454.707 878.85 455.77 881.229 460.112C879.609 463.665 868.918 466.235 864.482 468.039C862.492 473.241 860.469 481.913 857.926 485.888C856.523 486.173 855.906 485.96 854.52 485.712C848.258 480.873 851.756 474.505 846.913 468.752C843.254 464.405 833.428 464.877 830.366 460.205C831.906 455.24 843.918 454.564 846.716 451.58C850.257 447.804 850.583 439.643 853.632 433.768Z"/><path fill="#3A3363" transform="scale(0.666667 0.666992)" d="M1455.71 512.999C1461.73 515.271 1464.31 524.847 1466.81 530.753C1472.01 531.097 1482.94 530.769 1485.8 535.347C1485.04 540.021 1476.69 545.946 1472.82 549.546C1474.18 555.001 1479.13 567.173 1473.11 570.006C1467.7 569.851 1461.52 565.266 1456.83 562.339C1453.39 561.683 1443.91 571.907 1436.83 569.912C1434.58 566.112 1438.56 554.722 1439.8 549.468C1435.42 545.899 1425.45 539.999 1428.6 533.739C1433.41 530.398 1439.89 531.169 1445.91 531.088C1448.24 525.378 1450.98 516.544 1455.71 512.999Z"/><path fill="#FEFEFE" transform="scale(0.666667 0.666992)" d="M1456.06 524.262C1463.42 536.902 1456.44 537.546 1475.02 538.143L1464.88 547.567C1465.97 551.767 1467.4 556.153 1468.68 560.318C1464.92 558.385 1460.57 555.764 1456.83 553.643C1454.16 554.136 1446.98 559.178 1444.4 560.888L1448.18 547.345C1445.71 544.754 1440.4 540.52 1437.51 538.061C1442.03 537.836 1446.69 537.457 1451.22 537.151C1452.94 533.216 1454.57 528.354 1456.06 524.262Z"/><path fill="#3C3960" transform="scale(0.666667 0.666992)" d="M1025.3 392.63C1030.29 393.313 1039.69 402.669 1039.76 408.354C1034.56 407.735 1025.35 398.451 1025.3 392.63Z"/><path fill="#3A3363" transform="scale(0.666667 0.666992)" d="M884.753 311.022C888.158 311.266 899.742 314.244 902.206 317.023C903.117 318.05 902.725 318.529 902.609 320.19C899.194 320.045 888.664 317.535 885.979 315.086C884.565 313.798 884.925 313.032 884.753 311.022Z"/><path fill="#3C3960" transform="scale(0.666667 0.666992)" d="M944.442 335.801C949.063 335.637 956.221 340.122 960.02 342.775C962.425 344.455 962.042 345.145 962.241 347.641C958.12 347.026 949.196 342.406 945.9 339.632C944.187 338.191 944.607 338.055 944.442 335.801Z"/><path fill="#3A3363" transform="scale(0.666667 0.666992)" d="M820.815 296.94C824.903 296.975 835.497 297.782 838.99 300.045C840.014 300.709 839.821 301.715 840.062 303.248C836.15 303.401 825.837 302.684 822.265 300.841C820.933 300.153 821.099 298.636 820.815 296.94Z"/><path fill="#3C3960" transform="scale(0.666667 0.666992)" d="M914.403 321.713C918.561 322.029 927.806 325.978 931.162 328.589C932.969 329.995 932.545 330.191 932.862 332.529C928.956 332.188 919.756 328.602 916.516 326.147C914.366 324.517 914.717 324.033 914.403 321.713Z"/><path fill="#3C3960" transform="scale(0.666667 0.666992)" d="M1048.67 416.766C1053.4 417.937 1057.37 424.01 1060.04 427.871C1061.55 430.064 1061.14 430.77 1060.56 433.031C1056.09 431.799 1051.03 424.193 1048.45 420.444C1047.53 419.101 1048.22 418.116 1048.67 416.766Z"/><path fill="#3C3960" transform="scale(0.666667 0.666992)" d="M973.848 351.598C977.056 352.346 984.438 357.374 986.972 359.683C989.679 362.149 989.373 361.948 989.574 365.002C984.822 363.995 977.161 359.297 973.98 355.439C972.93 354.165 973.499 353.261 973.848 351.598Z"/><path fill="#3C3960" transform="scale(0.666667 0.666992)" d="M1001 371.225C1005.21 372.265 1012.87 378.482 1015.54 381.973C1016.61 383.367 1016.06 383.879 1015.58 385.592C1012.13 384.859 1003.89 378.097 1001.46 375.366C1000.1 373.826 1000.65 373.351 1001 371.225Z"/><path fill="#3C3960" transform="scale(0.666667 0.666992)" d="M852.992 303.073C856.584 302.995 867.665 304.919 870.534 307.413C871.658 308.39 871.325 308.872 871.508 310.69C867.758 310.737 856.812 308.84 853.813 306.216C852.84 305.365 853.117 304.634 852.992 303.073Z"/><path fill="#3C3960" transform="scale(0.666667 0.666992)" d="M1087.5 468.741C1090.41 470.389 1093.85 476.276 1095.25 479.376C1096.62 482.406 1096.25 482.552 1095.3 485.1C1090.64 484.303 1087.52 476.698 1086.32 472.528C1085.77 470.625 1086.5 470.264 1087.5 468.741Z"/><path fill="#3C3960" transform="scale(0.666667 0.666992)" d="M1068.71 442.13C1073.94 443.493 1080.67 453.867 1079.76 459.543C1075.11 458.116 1068.43 446.84 1068.71 442.13Z"/><path fill="#3C3960" transform="scale(0.666667 0.666992)" d="M1141.04 490.81C1143.65 491.38 1142.96 490.863 1144.69 492.529C1146.07 497.299 1146.18 502.796 1145.39 507.679C1143.92 507.317 1142.88 507.381 1142.16 506.373C1139.61 502.819 1140.64 494.909 1141.04 490.81Z"/><path fill="#3C3960" transform="scale(0.666667 0.666992)" d="M1140.68 460.057C1145.79 462.172 1144.98 474.573 1143.12 478.374C1137.76 475.746 1138.93 464.704 1140.68 460.057Z"/><path fill="#3C3960" transform="scale(0.666667 0.666992)" d="M1141.29 430.742C1142.59 431.188 1144.03 431.345 1144.41 432.518C1145.81 436.819 1144.56 444.497 1143.39 448.58C1141.48 448.197 1142.14 448.416 1140.57 446.806C1139.13 441.922 1140.47 435.802 1141.29 430.742Z"/><path fill="#3C3960" transform="scale(0.666667 0.666992)" d="M1144.98 402.358C1146.08 402.66 1146.49 402.879 1147.55 403.329C1149.27 407.337 1147.01 415.489 1146.06 419.948C1144.86 419.32 1143.7 419.033 1143.26 417.986C1141.61 414.026 1143.77 406.183 1144.98 402.358Z"/><path fill="#3C3960" transform="scale(0.666667 0.666992)" d="M1150.64 373.815L1153.15 375.011C1155.05 378.785 1151.92 386.428 1150.61 390.686C1143.97 390.559 1149.49 377.668 1150.64 373.815Z"/><path fill="#3C3960" transform="scale(0.666667 0.666992)" d="M1159.05 347.492C1159.72 347.722 1160.82 348.302 1161.51 348.631C1162.97 352.243 1159.29 359.953 1157.79 363.767C1151.39 360.859 1156.68 352.351 1159.05 347.492Z"/><path fill="#3C3960" transform="scale(0.666667 0.666992)" d="M1168.9 321.555C1170.99 323.007 1170.44 322.213 1171.28 324.46C1170.62 329.328 1168.39 333.444 1166.32 337.917C1165.29 337.116 1164.86 336.595 1163.98 335.664C1163.14 331.217 1166.76 325.597 1168.9 321.555Z"/><path fill="#3A3363" transform="scale(0.666667 0.666992)" d="M559.511 181.069C559.2 97.4444 665.285 58.6434 735.058 59.623C790.262 60.398 846.629 74.6496 887.066 114.427C925.704 152.433 925.232 207.043 886.18 244.725C846.08 283.419 787.726 299.332 733.052 299.642C713.382 299.642 697.392 297.507 678.383 294.439C665.236 302.318 655.036 307.926 641.045 314.566C631.695 318.394 620.834 323.275 611.482 326.591L678.865 543.471C686.596 569.017 695.985 594.676 702.216 620.701C705.522 634.51 695.608 654.116 682.664 660.563C660.142 670.105 632.025 677.857 608.472 685.007L514.864 713.771C502.367 717.556 487.309 722.552 474.946 725.776L469.988 728.184C464.44 728.459 425.99 740.942 418.533 743.219L262.173 791.04C239.945 797.748 217.254 805.148 194.858 811.269C187.268 813.126 182.46 812.677 175.248 810.624C151.354 803.823 146.577 784.82 140.236 763.705C136.391 750.904 132.208 737.723 128.293 724.774L92.4943 607.84L57.3483 493.839C51.3862 474.52 45.181 455.457 39.8836 435.895C34.9833 417.8 43.4587 394.38 61.5027 387.022C77.8134 380.371 96.8526 375.612 113.903 370.53L219.651 338.699L449.045 269.913L515.482 249.827C546.339 240.589 578.825 226.349 597.596 264.515C599.814 261.366 601.997 257.792 604.083 254.519C578.152 234.481 562.767 214.437 559.511 181.069Z"/><path fill="#FEFEFE" transform="scale(0.666667 0.666992)" d="M552.232 268.701C570.797 266.691 572.289 278.099 577.95 292.309C569.409 303.506 558.64 313.678 548.862 323.78C543.949 328.855 531.454 336.643 531.612 343.583L533.032 344.846C540.943 347.048 574.09 337.951 583.502 335.356L637.125 507.764C648.731 544.773 660.641 581.711 671.72 618.878C674.316 627.588 675.746 634.089 665.279 637.638C646.846 643.888 628.093 649.347 609.465 655.004L514.139 684.248L233.923 770.294C224.096 773.991 211.482 777.093 201.322 780.578C194.98 782.753 185.332 784.98 179.174 781.536C176.925 780.278 174.226 773.488 173.41 770.991C167.552 753.063 162.216 734.809 156.679 716.775L129.521 629.1C110.87 567.466 91.4411 506.068 73.017 444.373C68.1873 428.201 61.0666 416.333 81.6808 410.358C102.888 404.212 124.175 397.654 145.313 391.231L312.292 341.092L464.009 295.185C491.485 286.828 524.964 275.795 552.232 268.701Z"/><path fill="#3A3363" transform="scale(0.666667 0.666992)" d="M483.645 339.958C487.532 339.22 491.607 339.637 495.093 341.655C500.068 344.445 501.136 350.031 502.698 355.07C506.258 366.55 509.635 378.11 513.196 389.598L530.376 445.853C533.431 455.994 537.411 468.094 539.818 478.287C537.351 485.131 536.202 488.171 528.819 490.681C518.02 494.352 507.062 497.595 496.158 500.939L430.68 521.05L209.411 589.707C204.199 591.278 198.789 590.54 195.216 586.276C193.349 584.047 191.977 579.664 191.158 576.906C179.841 538.773 168.965 500.499 157.568 462.391C155.639 455.939 152.759 448.19 156.064 441.729C157.707 438.489 162.645 436.771 166.01 435.638C176.202 432.208 187.281 429.002 197.541 425.929L258.398 407.6L382.222 370.259C415.925 360.115 449.787 349.483 483.645 339.958Z"/><path fill="#FEFEFE" transform="scale(0.666667 0.666992)" d="M376.512 380.512L376.91 380.683C379.692 383.633 415.155 503.022 419.108 516.225C387.046 528.459 347.476 537.935 314.375 549.016C311.402 544.864 276.002 427.572 271.611 411.761C306.411 401.636 341.53 389.674 376.512 380.512Z"/><path fill="#F6755F" transform="scale(0.666667 0.666992)" d="M486.012 347.48C491.973 346.652 493.536 350.145 494.943 355.111C505.733 393.179 517.733 430.849 529.045 468.759C530.033 472.072 530.825 475.73 530.937 479.189C527.794 484.052 498.647 491.808 492.041 493.849L430.683 512.629L427.886 513.296C427.474 512.985 427.061 512.673 426.649 512.362C414.318 474.671 396.037 413.19 385.643 377.459C418.76 367.785 452.878 356.283 486.012 347.48Z"/><path fill="#4653DC" transform="scale(0.666667 0.666992)" d="M261.256 414.896C262.729 414.508 262.667 414.615 264.139 415.107C268.356 426.084 272.462 442.351 276.252 453.941C286.786 486.155 295.626 519.275 306.547 551.357C273.378 562.138 239.869 572.451 206.418 582.332C204.211 582.932 204.114 583.001 201.925 582.555C199.49 579.68 163.563 454.903 162.216 445.976C165.697 442.632 251.63 417.829 261.256 414.896Z"/><path fill="#3A3363" transform="scale(0.666667 0.666992)" d="M539.375 520.722C574.169 518.168 582.62 561.259 555.103 572.535C536.973 579.964 513.155 586.451 494.11 592.455L389.345 625.744L297.946 654.528C282.399 659.468 258.305 667.722 242.828 671.292C210.665 673.161 199.639 639.048 224.033 620.875C227.782 618.081 255.55 610.328 261.397 608.484L331.133 586.412L469.366 542.866C492.495 535.559 516.184 527.56 539.375 520.722Z"/><path fill="#4653DC" transform="scale(0.666667 0.666992)" d="M540.109 528.996C564.404 524.96 570.763 557.076 553.4 564.686C543.237 569.14 524.942 574.221 513.991 577.682L443.619 599.992C377.428 620.978 309.007 643.9 242.754 663.534C218.346 666.541 211.682 638.264 227.939 627.507C232.457 624.518 260.594 616.809 267.116 614.801L338.346 592.605L478.508 548.188C498.542 541.91 520.014 534.608 540.109 528.996Z"/><path fill="#3C3960" transform="scale(0.666667 0.666992)" d="M577.47 594.972C579.992 596.014 581.174 596.706 580.69 599.573C577.44 603.702 547.002 612.044 540.581 614.051L468.491 636.484L237.189 708.438C234.903 707.293 234.317 706.105 234.332 703.776C237.524 699.368 268.516 691.193 276.38 688.722L361.148 662.308C432.896 639.905 505.536 616.543 577.47 594.972Z"/><path fill="#FEFEFE" transform="scale(0.666667 0.666992)" d="M724.594 67.8335C740.321 66.0953 763.068 68.5136 779.228 71.0928C837.32 80.3646 917.69 121.868 907.095 192.339C903.395 216.95 883.006 240.667 862.499 254.445C807.077 291.683 741.116 298.191 676.555 286.172C670.417 290.913 663.294 294.765 656.541 298.568C625.514 315.087 582.793 329.314 548.234 335.524C572.914 311.994 598.238 282.039 614.1 251.586C590.469 234.005 570.437 215.598 567.753 183.68C565.917 161.837 574.028 140.681 588.593 124.505C623.014 86.2771 674.728 71.1167 724.594 67.8335Z"/><path fill="#3A3363" transform="scale(0.666667 0.666992)" d="M734.901 99.4C736.332 99.519 737.283 99.718 738.681 99.9727C743.819 103.985 760.537 134.881 764.975 142.678C780.552 145.919 797.027 146.62 812.671 149.661C816.565 150.418 818.683 151.387 818.996 155.396C816.774 161.467 789.477 185.463 782.536 191.948C785.969 207.416 791.086 224.162 793.639 239.868C794.089 242.633 793.059 243.932 791.003 245.351C785.022 246.271 755.242 231.476 747.257 227.86L742.398 225.607C731.689 231.999 720.977 238.387 710.278 244.795C706.109 247.292 701.723 250.643 697.1 247.926C693.913 242.69 699.817 204.23 700.719 194.692C689.252 184.591 675.94 173.782 665.032 162.979C662.992 160.959 663.279 159.166 664.376 156.833C669.134 152.931 704.854 146.358 713.453 144.421C719.052 133.574 728.523 107.823 734.901 99.4Z"/><path fill="#FEFEFE" transform="scale(0.666667 0.666992)" d="M736.962 110.669C738.684 111.967 757.832 145.642 760.949 150.565L809.071 156.733C798.534 167.482 785.232 178.841 774.157 189.523C775.743 200.804 782.252 224.613 785.092 236.762C772.538 230.54 758.519 224.418 745.707 218.526L742.925 217.421C737.8 218.093 710.144 235.993 704.113 239.878C704.952 224.443 707.126 207.582 708.972 192.139C698.844 183.051 683.861 168.869 673.297 161.054C687.445 158.215 705.084 155.144 718.794 151.567C723.413 143.463 732.012 121.241 736.962 110.669Z"/><path fill="#3A3363" transform="scale(0.666667 0.666992)" d="M736.497 134.057C739.387 134.116 741.324 134.563 742.994 137.018C747.573 143.751 751.486 151.938 755.551 158.983C792.111 160.834 788.493 164.597 763.492 187.257C765.521 194.222 767.743 201.427 769.385 208.5C770.078 211.483 770.024 213.082 767.69 214.941C762.588 215.514 750.483 208.363 745.046 205.658C736.065 201.435 723.204 221.667 716.001 214.764C714.229 209.333 717.784 194.465 719.608 188.91C697.407 167.945 683.936 165.734 725.567 160.279C727.947 153.435 732.441 139.227 736.497 134.057Z"/><path fill="#FEFEFE" transform="scale(0.666667 0.666992)" d="M741.235 164.836C748.564 164.931 754.467 170.881 754.505 178.213C754.544 185.544 748.703 191.556 741.375 191.727C736.515 191.841 731.972 189.321 729.494 185.138C727.016 180.954 726.989 175.759 729.423 171.55C731.857 167.34 736.374 164.774 741.235 164.836Z"/><path fill="#FEFEFE" transform="scale(0.666667 0.666992)" d="M756.19 193.471L757.001 193.75C758.234 197.467 758.84 200.118 759.671 203.961L759.299 204.484L755.46 202.325L747.648 198.663C750.486 197.019 753.381 195.189 756.19 193.471Z"/><path fill="#FEFEFE" transform="scale(0.666667 0.666992)" d="M739.078 145.342C740.649 146.763 743.902 154.056 744.457 156.344L743.344 156.764C740.299 156.884 738.371 157.532 736.228 155.432C735.777 152.706 737.974 148.175 739.078 145.342Z"/><path fill="#FEFEFE" transform="scale(0.666667 0.666992)" d="M725.512 193.119C728.419 195.335 730.856 195.949 733.166 198.407L733.079 199.65L729.455 201.988L723.55 206.321C724.436 202.061 724.945 197.455 725.512 193.119Z"/><path fill="#FEFEFE" transform="scale(0.666667 0.666992)" d="M720.892 169.08L721.821 169.548C721.311 172.485 721.284 174.521 719.366 176.726C717.126 177.21 717.602 176.842 714.904 175.113L709.684 170.715L720.892 169.08Z"/><path fill="#FEFEFE" transform="scale(0.666667 0.666992)" d="M759.385 167.129C763.211 167.559 767.085 167.891 770.923 168.249L767.422 172.25C765.828 174.158 765.612 174.498 763.613 175.908L762.437 175.102C761.639 171.763 761.377 170.91 759.767 167.849L759.385 167.129Z"/><path fill="#3A3363" transform="scale(0.666667 0.666992)" d="M797.1 108.463C805.845 106.897 814.208 112.707 815.793 121.452C817.379 130.196 811.588 138.573 802.85 140.179C794.084 141.789 785.676 135.975 784.086 127.203C782.495 118.431 788.327 110.034 797.1 108.463Z"/><path fill="#7B74D4" transform="scale(0.666667 0.666992)" d="M797.948 115.786C802.537 114.681 807.159 117.482 808.305 122.062C809.451 126.643 806.693 131.291 802.125 132.479C797.497 133.682 792.776 130.88 791.616 126.24C790.455 121.601 793.299 116.905 797.948 115.786Z"/><path fill="#FEFEFE" transform="scale(0.666667 0.666992)" d="M555.464 247.037C572.638 245.284 587.58 256.517 591.901 273.021C589.549 276.739 586.186 281.158 583.571 284.8C580.341 276.168 577.556 268.222 568.918 263.452C560.014 258.536 551.928 260.367 542.563 263.125C517.156 270.607 491.858 278.619 466.485 286.235L245.967 352.691L118.798 391.067C103.25 395.881 87.4467 400.045 72.0242 405.112C64.1502 407.585 58.3976 419.056 60.023 426.894C62.3577 438.153 66.4585 450.169 69.7963 461.256L89.3055 525.7L150.859 725.304C156.573 743.921 162.039 763.799 169.382 781.666C172.426 789.075 185.817 792.605 193.36 790.476C208.98 786.067 224.381 781.108 239.889 776.302L339.718 745.277L658.165 647.922C670.462 644.121 684.918 640.457 681.266 622.936C678.978 611.955 674.693 600.193 671.309 589.405L650.533 523.608L613.899 405.927C608.155 387.382 602.454 365.874 596.208 348.031L591.236 332.908C595.468 331.605 599.899 330.398 604.169 329.17C624.649 400.981 649.624 475.098 671.589 546.884L686.403 593.806C689.154 602.384 694.005 614.9 695.045 623.337C697.033 639.46 685.945 652.498 671.325 657.19C658.705 661.241 647.144 664.872 634.91 668.593L579.329 685.723L386.971 744.623L257.928 784.054L218.074 796.447C194.95 803.664 168.66 813.354 155.001 782.154C150.89 772.764 148.355 761.132 145.326 751.144L131.823 707.985L89.2453 569.205L60.501 476.374C55.6079 460.575 49.5303 443.308 46.506 427.297C43.8113 413.03 55.9754 396.516 69.3588 392.297C80.5267 388.777 91.5518 385.475 102.733 382.175L156.808 365.882L380.637 298.682L504.249 261.673C516.099 258.175 545.538 248.37 555.464 247.037Z"/><path fill="#3A3363" transform="scale(0.666667 0.666992)" d="M469.988 728.184L474.946 725.776C476.801 728.943 477.038 728.282 476.953 731.501C475.526 733.301 476.432 732.737 474.092 733.156C471.421 731.928 470.831 731.169 469.988 728.184Z"/><path fill="#3A3363" transform="scale(0.666667 0.666992)" d="M302.528 173.121C303.868 173.308 305.036 173.657 306.338 174.005C310.579 177.379 313.811 188.321 316.364 194.246C322.439 194.666 338.161 193.374 339.327 200.674C337.4 206.194 327.761 212.554 322.765 216.468C324.898 222.513 331.65 235.78 323.675 239.023C317.348 238.805 311.684 233.891 306.348 230.238C301.072 228.145 288.149 244.938 282.342 238.539C280.725 233.567 284.788 222.099 286.285 216.045C281.727 212.363 269.386 204.514 272.135 198.217C276.649 194.689 287.929 194.742 294.19 194.182C296.231 187.492 298.608 178.796 302.528 173.121Z"/><path fill="#FEFEFE" transform="scale(0.666667 0.666992)" d="M304.764 186.579C305.595 187.251 310.347 198.969 311.242 200.817C316.728 201.214 322.924 202.037 328.456 202.66C324.516 206.181 319.347 210.204 315.187 213.588C316.885 219.269 318.202 224.492 319.608 230.239C315.273 227.063 310.155 223.904 305.606 220.957C301.656 222.243 294.278 227.292 290.511 229.716C292.011 224.064 293.558 219.21 295.383 213.672L281.741 202.051C287.715 201.837 293.355 201.445 299.312 200.996C301.058 196.05 302.838 191.444 304.764 186.579Z"/><path fill="#3A3363" transform="scale(0.666667 0.666992)" d="M452.36 809.227L455.254 809.558C458.96 811.683 462.738 822.461 464.954 827.177C470.41 827.35 480.663 826.389 483.316 831.723C482.908 836.783 475.196 842.12 471.179 845.609C472.475 850.897 476.906 862.742 472.155 866.427C466.999 866.992 459.913 861.679 455.326 858.861C450.354 859.178 440.11 869.355 435.236 865.904C433.528 860.894 436.523 851.636 437.836 846.295C433.619 842.951 422.987 836.312 424.561 830.501C428.445 826.856 439.094 827.275 444.809 826.965C447.093 821.4 449.184 814.15 452.36 809.227Z"/><path fill="#FEFEFE" transform="scale(0.666667 0.666992)" d="M453.975 820.699C455.517 823.617 458.041 829.944 459.508 833.224C464.012 834.111 468.635 834.191 473.225 834.407L463.146 843.054C464.09 847.809 465.258 852.328 466.447 857.018C463.105 854.697 458.695 851.371 455.059 849.843C450.957 851.948 446.624 854.512 442.581 856.795C443.482 852.616 444.659 848.13 445.667 843.942C443.051 841.046 438.309 837.039 435.278 834.326C440.414 834.237 443.938 833.837 448.99 833.23C451.125 829.062 452.424 825.089 453.975 820.699Z"/><path fill="#3A3363" transform="scale(0.666667 0.666992)" d="M527.217 795.387C531.551 796.923 540.187 804.98 542.493 809.088C543.209 810.363 541.878 812.132 541.275 813.314C536.107 812.303 527.964 804.528 525.629 799.582C524.967 798.178 526.463 796.591 527.217 795.387Z"/><path fill="#3A3363" transform="scale(0.666667 0.666992)" d="M502.716 770.824C508.569 771.01 514.309 779.151 517.413 783.643C518.603 785.365 517.516 786.965 516.829 788.677C511.677 788.314 504.516 779.167 502.15 774.918C501.348 773.477 502.19 772.264 502.716 770.824Z"/><path fill="#3A3363" transform="scale(0.666667 0.666992)" d="M482.519 743.073C488.189 743.651 491.368 751.21 494.298 755.592C496.139 758.346 495.887 759.286 495.041 762.178C489.206 761.174 484.87 753.125 482.234 748.27C481.023 746.041 481.722 745.181 482.519 743.073Z"/><path fill="#3A3363" transform="scale(0.666667 0.666992)" d="M610.13 852.546C615.79 854.563 622.175 856.25 626.662 860.065C627.771 862.667 627.548 861.624 626.375 865.025C621.411 864.318 612.696 861.434 609.461 857.235C608.549 856.052 609.693 853.909 610.13 852.546Z"/><path fill="#3A3363" transform="scale(0.666667 0.666992)" d="M581.141 836.971C584.136 837.773 594.909 843.345 596.77 846.723C597.67 848.358 596.885 849.238 596.237 851.138C591.545 850.208 583.291 845.864 580.168 841.895C579.741 839.029 579.817 840.004 581.141 836.971Z"/><path fill="#3A3363" transform="scale(0.666667 0.666992)" d="M552.84 818.674C557.722 818.879 565.344 825.019 568.502 828.604C569.674 829.934 569.137 831.08 568.914 832.661C563.953 833.189 557.836 829.044 554.591 825.491C552.184 822.857 552.67 821.998 552.84 818.674Z"/><path fill="#3A3363" transform="scale(0.666667 0.666992)" d="M639.904 865.325C644.561 865.392 652.486 867.298 656.368 870.129C657.718 872.68 657.443 871.526 656.722 875.079C651.736 874.296 644.213 872.941 640.219 870.121C638.86 867.68 639.169 868.714 639.904 865.325Z"/></svg>