<?xml version="1.0" encoding="utf-8" ?><svg xmlns="http://www.w3.org/2000/svg" xmlns:xlink="http://www.w3.org/1999/xlink" width="1024" height="683" viewBox="0 0 1024 683"><path fill="#12396A" transform="scale(0.666667 0.666992)" d="M0 0L1217.51 0L1536 0L1536 1024L0 1024L0 1008.54L0 0Z"/><path fill="#EFEFEE" transform="scale(0.666667 0.666992)" d="M0 0L1217.51 0C1172.25 30.4365 1127.9 62.0467 1082.9 92.8669C1078.56 95.8428 1074.09 99.0153 1069.64 101.796C1054.67 84.1782 1036.64 73.6628 1013.45 71.7846C936.082 65.5178 890.955 157.389 955.176 208.68L893.746 256.035C883.036 264.324 870.883 274.189 860.041 282.026C790.886 255.751 725.292 254.783 656.398 284.713C632.637 295.036 599.279 317.008 581.195 335.849C549.462 305.857 516.534 276.978 485.012 247.029C520.895 206.081 518.875 148.051 476.749 112.005C410.337 55.1775 305.001 100.946 311.408 191.012C315.212 244.475 366.328 283.679 418.482 279.249C440.408 277.446 460.067 268.867 476.965 255.116C498.18 273.621 518.789 292.609 539.519 311.624C550.535 321.728 562.43 333.7 573.495 343.301C552.267 368.009 531.418 398.44 521.179 429.572C467.281 413.494 411.799 394.456 358.212 377.025L295.296 356.676C283.631 352.921 270.364 349.128 259.105 344.692C277.941 261.871 193.666 200.786 121.564 244.062C79.3412 269.404 65.7926 328.267 93.7294 368.88C106.527 387.958 129.02 403.614 151.802 407.569C196.863 415.391 235.621 394.4 255.778 354.337L428.529 410.86L483.194 428.55C493.529 431.897 507.437 436.047 517.252 440.204C508.678 471.099 505.599 500.367 508.639 532.43C466.087 536.928 421.595 541.111 378.914 544.787C376.848 533.443 374.864 523.981 369.901 513.501C341.964 454.513 264.153 435.543 212.258 475.401C158.32 516.827 162.738 595.221 218.305 632.458C283.944 676.76 374.794 635.732 378.925 555.309C421.075 551.365 468.862 548.063 510.224 542.958C514.072 568.969 521.429 588.443 531.645 612.355L353.155 750.287C334.236 764.951 310.196 781.914 292.495 796.613C275.16 764.359 254.808 741.203 218.741 730.507C193.667 723.07 159.646 724.446 136.415 736.743C59.1007 777.667 55.2989 870.578 125.856 919.131L0 1008.54L0 0Z"/><path fill="#EFEFEE" transform="scale(0.666667 0.666992)" d="M1001.61 82.0624C1008.7 81.5669 1020.45 82.6359 1026.89 85.0511C1115.48 118.318 1070.63 240.694 979.735 211.344L905.356 320.141C910.926 323.771 917.493 329.936 922.497 334.461C947.491 357.058 964.257 381.015 978.02 411.523C1028.95 386.857 1083.65 361.829 1133.79 336.169C1119.29 244.782 1171.73 162.094 1260.25 134.982C1352.79 106.64 1455.32 159.444 1482.55 253.301C1509.55 346.382 1456.01 445.053 1362.4 471.503C1330.01 480.599 1300.75 482.098 1267.92 473.519C1200.42 455.881 1155.02 411.495 1135.85 345.24C1084.38 369.147 1033.14 395.4 981.52 419.187C1001.17 469.397 1006.2 528.644 987.284 579.8C1062.02 599.473 1136.29 621.472 1210.97 641.291C1228.8 580.7 1283.71 543.75 1346.18 549.29C1418.05 556.343 1471.44 620.344 1460.76 692.872C1445.58 795.984 1306.83 827.642 1239.3 754.779C1211.7 724.995 1204.45 690.231 1208.83 650.321C1202.17 648.104 1195.36 646.194 1188.6 644.333C1120.45 625.581 1052.31 606.321 983.922 588.496C971.743 618.518 957.491 642.859 934.717 666.433C939.103 671.479 943.732 677.531 947.688 682.96C971.866 716.139 997.955 748.506 1021.71 781.953C1085.35 730.607 1182.92 779.373 1178.79 861.589C1176.05 916.067 1128.21 954.687 1074.89 951.362C1046.46 949.589 1023.9 937.397 1005.16 916.416C974.035 878.247 979.897 821.485 1014.95 787.847C1009.54 781.569 1001.48 769.929 996.28 762.989L952.859 705.311C945.414 695.48 936.134 682.458 928.264 673.532C916.485 683.648 905.584 693.335 892.451 701.753C831.659 740.72 768.159 749.296 698.54 734.312C680.059 762.607 661.135 789.208 643.368 818.404C651.398 828.009 657.304 835.469 661.27 847.658C673.392 884.916 649.267 922.022 612.931 933.126C574.469 944.879 530.087 923.828 518.564 884.32C507.78 847.35 531.974 810.184 568.411 800.995C592.459 794.934 615.689 799.46 636.822 811.792L688.918 731.611C640.676 716.74 611.939 696.945 577.534 661.21L296.126 816.074C296.377 823.021 296.623 829.897 296.267 836.834C292.955 901.351 227.964 947.456 165.773 934.635C151.451 931.682 141.663 927.614 129.354 920.003L137.001 914.062C183.849 940.891 243.013 926.624 272.501 881.178C286.7 859.293 288.855 838.915 286.109 813.484C265.955 828.258 242.902 842.016 224.24 855.994C224.243 860.941 224.636 866.424 223.819 871.294C222.877 876.918 220.326 881.433 214.14 881.959C205.836 882.667 197.198 880.452 188.752 881.215C175.231 882.436 148.264 903.954 136.109 912.266C115.345 898.335 98.9712 884.009 91.5762 860.005C64.97 773.643 156.642 709.313 233.228 747.915C262.21 762.523 276.307 783.322 286.178 812.55C288.462 810.813 291.219 809.058 293.701 807.592C321.667 791.073 350.336 775.579 378.77 759.893L571.396 653.876C550.111 630.038 528.176 584.895 522.446 553.56C483.812 342.297 722.223 196.997 898.209 315.219C909.05 296.795 926.738 273.179 938.802 254.77C946.049 243.71 964.53 215.917 972.282 207.257C909.712 169.989 932.566 88.0355 1001.61 82.0624Z"/><path fill="#12396A" transform="scale(0.666667 0.666992)" d="M759.381 321.083C862.162 321.025 945.512 404.351 945.509 507.156C945.507 609.962 862.154 693.284 759.373 693.222C656.677 693.16 573.459 609.869 573.461 507.148C573.464 404.427 656.685 321.141 759.381 321.083Z"/><path fill="#EFEFEE" transform="scale(0.666667 0.666992)" d="M757.646 326.303C857.517 325.248 939.347 405.345 940.454 505.239C941.562 605.133 861.528 687.026 761.658 688.186C661.715 689.348 579.767 609.221 578.659 509.252C577.551 409.283 657.701 327.358 757.646 326.303Z"/><path fill="#12396A" transform="scale(0.666667 0.666992)" d="M759.577 336.474C763.421 336.912 773.714 351.073 776.306 354.265C798.723 381.866 829.444 395.223 864.784 395.072C870.772 395.046 881.441 394.98 887.308 396.211L888.164 396.399C887.822 408.52 884.975 425.142 882.69 437.347C867.776 516.973 840.597 629.823 759.865 666.013C713.352 646.098 686.143 604.571 668.756 558.591C652.065 514.452 639.814 467.911 633.32 421.172C632.429 414.76 630.317 401.228 632.071 395.705C634.822 393.769 654.975 394.698 660.119 394.535C692.984 393.492 717.531 383.59 740.08 359.498C746.902 352.21 752.701 343.88 759.577 336.474Z"/><path fill="#EFEFEE" transform="scale(0.666667 0.666992)" d="M760.077 352.559C763.881 356.154 769.419 364.891 774.178 369.4C806.36 399.892 833.787 406.585 875.901 406.625C871.763 443.969 863.656 480.645 852.618 516.485C835.057 573.498 814.379 624.066 760.244 653.75C735.371 642.442 711.862 619.604 698.767 595.776C668.23 540.208 649.872 468.75 643.34 405.841C693.911 407.227 729.676 394.479 760.077 352.559Z"/><path fill="#12396A" transform="scale(0.666667 0.666992)" d="M760.173 374.788C764.428 378.01 770.897 385.911 776.321 390.085C802.439 410.181 826.42 418.472 858.996 420.405C852.514 471.584 820.818 619.075 759.688 624.318C696.757 622.192 667.044 469.258 659.669 420.144C702.503 419.398 730.474 404.189 760.173 374.788Z"/><path fill="#EFEFEE" transform="scale(0.666667 0.666992)" d="M798.237 464.981C802.363 465.093 804.833 466.014 805.99 470.112C805.898 473.715 803.199 477.774 800.664 480.284C786.551 494.259 772.307 508.085 758.361 522.22C757.324 523.27 753.519 525.803 752.185 525.527C745.869 524.221 739.51 515.919 735.144 511.327C730.255 506.633 719.498 497.115 732.75 493.592C738.118 494.351 747.691 505.329 752.047 509.664C764.179 498.33 775.657 486.209 787.485 474.551C791.055 471.032 793.968 467.707 798.237 464.981Z"/><path fill="#12396A" transform="scale(0.666667 0.666992)" d="M1298.74 132.209C1393.8 125.678 1476.02 197.737 1482.05 292.848C1488.07 387.96 1415.59 469.823 1320.48 475.344C1226.07 480.824 1144.97 408.989 1138.99 314.59C1133.01 220.19 1204.4 138.692 1298.74 132.209Z"/><path fill="#EFEFEE" transform="scale(0.666667 0.666992)" d="M1217.95 207.7C1249.06 213.879 1280.94 224.991 1311.97 232.021C1316.59 233.069 1322.06 234.558 1326.6 235.969C1327.61 309.323 1326.54 384.246 1326.85 457.838C1313.92 454.415 1301.93 451.149 1289.17 447.15C1289.04 441.767 1288.85 436.331 1288.87 430.951C1286.75 430.407 1283.86 429.566 1281.78 429.161C1281.88 433.162 1282.83 441.002 1279.53 443.629C1275.46 440.937 1276.4 432.061 1276.47 427.539L1265.77 423.966C1265.8 428.124 1266.21 433.277 1264.68 437.02L1263.65 437.849C1260.61 434.406 1261.29 426.832 1261.35 422.26C1259.18 421.632 1252.21 419.758 1250.52 418.973L1246.4 417.998L1236.85 415.167L1236.63 430.581C1230.4 428.54 1224.28 426.544 1218.01 424.656L1218.04 308.207C1217.99 275.03 1217.51 240.786 1217.95 207.7Z"/><path fill="#12396A" transform="scale(0.666667 0.666992)" d="M1224.5 224.411C1233.12 226.614 1242.4 229.785 1250.94 232.512L1251.1 258.607C1242.91 256.566 1232.43 253.106 1224.58 250.327L1224.5 224.411Z"/><path fill="#12396A" transform="scale(0.666667 0.666992)" d="M1291.52 283.665L1317.77 291.507L1317.99 317.824C1309.12 315.196 1300.28 312.237 1291.49 309.363L1291.52 283.665Z"/><path fill="#12396A" transform="scale(0.666667 0.666992)" d="M1258.33 311.515C1266.64 313.921 1276.12 317.258 1284.45 319.953L1284.39 345.071C1280.71 345.143 1263.12 339.166 1258.44 337.638C1258.28 329.013 1258.36 320.159 1258.33 311.515Z"/><path fill="#12396A" transform="scale(0.666667 0.666992)" d="M1258.25 349.865L1284.62 357.806L1284.61 383.317C1275.93 381.231 1266.91 378.102 1258.38 375.323L1258.25 349.865Z"/><path fill="#12396A" transform="scale(0.666667 0.666992)" d="M1258.05 273.452C1265.82 276.306 1276.2 279.207 1284.27 281.719C1284.55 290.256 1284.46 298.831 1284.44 307.374C1275.53 304.657 1267.12 302.05 1258.31 298.958C1258.14 290.458 1258.11 281.954 1258.05 273.452Z"/><path fill="#12396A" transform="scale(0.666667 0.666992)" d="M1291.5 322.049C1300.33 324.757 1309.13 327.748 1317.9 330.669C1317.88 339.177 1317.99 347.57 1318.14 356.076C1309.57 353.009 1300.22 350.247 1291.49 347.506L1291.5 322.049Z"/><path fill="#12396A" transform="scale(0.666667 0.666992)" d="M1258.43 234.608C1266.18 237.788 1276.08 240.52 1284.24 242.986C1284.49 251.227 1284.36 260.073 1284.37 268.363C1280.32 268.154 1263.4 262.504 1258.51 260.927L1258.43 234.608Z"/><path fill="#12396A" transform="scale(0.666667 0.666992)" d="M1224.71 262.953L1250.97 271.165L1250.82 296.294C1243.14 294.675 1232.06 290.853 1224.62 288.314L1224.71 262.953Z"/><path fill="#12396A" transform="scale(0.666667 0.666992)" d="M1257.74 387.208L1284.44 395.866C1284.14 403.898 1284.21 411.979 1284.23 420.021C1280.56 420.459 1262.74 414.389 1257.98 412.861C1257.75 404.376 1257.79 395.711 1257.74 387.208Z"/><path fill="#12396A" transform="scale(0.666667 0.666992)" d="M1291.49 359.53C1298.29 361.169 1310.87 365.716 1317.96 368.024L1317.82 393.372C1310.25 390.535 1299.46 387.526 1291.53 385.048L1291.49 359.53Z"/><path fill="#12396A" transform="scale(0.666667 0.666992)" d="M1224.88 300.906C1233.63 303.602 1241.85 306.273 1250.49 309.287L1250.55 335.074C1241.71 332.284 1233.31 329.587 1224.56 326.455C1224.52 317.812 1224.47 309.557 1224.88 300.906Z"/><path fill="#12396A" transform="scale(0.666667 0.666992)" d="M1291.54 397.161C1298.38 398.683 1310.61 402.995 1317.74 405.253L1317.82 430.995C1309.12 428.033 1300.38 425.302 1291.61 422.538L1291.54 397.161Z"/><path fill="#12396A" transform="scale(0.666667 0.666992)" d="M1291.62 245.674C1299.21 247.464 1310.07 251.056 1317.81 253.339L1317.76 279.126C1309.45 276.799 1300.43 273.774 1292.13 271.18C1291.71 262.717 1291.71 254.153 1291.62 245.674Z"/><path fill="#12396A" transform="scale(0.666667 0.666992)" d="M1224.74 376.804C1232.38 378.776 1242.42 382.238 1250.15 384.64L1250.23 410.161C1242.6 408.23 1232.46 404.681 1224.77 402.241L1224.74 376.804Z"/><path fill="#12396A" transform="scale(0.666667 0.666992)" d="M1224.58 339.75C1233.79 342.72 1241.16 344.408 1250.45 348.034C1250.3 356.193 1250.31 364.486 1250.24 372.659L1224.59 364.87L1224.58 339.75Z"/><path fill="#EFEFEE" transform="scale(0.666667 0.666992)" d="M1402.91 207.72L1404.15 207.864C1404.26 208.131 1404.38 208.395 1404.48 208.665C1405.37 211.001 1405.3 397.164 1404.99 415.059C1404.93 418.293 1405.17 423.528 1403.65 426.458C1400.88 431.83 1384.37 436.41 1378.57 438.613L1378.34 408.205C1371.95 410.656 1366.2 412.51 1359.67 414.563C1359.78 423.779 1360.49 437.595 1359.24 446.743C1359.05 448.183 1357.28 448.644 1355.84 449.353C1347.78 452.391 1339.53 455.292 1331.42 458.224C1330.43 401.735 1331.83 344.974 1331.06 288.464C1330.83 271.025 1330.73 253.234 1331.12 235.805C1333.4 234.704 1336.17 233.606 1338.54 232.687C1360 224.347 1381.67 216.645 1402.91 207.72Z"/><path fill="#12396A" transform="scale(0.666667 0.666992)" d="M1397.57 288.018C1398.67 287.821 1398.1 287.791 1399.27 288.512C1400.01 292.789 1399.67 301.849 1399.62 306.593C1382.12 313.12 1364.84 320.275 1347.19 326.316L1345.75 326.505C1343.74 324.167 1344.63 311.942 1344.7 308.186C1362.47 301.305 1379.63 294.52 1397.57 288.018Z"/><path fill="#12396A" transform="scale(0.666667 0.666992)" d="M1398.1 316.564L1399.03 316.78C1399.94 319.342 1399.79 331.46 1399.82 334.982C1386.27 341.207 1361.32 349.302 1345.95 355.58L1345.01 355.117C1344.37 351.729 1344.73 340.761 1344.78 336.819C1359.35 330.152 1382.42 322.35 1398.1 316.564Z"/><path fill="#12396A" transform="scale(0.666667 0.666992)" d="M1398.63 344.413L1399.47 345.179C1400.08 349.14 1399.67 358.447 1399.59 362.892C1381.55 369.663 1363.23 376.739 1345.05 383.048C1343.53 380.592 1344.24 368.529 1344.31 364.962C1359.81 357.919 1382.33 350.051 1398.63 344.413Z"/><path fill="#12396A" transform="scale(0.666667 0.666992)" d="M1398.81 371.466C1400.1 373.044 1399.54 387.222 1399.51 390.275C1381.19 396.831 1363.4 404.793 1345.07 411.004C1343.39 408.669 1344.39 396.226 1344.53 392.751C1360.69 385.412 1381.94 377.872 1398.81 371.466Z"/><path fill="#12396A" transform="scale(0.666667 0.666992)" d="M1397.31 260.317L1398.52 260.1C1400.48 262.4 1399.78 274.753 1399.76 278.481C1383.72 285.26 1363.27 292.035 1346.51 298.527L1345.25 298.29C1344.63 294.723 1344.79 284.259 1344.77 280.193L1397.31 260.317Z"/><path fill="#12396A" transform="scale(0.666667 0.666992)" d="M1398.69 231.047L1399.34 231.592C1400.13 234.658 1399.67 246.01 1399.61 249.876C1384 256.982 1361.93 264.762 1345.56 270.712C1344.32 268.504 1344.88 256.24 1344.9 252.744C1362.24 246.872 1381.74 238.24 1398.69 231.047Z"/><path fill="#EFEFEE" transform="scale(0.666667 0.666992)" d="M1305.48 173.311C1307.51 173.378 1317.26 176.485 1319.94 177.292C1348.08 185.76 1376.68 193.152 1404.37 202.987L1352.28 222.968C1346.71 225.105 1330.74 232.38 1325.64 230.969L1222.2 204.035C1244.36 194.023 1281.39 182.155 1305.48 173.311Z"/><path fill="#D6D4D4" transform="scale(0.666667 0.666992)" d="M1246.4 417.998L1250.52 418.973C1250.53 423.266 1251.22 429.96 1248.37 432.96C1245.5 430.5 1246.32 421.696 1246.4 417.998Z"/><path fill="#12396A" transform="scale(0.666667 0.666992)" d="M1327.2 552.299C1393.27 548.03 1450.32 598.088 1454.69 664.171C1459.07 730.254 1409.11 787.396 1343.05 791.876C1276.84 796.365 1219.56 746.261 1215.17 680.029C1210.79 613.798 1260.97 556.578 1327.2 552.299Z"/><path fill="#EFEFEE" transform="scale(0.666667 0.666992)" d="M1328.24 574.042C1355.04 579.373 1382.67 589.596 1409.14 596.839C1412.98 597.891 1417.56 599.244 1421.25 600.603L1421.36 688.05C1421.41 699.556 1422.37 722.228 1421.58 732.587C1413.75 737.377 1404.55 741.717 1396.1 745.407C1378.62 753.034 1360.96 761.859 1343.24 768.795C1344.48 723.807 1343.26 679.112 1344.23 634.5C1328.44 629.188 1309.85 625.143 1293.66 620.284C1288.96 618.875 1263.54 611.437 1259.77 611.091C1258.33 612.855 1258.72 612.045 1258.76 614.777C1261.33 618.559 1271.62 619.303 1276.21 620.741C1296.31 627.031 1318.64 630.939 1338.62 637.24C1339.06 679.725 1339.68 728.729 1338.65 771.051C1332.97 769.735 1327.8 768.686 1322.34 766.584L1322.43 755.688L1322.49 752.17L1322.13 743.99L1321.86 740.759C1322.27 739.131 1322.28 734.162 1322.33 732.195L1322.38 729.823L1322.03 727.716C1318.08 724.856 1303.32 721.829 1297.51 719.962L1294.65 719.135C1289.72 718.391 1276.1 713.894 1271.13 712.31C1270.69 715.45 1270.5 716.656 1269.54 719.731C1270.38 722.004 1270.49 722.357 1270.57 724.772L1270.07 727.119L1270.35 733.628L1270.15 735.895L1270.46 741.81L1270.64 744.51C1270.45 747.728 1270.98 748.496 1269.28 750.649C1265.1 751.873 1259.4 748.549 1254.2 747.298C1254.62 699.625 1255.25 650.793 1254.12 603.196C1274.9 593.683 1306.14 582.69 1328.24 574.042Z"/><path fill="#12396A" transform="scale(0.666667 0.666992)" d="M1259.73 656.402C1269.88 659.952 1331.84 675.218 1334.75 677.88L1334.18 679.251C1328.39 680.981 1271.04 660.685 1263.32 661.982C1261.76 664.431 1261.9 663.446 1262.15 665.948C1263.31 667.432 1264.61 668.506 1266.45 669.064C1288.85 675.843 1312.05 680.707 1334.38 687.642C1334.61 695.709 1334.59 703.888 1334.63 711.967C1325.26 709.71 1266.85 692.789 1263.27 693.947C1262.3 696.33 1262.52 695.412 1263.05 698.246C1263.48 698.765 1264.01 699.396 1264.62 700.139C1284.02 706.11 1315.81 714.303 1334.33 719.195L1334.35 729.094C1334.34 732.962 1334.12 740.264 1334.71 743.803L1332.32 742.963C1328.51 741.911 1325.77 741.414 1321.86 740.759C1322.27 739.131 1322.28 734.162 1322.33 732.195L1322.38 729.823L1322.03 727.716C1318.08 724.856 1303.32 721.829 1297.51 719.962L1294.65 719.135C1289.72 718.391 1276.1 713.894 1271.13 712.31C1270.69 715.45 1270.5 716.656 1269.54 719.731C1270.38 722.004 1270.49 722.357 1270.57 724.772L1270.07 727.119L1270.35 733.628L1270.15 735.895L1270.46 741.81L1270.64 744.51C1268.22 744.459 1261.98 743.054 1259.29 742.517L1259.73 656.402Z"/><path fill="#EFEFEE" transform="scale(0.666667 0.666992)" d="M1271.13 712.31C1268.53 711.559 1264.39 710.758 1262.75 708.946C1262.83 707.022 1262.63 704.766 1263.75 703.332C1272.54 705.369 1326.81 720.407 1331.21 723.241C1332.43 725.634 1332.27 726.774 1332.39 729.441C1328.5 732.409 1326.53 728.385 1322.38 729.823L1322.03 727.716C1318.08 724.856 1303.32 721.829 1297.51 719.962L1294.65 719.135C1289.72 718.391 1276.1 713.894 1271.13 712.31Z"/><path fill="#EFEFEE" transform="scale(0.666667 0.666992)" d="M1322.33 732.195C1325.57 733.408 1330.05 734.239 1331.93 736.147C1332.99 738.68 1332.58 740.21 1332.32 742.963C1328.51 741.911 1325.77 741.414 1321.86 740.759C1322.27 739.131 1322.28 734.162 1322.33 732.195Z"/><path fill="#EFEFEE" transform="scale(0.666667 0.666992)" d="M1270.46 741.81C1265.77 740.973 1264.18 741.492 1262.14 736.99L1262.95 735.432C1266.04 734.352 1266.4 735.075 1270.15 735.895L1270.46 741.81Z"/><path fill="#EFEFEE" transform="scale(0.666667 0.666992)" d="M1270.35 733.628C1266.64 732.664 1263.89 732.557 1262.36 728.719L1263.12 727.282C1265.39 726.028 1267.38 726.708 1270.07 727.119L1270.35 733.628Z"/><path fill="#EFEFEE" transform="scale(0.666667 0.666992)" d="M1270.57 724.772C1267.34 725.813 1264.41 724.431 1262.68 721.685L1263.06 720.168C1265.68 718.638 1265.96 719.311 1269.54 719.731C1270.38 722.004 1270.49 722.357 1270.57 724.772Z"/><path fill="#EFEFEE" transform="scale(0.666667 0.666992)" d="M1263.02 682.564C1274.53 684.783 1289 689.321 1300.58 692.189C1307.26 693.844 1325.68 698.491 1331.21 701.055C1332.38 703.142 1331.91 705.138 1331.74 707.634C1318.65 704.766 1304.35 700.422 1291.24 697.057C1284.42 695.305 1269.85 691.7 1263.72 689.157C1262.57 687.333 1262.97 684.868 1263.02 682.564Z"/><path fill="#EFEFEE" transform="scale(0.666667 0.666992)" d="M1263 671.752C1270.85 673.138 1288.05 678.406 1296.3 680.5C1303.6 682.354 1324.95 687.697 1330.87 690.327C1332.18 692.234 1331.74 694.311 1331.66 696.764C1324.43 696.497 1272.18 681.766 1263.75 678.815C1262.68 676.782 1262.99 674.168 1263 671.752Z"/><path fill="#EFEFEE" transform="scale(0.666667 0.666992)" d="M1321.86 740.759C1325.77 741.414 1328.51 741.911 1332.32 742.963L1334.71 743.803L1333.91 745.397C1331.65 747.933 1333.41 749.645 1332.42 754.242C1329.15 753.828 1325.73 752.931 1322.49 752.17L1322.13 743.99L1321.86 740.759Z"/><defs><linearGradient id="gradient_0" gradientUnits="userSpaceOnUse" x1="1328.064" y1="742.41528" x2="1327.4996" y2="746.57104"><stop offset="0" stop-color="#1A3F65"/><stop offset="1" stop-color="#3A5878"/></linearGradient></defs><path fill="url(#gradient_0)" transform="scale(0.666667 0.666992)" d="M1321.86 740.759C1325.77 741.414 1328.51 741.911 1332.32 742.963L1334.71 743.803L1333.91 745.397C1331.65 747.933 1333.41 749.645 1332.42 754.242C1332.34 751.819 1332.35 750.64 1331.85 748.242C1329.27 745.116 1326.41 745.075 1322.13 743.99L1321.86 740.759Z"/><path fill="#12396A" transform="scale(0.666667 0.666992)" d="M1332.42 754.242C1333.41 749.645 1331.65 747.933 1333.91 745.397C1334.58 750.195 1334.38 754.235 1334.29 759.039C1330.73 757.996 1325.96 756.443 1322.43 755.688L1322.49 752.17C1325.73 752.931 1329.15 753.828 1332.42 754.242Z"/><path fill="#12396A" transform="scale(0.666667 0.666992)" d="M1328.61 579.855C1332.95 580.222 1349.44 585.028 1354.56 586.487L1410.95 603.094C1404.01 606.32 1393.52 609.904 1386.16 612.683L1345.98 627.912C1339.94 628.144 1273.08 608.478 1262.86 605.481C1282.73 596.826 1308.03 587.88 1328.61 579.855Z"/><path fill="#12396A" transform="scale(0.666667 0.666992)" d="M1415.43 687.181L1416.09 687.724C1416.9 690.982 1416.54 700.796 1416.5 704.637L1351.14 733.519L1350.39 733.316C1349.59 730.473 1349.96 719.157 1350 715.561C1370.08 707.636 1395.79 696.163 1415.43 687.181Z"/><path fill="#12396A" transform="scale(0.666667 0.666992)" d="M1415.93 709.768C1417.25 712.204 1416.38 724.498 1416.24 727.868C1395 735.886 1371.76 746.819 1350.89 756.185L1350.17 755.523C1349.54 751.633 1349.83 742.792 1349.86 738.511C1371.16 728.687 1394.33 719.015 1415.93 709.768Z"/><path fill="#12396A" transform="scale(0.666667 0.666992)" d="M1415.45 643.018L1416.01 643.478C1416.65 646.542 1416.32 657.178 1416.28 660.949C1396.4 669.543 1371.05 680.489 1350.98 688.075C1349.23 686.062 1350.05 674.16 1350.1 670.78C1370.66 662.022 1395.76 652.47 1415.45 643.018Z"/><path fill="#12396A" transform="scale(0.666667 0.666992)" d="M1415.06 621.202C1416.59 622.484 1416.29 635.916 1416.33 638.713C1394.86 647.511 1372.51 657.311 1350.99 665.526C1349.28 663.777 1349.94 651.498 1349.96 648.277L1415.06 621.202Z"/><path fill="#12396A" transform="scale(0.666667 0.666992)" d="M1415.8 665.431C1416.56 669.076 1416.33 678.361 1416.35 682.476L1350.34 711.243C1349.63 708.246 1349.95 697.145 1349.99 693.538C1371.43 684.209 1394.95 674.951 1415.8 665.431Z"/><path fill="#12396A" transform="scale(0.666667 0.666992)" d="M1259.68 621.77C1263.32 622.632 1267.48 623.5 1270.94 624.782L1271.52 626.097C1270.37 628.289 1271.19 627.491 1269.01 628.601C1266.65 628.134 1266.2 627.971 1263.85 628.14C1262.54 630.532 1263.28 633.284 1264.04 635.813L1264.64 635.919C1279.04 638.586 1298.24 645.696 1313.03 648.943C1317.92 650.017 1325.33 652.603 1330.05 652.835C1331.55 649.623 1330.87 643.532 1326.67 643.243C1317.09 642.583 1285.4 630.274 1278.07 630.989C1276.69 632.014 1277.1 631.342 1276.5 632.799L1273.75 627.021L1274.44 626.12C1277.81 625.877 1326.49 639.896 1333.65 641.899L1333.73 657.572C1316.6 653.566 1299.88 649.415 1282.94 644.616C1274.54 642.238 1271.66 639.488 1263.35 637.809L1263.27 646.457C1275.63 649.555 1325.21 661.822 1334.08 666.549L1334.14 667.731L1334.94 667.523C1326.4 668.618 1271.76 652.886 1259.86 649.742L1259.68 621.77Z"/><path fill="#12396A" transform="scale(0.666667 0.666992)" d="M1414.34 607.612L1415.23 607.966C1419.17 615.832 1411.56 617.264 1405.92 619.529C1387.53 626.92 1369.32 634.745 1351.1 642.56L1350.62 642.612C1349.55 641.176 1349.98 634.897 1350.02 632.676C1371.08 624.016 1393.02 616.411 1414.34 607.612Z"/><path fill="#D6D4D4" transform="scale(0.666667 0.666992)" d="M1294.65 719.135L1297.51 719.962C1297.83 727.838 1299.77 756.181 1295.97 761.525C1294.15 759.147 1294.65 724.864 1294.65 719.135Z"/><path fill="#12396A" transform="scale(0.666667 0.666992)" d="M1077.64 765.974C1127.59 763.752 1169.94 802.343 1172.36 852.297C1174.79 902.251 1136.38 944.766 1086.45 947.398C1036.23 950.045 993.424 911.355 990.984 861.11C988.543 810.865 1027.4 768.208 1077.64 765.974Z"/><path fill="#EFEFEE" transform="scale(0.666667 0.666992)" d="M1081.94 782.987C1085.48 786.779 1092.13 802.405 1094.66 808.034C1103.17 802.635 1111.57 797.277 1120.24 792.127C1119.67 802.249 1118.65 811.623 1117.2 821.638C1126.98 819.801 1137.14 818.606 1147.03 817.31C1142.04 825.673 1135.67 834.483 1130.08 842.561C1139.42 846.55 1148.88 849.313 1158.21 853.923C1149.5 859.189 1140.1 863.826 1130.63 867.544C1136.08 874.269 1142.42 883.66 1147.08 890.915C1136.74 890.67 1128.16 890.204 1117.91 889.111C1119.49 899.126 1120.81 909.445 1122.21 919.506C1113.13 914.132 1104.72 908.374 1095.98 902.482C1091.96 911.453 1088.12 920.224 1083.53 928.93C1079.91 924.393 1071.93 908.288 1069.37 902.957C1060.93 907.92 1052.31 913.701 1044.11 919.1C1044.64 909.281 1045.55 899.295 1047.06 889.578C1037.8 889.981 1026.38 891.138 1017.06 891.974C1021.62 883.919 1028.19 875.334 1033.76 867.825C1024.32 863.775 1015.88 859.247 1007.07 854C1014.35 850.074 1026.54 846.185 1034.65 843.44C1028.48 835.977 1022.58 825.969 1017.68 817.639C1028.06 818.855 1036.16 819.558 1046.56 821.465C1045.1 810.965 1044.17 801.844 1043.37 791.299C1051.97 796.533 1061.12 802.933 1069.51 808.599C1073.41 799.221 1077.13 791.921 1081.94 782.987Z"/><path fill="#12396A" transform="scale(0.666667 0.666992)" d="M1078.59 812.037C1102.76 809.932 1124.11 827.691 1126.46 851.845C1128.8 875.998 1111.25 897.533 1087.13 900.114C1062.67 902.731 1040.77 884.883 1038.4 860.39C1036.02 835.897 1054.08 814.171 1078.59 812.037Z"/><path fill="#EFEFEE" transform="scale(0.666667 0.666992)" d="M1077.26 815.079C1099.87 812.267 1120.5 828.259 1123.43 850.861C1126.35 873.464 1110.46 894.18 1087.88 897.215C1065.14 900.272 1044.25 884.247 1041.31 861.485C1038.36 838.724 1054.49 817.909 1077.26 815.079Z"/><path fill="#12396A" transform="scale(0.666667 0.666992)" d="M1079.62 826.804C1095.74 825.345 1110 837.241 1111.46 853.372C1112.91 869.503 1101.02 883.76 1084.89 885.213C1068.76 886.666 1054.52 874.772 1053.06 858.645C1051.6 842.517 1063.49 828.263 1079.62 826.804Z"/><path fill="#12396A" transform="scale(0.666667 0.666992)" d="M179.091 759.399C212.706 757.764 211.344 785.971 210.967 809.473C210.914 812.74 221.839 812.002 221.475 819.292C220.946 829.858 224.124 871.564 218.478 878.345C213.004 880.938 193.024 879.538 186.259 879.393C176.574 879.485 154.281 881.839 146.251 876.83C144.681 875.85 144.101 873.505 143.721 871.795C142.304 865.412 141.848 819.393 144.834 815.105C146.744 812.362 149.939 811.974 152.996 811.412C154.207 803.614 152.379 793.899 153.447 785.676C155.493 769.926 164.152 762.395 179.091 759.399Z"/><path fill="#EFEFEE" transform="scale(0.666667 0.666992)" d="M179.697 769.029C205.245 768.794 201.99 794.006 201.729 811.776L186.187 811.853L162.529 811.863C162.341 793.31 158.521 775.559 179.697 769.029Z"/><path fill="#EFEFEE" transform="scale(0.666667 0.666992)" d="M180.063 822.265C192.914 823.482 195.509 833.724 185.479 841.628C186.183 846.504 189.335 862.573 187.174 865.971L184.687 866.188L175.082 866.272C176.397 858.646 177.412 849.852 178.572 842.078C169.164 835.21 169.115 827.273 180.063 822.265Z"/><path fill="#12396A" transform="scale(0.666667 0.666992)" d="M585.302 816.276C611.543 815.128 611.171 832.668 611.265 853.282C616.705 854.303 620.626 855.872 620.576 861.901C620.496 871.467 623.416 900.926 617.822 907.945C612.045 911.051 603.206 910.028 596.438 909.908C593.366 909.837 587.729 909.831 585.054 909.974C558.494 911.389 557.997 909.945 558.422 883.846C558.551 875.972 557.665 864.881 560.326 857.129C561.098 854.88 565.628 853.822 567.679 853.248C567.687 836.523 566.675 822.384 585.302 816.276Z"/><path fill="#EFEFEE" transform="scale(0.666667 0.666992)" d="M564.971 857.543C573.301 857.271 610.785 856.374 615.943 859.064C618.816 866.112 616.784 878.091 617.182 885.95C617.489 892.013 618.688 901.784 614.888 906.361C606.263 906.299 568.424 907.334 563.329 904.349C561.107 899.754 562.201 887.547 562.144 881.945C562.077 875.302 560.622 862.539 564.971 857.543Z"/><path fill="#12396A" transform="scale(0.666667 0.666992)" d="M586.278 864.228C603.792 863.406 597.632 872.249 595.349 881.934C593.71 888.889 598.106 891.357 592.538 899.353C579.013 903.576 584.735 885.734 582.92 879.477C580.597 871.468 577.511 869.843 586.278 864.228Z"/><path fill="#EFEFEE" transform="scale(0.666667 0.666992)" d="M587.041 867.189C590.482 867.399 590.916 867.566 594.04 868.879C597.715 873.286 592.45 874.452 592.005 878.548C591.38 884.31 591.811 890.385 591.601 896.274C589.648 896.708 589.741 896.656 587.783 896.097C584.272 891.601 587.629 882.136 586.383 878.453C584.691 873.45 579.565 874.029 587.041 867.189Z"/><path fill="#EFEFEE" transform="scale(0.666667 0.666992)" d="M587.677 819.364C609.784 819.329 607.721 837.577 607.532 853.727L592.696 853.736L571.447 853.586C571.337 837.674 569.038 824.051 587.677 819.364Z"/><path fill="#12396A" transform="scale(0.666667 0.666992)" d="M999.089 106.651C1002.41 106.435 1004.24 106.247 1007.57 106.619C1009.97 108.6 1009.26 111.817 1009.91 112.086C1017.22 115.088 1032.21 122.452 1027.63 133.053C1024.56 134.24 1018.88 133.784 1015.38 133.721C1011.29 122.769 997.271 121.545 994.997 129.699C991.171 143.416 1022.49 145.092 1027.48 158.156C1031.24 167.997 1029.17 180.542 1017.9 184.785C1009.28 188.151 1011.67 188.815 1009.57 195.513C1005.81 195.745 1003.93 195.951 1000.19 195.39C997.564 193.217 999.124 189.793 998.556 189.397C992.05 184.868 976.975 178.384 981.106 167.452C983.955 165.588 989.425 166.42 993.159 166.552C997.255 178.531 1010.94 181.359 1015.53 168.631C1017.59 162.905 1006.47 156.98 1001.65 154.9C990.129 149.932 979.256 142.778 981.737 128.247C983.074 119.581 990.536 117.389 996.772 112.885C998.979 111.291 998.725 109.143 999.089 106.651Z"/><path fill="#EFEFEE" transform="scale(0.666667 0.666992)" d="M264.403 463.423C313.511 456.855 358.627 491.393 365.118 540.522C371.609 589.651 337.01 634.725 287.883 641.142C238.863 647.544 193.919 613.029 187.442 564.007C180.966 514.985 215.403 469.977 264.403 463.423Z"/><path fill="#12396A" transform="scale(0.666667 0.666992)" d="M269.894 486.317C278.626 485.774 287.166 488.35 293.307 494.724C303.681 505.489 301.492 521.583 301.146 535.332C308.141 537.039 311.749 539.991 311.147 548.383C310.102 562.943 314.555 587.871 307.799 600.313C305.732 604.118 280.015 602.952 275.17 602.924C228.168 603.906 234.905 605.737 234.586 558.688C234.508 547.238 232.303 538.786 244.862 536.107C243.993 513.507 242.025 491.597 269.894 486.317Z"/><path fill="#EFEFEE" transform="scale(0.666667 0.666992)" d="M268.635 495.967L269.35 495.922C295.196 494.507 291.918 518.195 291.996 536.281L277.875 536.332L254.352 536.502C254.015 520.142 250.232 502.807 268.635 495.967Z"/><path fill="#EFEFEE" transform="scale(0.666667 0.666992)" d="M270.655 548.295C284.224 548.523 286.286 559.376 276.402 567.606L276.772 570.596C277.346 575.4 279.146 586.169 276.549 589.474L267.587 588.989C268.07 581.617 268.627 574.888 269.447 567.548C260.208 561.71 262.212 553.621 270.655 548.295Z"/><path fill="#EFEFEE" transform="scale(0.666667 0.666992)" d="M168.065 239.602C212.216 238.112 249.23 272.674 250.775 316.835C252.32 360.995 217.813 398.061 173.665 399.662C129.439 401.266 92.3013 366.675 90.7535 322.436C89.2057 278.197 123.835 241.094 168.065 239.602Z"/><path fill="#12396A" transform="scale(0.666667 0.666992)" d="M209.788 291.562C211.556 292.755 216.322 297.57 218.109 299.292C201.317 315.014 184.997 331.239 168.325 347.088C163.353 351.815 158.41 356.577 153.078 360.901C144.966 353.693 137.129 345.933 129.327 338.373C126.398 335.472 123.585 332.78 120.973 329.57L127.85 322.737C136.682 330.143 145.27 338.161 153.794 345.942C172.896 328.109 191.264 309.971 209.788 291.562Z"/><path fill="#EFEFEE" transform="scale(0.666667 0.666992)" d="M400.054 127.721C414.067 126.37 427.881 127.675 439.207 136.909C451.284 146.756 451.792 159.572 453.309 173.868C458.671 175.888 468.251 177.798 470.757 183.582C466.309 185.841 449.775 180.944 447.619 176.434C444.361 169.62 446.825 159.503 443.171 152.068C432.739 130.837 404.877 129.981 385.709 138.686C377.533 143.783 373.894 147.531 369.29 156C370.93 166.258 370.748 176.509 371.158 187.153C371.45 194.758 372.104 210.039 363.41 214.151C359.332 216.079 351.218 218.316 346.804 216.863C345.129 215.219 345.624 216.193 345.324 213.816C348.428 208.62 359.491 211.975 362.357 207.357C367.594 198.916 364.464 162.782 363.323 154.159C370.019 138.892 384.09 130.339 400.054 127.721Z"/><path fill="#EFEFEE" transform="scale(0.666667 0.666992)" d="M404.898 150.975C444.977 147.355 424.578 188.683 432 210.952C434.278 217.788 451.682 228.329 454.385 234.846C454.105 237.182 454.53 236.301 452.384 238.064C447.488 238.696 442.353 230.116 438.262 227.168C419.47 213.629 424.712 200.023 424.683 179.528C424.67 170.012 425.637 162.099 415.019 157.574L414.173 157.219C414.035 157.198 413.897 157.175 413.759 157.157C409.074 156.53 402.658 156.445 398.827 159.558C396.738 161.255 395.656 163.556 395.132 166.158C392.926 177.097 396.878 193.303 395.143 205.505C394.38 210.874 392.147 215.814 387.709 219.109C385.226 220.953 361.869 229.279 359.448 228.779C357.958 228.471 357.846 228.202 357.107 226.995C359.546 219.344 381.92 218.375 385.535 213.262C393.134 202.518 389.165 173.786 389.216 160.693C394.396 153.459 395.911 152.634 404.898 150.975Z"/><path fill="#EFEFEE" transform="scale(0.666667 0.666992)" d="M400.715 138.914C410.694 138.128 421.364 138.08 429.848 144.335C447.084 157.043 439.771 182.872 442.692 202.5C449.047 208.434 464.056 218.203 466.97 225.475C466.835 227.961 467.245 227.23 465.761 228.65C460.695 227.772 440.464 208.853 436.584 204.342C435.345 191.773 436.094 179.122 434.936 166.355C433.189 148.091 416.676 141.779 400.459 145.359C391.619 147.311 387.008 151.979 382.581 159.413C382.405 168.494 383.074 177.471 383.283 186.527C383.466 194.451 385.236 207.857 377.603 212.956C375.23 212.82 376.259 213.266 374.53 211.334C375.397 207.812 377.415 200.138 377.458 196.85C377.799 171.331 367.387 146.586 400.715 138.914Z"/><path fill="#EFEFEE" transform="scale(0.666667 0.666992)" d="M405.503 162.79C406.452 162.718 407.401 162.648 408.352 162.609C411.31 162.49 413.559 162.942 415.757 165.06C420.782 169.904 419.704 213.785 419.67 223.371C419.643 230.911 419.316 236.787 413.626 242.312C409.676 246.148 400.505 251.811 394.903 251.748C392.927 250.463 393.677 251.305 392.692 249.037C395.385 243.439 403.678 244.072 407.953 239.585C413.966 233.44 414.055 225.759 413.777 217.709C413.267 202.92 413.219 188.051 413.114 173.244C412.654 170.703 411.803 168.037 408.863 168.364C405.373 174.102 408.441 195.679 407.691 204.087C406.233 220.439 397.112 228.404 381.975 233.396C377.254 234.953 371.508 237.348 367.933 232.361C369.865 226.88 384.466 229.119 392.875 221.781C407.23 209.256 398.91 187.671 401.092 170.809C401.717 165.985 401.754 165.822 405.503 162.79Z"/><path fill="#EFEFEE" transform="scale(0.666667 0.666992)" d="M399.482 115.754C427.1 113.337 459.117 125.407 463.608 156.045C464.18 159.947 465.177 163.275 463.491 167.052C461.472 168.124 462.395 167.957 459.676 167.133C457.998 164.516 456.255 151.853 454.374 146.625C450.544 135.976 440.925 130.538 431.038 125.937L430.551 125.769C406.834 117.628 384.558 121.037 366.251 138.708C362.566 142.266 356.437 152.569 351.036 149.846C350.757 147.48 352.123 145.389 353.593 143.512C365.888 127.821 379.628 118.682 399.482 115.754Z"/><path fill="#EFEFEE" transform="scale(0.666667 0.666992)" d="M353.743 158.494L355.999 159.075C359.894 162.97 358.961 199.918 355.974 204.807C354.61 204.58 353.693 204.143 352.423 203.634C352.228 203.291 351.671 202.405 351.665 201.823C351.52 188.357 351.323 174.427 352.078 161.008C352.772 159.96 353.327 159.122 353.743 158.494Z"/><path fill="#EFEFEE" transform="scale(0.666667 0.666992)" d="M445.324 184.057C448.63 184.416 469.32 202.564 471.614 206.176C471.713 209.491 471.856 208.231 469.941 211.666C463.654 208.957 448.06 194.631 443.914 188.221C443.152 187.044 444.672 185.171 445.324 184.057Z"/><path fill="#EFEFEE" transform="scale(0.666667 0.666992)" d="M405.925 221.524C409.812 222.874 411.64 226.392 409.309 229.971C403.892 238.289 393.817 241.571 384.954 244.125C382.31 243.935 382.306 243.271 381.348 241.309C382.952 236.168 397.42 235.125 401.432 229.623C403.682 226.538 404.303 224.963 405.925 221.524Z"/><path fill="#EFEFEE" transform="scale(0.666667 0.666992)" d="M425.341 221.765C428.79 222.295 428.275 221.718 430.669 223.712C433.364 229.466 430.497 236.974 428.488 242.848C426.263 242.57 426.05 242.629 424.205 241.466C422.408 238.118 425.201 227.906 425.341 221.765Z"/><path fill="#EFEFEE" transform="scale(0.666667 0.666992)" d="M369.784 239.275C373.01 239.15 374.921 238.592 377.29 240.998C377.554 243.313 377.257 243.712 376.479 245.998C373.349 246.322 371.725 246.549 369.267 244.871C368.579 241.817 368.765 242.869 369.784 239.275Z"/></svg>