<?xml version="1.0" encoding="utf-8" ?><svg xmlns="http://www.w3.org/2000/svg" xmlns:xlink="http://www.w3.org/1999/xlink" width="1024" height="683" viewBox="0 0 1024 683"><path fill="#FCFBFB" transform="scale(0.666667 0.666992)" d="M0 0L1536 0L1536 1024L0 1024L0 0Z"/><path fill="#FCFBFB" transform="scale(0.666667 0.666992)" d="M279.613 364.765C316.234 308.391 365.419 273.949 431.754 260.02C439.109 258.476 452.019 254.691 458.692 253.99C563.779 242.959 668.504 288.985 725.242 379.472C748.992 417.348 759.402 461.076 801.557 484.55C843.083 509.067 891.23 514.894 938.714 510.497C996.799 505.119 1055.41 499.333 1112.17 518.144L1114.3 501.493C1081.09 494.769 1082.77 463.054 1107.25 446.299C1129.11 431.34 1161.53 437.717 1180.74 455.177C1206.4 455.371 1237.24 472.044 1224.74 501.552C1231.25 508.512 1235.52 514.771 1235.05 524.632C1234.07 545.386 1217.57 552.371 1201.22 558.588C1213.94 563.423 1222.2 570.575 1232.02 579.771C1262.63 573.344 1280.76 584.861 1296.83 610.195C1316.74 621.914 1340.77 638.513 1357.05 654.718C1385.47 682.99 1410.92 724.313 1421.02 763.188C1435.23 817.855 1427.27 878.037 1398.49 926.655C1391.56 938.348 1377.96 957.223 1367.93 966.302L1425.22 966.373C1431.82 966.373 1449.87 966.024 1455.79 966.894C1460.5 967.816 1462.9 971.896 1460.8 976.38C1457.49 979.216 1453.37 979.954 1449.11 979.898C1420.8 979.526 1392.49 979.733 1364.18 979.74L1184.66 979.836L640.171 979.469L261.185 979.393L137.86 979.675C120.449 979.698 102.956 979.812 85.5447 979.848C81.4509 979.857 76.2115 978.865 73.1687 975.894C71.3521 971.298 74.089 969.348 77.7817 966.783C81.7094 966.025 99.1627 966.234 103.928 966.226L158.543 966.161C158.194 965.822 157.845 965.483 157.496 965.144C117.592 919.081 96.0592 852.11 97.4303 792.18C98.8306 730.972 119.551 673.158 154.386 623.865C164.285 609.858 174.734 595.283 186.652 583.614C184.249 572.392 182.386 559.146 180.47 547.626L168.47 475.541L158.752 419.223C156.842 407.944 154.761 396.524 153.833 385.135C153.18 377.112 160.611 366.9 168.776 365.981C181.474 364.551 194.824 365.239 207.652 365.212L279.613 364.765Z"/><path fill="#3A295F" transform="scale(0.666667 0.666992)" d="M1114.3 501.493C1081.09 494.769 1082.77 463.054 1107.25 446.299C1129.11 431.34 1161.53 437.717 1180.74 455.177C1206.4 455.371 1237.24 472.044 1224.74 501.552C1231.25 508.512 1235.52 514.771 1235.05 524.632C1234.07 545.386 1217.57 552.371 1201.22 558.588C1213.94 563.423 1222.2 570.575 1232.02 579.771C1262.63 573.344 1280.76 584.861 1296.83 610.195C1316.74 621.914 1340.77 638.513 1357.05 654.718C1385.47 682.99 1410.92 724.313 1421.02 763.188C1435.23 817.855 1427.27 878.037 1398.49 926.655C1391.56 938.348 1377.96 957.223 1367.93 966.302L1425.22 966.373C1431.82 966.373 1449.87 966.024 1455.79 966.894C1460.5 967.816 1462.9 971.896 1460.8 976.38C1457.49 979.216 1453.37 979.954 1449.11 979.898C1420.8 979.526 1392.49 979.733 1364.18 979.74L1184.66 979.836L640.171 979.469L261.185 979.393L137.86 979.675C120.449 979.698 102.956 979.812 85.5447 979.848C81.4509 979.857 76.2115 978.865 73.1687 975.894C71.3521 971.298 74.089 969.348 77.7817 966.783C84.4241 967.543 103.353 967.143 110.766 967.067C128.031 966.89 147.574 967.492 164.583 966.24C211.821 967.106 261.585 966.339 309.035 966.314L575.538 966.29L790.196 966.445C839.52 966.591 891.208 967.367 940.363 966.225C952.792 955.595 972.888 947.382 985.919 935.854C981.335 933.282 978.171 931.992 979.524 925.477C980.632 920.139 983.413 916.214 984.141 910.542C988.326 877.909 991.563 844.643 999.724 812.716C1011.31 770.325 1037.16 750.914 1073.71 730.601L790.931 731.278C769.011 731.253 738.762 731.537 716.255 730.947C715.079 730.917 714.77 729.803 714.279 728.876L715.093 727.591C721.607 724.816 798.554 726.026 812.263 725.893C812.385 723.846 813.393 716.58 812.857 715.122C795.578 668.145 773.854 621.987 756.352 575.134C764.347 574.924 772.348 574.792 780.345 574.81C838.791 574.939 897.268 574.302 955.706 575.311C961.343 589.636 967.928 602.796 974.335 616.791C986.887 644.204 1000.28 671.339 1012.42 698.924C1043.2 688.924 1074.49 678.586 1105.55 669.468C1112.54 647.053 1129.47 582.573 1146.22 571.257L1141.23 550.861C1120.96 549.323 1115.11 542.382 1111.86 522.486L1112.17 518.144L1114.3 501.493Z"/><path fill="#FCFBFB" transform="scale(0.666667 0.666992)" d="M1296.83 610.195C1316.74 621.914 1340.77 638.513 1357.05 654.718C1385.47 682.99 1410.92 724.313 1421.02 763.188C1435.23 817.855 1427.27 878.037 1398.49 926.655C1391.56 938.348 1377.96 957.223 1367.93 966.302L1425.22 966.373C1431.82 966.373 1449.87 966.024 1455.79 966.894C1450.48 967.293 1444.33 967.249 1438.96 967.114C1407.85 966.331 1375.73 968.193 1344.73 966.883L1279.95 966.94C1265.03 943.854 1248.22 931.001 1221.6 924.231C1221.74 894.143 1221.05 863.586 1221.5 833.658C1277.07 830.675 1311.59 803.118 1316.2 746.069C1316.58 741.454 1316.99 736.063 1317.84 731.52L1318 730.689C1327.16 730.594 1373.23 731.055 1379.02 729.342L1379.6 727.893L1378.49 726.362C1374.76 723.88 1326.46 725.467 1318.38 725.48C1318.75 690.393 1314.6 652.245 1300.66 619.662C1299.17 616.854 1297.96 613.233 1296.83 610.195Z"/><path fill="#8B75CE" transform="scale(0.666667 0.666992)" d="M1296.83 610.195C1316.74 621.914 1340.77 638.513 1357.05 654.718C1385.47 682.99 1410.92 724.313 1421.02 763.188C1435.23 817.855 1427.27 878.037 1398.49 926.655C1391.56 938.348 1377.96 957.223 1367.93 966.302L1425.22 966.373C1431.82 966.373 1449.87 966.024 1455.79 966.894C1450.48 967.293 1444.33 967.249 1438.96 967.114C1407.85 966.331 1375.73 968.193 1344.73 966.883C1348.82 966.319 1356.15 966.477 1360.5 966.444C1463.46 864.464 1432.47 702.908 1314.4 627.249C1311.06 625.109 1304.33 620.294 1300.66 619.662C1299.17 616.854 1297.96 613.233 1296.83 610.195Z"/><path fill="#8369CD" transform="scale(0.666667 0.666992)" d="M1101.84 755.2C1105.85 748.487 1122.69 739.525 1130.12 736.372C1152.11 727.054 1176.23 729.756 1199.84 729.777L1283.6 729.976C1281.27 744.43 1278.53 766.208 1264.4 775.2C1235.91 793.338 1187.97 793.172 1155.27 791.041C1154.62 790.999 1153.65 790.616 1153.1 790.415C1153.01 788.48 1153.15 786.382 1152.42 784.716L1151.34 784.581C1138.86 796.399 1120.94 895.955 1115.7 914.532C1105.98 914.498 1095.73 914.61 1086.05 914.413C1084.94 914.278 1084.68 914.141 1083.61 913.814C1081.56 910.115 1079.09 852.318 1078.88 842.08C1078.13 807.132 1073.84 780.713 1101.84 755.2Z"/><path fill="#FCFBFB" transform="scale(0.666667 0.666992)" d="M1101.84 755.2C1109.38 751.062 1116.24 745.667 1124.23 742.887L1124.87 743.913L1125.69 742.982C1121.31 747.889 1110.34 754.172 1104.86 758.984C1078.36 782.232 1082.79 813.892 1082.99 845.374C1082.85 855.246 1087.33 908.637 1086.05 914.413C1084.94 914.278 1084.68 914.141 1083.61 913.814C1081.56 910.115 1079.09 852.318 1078.88 842.08C1078.13 807.132 1073.84 780.713 1101.84 755.2Z"/><path fill="#8369CD" transform="scale(0.666667 0.666992)" d="M1217.24 573.437C1222.1 575.91 1234.72 588.157 1238.93 592.74C1276.85 634.012 1284.48 672.085 1283.86 725.478L1219.12 725.48L1159.05 725.527C1157.66 717.196 1155.67 703.613 1152.47 695.93C1187.07 676.23 1211.6 638.741 1217.46 599.248C1218.47 592.426 1217.38 580.784 1217.24 573.437Z"/><path fill="#8369CD" transform="scale(0.666667 0.666992)" d="M1064.08 740.798C1077.58 726.853 1114.26 729.841 1132.84 730.397C1108.66 740.58 1091.15 753.873 1079.36 778.635C1074.67 788.509 1076.9 798.374 1072.47 807.593C1068.32 816.257 1060.91 825.839 1056.54 834.183C1045.01 856.182 1027.85 891.161 1021.5 915.065C1015.38 914.691 999.264 913.845 993.439 914.757C990.643 914.537 991.332 914.959 989.208 913.579C987.221 908.708 998.639 841.122 1000.3 830.487C1006.19 792.684 1028.9 758.364 1064.08 740.798Z"/><path fill="#FCFBFB" transform="scale(0.666667 0.666992)" d="M1088.03 732.269C1051.38 751.447 1023.91 771.214 1011.43 812.461C1004.85 834.213 1002.02 857.439 998.702 879.89C997.802 885.972 995.228 910.125 993.439 914.757C990.643 914.537 991.332 914.959 989.208 913.579C987.221 908.708 998.639 841.122 1000.3 830.487C1006.19 792.684 1028.9 758.364 1064.08 740.798C1072.2 737.798 1079.65 734.208 1088.03 732.269Z"/><path fill="#FCFBFB" transform="scale(0.666667 0.666992)" d="M1140.41 828.18C1149.02 830.406 1177.85 833.081 1187.32 833.599C1188.11 862.727 1187.67 895.738 1187.51 925.11C1169.05 929.259 1155.79 937.591 1143.53 951.855C1139.5 956.555 1136.75 961.524 1133.99 966.994L1112.46 967.032C1112.25 958.657 1111.46 943.574 1112.46 934.916C1112.46 934.968 1115.46 931.309 1115.67 930.724C1116.76 927.676 1116.36 924.206 1116.97 920.651C1117.37 920.345 1120.18 918.144 1120.25 917.777C1126.19 887.866 1132.52 857.648 1140.41 828.18Z"/><path fill="#FCFBFB" transform="scale(0.666667 0.666992)" d="M1287.15 730.256C1295.83 730.255 1304.87 730.546 1313.58 730.697C1313.15 734.502 1312.68 738.851 1312.38 742.627C1305.81 826.471 1238.25 836.007 1169.07 827.962C1159.94 826.926 1150.38 825.333 1141.26 823.958L1150.9 794.308C1183.41 799.642 1243.47 797.342 1270.94 775.812C1281.78 767.315 1286.64 743.882 1287.15 730.256Z"/><path fill="#FCFBFB" transform="scale(0.666667 0.666992)" d="M1073.19 815.334C1074.95 817.534 1073.96 830.767 1074.01 834.799C1074.33 861.201 1077.08 887.601 1078.03 913.981C1078.18 918.119 1076.21 924.481 1076.14 928.833C1076.1 931.406 1076.46 931.242 1077.92 933.474C1077.96 934.11 1078.27 936.537 1077.85 936.957C1069.31 945.702 1041.82 955.307 1037.27 966.95L1024.31 966.946C1021.67 967.057 1021.04 967.089 1018.46 966.553C1017.35 964.338 1017.07 940.26 1016.93 935.692C1021.49 932.319 1021.05 928.088 1023.01 923.143C1034.94 893.031 1045.36 862.807 1061.57 834.544C1065.45 827.78 1068.4 821.657 1073.19 815.334Z"/><path fill="#8369CD" transform="scale(0.666667 0.666992)" d="M1187.75 580.767C1190.82 573.586 1192.89 568.93 1193.54 561C1201.98 563.99 1205.6 565.621 1213.18 570.898C1216.33 609.124 1206.43 635.858 1182.14 665.965C1171.21 679.514 1159.24 687.201 1143.79 694.759C1138.33 687.756 1133.65 676.451 1130.65 668.005C1130.6 667.523 1130.53 665.71 1130.8 665.501C1134.43 662.632 1142.57 657.733 1145.47 654.687C1164.27 634.919 1176.4 605.349 1187.75 580.767Z"/><path fill="#FCFBFB" transform="scale(0.666667 0.666992)" d="M1187.75 580.767C1190.31 586.784 1180.62 608.047 1178.67 614.245C1173.47 630.697 1148.83 667.508 1130.65 668.005C1130.6 667.523 1130.53 665.71 1130.8 665.501C1134.43 662.632 1142.57 657.733 1145.47 654.687C1164.27 634.919 1176.4 605.349 1187.75 580.767Z"/><path fill="#FCFBFB" transform="scale(0.666667 0.666992)" d="M1239.14 582.478C1263.7 580.955 1283.25 592.077 1293.63 614.757C1307.06 644.538 1313.1 677.85 1314.02 710.378C1314.13 714.275 1314.83 723.97 1311.16 725.511L1287.95 725.511C1290.06 673.096 1279.81 631.685 1244.91 592.826C1242.61 590.266 1237.29 586.433 1236.77 583.44L1239.14 582.478Z"/><path fill="#FCFBFB" transform="scale(0.666667 0.666992)" d="M1121.74 483.275C1128 485.895 1163.75 504.973 1167.18 509.243C1170.08 509.236 1170.72 503.072 1175.13 501.862C1184.28 499.356 1186.8 510.61 1183.06 516.794C1179.72 522.311 1172.99 520.729 1167.51 522.158C1166.75 524.034 1169.3 525.835 1171.37 528.048C1178.42 535.569 1183.12 549.435 1187.17 559.363C1179.75 565.426 1174.24 568.866 1165.7 572.871C1161.87 574.779 1154.04 579.693 1150.46 576.752C1150.31 570.743 1167.31 552.472 1168.89 543.45C1169.84 538.025 1169.64 534.627 1169.83 529.141C1142.81 554.453 1110.55 553.367 1117.38 507.959C1118.61 499.754 1120.46 491.533 1121.74 483.275Z"/><path fill="#382550" transform="scale(0.666667 0.666992)" d="M1130.15 498.694C1132.29 497.508 1134.99 498.292 1136.16 500.441C1137.33 502.59 1136.54 505.284 1134.38 506.445C1132.24 507.596 1129.58 506.804 1128.41 504.673C1127.25 502.541 1128.02 499.87 1130.15 498.694Z"/><path fill="#3A295F" transform="scale(0.666667 0.666992)" d="M1131.8 522.945L1133.73 522.921L1134.37 523.873C1132.91 528.412 1126.85 529.597 1122.75 530.189C1120.67 528.411 1121.07 529.259 1120.53 526.913C1122.46 525 1127.56 525.881 1131.8 522.945Z"/><path fill="#FCFBFB" transform="scale(0.666667 0.666992)" d="M1081.25 716.044C1087.69 716.024 1106.75 713.2 1108.56 720.376C1107.89 722.8 1107.93 722.997 1106.25 724.76C1102.48 726.458 1084.42 725.76 1079.63 725.753L1029.38 725.759L847.125 726.224C839.013 726.242 829.089 726.465 821.189 725.459C819.818 722.771 818.479 719.859 817.17 717.122C846.108 716.131 876.641 716.56 905.736 716.503L1081.25 716.044Z"/><path fill="#FCFBFB" transform="scale(0.666667 0.666992)" d="M764.98 580.085C784.11 579.762 804.921 580.359 824.235 580.355L951.797 579.942C956.288 587.988 963.571 604.899 967.764 613.841L997.033 676.042C1001.87 686.48 1007.81 700.349 1013.46 710.057C1010.94 710.452 1005.42 710.548 1002.64 710.674L974.934 651.022C964.859 629.838 953.457 607.147 944.44 585.571L825.124 585.375C810.622 585.359 780.653 586.34 767.728 585.084C765.784 583.479 765.95 582.675 764.98 580.085Z"/><path fill="#FCFBFB" transform="scale(0.666667 0.666992)" d="M1026.47 706.856C1023.17 706.824 1014.93 707.688 1015.05 703.147C1024.74 699.247 1036.04 696.402 1046.04 693.066C1066.12 686.37 1086.32 679.852 1106.63 673.854C1109.93 681.096 1116.15 695.739 1120.21 701.876C1112.43 704.313 1106.4 705.308 1100.97 711.452C1095.89 711.175 1070.52 711.076 1067.98 710.53C1067.15 709.424 1067.07 709.441 1066.48 708.203L1065.96 710.097L1064.4 710.068C1061.65 711.974 1022.87 711.79 1018.23 710.843L1018.53 709.639C1018.64 708.492 1018.53 709.044 1019.37 707.938C1022.26 707.762 1023.05 707.686 1025.83 707.014L1026.47 706.856Z"/><path fill="#382550" transform="scale(0.666667 0.666992)" d="M1026.47 706.856C1033.01 706.694 1063.82 705.135 1066.48 708.203L1065.96 710.097L1064.4 710.068C1061.65 711.974 1022.87 711.79 1018.23 710.843L1018.53 709.639C1018.64 708.492 1018.53 709.044 1019.37 707.938C1022.26 707.762 1023.05 707.686 1025.83 707.014L1026.47 706.856Z"/><path fill="#FCFBFB" transform="scale(0.666667 0.666992)" d="M1018.53 709.639C1027.23 709.524 1057.74 708.753 1064.4 710.068C1061.65 711.974 1022.87 711.79 1018.23 710.843L1018.53 709.639Z"/><path fill="#FCFBFB" transform="scale(0.666667 0.666992)" d="M1191.87 834.292L1217.23 834.065L1217.33 891.586C1217.35 901.034 1217.69 914.367 1216.96 923.563C1207.93 922.936 1200.91 923.006 1191.94 923.903L1191.87 834.292Z"/><path fill="#8369CD" transform="scale(0.666667 0.666992)" d="M1188.62 564.174L1189.23 564.948C1188.03 575.782 1163.28 622.626 1156.45 633.478C1152.46 639.802 1146.9 647.895 1141.62 653.386C1140.79 649.707 1140.23 645.415 1139.66 641.637C1137.83 624.494 1134.97 600.78 1140.65 583.729C1141.14 582.265 1144.49 577.702 1145.55 576.263L1148.11 585.039C1164.59 578.226 1173.83 574.23 1188.62 564.174Z"/><path fill="#FCFBFB" transform="scale(0.666667 0.666992)" d="M1199.53 927.503C1222.42 923.295 1252.73 939.09 1267.31 956.428C1269.39 958.892 1273.3 962.595 1273.14 965.998C1269.17 968.39 1266.06 965.48 1263.16 963.127C1248.97 951.587 1231.1 944.746 1212.92 943.344C1211.48 942.911 1203.88 942.518 1202.22 942.57C1177.01 943.364 1155.76 951.655 1137.83 969.292C1147.84 943.607 1173.52 930.679 1199.53 927.503Z"/><path fill="#FCFBFB" transform="scale(0.666667 0.666992)" d="M1199.77 947.048C1223.22 945.294 1243.47 954.61 1262.35 967.168C1254.71 967.162 1223.16 967.577 1217.86 966.248C1213.91 961.174 1219.65 957.06 1210.05 951.018L1209.31 950.56C1202.03 949.966 1201.57 950.012 1195.5 954.161C1194.14 958.077 1193.81 961.86 1193.29 965.951C1191.19 967.544 1150.75 967.229 1144.67 967.337C1162.17 954.159 1177.99 948.676 1199.77 947.048Z"/><path fill="#8B75CE" transform="scale(0.666667 0.666992)" d="M1083.6 933.943L1107.61 933.94C1107.75 942.969 1107.99 951.676 1108.39 960.696L1075.46 960.857L1049.58 960.95C1059.71 954.469 1072.46 947.738 1081.95 940.345C1084.09 938.679 1083.58 936.633 1083.6 933.943Z"/><path fill="#FCFBFB" transform="scale(0.666667 0.666992)" d="M862.286 630.329C882.887 626.993 903.938 656.441 883.63 666.766C865.682 667.634 841.755 642.534 862.286 630.329Z"/><path fill="#8B75CE" transform="scale(0.666667 0.666992)" d="M989.712 934.728C992.368 935.248 1009.19 935.086 1013.26 935.16C1012.8 942.916 1013.04 952.904 1013.01 960.828L980.65 960.85L956.02 960.967C966.106 955.037 978.768 947.358 988.638 940.667C990.036 939.719 989.691 936.602 989.712 934.728Z"/><path fill="#FCFBFB" transform="scale(0.666667 0.666992)" d="M1149.17 697.769C1150.4 698.913 1154.81 721.979 1155.52 725.398C1141.14 725.161 1125.85 725.505 1111.4 725.584C1114.87 719.404 1115.1 714.37 1108.08 711.625L1107.28 711.319C1109.28 709.132 1120.62 706.556 1124.12 705.737C1133.13 703.633 1140.63 701.484 1149.17 697.769Z"/><path fill="#8369CD" transform="scale(0.666667 0.666992)" d="M1131.84 607.136L1133.51 602.567C1134.5 615.459 1133.62 644.382 1138.9 656.33C1130.33 661.306 1125.11 662.855 1115.95 666.444C1114.79 666.885 1113.78 667.163 1112.6 667.512L1111.77 666.861C1112.14 664.066 1112.85 661.398 1113.7 658.713C1119.2 641.198 1124.37 623.582 1130.34 606.219L1131.84 607.136Z"/><path fill="#FCFBFB" transform="scale(0.666667 0.666992)" d="M1130.34 606.219L1131.84 607.136C1129.15 616.536 1126.58 625.574 1124.23 635.061C1121.81 644.831 1119.88 657.399 1115.95 666.444C1114.79 666.885 1113.78 667.163 1112.6 667.512L1111.77 666.861C1112.14 664.066 1112.85 661.398 1113.7 658.713C1119.2 641.198 1124.37 623.582 1130.34 606.219Z"/><path fill="#FCFBFB" transform="scale(0.666667 0.666992)" d="M1124.31 667.704L1125.87 667.937C1129.91 677.647 1134.05 686.915 1139.11 696.136L1126.61 699.773L1124.81 699.714C1122.67 697.086 1114.16 677.041 1111.99 672.392C1115.82 670.794 1120.38 669.194 1124.31 667.704Z"/><path fill="#FCFBFB" transform="scale(0.666667 0.666992)" d="M985.621 919.752C994.829 919.623 1009.56 919.189 1018.43 920.207L1015.8 930.851C1010.36 930.82 986.936 931.388 984.219 928.436C983.849 925.243 984.759 922.85 985.621 919.752Z"/><path fill="#FCFBFB" transform="scale(0.666667 0.666992)" d="M948.631 965.105C965.524 964.63 996.097 963.926 1012.48 964.99C1013.73 966.824 1013.29 966.46 1013.11 969.272L971.457 969.494C965.478 969.525 953.978 969.95 948.619 969.098C947.697 967.121 947.979 967.769 948.631 965.105Z"/><path fill="#FCFBFB" transform="scale(0.666667 0.666992)" d="M1043.2 964.931C1055.68 964.697 1068.52 964.859 1081.02 964.794C1088.74 964.754 1099.2 964.459 1106.72 965.079C1108.21 966.786 1107.72 966.301 1107.61 969.35L1067.72 969.511C1060.95 969.541 1049.76 969.906 1043.35 969.139L1042.59 968.145L1043.2 964.931Z"/><path fill="#FCFBFB" transform="scale(0.666667 0.666992)" d="M1082.88 920.122C1092.69 919.639 1102.84 919.734 1112.65 920.062C1112.75 923.076 1112.82 926.795 1111.29 929.387L1080.96 929.457C1081.16 926.371 1080.93 921.956 1082.88 920.122Z"/><path fill="#FCFBFB" transform="scale(0.666667 0.666992)" d="M1130.75 446.511C1151.12 445.455 1160.62 447.984 1175.94 461.125C1167.6 456.994 1162.44 454.378 1153.27 451.986C1143.19 449.572 1130.85 448.958 1121.16 453.43C1117.35 455.193 1114.93 457.591 1110.51 459.073L1110.23 458.359C1113.05 451.291 1124.09 447.982 1130.75 446.511Z"/><path fill="#FCFBFB" transform="scale(0.666667 0.666992)" d="M1204.4 954.615C1208.4 954.1 1212.11 956.801 1212.85 960.769C1213.58 964.736 1211.09 968.587 1207.17 969.539C1204.43 970.203 1201.55 969.301 1199.69 967.194C1197.82 965.087 1197.27 962.121 1198.26 959.485C1199.25 956.849 1201.61 954.975 1204.4 954.615Z"/><path fill="#382550" transform="scale(0.666667 0.666992)" d="M1203.23 960.662C1204.08 959.928 1205.26 959.712 1206.31 960.1C1207.36 960.488 1208.12 961.418 1208.28 962.526C1208.45 963.634 1207.99 964.744 1207.1 965.422C1205.79 966.425 1203.91 966.201 1202.87 964.916C1201.82 963.631 1201.98 961.748 1203.23 960.662Z"/><path fill="#FCFBFB" transform="scale(0.666667 0.666992)" d="M1185.21 463.133C1199.3 460.423 1211.43 470.325 1215.75 483.275C1213.76 482.068 1210.5 475.465 1207.85 473.135C1200.99 467.101 1192.7 466.874 1185.21 463.133Z"/><path fill="#E7E1F0" transform="scale(0.666667 0.666992)" d="M1135.27 594.304L1133.51 602.567L1131.84 607.136L1130.34 606.219C1131.21 602.768 1133.73 597.687 1135.27 594.304Z"/><path fill="#FCFBFB" transform="scale(0.666667 0.666992)" d="M279.613 364.765L285.089 365.212C298.931 365.656 315.105 365.226 329.104 365.224L406.507 365.276C408.279 377.676 411.828 391.993 413.196 403.565L424.589 473.206C426.74 486.703 428.699 500.355 431.804 513.655C434.538 525.37 451.548 523.257 461.028 523.117C504.732 522.47 548.655 523.583 592.336 522.934C600.267 522.903 618.465 522.379 625.72 523.012L617.284 523.45C620.977 546.663 625.889 570.819 630.119 594.019L659.943 759.047L668.657 808.301C670.594 818.999 672.765 829.299 673.815 840.221C674.677 849.186 671.312 854.427 663.66 859.131C660.451 861.104 650.672 860.667 646.626 861.044C618.087 861.084 589.519 860.915 560.983 860.955L363.197 861.095L286.468 861.012C276.136 860.979 261.112 861.322 251.202 860.052C245.368 859.304 234.852 851.121 232.342 845.615C230.942 842.545 229.669 840.737 228.978 836.951C224.979 815.044 221.145 792.851 217.706 770.859L205.175 693.941L192.964 623.842C191.385 614.383 188.774 600.592 187.993 591.2C187.611 588.668 187.116 586.134 186.652 583.614C184.249 572.392 182.386 559.146 180.47 547.626L168.47 475.541L158.752 419.223C156.842 407.944 154.761 396.524 153.833 385.135C153.18 377.112 160.611 366.9 168.776 365.981C181.474 364.551 194.824 365.239 207.652 365.212L279.613 364.765Z"/><path fill="#8369CD" transform="scale(0.666667 0.666992)" d="M279.613 364.765L285.089 365.212C298.931 365.656 315.105 365.226 329.104 365.224L406.507 365.276C408.279 377.676 411.828 391.993 413.196 403.565L180.714 403.79L231.648 705.183L244.999 786.188C247.135 799.158 249.656 817.586 252.74 829.849C255.202 832.02 256.579 833.315 259.379 835.054L647.657 834.817C640.109 781.196 627.847 724.055 618.487 670.354L599.26 561.762C597.34 551.413 594.608 532.403 592.336 522.934C600.267 522.903 618.465 522.379 625.72 523.012L617.284 523.45C620.977 546.663 625.889 570.819 630.119 594.019L659.943 759.047L668.657 808.301C670.594 818.999 672.765 829.299 673.815 840.221C674.677 849.186 671.312 854.427 663.66 859.131C660.451 861.104 650.672 860.667 646.626 861.044C618.087 861.084 589.519 860.915 560.983 860.955L363.197 861.095L286.468 861.012C276.136 860.979 261.112 861.322 251.202 860.052C245.368 859.304 234.852 851.121 232.342 845.615C230.942 842.545 229.669 840.737 228.978 836.951C224.979 815.044 221.145 792.851 217.706 770.859L205.175 693.941L192.964 623.842C191.385 614.383 188.774 600.592 187.993 591.2C187.611 588.668 187.116 586.134 186.652 583.614C184.249 572.392 182.386 559.146 180.47 547.626L168.47 475.541L158.752 419.223C156.842 407.944 154.761 396.524 153.833 385.135C153.18 377.112 160.611 366.9 168.776 365.981C181.474 364.551 194.824 365.239 207.652 365.212L279.613 364.765Z"/><path fill="#FCFBFB" transform="scale(0.666667 0.666992)" d="M290.908 382.952C306.012 382.688 339.629 382.075 356.214 383.409C356.657 383.807 357.099 384.205 357.541 384.603C358.034 387.387 358.16 386.246 356.971 388.914C354.435 390.535 355.481 390.057 351.937 390.198L308.715 390.271C303.35 390.279 287.586 391.435 284.128 388.198C283.097 385.8 283.143 386.834 283.834 384.424C286.72 382.554 286.951 383.155 290.908 382.952Z"/><path fill="#FCFBFB" transform="scale(0.666667 0.666992)" d="M195.348 380.829C198.262 379.08 202.041 380.022 203.794 382.934C205.546 385.847 204.608 389.628 201.699 391.384C198.784 393.143 194.996 392.203 193.241 389.286C191.486 386.369 192.43 382.581 195.348 380.829Z"/><path fill="#FCFBFB" transform="scale(0.666667 0.666992)" d="M248.784 380.022C252.082 379.689 255.032 382.076 255.396 385.37C255.761 388.665 253.404 391.639 250.114 392.036C246.778 392.438 243.755 390.041 243.385 386.7C243.015 383.36 245.441 380.359 248.784 380.022Z"/><path fill="#FCFBFB" transform="scale(0.666667 0.666992)" d="M221.651 380.838C223.604 379.784 225.979 379.89 227.83 381.115C229.681 382.34 230.708 384.485 230.501 386.696C230.294 388.906 228.887 390.823 226.841 391.683C223.882 392.927 220.468 391.629 219.082 388.733C217.697 385.837 218.827 382.363 221.651 380.838Z"/><path fill="#3A295F" transform="scale(0.666667 0.666992)" d="M241.918 442.187L325.557 442.063C340.314 442.071 355.213 441.797 369.942 442.393C379.043 442.946 385.88 446.283 387.487 456.009C392.475 486.19 397.796 516.452 402.413 546.689C404.174 558.227 397.517 560.408 387.875 560.808L298.459 560.99C283.618 560.986 268.3 561.352 253.623 560.301C240.945 558.653 240.004 548.557 238.177 538.482C234.557 518.188 231.915 497.974 228.072 477.693C226.372 468.718 222.056 454.344 228.938 446.701C232.686 442.54 236.749 442.331 241.918 442.187Z"/><path fill="#FCFBFB" transform="scale(0.666667 0.666992)" d="M240.93 446.731C284.456 446.304 328.828 447.131 372.451 447.028C378.015 447.014 382.249 451.831 383.16 457.171C388.127 486.261 393.071 515.488 397.518 544.676C397.965 547.614 397.996 552.393 396.057 554.683C391.081 557.361 381.562 556.315 375.715 556.087C368.985 548.065 366.342 546.502 357.975 541.049C349.271 535.378 325.102 527.969 321.214 518.761C322.003 513.894 335.662 516.188 338.005 494.754C338.956 485.565 334.807 483.227 334.857 477.094C336.402 474.805 337.106 475.236 340.325 474.246C339.324 467.567 338.25 460.346 331.999 455.758C319.188 446.355 296.197 456.397 286.547 466.668C283.321 470.102 285.759 476.689 286.602 481.098C279.428 492.894 287.216 500.116 296.333 506.6C297.114 513.245 297.063 516.886 296.658 523.375C283.386 528.747 267.943 542.044 262.014 555.621C253.849 557.701 250.18 556.327 244.589 550.217L230.358 464.613C228.605 453.418 228.074 447.762 240.93 446.731Z"/><path fill="#8B75CE" transform="scale(0.666667 0.666992)" d="M296.511 527.232C300.858 526.744 320.935 547.879 324.039 552.128C327.907 546.8 332.088 539.634 335.542 533.971C350.297 540.385 360.161 545.601 371.775 556.69L358.805 556.744L265.482 556.714C272.441 540.871 282.303 536.552 296.511 527.232Z"/><path fill="#FCFBFB" transform="scale(0.666667 0.666992)" d="M300.834 491.125C302.282 485.597 302.656 480.033 303.226 474.348C316.988 478.577 318.513 475.797 329.885 476.55L330.462 477.702C342.788 501.534 324.278 529.296 301.288 499.598C301.026 496.324 301.42 494.978 300.834 491.125Z"/><path fill="#3A295F" transform="scale(0.666667 0.666992)" d="M330.012 486.937C329.102 484.073 327.7 480.83 328.873 478.177L330.462 477.702C331.238 480.936 332.484 483.297 331.829 486.06L330.012 486.937Z"/><path fill="#FCFBFB" transform="scale(0.666667 0.666992)" d="M300.674 505.364C305.563 510.602 308.187 512.852 314.42 516.344C319.365 525.796 321.922 524.41 326.852 531.256L326.081 532.625C317.038 534.655 306.784 528.126 299.245 523.765C300.466 516.584 300.587 512.513 300.674 505.364Z"/><path fill="#FCFBFB" transform="scale(0.666667 0.666992)" d="M301.288 499.598C292.967 501.973 287.407 490.829 295.273 486.875C296.57 487.98 296.986 491.413 297.75 493.751L298.977 493.6L300.834 491.125C301.42 494.978 301.026 496.324 301.288 499.598Z"/><path fill="#8B75CE" transform="scale(0.666667 0.666992)" d="M328.869 534.413L329.542 534.521C328.645 537.557 325.241 542.787 323.485 545.71L318.62 541.079C316.765 539.217 314.657 536.803 312.839 534.835C319.659 536.554 322.564 537.701 328.869 534.413Z"/><path fill="#3A295F" transform="scale(0.666667 0.666992)" d="M287.596 593.014C303.234 592.836 397.141 591.272 406.051 594.356C414.335 603.391 418.786 656.957 422.638 671.541C424.263 677.69 427.965 700.181 423.772 704.948C420.394 708.789 396.299 707.401 391.125 707.34L321.026 707.341C307.819 707.373 294.477 707.516 281.269 707.328C273.741 707.221 271.357 705.934 266.444 700.596C264.501 693.163 262.598 675.878 261.171 667.258C258.142 648.962 255.632 629.915 252.889 611.554C252.377 608.128 252.42 597.85 254.8 595.925C260.055 591.675 281.129 593.006 287.596 593.014Z"/><path fill="#FCFBFB" transform="scale(0.666667 0.666992)" d="M291.047 702.935C279.068 702.756 271.066 705.753 269.073 691.776C265.242 664.913 261.272 638.041 256.968 611.247C256.305 607.117 256.006 602.423 258.621 598.931C264.227 596.747 395.23 597.112 404.343 599.111C409.098 605.334 415.927 666.738 419.123 678.928C425.71 704.056 421.902 702.619 401.485 702.309C365.091 703.462 326.951 701.469 291.047 702.935Z"/><path fill="#8B75CE" transform="scale(0.666667 0.666992)" d="M291.047 702.935C291.764 702.747 294.247 702.319 294.32 701.761C296.051 688.429 298.856 679.273 309.76 670.154C313.382 667.125 321.227 661.566 326.725 661.946C333.448 664.994 337.428 678.772 349.49 674.556C356.213 672.207 357.182 667.455 356.61 661.064C381.806 666.567 397.068 675.642 401.485 702.309C365.091 703.462 326.951 701.469 291.047 702.935Z"/><path fill="#3A295F" transform="scale(0.666667 0.666992)" d="M326.725 661.946C337.42 650.187 302.363 637.707 320.639 625.526L320.887 624.577C324.268 611.878 335.473 604.873 348.531 607.96C362.581 611.282 364.547 638.78 363.192 650.607C362.929 652.898 357.012 658.027 356.61 661.064C357.182 667.455 356.213 672.207 349.49 674.556C337.428 678.772 333.448 664.994 326.725 661.946Z"/><path fill="#FCFBFB" transform="scale(0.666667 0.666992)" d="M331.274 621.448C341.64 625.004 346.625 623.953 357.217 622.133C358.502 629.819 361.555 641.739 357.948 648.45C357.035 648.324 354.719 648.06 353.944 647.861C328.337 653.734 331.176 640.561 331.274 621.448Z"/><path fill="#574A79" transform="scale(0.666667 0.666992)" d="M353.944 647.861C351.526 646.445 350.77 647.106 348.132 644.896L348.3 644.151C352.584 644.713 354.263 646.108 357.948 648.45C357.035 648.324 354.719 648.06 353.944 647.861Z"/><path fill="#574A79" transform="scale(0.666667 0.666992)" d="M340.6 634.169C343.536 635.038 344.006 635.486 344.635 638.285C343.64 640.547 343.359 641.145 341.899 643.127C340.399 642.79 340.513 642.79 339.479 641.632C340.871 638.337 341.244 637.743 340.6 634.169Z"/><path fill="#FCFBFB" transform="scale(0.666667 0.666992)" d="M333.313 654.584C339.779 657.678 343.446 664.62 352.564 662.556L353.593 663.439C353.98 666.128 353.476 666.986 352.633 669.532C339.478 674.497 332.468 667.936 333.313 654.584Z"/><path fill="#8B75CE" transform="scale(0.666667 0.666992)" d="M288.886 781.83C308.41 781.053 332.953 781.728 352.731 781.735L476.385 781.721C502.124 781.687 568.348 781.212 597.714 782.134C600.465 782.22 608.377 793.724 597.508 798.017L379.043 797.747L318.86 797.508C312.581 797.48 289.06 799.326 285.011 793.638C281.713 789.004 284.557 784.857 288.886 781.83Z"/><path fill="#8B75CE" transform="scale(0.666667 0.666992)" d="M280.512 731.729L520.638 732.032L565.373 731.926C571.239 731.903 586.719 731.48 591.872 732.741C596.55 736.181 597.185 745.028 590.29 747.003C523.242 748.066 453.74 747.263 386.556 747.191L319.541 747.218C307.929 747.254 296.309 747.414 284.705 747.182C278.611 747.06 274.848 742.16 275.843 736.272C277.201 733.699 278.147 733.278 280.512 731.729Z"/><path fill="#F3858B" transform="scale(0.666667 0.666992)" d="M452.028 623.414C457.631 623.317 483.999 621.517 490.417 625.525C492.539 626.851 493.661 634.546 493.907 637.843C494.424 644.735 498.578 655.344 493.661 661.173C486.949 661.62 462.502 661.842 456.993 659.479C453.761 655.765 453.285 647.041 452.453 642.064C451.306 635.208 448.221 629.708 452.028 623.414Z"/><path fill="#FCFBFB" transform="scale(0.666667 0.666992)" d="M480.361 629.084C482.871 629.439 484.302 629.735 484.618 632.451C483.172 635.79 479.514 638.279 477.099 641.063C474.306 644.283 477.852 643.941 478.244 649.133L476.981 650.449C472.79 650.743 475.792 648.603 471.109 648.39L468.463 651.096C466.407 653.108 467.42 652.559 464.638 653.197C462.108 652.363 462.825 653.01 461.693 650.977C462.231 646.657 476.675 632.959 480.361 629.084Z"/><path fill="#F3858B" transform="scale(0.666667 0.666992)" d="M447.901 579.491C450.917 579.337 454.559 579.278 457.356 579.303C475.052 579.418 485.983 573.126 487.829 596.592C488.39 603.724 493.02 612.136 485.992 616.744C478.55 616.812 454.564 618.146 449.578 614.65C445.452 608.938 443.832 592.506 443.816 585.149C443.81 582.29 445.983 580.995 447.901 579.491Z"/><path fill="#FCFBFB" transform="scale(0.666667 0.666992)" d="M474.65 587.078C475.529 587.12 476.777 587.487 477.676 587.703C479.81 593.46 464.816 606.022 460.155 609.201C459.226 609.834 457.559 608.591 456.571 608.099C460.462 599.221 455.771 604.302 456.002 596.168L457.011 595.308C459.669 595.425 460.939 596.647 463.19 598.16C465.411 597.48 472.598 589.289 474.65 587.078Z"/><path fill="#8369CD" transform="scale(0.666667 0.666992)" d="M461.097 669.938C468.384 669.861 489.644 668.768 494.689 671.655C499.282 677.044 500.473 694.294 500.796 701.661C500.904 704.121 499.721 705.27 497.973 706.842C491.469 707.065 470.642 709.248 466.52 706.022C461.119 701.795 456.404 676.032 461.097 669.938Z"/><path fill="#FCFBFB" transform="scale(0.666667 0.666992)" d="M464.406 675.801C473.627 675.463 482.356 675.575 491.563 675.883C493.095 684.161 494.97 693.277 495.974 701.556C487.119 701.752 477.986 701.541 469.109 701.445C467.314 693.959 465.239 683.295 464.406 675.801Z"/><path fill="#8369CD" transform="scale(0.666667 0.666992)" d="M513.078 683.767C523.138 683.741 581.783 682.137 586.951 684.813C588.156 685.436 587.958 685.668 588.377 686.85C586.942 688.856 587.73 688.232 585.172 688.998L538.594 689.24C530.8 689.322 521.324 689.682 513.521 689.05C511.925 688.921 511.754 688.086 511.049 686.961C511.708 684.476 511.125 685.314 513.078 683.767Z"/><path fill="#8369CD" transform="scale(0.666667 0.666992)" d="M502.767 622.052C524.318 621.981 545.92 621.826 567.469 622.033C570.409 622.062 573.312 621.874 574.909 624.425L574.318 626.84C564.35 627.858 548.743 626.821 538.224 627.157C527.971 627.485 516.081 627.003 505.701 627.029C503.334 627.034 503.024 626.646 501.86 625.281L502.767 622.052Z"/><path fill="#8369CD" transform="scale(0.666667 0.666992)" d="M500.124 605.535C508.044 605.492 554.237 604.737 559.089 606.041C560.783 607.918 560.237 607.539 560.524 610.686C550.417 611.114 538.247 610.679 527.99 610.793C520.781 610.873 507.758 611.158 501.345 610.354C499.783 608.493 500.308 608.589 500.124 605.535Z"/><path fill="#8369CD" transform="scale(0.666667 0.666992)" d="M509.123 667.718C523.832 667.379 538.553 667.615 553.265 667.458C557.309 667.415 561.361 667.277 565.366 667.926C567.164 669.745 566.571 669.327 566.72 672.746C560.342 673.113 514.463 673.526 510.304 672.696C508.84 670.764 509.277 670.449 509.123 667.718Z"/><path fill="#FCFBFB" transform="scale(0.666667 0.666992)" d="M593.709 319.704C597.899 317.902 599.65 314.841 602.983 312.7C625.976 297.923 651.065 320.509 642.666 345.597C638.814 357.104 620.063 368.52 619.928 377.974L634.975 462.276C637.815 478.103 641.165 493.98 642.768 509.972C643.977 522.04 635.202 523.222 625.72 523.012C618.465 522.379 600.267 522.903 592.336 522.934C548.655 523.583 504.732 522.47 461.028 523.117C451.548 523.257 434.538 525.37 431.804 513.655C428.699 500.355 426.74 486.703 424.589 473.206L413.196 403.565C411.828 391.993 408.279 377.676 406.507 365.276C405.217 355.01 393.771 320.753 410.723 319.939C428.655 319.078 447.664 319.583 465.687 319.574L593.709 319.704Z"/><path fill="#8369CD" transform="scale(0.666667 0.666992)" d="M593.709 319.704C597.899 317.902 599.65 314.841 602.983 312.7C625.976 297.923 651.065 320.509 642.666 345.597C638.814 357.104 620.063 368.52 619.928 377.974L619.011 376.976C616.802 378.389 616.743 378.831 615.416 381.219C612.998 382.116 583.616 417.364 580.984 421.192C582.131 438.494 587.334 457.017 589.009 474.404C589.607 480.611 587.36 487.064 580.186 487.054C546.434 487.011 512.698 487.017 478.951 486.815C476.677 486.8 469.798 486.085 468.03 484.74C466.309 482.663 464.779 477.134 464.359 474.738C459.293 445.845 454.979 416.825 450.138 387.891C449.817 383.718 448.218 378.216 448.557 374.045C449.956 356.793 461.806 354.763 476.578 355.515C482.7 355.827 490.493 355.526 496.309 355.538L563.115 355.575C571.907 346.812 580.756 334.161 590.086 324.681C576.694 324.736 556.27 325.318 543.38 324.214C553.697 323.366 583.56 325.332 591.396 323.275C593.465 321.372 592.875 322.321 593.709 319.704Z"/><path fill="#FCFBFB" transform="scale(0.666667 0.666992)" d="M598.104 346.253C601.102 346.201 602.173 346.363 603.252 349.13C601.99 355.848 532.484 429.561 521.59 442.945C510.942 434.151 487.329 409.958 476.961 399.846C474.548 397.507 472.847 396.455 473.106 393.11C474.419 391.301 474.297 391.315 476.382 390.64C481.625 392.917 513.89 426.386 520.569 433.019C524.011 429.745 527.345 426.31 530.508 422.766C553.167 397.376 575.288 371.505 598.104 346.253Z"/><path fill="#3A295F" transform="scale(0.666667 0.666992)" d="M406.507 365.276C405.217 355.01 393.771 320.753 410.723 319.939C428.655 319.078 447.664 319.583 465.687 319.574L593.709 319.704C592.875 322.321 593.465 321.372 591.396 323.275C583.56 325.332 553.697 323.366 543.38 324.214C524.148 324.231 417.459 322.606 408.333 325.806C406.676 327.551 405.636 328.437 405.864 330.836C407.887 352.119 412.932 374.51 416.497 395.593L427.715 463.161C429.334 473.285 434.014 509.677 438.068 517.119C447.951 518.944 461.23 518.409 471.523 518.397L516.955 518.311L588.981 518.328C602.074 518.349 615.188 518.47 628.278 518.249C633.133 518.168 635.714 518.215 638.068 513.696C638.591 505.889 629.388 458.707 627.368 448.415C623.182 427.091 619.605 402.489 615.416 381.219C616.743 378.831 616.802 378.389 619.011 376.976L619.928 377.974L634.975 462.276C637.815 478.103 641.165 493.98 642.768 509.972C643.977 522.04 635.202 523.222 625.72 523.012C618.465 522.379 600.267 522.903 592.336 522.934C548.655 523.583 504.732 522.47 461.028 523.117C451.548 523.257 434.538 525.37 431.804 513.655C428.699 500.355 426.74 486.703 424.589 473.206L413.196 403.565C411.828 391.993 408.279 377.676 406.507 365.276Z"/><path fill="#8B75CE" transform="scale(0.666667 0.666992)" d="M279.613 364.765C316.234 308.391 365.419 273.949 431.754 260.02C439.109 258.476 452.019 254.691 458.692 253.99C563.779 242.959 668.504 288.985 725.242 379.472C748.992 417.348 759.402 461.076 801.557 484.55C843.083 509.067 891.23 514.894 938.714 510.497C996.799 505.119 1055.41 499.333 1112.17 518.144L1111.86 522.486C1079.85 513.497 1042.99 509.183 1009.69 510.218C946.419 512.186 888.924 526.548 827.15 502.685C791.012 488.724 767.054 468.88 748.364 434.335C740.408 419.631 734.517 403.959 725.692 389.259C695.779 339.43 647.681 297.758 593.679 276.576C524.827 249.57 450.702 251.056 383.22 280.861C348.549 296.174 319.83 317.44 297.003 347.766C294.104 351.618 286.655 361.065 285.089 365.212L279.613 364.765Z"/><path fill="#8B75CE" transform="scale(0.666667 0.666992)" d="M186.652 583.614C187.116 586.134 187.611 588.668 187.993 591.2C178.576 594.028 145.5 646.954 139.582 657.475C88.7702 747.807 89.0777 861.217 149.777 946.95C154.38 953.452 160.174 959.883 164.583 966.24C147.574 967.492 128.031 966.89 110.766 967.067C103.353 967.143 84.4241 967.543 77.7817 966.783C81.7094 966.025 99.1627 966.234 103.928 966.226L158.543 966.161C158.194 965.822 157.845 965.483 157.496 965.144C117.592 919.081 96.0592 852.11 97.4303 792.18C98.8306 730.972 119.551 673.158 154.386 623.865C164.285 609.858 174.734 595.283 186.652 583.614Z"/><path fill="#3A295F" transform="scale(0.666667 0.666992)" d="M1184.71 75.2237C1186.31 74.9729 1190.38 74.7568 1192.16 74.6151C1193.46 81.0207 1194.87 86.9572 1196.45 93.3025C1203.22 93.8186 1207.04 94.5324 1213.7 95.8793C1215.72 90.1868 1218.81 84.427 1221.53 78.9921C1227.45 82.3773 1236.06 85.5572 1242.76 89.0147C1241.4 93.781 1238.07 100.905 1236.02 105.643C1242.15 109.214 1247.41 113.792 1252.92 118.269C1258.16 114.174 1260.92 112.182 1266.65 108.828C1269.99 112.318 1278.42 121.722 1278.85 126.271C1277.72 131.589 1271.65 135.094 1267.2 138.527C1269.5 143.782 1271.77 149.97 1273.87 155.378C1279.96 156.059 1287.44 156.372 1293.65 156.789C1294.56 162.937 1294.76 172.103 1295.43 178.875C1288.19 180.921 1282.21 181.772 1274.76 182.937C1274.25 190.176 1273.26 193.749 1270.63 200.485C1275.94 204.521 1281.67 207.237 1287.52 211.833C1284 218.794 1280.46 226.634 1276.44 233.206C1270.7 230.833 1264.45 227.168 1258.95 224.147C1253.22 230.362 1250.03 233.149 1243.56 238.298C1245.38 243.737 1248.61 251.448 1251.01 256.622C1245.12 260.446 1235.97 265.062 1229.49 267.662L1219.59 250.294C1215.86 251.5 1199.03 254.623 1197.79 255.968C1195.46 267.118 1198.31 276.596 1182.45 272.171C1178.99 271.205 1173.84 270.354 1170.13 269.447C1170.52 263.143 1171.1 258.215 1171.98 251.954C1164.2 250.091 1156.8 246.205 1149.63 242.701C1144.85 247.599 1140.96 251.759 1135.61 256.039C1124.77 248.588 1123.98 246.097 1115.64 235.548C1119.02 232.161 1125.82 226.756 1129.81 223.136C1124.35 216.621 1122.98 213.668 1119.55 206.118C1113.83 208.022 1106.92 210.941 1101.21 213.194C1099.36 207.864 1094.02 195.837 1094.99 191.306C1097.72 187.002 1108.39 185.596 1113.86 184.309C1113.16 176.487 1112.87 169.685 1113.95 161.904C1107.43 160.272 1101.43 158.855 1095.08 156.605C1096.69 150.966 1100.01 135.998 1103.7 133.435C1108.84 131.923 1115.68 135.79 1120.75 137.967C1125.16 129.951 1127.04 127.031 1133.6 120.726C1129.1 115.654 1124.87 111.105 1121.49 105.222C1127.65 100.08 1132.44 94.0199 1139.13 89.2317C1143.06 92.0088 1150.78 99.6853 1154.63 103.348C1160.02 100.874 1165.47 98.9028 1171.01 96.8189C1170.36 90.5838 1169.97 83.8738 1169.51 77.5847L1184.71 75.2237Z"/><path fill="#FCFBFB" transform="scale(0.666667 0.666992)" d="M1173.45 81.2782C1178.86 80.3552 1183.92 79.4477 1189.3 78.3083C1194.38 104.219 1193.14 93.8503 1215.55 100.531C1217.93 94.5453 1220.09 89.8989 1222.92 84.1047C1228.16 86.9348 1233.01 88.6073 1238.56 90.6818C1236.13 95.8623 1233.65 101.248 1232.39 106.864C1241.05 112.661 1244.96 115.307 1252.43 122.872C1257.02 119.378 1261.28 116.122 1266.53 113.601L1275.85 126.891C1271.95 129.865 1266.44 133.876 1262.87 136.999C1265.58 143.886 1269.18 151.987 1270.26 159.146C1276.57 159.41 1284.31 159.518 1290.49 160.035C1290.56 166.613 1290.92 169.996 1291.82 176.485C1286.61 177.279 1276.61 179.098 1271.72 179.397C1271.03 189.283 1269.8 192.891 1266.26 202.213L1282.48 212.901C1280.11 217.653 1277.04 223.422 1274.89 228.172C1269.02 225.362 1263.65 222.593 1257.9 219.53C1250.66 227.635 1247.43 231.15 1238.33 237.242L1246.2 255.009L1231 262.59L1221.2 245.959C1210.4 249.079 1205.7 250.205 1194.57 251.128C1193.8 256.192 1192.43 263.889 1192.06 268.824C1185.37 268.415 1180.83 267.835 1174.2 266.789C1174.73 261.284 1175.43 255.297 1175.73 249.812C1166.69 246.655 1156.36 242.914 1148.64 237.05L1147.41 239.129C1143.9 243.609 1139.68 247.642 1135.39 251.346C1130.29 246.911 1124.79 241.109 1120.62 235.816C1125.42 232.34 1128.68 229.661 1133.15 225.796L1134.55 223.406C1127.36 214.962 1125.71 211.116 1120.9 201.095C1114.81 204.149 1109.62 206.052 1103.18 208.265L1098.76 191.816C1105.4 190.948 1111.16 189.778 1117.71 188.444C1115.99 177.494 1116.44 169.75 1117.66 158.849C1112.34 157.48 1105.4 155.839 1100.24 154.151C1101.64 147.558 1103.17 142.503 1105.15 136.058C1111.16 138.217 1116.73 140.219 1122.61 142.709C1127.48 132.398 1129.96 128.834 1138.37 120.572C1134.48 115.345 1130.64 110.858 1126.42 105.9L1139.09 94.2376L1153.46 107.892C1160.94 104.655 1167.39 102.05 1175.04 99.2675C1174.35 93.0635 1173.75 87.5245 1173.45 81.2782Z"/><path fill="#FCFBFB" transform="scale(0.666667 0.666992)" d="M1133.15 225.796C1137.87 230.52 1142.45 234.665 1147.41 239.129C1143.9 243.609 1139.68 247.642 1135.39 251.346C1130.29 246.911 1124.79 241.109 1120.62 235.816C1125.42 232.34 1128.68 229.661 1133.15 225.796Z"/><path fill="#8369CD" transform="scale(0.666667 0.666992)" d="M1134.55 223.406C1139.22 228.247 1143.41 232.806 1148.64 237.05L1147.41 239.129C1142.45 234.665 1137.87 230.52 1133.15 225.796L1134.55 223.406Z"/><path fill="#3A295F" transform="scale(0.666667 0.666992)" d="M1185.34 111.191C1220.04 106.239 1252.2 130.339 1257.2 165.046C1262.19 199.753 1238.14 231.949 1203.45 236.994C1168.69 242.049 1136.43 217.937 1131.42 183.164C1126.42 148.391 1150.57 116.152 1185.34 111.191Z"/><path fill="#8B75CE" transform="scale(0.666667 0.666992)" d="M1186.94 113.23C1220.5 109.302 1250.88 133.329 1254.8 166.891C1258.72 200.453 1234.7 230.839 1201.14 234.756C1167.59 238.672 1137.22 214.647 1133.3 181.092C1129.38 147.537 1153.4 117.156 1186.94 113.23Z"/><path fill="#E7E1F0" transform="scale(0.666667 0.666992)" d="M1188.98 132.806C1211.43 130.288 1231.66 146.432 1234.2 168.879C1236.74 191.325 1220.62 211.585 1198.18 214.147C1175.72 216.713 1155.43 200.56 1152.88 178.083C1150.34 155.606 1166.51 135.327 1188.98 132.806Z"/><path fill="#3A295F" transform="scale(0.666667 0.666992)" d="M1187.2 135.863C1207.98 132.26 1227.76 146.161 1231.41 166.939C1235.06 187.716 1221.22 207.532 1200.45 211.238C1179.62 214.958 1159.72 201.047 1156.05 180.196C1152.39 159.344 1166.34 139.478 1187.2 135.863Z"/><path fill="#FCFBFB" transform="scale(0.666667 0.666992)" d="M1186.55 139.618C1205.29 135.636 1223.72 147.568 1227.75 166.298C1231.79 185.027 1219.91 203.491 1201.2 207.582C1182.41 211.69 1163.85 199.752 1159.8 180.945C1155.75 162.138 1167.74 143.616 1186.55 139.618Z"/><path fill="#3A295F" transform="scale(0.666667 0.666992)" d="M812.94 47.6165C817.042 48.0959 835.66 47.6948 840.882 47.6918L910.27 47.6801C921.895 47.6844 934.414 46.7682 945.942 48.1672C949.136 48.5549 953.309 49.2044 955.771 51.435C958.448 53.8609 960.507 57.7155 960.597 61.3321C960.74 67.0008 915.953 176.805 910.879 188.333C909.826 190.726 908.561 193.927 906.677 195.777C900.361 201.977 893.335 201.897 885.047 201.956C880.183 201.966 869.081 201.601 864.248 202.842C863.542 203.024 863.898 204.556 860.616 205.761L859.401 205.128L859.692 202.899C856.054 201.163 764.739 202.108 753.337 201.666C746.191 197.212 744.086 194.258 745.298 185.739C746.462 177.557 769.665 126.191 768.933 122.87C767.366 122.249 766.567 121.899 765.074 121.127L765.139 119.708C766.81 118.739 768.119 119.611 769.887 119.29C773.201 118.687 792.091 62.845 797.643 55.5532C801.494 50.4961 806.808 48.4143 812.94 47.6165Z"/><path fill="#FCFBFB" transform="scale(0.666667 0.666992)" d="M810.905 52.6496C830.347 52.6152 941.742 50.3811 950.899 54.3712C953.091 55.3266 954.503 57.4182 955.341 59.5788C955.923 61.0769 955.762 62.1687 955.293 63.7014C949.078 83.9718 939.508 103.61 931.46 123.226C922.811 144.308 915.162 165.914 905.895 186.726C903.497 192.109 901.898 194.383 896.264 196.547C887.328 197.574 873.108 197.298 863.827 197.293L811.929 197.133C793.857 197.083 772.117 198.094 754.081 196.09C749.946 194.45 749.567 189.123 750.603 185.99C754.833 173.195 760.035 160.518 764.901 148.022L796.587 68.1569C800.512 58.423 801.276 56.7356 810.905 52.6496Z"/><path fill="#3A295F" transform="scale(0.666667 0.666992)" d="M857.088 83.0609C858.648 83.1336 861.249 83.1418 862.43 84.2678C874.671 95.9414 885.982 109.69 897.176 122.398C887.996 132.796 872.805 151.794 861.57 161.083C860.408 162.044 856.605 160.89 855.26 159.933C847.398 154.337 862.007 142.201 866.197 137.752C867.986 135.758 870.369 132.555 872.099 130.377C863.418 129.714 825.792 131.634 820.891 128.74C819.095 127.679 816.956 125.602 816.545 123.471C816.201 121.692 816.7 120.077 817.888 118.734C823.579 112.298 863.58 115.289 873.932 115.472L861.461 102.922C855.001 96.3381 848.782 90.6863 857.088 83.0609Z"/><path fill="#3A295F" transform="scale(0.666667 0.666992)" d="M948.02 224.877C954.931 224.331 966.14 226.101 973.38 227.082C973.99 233.352 973.508 239.696 974.066 246.315C983.426 249.433 986.583 251.557 994.631 256.846L1009.98 247.729C1015.5 253.382 1023.2 262.35 1027.59 268.792C1023.57 273.055 1019.48 277.233 1015.39 281.427C1019.36 289.564 1021.85 295.643 1022.89 304.749C1029.24 306.164 1035.85 307.236 1042.33 308.653C1041.92 319.346 1041.58 325.665 1039.53 336.141C1033.71 335.851 1027.54 334.793 1021.75 333.946C1019 341.094 1016.1 347.912 1012.22 354.529L1021.79 368.903C1015.24 374.672 1008.12 380.508 1001.43 386.178C997.004 381.01 993.465 377.305 988.621 372.512C977.586 377.877 975.211 379.689 963.275 381.353C962.397 386.861 961.188 392.793 960.168 398.315L950.819 397.491C946.808 397.394 937.956 396.221 933.603 395.786C933.679 390.327 933.954 385.481 934.317 380.057C922.379 375.471 919.337 373.467 909.009 365.959C904.461 370.547 900.118 374.828 895.4 379.24L875.503 357.47L889.891 342.299C886.578 334.105 885.512 329.892 884.07 321.485C878.223 319.994 870.659 318.667 864.629 317.442C864.833 308.603 866.2 298.958 867.397 290.218C873.766 290.12 879.308 290.372 885.665 290.693C889.247 282.16 891.152 276.905 897.111 269.62C893.829 264.581 889.747 259.015 886.266 254.029C891.316 248.61 900.711 240.181 906.699 236.142C911.717 240.823 916.621 245.644 921.541 250.429C930.203 246.512 934.07 245.488 943.086 243.448C944.852 237.303 946.096 231.296 948.02 224.877Z"/><path fill="#8B75CE" transform="scale(0.666667 0.666992)" d="M949.394 227.86C956.44 228.188 963.568 229.021 970.57 229.852C970.404 236.496 970.815 241.994 971.27 248.616C982.556 252.069 984.711 253.458 994.833 259.64L1009.56 250.071C1012.69 254.814 1020.28 263.385 1024.33 268.673C1021.01 272.522 1016.22 277.028 1012.5 280.622C1017.62 291.548 1019.44 295.666 1020.7 307.375L1039.66 310.295C1038.99 317.712 1037.84 325.827 1036.94 333.275C1031.95 333.114 1025.27 331.767 1020.22 330.91C1016.6 340.903 1014.25 345.594 1008.74 354.67C1011.54 358.924 1015.35 363.934 1018.4 368.136C1012.96 373.357 1007.51 377.799 1001.7 382.601C997.555 378.038 993.378 373.103 989.309 368.44C979.346 375.155 973.91 378.194 961.958 378.168C960.729 383.738 959.924 389.296 959.044 394.928L948.701 394.559C945.497 393.891 939.379 393.415 935.93 393.044L936.852 377.787C925.164 374.623 918.293 370.627 909.447 362.542C904.759 367.223 900.203 371.522 895.341 376.022C889.871 369.336 884.741 363.592 878.9 357.212C882.007 353.438 889.921 345.942 893.648 342.764C889.452 335.346 887.31 327.002 886.421 318.566C879.783 317.658 873.954 316.778 867.381 315.497C868.222 307.735 869.046 300.254 870.19 292.533C875.77 292.623 881.992 293.223 887.86 293.367C891.747 281.683 892.697 278.81 900.536 269.322C896.815 264.085 893.077 258.961 889.262 253.793C894.94 248.696 900.355 244.059 906.231 239.19C909.695 241.81 917.327 250.128 920.901 253.747C930.112 249.206 934.543 246.833 944.746 246.447C945.815 240.533 948.122 234.509 949.394 227.86Z"/><path fill="#FCFBFB" transform="scale(0.666667 0.666992)" d="M944.838 256.668C975.708 252.08 1004.45 273.407 1009.01 304.289C1013.57 335.171 992.224 363.899 961.345 368.436C930.504 372.967 901.824 351.646 897.268 320.801C892.712 289.955 914.003 261.251 944.838 256.668Z"/><path fill="#8B75CE" transform="scale(0.666667 0.666992)" d="M944.4 259.018C973.87 254.268 1001.63 274.261 1006.47 303.723C1011.31 333.186 991.408 361.012 961.967 365.945C932.398 370.9 904.429 350.887 899.567 321.295C894.705 291.703 914.8 263.789 944.4 259.018Z"/><path fill="#3A295F" transform="scale(0.666667 0.666992)" d="M948.353 275.564C968.964 273.204 987.653 287.829 990.322 308.408C992.991 328.986 978.652 347.897 958.121 350.876C944.562 352.843 930.996 347.351 922.622 336.506C914.247 325.66 912.365 311.143 917.695 298.519C923.025 285.895 934.741 277.122 948.353 275.564Z"/><path fill="#FCFBFB" transform="scale(0.666667 0.666992)" d="M945.095 278.165C957.668 275.387 970.763 279.588 979.376 289.162C987.989 298.736 990.787 312.204 986.703 324.418C982.618 336.632 972.281 345.705 959.642 348.168C940.437 351.912 921.792 339.514 917.81 320.352C913.828 301.19 925.989 282.387 945.095 278.165Z"/><path fill="#3A295F" transform="scale(0.666667 0.666992)" d="M1111.61 313.597L1113.24 315.869C1113.51 319.217 1111.29 321.741 1109.4 324.802C1112.25 327.324 1119.57 333.18 1119.82 336.523C1117.58 335.968 1117.19 335.497 1115.27 334.091L1108.57 327.497C1107.74 329.063 1105.92 332.749 1104.03 332.768C1103.62 328.711 1109.6 317.938 1111.61 313.597Z"/><path fill="#3A295F" transform="scale(0.666667 0.666992)" d="M719.14 115.038C724.244 114.693 728.333 113.294 731.444 117.529C726.656 118.147 722.077 119.24 719.14 115.038Z"/><path fill="#3A295F" transform="scale(0.666667 0.666992)" d="M545.049 156.672C546.955 156.635 546.19 156.306 547.475 157.539C546.055 159.757 542.19 161.964 539.837 163.524C538.41 162.652 539.009 163.229 538.176 161.566C539.675 159.174 542.452 158.086 545.049 156.672Z"/><path fill="#3A295F" transform="scale(0.666667 0.666992)" d="M997.226 416.362C998.071 416.399 998.631 416.721 999.486 417.037L999.282 418.026C996.838 419.883 994.62 420.355 991.717 421.226C990.016 421.43 990.791 421.575 989.299 420.854L989.562 419.649C991.792 417.721 994.407 417.192 997.226 416.362Z"/><path fill="#574A79" transform="scale(0.666667 0.666992)" d="M666.81 116.459C668.017 116.345 668.979 116.535 670.175 116.69L670.836 117.742C668.325 119.847 668.996 119.236 665.408 119.801C663.351 119.984 663.42 120.009 661.428 119.514L660.928 118.563C663.329 116.37 663.04 117.006 666.81 116.459Z"/><path fill="#574A79" transform="scale(0.666667 0.666992)" d="M625.737 123.763L627.567 124.642L627.391 125.844C624.859 127.546 622.124 127.995 619.134 128.772C618.035 128.717 618.503 128.733 617.366 127.965L617.638 127.116C620.147 125.399 622.833 124.728 625.737 123.763Z"/><path fill="#3A295F" transform="scale(0.666667 0.666992)" d="M533.441 164.202C533.936 164.673 534.226 165.484 534.568 166.175C533.739 168.339 530.574 170.386 528.588 171.965C527.44 170.926 527.528 170.984 526.928 169.543C528.052 167.024 530.929 165.753 533.441 164.202Z"/><path fill="#574A79" transform="scale(0.666667 0.666992)" d="M675.572 115.872C678.509 115.565 683.127 114.754 685.638 115.962L685.967 117.627C682.714 118.194 678.998 119.256 676.151 117.961L675.572 115.872Z"/><path fill="#3A295F" transform="scale(0.666667 0.666992)" d="M689.948 115.076C693.245 114.818 697.297 114.105 700.142 115.346L700.671 117.441C696.583 117.665 691.101 119.295 689.948 115.076Z"/><path fill="#3A295F" transform="scale(0.666667 0.666992)" d="M749.835 117.9C754.824 117.349 758.378 116.048 760.555 121.004C756.119 120.875 752.088 121.831 749.835 117.9Z"/><path fill="#574A79" transform="scale(0.666667 0.666992)" d="M610.655 127.399L612.443 128.203L612.816 129.453C610.723 131.307 608.209 131.75 605.464 132.57L604.2 132.643L603.67 131.222C605.084 129.211 608.193 128.386 610.655 127.399Z"/><path fill="#3A295F" transform="scale(0.666667 0.666992)" d="M704.144 115.013C707.578 114.598 711.911 113.782 714.993 115.275L715.275 117.195C710.383 117.587 707.398 118.801 704.144 115.013Z"/><path fill="#3A295F" transform="scale(0.666667 0.666992)" d="M1297.68 80.1829C1301.66 80.104 1305.08 84.1682 1305.44 87.9724C1301.96 87.2669 1298.5 83.6298 1297.68 80.1829Z"/><path fill="#574A79" transform="scale(0.666667 0.666992)" d="M1208.52 44.9722L1210.86 45.9499L1211.33 47.2831C1209.56 49.2541 1209.97 48.664 1207.05 49.5806C1205.49 49.1903 1204.9 48.9011 1203.48 48.263L1202.98 46.93C1205.17 45.0066 1205.36 45.4879 1208.52 44.9722Z"/><path fill="#3A295F" transform="scale(0.666667 0.666992)" d="M571.109 142.48C572.078 143.795 571.753 143.219 571.941 145.038C570.267 146.971 566.844 148.178 564.374 149.301C563.948 148.428 563.905 148.009 563.654 147.065C565.191 144.961 568.605 143.701 571.109 142.48Z"/><path fill="#3A295F" transform="scale(0.666667 0.666992)" d="M822.602 359.036C826.847 359.731 827.7 365.289 828.465 368.819L826.424 368.086C823.738 365.192 823.213 362.791 822.602 359.036Z"/><path fill="#3A295F" transform="scale(0.666667 0.666992)" d="M1304.11 289.374C1305.34 290.369 1304.88 289.756 1305.42 291.36C1304.31 294.263 1302.2 295.816 1299.9 297.997C1299.16 297.387 1299.09 297.113 1298.53 296.302C1299.52 293.418 1301.87 291.587 1304.11 289.374Z"/><path fill="#3A295F" transform="scale(0.666667 0.666992)" d="M1135.31 61.4742C1136.45 62.332 1136.02 61.7865 1136.35 63.3123C1134.71 65.3175 1131.53 66.4843 1129.06 67.6625C1128.06 66.775 1128.42 67.1177 1127.92 65.6712C1129.53 63.4658 1132.64 62.5958 1135.31 61.4742Z"/><path fill="#3A295F" transform="scale(0.666667 0.666992)" d="M1123.36 68.0306C1124.25 68.76 1123.85 68.3836 1124.3 69.7145C1122.97 71.7034 1119.23 73.665 1117 75.0421C1116.21 73.7025 1116.48 74.2222 1116.34 72.5274C1118.02 70.1453 1120.62 69.3217 1123.36 68.0306Z"/><path fill="#3A295F" transform="scale(0.666667 0.666992)" d="M1111.86 74.8653C1112.66 76.0743 1112.38 75.5984 1112.56 77.1825C1110.87 79.6686 1107.74 81.3899 1105.15 83.1284C1104.73 82.3337 1104.75 82.1063 1104.52 81.2203C1106.22 78.4338 1109.12 76.8047 1111.86 74.8653Z"/><path fill="#574A79" transform="scale(0.666667 0.666992)" d="M1341.73 223.927L1342.82 224.933C1343.46 228.749 1342.2 230.576 1340.32 233.807C1337.78 230.518 1338.58 226.564 1341.73 223.927Z"/><path fill="#3A295F" transform="scale(0.666667 0.666992)" d="M654.615 118.007C655.687 119.022 655.252 118.408 655.524 120.138C653.673 121.837 650.135 122.005 647.44 122.452C646.603 121.518 646.9 121.82 646.571 120.423C647.841 119.01 652.456 118.448 654.615 118.007Z"/><path fill="#3A295F" transform="scale(0.666667 0.666992)" d="M1172.29 48.9736L1173.85 49.8906L1173.66 51.0327C1171.39 52.4235 1169.06 52.6325 1166.41 53.1362C1166 53.1012 1164.96 52.6768 1164.52 52.5193L1164.8 51.44C1167.31 49.6964 1169.33 49.5384 1172.29 48.9736Z"/><path fill="#3A295F" transform="scale(0.666667 0.666992)" d="M1010.24 411.846L1012.29 412.39L1012.21 413.534C1009.95 415.201 1007.3 415.796 1004.61 416.599L1003.22 416.601L1003.15 415.246C1005.42 413.306 1007.46 412.811 1010.24 411.846Z"/><path fill="#3A295F" transform="scale(0.666667 0.666992)" d="M818.536 344.533L820.374 345.622C822.039 348.545 822.56 351.806 822.109 355.118L820.659 354.311C818.4 351.262 818.58 348.238 818.536 344.533Z"/><path fill="#574A79" transform="scale(0.666667 0.666992)" d="M736.706 115.782C740.032 116.064 742.431 115.65 744.625 117.447L744.588 119.275C741.109 119.157 739.583 119.201 736.196 118.317L735.595 117.143L736.706 115.782Z"/><path fill="#3A295F" transform="scale(0.666667 0.666992)" d="M1274.4 314.883C1275.93 315.461 1275.21 315.047 1276.3 316.602C1275.08 318.853 1272.48 319.99 1270.16 321.377C1269.91 321.413 1268.76 321.119 1268.46 321.052L1268.5 320.058C1270.39 317.422 1271.78 316.675 1274.4 314.883Z"/><path fill="#574A79" transform="scale(0.666667 0.666992)" d="M1308.26 89.7349C1311.8 90.8404 1314.39 94.3927 1314.96 97.9854C1311.01 97.125 1308.07 93.8867 1308.26 89.7349Z"/><path fill="#3A295F" transform="scale(0.666667 0.666992)" d="M1263.88 321.589L1264.79 322.092L1264.77 323.772C1263.09 325.972 1260.37 327.241 1257.92 328.688C1256.9 327.982 1257.26 328.327 1256.7 327.113C1258.11 324.864 1261.5 323.109 1263.88 321.589Z"/><path fill="#3A295F" transform="scale(0.666667 0.666992)" d="M1317.33 100.936C1320.55 102.058 1323.27 106.22 1323.07 109.652C1319.29 108.72 1317.17 104.633 1317.33 100.936Z"/><path fill="#3A295F" transform="scale(0.666667 0.666992)" d="M1284.14 307.34C1285.72 308.028 1285.07 307.509 1286.04 309.062C1285.25 311.216 1282.74 312.809 1280.84 314.358C1279.38 313.94 1280.07 314.293 1279 312.816C1279.82 310.668 1282.3 308.941 1284.14 307.34Z"/><path fill="#3A295F" transform="scale(0.666667 0.666992)" d="M521.351 173.216C522.55 173.835 522.238 173.744 523.199 174.824C522.576 176.897 519.781 178.4 517.863 179.752L516.947 179.831L516.151 178.155C516.792 176.215 519.577 174.551 521.351 173.216Z"/><path fill="#3A295F" transform="scale(0.666667 0.666992)" d="M819.028 287.462C819.606 287.704 820.514 288.304 821.043 288.626C821.816 291.492 820.765 293.988 819.972 296.965C819.349 296.694 818.452 296.1 817.876 295.749C817.179 292.906 818.233 290.391 819.028 287.462Z"/><path fill="#574A79" transform="scale(0.666667 0.666992)" d="M815.956 316.072C817.249 316.798 816.923 316.662 817.977 317.798C818.699 321.202 818.05 323.288 817.379 326.699C813.868 324.787 815.373 319.266 815.956 316.072Z"/><path fill="#3A295F" transform="scale(0.666667 0.666992)" d="M558.383 149.263L559.333 150.141L559.163 151.665C557.14 153.713 554.926 154.368 552.244 155.5L551.705 153.533C552.991 151.206 555.775 150.433 558.383 149.263Z"/><path fill="#3A295F" transform="scale(0.666667 0.666992)" d="M598.639 132.234C599.487 133.22 599.204 132.626 599.102 134.217C597.17 135.849 593.789 136.558 591.237 137.327C590.467 136.347 590.798 136.743 590.57 135.24C592.315 133.552 596.093 132.917 598.639 132.234Z"/><path fill="#574A79" transform="scale(0.666667 0.666992)" d="M816.825 301.323L818.636 302.654C819.52 305.764 818.627 308.546 818.01 311.813L816.773 311.244C814.974 308.414 816.141 304.563 816.825 301.323Z"/><path fill="#3A295F" transform="scale(0.666667 0.666992)" d="M847.75 221.692L849.232 223.33C848.778 226.388 847.079 228.091 845.183 230.619C844.339 230.148 844.203 229.904 843.484 229.233C843.877 226.45 846.027 224.084 847.75 221.692Z"/><path fill="#3A295F" transform="scale(0.666667 0.666992)" d="M1181.3 47.1783C1183.81 47.1634 1184.13 47.0103 1186.12 48.3142L1185.82 49.5272L1182.81 50.9601C1179.77 50.878 1180.04 51.3566 1177.9 49.9476C1178.71 47.8825 1178.62 48.4907 1181.3 47.1783Z"/><path fill="#574A79" transform="scale(0.666667 0.666992)" d="M584.271 137.371C584.826 137.914 584.816 138.292 585.127 139.142C583.732 140.964 579.838 142.247 577.516 143.247C576.611 141.913 576.948 142.658 576.972 140.78C578.814 138.978 581.736 138.267 584.271 137.371Z"/><path fill="#574A79" transform="scale(0.666667 0.666992)" d="M1024.36 405.802C1024.72 406.98 1024.58 406.597 1024.35 407.958C1021.94 409.997 1018.78 411.129 1015.85 412.423C1015.78 411.792 1015.87 410.798 1015.9 410.129C1018.2 407.908 1021.32 407.013 1024.36 405.802Z"/><path fill="#574A79" transform="scale(0.666667 0.666992)" d="M1345.22 186.212L1347.23 187.19C1348.31 190.138 1347.72 192.684 1347.39 195.87C1346.69 195.597 1345.85 195.088 1345.17 194.714C1344.12 191.727 1344.78 189.404 1345.22 186.212Z"/><path fill="#3A295F" transform="scale(0.666667 0.666992)" d="M1287.17 71.1369C1291.27 71.8533 1293.95 74.8777 1295.92 78.2973C1291.66 77.9864 1288.45 75.1531 1287.17 71.1369Z"/><path fill="#574A79" transform="scale(0.666667 0.666992)" d="M983.932 420.286C984.736 420.941 984.573 420.992 985.09 422.036C983.519 423.809 980.669 424.05 978.172 424.614L976.326 423.855L976.356 422.794C978.65 421.209 981.212 420.868 983.932 420.286Z"/><path fill="#3A295F" transform="scale(0.666667 0.666992)" d="M949.352 425.57C952.048 425.286 955.937 424.825 958.331 425.891L958.394 427.583C955.185 428.095 952.444 428.989 949.756 427.594L949.352 425.57Z"/><path fill="#3A295F" transform="scale(0.666667 0.666992)" d="M1250.32 329.188L1252.43 329.425L1252.62 330.452C1250.69 332.605 1248.71 333.303 1246.12 334.521L1244.72 334.111L1244.28 333.042C1245.63 331.265 1248.23 330.253 1250.32 329.188Z"/><path fill="#574A79" transform="scale(0.666667 0.666992)" d="M1215.07 46.0399C1219.32 45.775 1223.07 44.9026 1224.52 49.3379C1220.06 49.187 1217.02 50.097 1215.07 46.0399Z"/><path fill="#3A295F" transform="scale(0.666667 0.666992)" d="M1062.09 208.047L1063.82 208.783C1066.22 211.352 1066.81 213.7 1066.88 217.158L1065.24 216.648C1062.78 214.12 1062.11 211.509 1062.09 208.047Z"/><path fill="#3A295F" transform="scale(0.666667 0.666992)" d="M501.589 190.434C502.473 191.257 502.53 191.488 503.226 192.49C502.714 194.828 500.352 196.293 498.371 197.968L497.048 195.848C497.984 193.06 499.189 192.659 501.589 190.434Z"/><path fill="#3A295F" transform="scale(0.666667 0.666992)" d="M1336.04 136.218C1339.8 137.75 1340.48 141.291 1340.59 145.062C1338.98 144.935 1339.09 144.886 1337.76 143.916C1336.29 141.009 1336.33 139.396 1336.04 136.218Z"/><path fill="#3A295F" transform="scale(0.666667 0.666992)" d="M922.068 424.687C926.508 425.104 930.678 423.859 931.719 428.307C927.158 428.004 923.489 429.064 922.068 424.687Z"/><path fill="#3A295F" transform="scale(0.666667 0.666992)" d="M1086.37 356.009C1087.72 356.567 1087.14 356.16 1087.95 357.447C1087.01 360.344 1085.1 362.032 1083.03 364.339C1082.55 364.137 1082.06 363.515 1081.63 363.082C1082.11 360.609 1084.65 358.094 1086.37 356.009Z"/><path fill="#3A295F" transform="scale(0.666667 0.666992)" d="M870.453 409.501C873.941 410.159 879.142 411.514 879.301 415.453C875.062 414.16 872.042 413.865 870.453 409.501Z"/><path fill="#3A295F" transform="scale(0.666667 0.666992)" d="M1122.37 337.48C1126.82 336.945 1129.54 339.666 1132.06 342.954C1127.28 342.628 1124.93 341.517 1122.37 337.48Z"/><path fill="#3A295F" transform="scale(0.666667 0.666992)" d="M1319.52 269.764C1320.67 270.161 1320.24 269.947 1321.15 270.855C1320.7 273.695 1318.74 275.736 1316.95 278.126C1316.45 277.735 1315.7 276.938 1315.22 276.457C1315.55 273.985 1317.82 271.827 1319.52 269.764Z"/><path fill="#3A295F" transform="scale(0.666667 0.666992)" d="M908.29 423.276C912.442 422.581 916.319 422.578 918.517 426.402C914.978 426.86 910.548 426.284 908.29 423.276Z"/><path fill="#3A295F" transform="scale(0.666667 0.666992)" d="M1312.12 279.61L1313.5 281.703C1313.03 284.392 1310.63 285.976 1308.47 287.956L1307.13 286.553C1307.89 283.822 1310.16 281.804 1312.12 279.61Z"/><path fill="#3A295F" transform="scale(0.666667 0.666992)" d="M829.578 372.522C833.28 373.704 835.645 377.989 835.627 381.768C832.325 379.994 829.876 376.26 829.578 372.522Z"/><path fill="#3A295F" transform="scale(0.666667 0.666992)" d="M858.654 402.705C862.458 403.352 866.377 404.927 866.938 408.981C863.105 408.096 859.783 406.598 858.654 402.705Z"/><path fill="#3A295F" transform="scale(0.666667 0.666992)" d="M847.782 394.4C851.541 394.778 854.945 397.316 856.04 400.979L854.309 401.083C850.883 399.745 849.51 397.463 847.782 394.4Z"/><path fill="#3A295F" transform="scale(0.666667 0.666992)" d="M1214.96 342.937L1216.94 343.244L1217.1 344.301C1215.2 346.119 1213.47 346.57 1211.01 347.545L1209.13 346.526L1209.07 345.45C1210.95 343.75 1212.49 343.594 1214.96 342.937Z"/><path fill="#3A295F" transform="scale(0.666667 0.666992)" d="M468.568 231.447C469.516 232.004 469.755 232.337 470.587 233.107C470.189 236.235 469.272 236.531 467.176 239.351C465.909 239.204 466.389 239.355 465.317 238.536C465.364 236.139 467.256 233.646 468.568 231.447Z"/><path fill="#3A295F" transform="scale(0.666667 0.666992)" d="M1077.32 366.605C1077.64 366.921 1078.28 367.941 1078.56 368.363C1077.71 371.022 1075.25 372.676 1073.05 374.619L1072.01 372.812C1072.68 370.327 1075.29 368.47 1077.32 366.605Z"/><path fill="#3A295F" transform="scale(0.666667 0.666992)" d="M1263.18 56.9639C1266.78 57.1313 1270.74 59.3193 1272.26 62.6905C1268.26 62.9528 1264.82 60.3986 1263.18 56.9639Z"/><path fill="#574A79" transform="scale(0.666667 0.666992)" d="M816.393 330.261L818.326 331.533C819.468 334.527 819.409 337.159 819.612 340.368C818.37 339.882 818.207 339.627 817.16 338.776C815.887 335.473 816.193 333.79 816.393 330.261Z"/><path fill="#3A295F" transform="scale(0.666667 0.666992)" d="M1057.48 384.186C1057.79 384.619 1058.13 385.839 1058.3 386.337C1057.03 388.77 1054.38 389.813 1051.85 391.24C1051.61 390.871 1051.29 389.836 1051.12 389.369C1052.53 387.064 1055.13 385.725 1057.48 384.186Z"/><path fill="#3A295F" transform="scale(0.666667 0.666992)" d="M1226.85 339L1229 339.794L1229.11 340.943C1227.2 342.607 1225.39 342.859 1222.92 343.557L1221.28 343.226L1221.09 342.101C1223.05 340.268 1224.36 339.968 1226.85 339Z"/><path fill="#3A295F" transform="scale(0.666667 0.666992)" d="M1274.56 62.9415C1278.47 63.1535 1282.32 66.0395 1284.55 69.1189C1280.4 69.1375 1276.53 66.5303 1274.56 62.9415Z"/><path fill="#3A295F" transform="scale(0.666667 0.666992)" d="M1197.69 46.1555L1198.9 46.9782L1198.97 48.1018C1196.89 49.4264 1194.98 49.4242 1192.49 49.7533L1190.97 48.7986L1190.8 47.4837C1193.13 46.182 1195 46.3277 1197.69 46.1555Z"/><path fill="#574A79" transform="scale(0.666667 0.666992)" d="M1201.05 345.679L1204.19 345.821L1205.13 346.927C1203.78 349.016 1203.94 348.444 1201.28 349.691C1198.58 349.415 1198.57 349.902 1197.21 348.413C1198.43 346.423 1198.5 346.891 1201.05 345.679Z"/><path fill="#3A295F" transform="scale(0.666667 0.666992)" d="M1330.75 124.313C1334.83 125.574 1336.59 128.929 1335.11 132.98C1332.19 131.07 1331.16 127.606 1330.75 124.313Z"/><path fill="#3A295F" transform="scale(0.666667 0.666992)" d="M1293.58 299.91C1295.02 300.216 1294.48 300.056 1295.74 301.066C1294.76 303.558 1292.98 304.265 1290.56 306.142C1289.76 305.817 1289.53 305.453 1288.84 304.832C1289.78 302.415 1291.33 301.769 1293.58 299.91Z"/><path fill="#3A295F" transform="scale(0.666667 0.666992)" d="M1228.31 46.7877C1231.33 47.0922 1233.98 46.9621 1236.25 48.773L1236.28 50.7257C1232.84 50.3475 1230.57 50.6603 1228.16 48.7709L1228.31 46.7877Z"/><path fill="#3A295F" transform="scale(0.666667 0.666992)" d="M1326.55 259.166C1327.6 259.738 1327.33 259.681 1328.13 260.703C1327.75 263.462 1325.94 265.12 1324.11 267.363L1322.58 265.803C1322.79 263.195 1324.81 261.33 1326.55 259.166Z"/><path fill="#3A295F" transform="scale(0.666667 0.666992)" d="M838.597 383.83C841.833 386.281 844.285 388.221 845.51 392.219C840.918 390.992 838.732 388.487 838.597 383.83Z"/><path fill="#574A79" transform="scale(0.666667 0.666992)" d="M822.773 274.123L824.362 275.734C824.734 278.422 823.303 280.828 822.184 283.451C821.368 283.073 821.174 282.716 820.479 282.04C820.223 278.984 821.491 276.985 822.773 274.123Z"/><path fill="#3A295F" transform="scale(0.666667 0.666992)" d="M492.671 199.937L494.972 200.557C494.739 203.111 492.785 204.23 490.593 206.51L488.777 206.447L488.534 205.652C489.404 203.081 490.811 201.934 492.671 199.937Z"/><path fill="#3A295F" transform="scale(0.666667 0.666992)" d="M1067.88 375.7L1069.07 377.414C1068.23 379.847 1065.89 381.127 1063.71 382.77C1062.4 382.331 1063.02 382.645 1062.02 381.462C1062.74 379.466 1066.07 377.182 1067.88 375.7Z"/><path fill="#574A79" transform="scale(0.666667 0.666992)" d="M1146.48 56.2494L1147.44 56.7204L1147.81 57.8348C1146.26 59.842 1143.42 60.7983 1141 61.9214C1139.83 60.3247 1140.03 61.1609 1140.07 59.4442C1142.16 57.7594 1143.99 57.2348 1146.48 56.2494Z"/><path fill="#3A295F" transform="scale(0.666667 0.666992)" d="M936.514 425.785C939.595 426.293 941.009 424.935 944.836 426.359L945.595 428.107C942.829 428.369 938.633 429.116 936.476 427.698L936.514 425.785Z"/><path fill="#3A295F" transform="scale(0.666667 0.666992)" d="M1079.03 106.238L1080.72 107.771C1080.21 110.575 1078.96 111.104 1076.74 113.521C1075.31 113.045 1075.96 113.427 1074.87 112.141C1075.4 109.783 1077.34 108.117 1079.03 106.238Z"/><path fill="#3A295F" transform="scale(0.666667 0.666992)" d="M1134.63 342.883C1138.7 342.552 1142.02 343.225 1143.06 347.388C1138.83 346.657 1136.51 346.947 1134.63 342.883Z"/><path fill="#3A295F" transform="scale(0.666667 0.666992)" d="M826.909 261.284C827.398 261.515 828.357 262.245 828.846 262.592C829.19 265.258 827.788 267.266 826.543 269.794C825.868 269.767 825.436 269.459 824.743 269.15C824.33 266.549 825.846 263.872 826.909 261.284Z"/><path fill="#3A295F" transform="scale(0.666667 0.666992)" d="M1098.6 309.717C1101.54 311.458 1103.33 315.192 1104.66 318.238C1100.08 318.86 1098.9 313.223 1098.6 309.717Z"/><path fill="#3A295F" transform="scale(0.666667 0.666992)" d="M895.875 419.471C900.068 420.043 902.653 419.901 905.045 423.604C900.827 423.983 897.54 423.525 895.875 419.471Z"/><path fill="#3A295F" transform="scale(0.666667 0.666992)" d="M1342.78 159.99L1344.4 160.782C1346.39 163.418 1346.16 166.311 1346.12 169.513L1343.94 167.996C1342.64 164.632 1342.79 163.565 1342.78 159.99Z"/><path fill="#3A295F" transform="scale(0.666667 0.666992)" d="M1239.8 49.5752C1244.21 49.1334 1246.93 49.4456 1248.61 53.6008C1244.81 53.0179 1241.02 53.4313 1239.8 49.5752Z"/><path fill="#3A295F" transform="scale(0.666667 0.666992)" d="M510.844 181.373L512.626 182.832C512.014 185.337 510.561 185.86 508.263 187.876L506.803 187.978L506.164 187.133C507.01 184.805 509.03 183.184 510.844 181.373Z"/><path fill="#3A295F" transform="scale(0.666667 0.666992)" d="M1345.4 199.167C1348.15 201.738 1347.4 206.089 1345.09 208.758L1344.39 208.213C1343.09 205.091 1344.26 202.173 1345.4 199.167Z"/><path fill="#3A295F" transform="scale(0.666667 0.666992)" d="M1100.2 83.9135L1101.37 85.5425C1100.61 87.8704 1097.85 89.3703 1095.71 90.9412C1094.59 90.5417 1095.12 90.8407 1094.32 89.6603C1095.09 87.6654 1098.38 85.3996 1100.2 83.9135Z"/><path fill="#3A295F" transform="scale(0.666667 0.666992)" d="M1046.27 392.229C1047.37 393.08 1046.9 392.552 1047.35 394.083C1046 396.273 1043.19 397.483 1040.84 398.833L1040.27 398.671L1039.84 397.56C1041.34 395.237 1043.91 393.833 1046.27 392.229Z"/><path fill="#3A295F" transform="scale(0.666667 0.666992)" d="M1061.4 137.652L1063.09 139.313C1063.3 142.228 1062.08 144.122 1060.83 146.838C1060.5 146.731 1059.61 146.062 1059.28 145.833C1059 142.996 1060.35 140.413 1061.4 137.652Z"/><path fill="#574A79" transform="scale(0.666667 0.666992)" d="M840.113 235.271C840.518 235.567 841.053 236.288 841.407 236.711C840.995 239.496 839.236 241.751 837.701 244.208L836.481 242.232C836.693 239.214 838.245 237.746 840.113 235.271Z"/><path fill="#3A295F" transform="scale(0.666667 0.666992)" d="M1324.84 112.237C1328.16 112.999 1330.26 117.218 1330.38 120.371C1326.82 119.572 1324.9 115.655 1324.84 112.237Z"/><path fill="#3A295F" transform="scale(0.666667 0.666992)" d="M1251.74 52.522C1256.71 53.4409 1257.82 53.0118 1260.44 57.4288C1256.29 56.5949 1252.43 56.9307 1251.74 52.522Z"/><path fill="#3A295F" transform="scale(0.666667 0.666992)" d="M1101.4 335.088C1102.4 335.945 1102.28 336.223 1102.6 337.561C1101.86 340.439 1100.36 341.641 1098.33 343.761L1097.47 342.408C1097.9 339.328 1099.53 337.648 1101.4 335.088Z"/><path fill="#3A295F" transform="scale(0.666667 0.666992)" d="M1081.36 264.624L1082.95 265.273C1084.91 268.136 1085.18 270.103 1084.84 273.529L1083.32 272.833C1081.19 270.324 1081.3 267.85 1081.36 264.624Z"/><path fill="#3A295F" transform="scale(0.666667 0.666992)" d="M1071.46 115.963L1073.35 117.467C1073.61 119.744 1071.84 122.068 1070.61 124.237C1068.63 123.104 1069.21 123.897 1068.5 122.029C1069.45 119.853 1070.38 118.052 1071.46 115.963Z"/><path fill="#574A79" transform="scale(0.666667 0.666992)" d="M1158.07 52.3835L1160.26 52.7606L1160.7 53.6198C1158.9 55.5773 1157.74 55.7105 1155.21 56.5499L1153.11 56.749L1152.56 55.8603C1154.31 53.5712 1155.38 53.4321 1158.07 52.3835Z"/><path fill="#3A295F" transform="scale(0.666667 0.666992)" d="M1239.18 334.43C1240.57 334.806 1239.9 334.507 1241 335.748C1239.65 337.718 1237.12 338.499 1234.83 339.545L1233.24 339.292L1233.01 338.314C1234.71 336.399 1236.85 335.592 1239.18 334.43Z"/><path fill="#3A295F" transform="scale(0.666667 0.666992)" d="M1078.2 252.416C1081.96 254.487 1082 257.539 1081.01 261.402C1078.25 259.994 1077.66 255.178 1078.2 252.416Z"/><path fill="#3A295F" transform="scale(0.666667 0.666992)" d="M1159.2 348.31C1162.05 347.978 1165.56 347.443 1168.02 348.807L1168.49 350.812C1163.99 350.988 1162.43 351.632 1159.2 348.31Z"/><path fill="#574A79" transform="scale(0.666667 0.666992)" d="M1343.56 211.829L1345.05 212.89C1345.65 215.722 1344.75 218.167 1344.07 221.053C1343.5 220.71 1342.64 219.972 1342.09 219.534C1341.45 216.78 1342.59 214.608 1343.56 211.829Z"/><path fill="#3A295F" transform="scale(0.666667 0.666992)" d="M1126.66 255.323C1127.93 255.97 1127.65 255.914 1128.69 256.993C1129.2 259.548 1128.29 261.303 1127.45 263.839L1125.69 263.04C1124.83 260.303 1125.83 258.189 1126.66 255.323Z"/><path fill="#574A79" transform="scale(0.666667 0.666992)" d="M1034.36 399.674C1035.92 400.05 1035.31 399.642 1036.25 400.93C1035.09 402.849 1032.27 403.961 1030.14 405.09C1029.16 404.901 1029.47 404.86 1028.52 403.963C1029.5 401.988 1032.27 400.85 1034.36 399.674Z"/><path fill="#3A295F" transform="scale(0.666667 0.666992)" d="M476.026 220.232L477.878 221.738C477.67 224.501 476.588 225.206 474.866 227.792L473.06 226.702C473.013 224.041 474.396 222.865 476.026 220.232Z"/><path fill="#3A295F" transform="scale(0.666667 0.666992)" d="M1074.74 241.25C1077.89 242.416 1078.8 247.069 1077.63 250.046L1076.34 249.271C1074.64 246.578 1074.22 244.388 1074.74 241.25Z"/><path fill="#3A295F" transform="scale(0.666667 0.666992)" d="M1056.55 185.676C1060.17 187.59 1060.35 190.706 1058.77 194.251C1055.69 192.698 1056.2 188.634 1056.55 185.676Z"/><path fill="#3A295F" transform="scale(0.666667 0.666992)" d="M1094.22 346.214C1094.91 346.549 1094.97 346.757 1095.55 347.356C1095.05 350.061 1093.25 352.064 1091.61 354.37L1090.05 352.83C1090.44 350.225 1092.45 348.352 1094.22 346.214Z"/><path fill="#3A295F" transform="scale(0.666667 0.666992)" d="M1090.24 92.1242L1091.11 94.5553C1090.55 97.1539 1088.65 98.347 1086.58 100.207L1085.45 98.5761C1086.21 96.1476 1088.46 94.0986 1090.24 92.1242Z"/><path fill="#3A295F" transform="scale(0.666667 0.666992)" d="M1336.75 236.546C1337.24 236.822 1338.02 237.514 1338.49 237.892C1338.87 240.591 1337.47 242.44 1336.14 244.973L1334.67 243.896C1334.13 241.403 1335.64 239.047 1336.75 236.546Z"/><path fill="#3A295F" transform="scale(0.666667 0.666992)" d="M1058.89 196.849L1060.93 197.656C1062.48 199.761 1062.53 202.577 1062.9 205.291L1060.58 204.531C1058.89 202.068 1059.09 199.898 1058.89 196.849Z"/><path fill="#3A295F" transform="scale(0.666667 0.666992)" d="M969.898 423.35L971.318 423.748L971.262 424.925C968.749 426.458 967.571 426.439 964.689 426.894C963.276 426.269 963.805 426.759 963.102 425.322C964.989 423.84 967.429 423.753 969.898 423.35Z"/><path fill="#3A295F" transform="scale(0.666667 0.666992)" d="M855.282 210.413C856.456 210.865 856.026 210.639 856.947 211.593C856.541 214.163 854.549 216.152 852.867 218.301C852.3 218.05 851.98 217.612 851.486 217.131C851.914 214.76 853.842 212.486 855.282 210.413Z"/><path fill="#3A295F" transform="scale(0.666667 0.666992)" d="M1122.48 279.957L1124.25 280.626C1125.26 282.895 1124.19 285.282 1123.5 287.871C1122.1 287.957 1122.8 288.01 1121.41 287.317C1120.82 285.054 1121.86 282.358 1122.48 279.957Z"/><path fill="#3A295F" transform="scale(0.666667 0.666992)" d="M882.907 415.633C886.259 415.317 890.203 416.539 892.045 419.518C888.479 420.18 884.857 418.709 882.907 415.633Z"/><path fill="#3A295F" transform="scale(0.666667 0.666992)" d="M1345.3 172.943L1346.52 174.381C1347.43 177.916 1347.08 179.637 1346.71 183.26L1345.35 182.017C1343.97 178.832 1344.57 176.194 1345.3 172.943Z"/><path fill="#3A295F" transform="scale(0.666667 0.666992)" d="M1070.62 230.725C1074.17 232.228 1075.09 235.47 1074.18 238.964C1071.14 237.65 1070.57 233.656 1070.62 230.725Z"/><path fill="#3A295F" transform="scale(0.666667 0.666992)" d="M1088.68 288.386L1090.73 289.808C1092.15 292.868 1092.2 293.446 1092.58 296.682C1088.69 295.462 1088.27 291.984 1088.68 288.386Z"/><path fill="#3A295F" transform="scale(0.666667 0.666992)" d="M833.008 247.929L834.522 249.124C834.85 251.583 833.34 253.882 832.202 256.263L830.684 255.123C830.276 252.639 831.83 250.351 833.008 247.929Z"/><path fill="#3A295F" transform="scale(0.666667 0.666992)" d="M1147.41 345.954C1151.54 346.276 1153.56 345.696 1155.45 349.543C1151.45 349.419 1148.22 350.259 1147.41 345.954Z"/><path fill="#3A295F" transform="scale(0.666667 0.666992)" d="M1094.2 299.935C1096.84 302.098 1098 305.516 1097.32 308.842C1094.9 306.033 1092.1 303.413 1094.2 299.935Z"/><path fill="#3A295F" transform="scale(0.666667 0.666992)" d="M1066.27 127.029L1067.67 127.867C1067.88 130.296 1066.26 132.771 1065.11 135.101L1063.85 134.029C1063.48 131.547 1065.04 129.408 1066.27 127.029Z"/></svg>