<?xml version="1.0" encoding="utf-8" ?><svg xmlns="http://www.w3.org/2000/svg" xmlns:xlink="http://www.w3.org/1999/xlink" width="1024" height="683" viewBox="0 0 1024 683"><path fill="#F7E2C5" transform="scale(0.666667 0.666992)" d="M0 0L1536 0L1536 1024L0 1024L0 0Z"/><path fill="#AF6F65" transform="scale(0.666667 0.666992)" d="M466.279 209.024L466.162 475.14L466.156 558.346C466.166 573.613 466.589 589.372 465.672 604.565C464.935 616.768 453.139 624.032 441.786 624.326C420.312 624.882 398.876 624.749 377.414 624.758L255.685 624.793L153.281 624.726C133.935 624.755 114.552 625.081 95.2322 624.235C80.9032 623.607 68.2949 614.557 67.9106 599.367C67.6207 587.909 67.8593 576.293 67.8768 564.794L68.0493 495.989L68.0571 302.463L68.1078 144.8L67.9372 100.861C67.85 91.6099 67.3719 81.8881 68.0782 72.7281C69.4588 54.8233 83.7524 44.3045 100.903 44.2972C124.727 44.2871 148.357 44.3209 172.08 44.305L320.573 44.2504L401.387 44.2079C415.557 44.1862 430.19 43.778 444.284 44.6531C453.178 45.0319 464.901 55.5884 465.301 64.6667C467.275 109.382 465.531 156.55 466.179 201.184C538.774 175.706 613.97 152.827 686.971 127.965C686.358 108.157 690.5 90.3733 704.915 76.0651C770.565 10.8992 867.782 103.036 799.545 171.218C806.319 181.996 816.083 194.241 823.57 204.827C841.386 230.015 860.355 254.942 877.046 280.892C880.191 279.465 886.436 278.244 888.09 276.033C887.71 274.791 887.698 273.92 887.597 272.644C891.94 268.169 905.421 271.023 912.253 269.487C914.083 268.047 914.158 268.041 916.556 267.969C920.575 269.422 921.775 272.095 923.543 275.72C963.714 266.409 1010.73 268.738 1050.73 277.955C1054.88 266.213 1058.29 255.981 1058.9 243.5C1059.01 241.114 1060.4 237.354 1060.99 234.846L1061.55 233.802C1063.08 232.372 1067 227.509 1068.65 225.68C1073.4 220.436 1077.29 216.923 1082.77 212.516C1077.82 207.61 1072.7 201.771 1067.08 197.819L1068.48 196.219C1074.02 200.948 1079 206.269 1084.07 211.497C1139.32 187.847 1192.81 313.907 1221.55 346.163C1226.13 351.309 1233.31 356.166 1237.31 361.226C1248.16 372.038 1233.18 380.947 1230.61 387.89C1235.23 398.672 1235.4 407.131 1234.15 418.785C1236.15 425.504 1261.28 445.94 1268.81 449.478C1289.05 458.999 1310.47 462.991 1331.1 472.84C1399.29 505.394 1454.31 564.664 1475.26 638.071C1490.25 690.591 1489.4 751.188 1463.02 800.039C1459.59 806.404 1453.31 815.983 1448.24 820.922C1512.14 870.643 1487.99 965.379 1406.97 975.902C1394.71 977.495 1379.08 976.582 1366.41 976.586L1294.81 976.551L1237.79 976.56C1207.57 976.69 1179.9 978.955 1155.02 957.927C1144.27 948.837 1138.73 941.107 1132.37 928.786C1101.96 928.401 1069.3 924.818 1038.75 923.293C1011.99 993.5 913.927 981.586 903.5 908.684C902.824 903.956 903.299 898.121 903.55 893.293C853.648 880.809 803.73 867.435 754.129 853.784C735.113 848.55 716.062 843.974 697.111 838.392C677.44 881.497 628.049 895.776 589.232 866.524C583.464 862.178 579.09 856.948 574.426 851.491C544.439 867.749 509.539 887.477 478.732 901.823C477.489 918.452 470.791 933.963 460.638 947.072C432.44 983.481 392.334 977.422 351.758 977.335L255.208 977.415L165.234 977.483C132.455 977.532 101.877 981.543 74.5776 959.274C17.0356 912.334 44.5353 818.941 117.401 809.693C131.293 807.93 151.649 809.078 165.975 809.03L266.739 809.172L361.694 809.027C376.513 809.078 394.904 808.412 409.289 810.349C438.798 814.322 464.658 838.336 474.103 866.056C477.362 875.619 478.362 883.036 479.292 893.157C492.319 887.111 506.771 879.037 519.448 872.252L570.903 844.896C561.047 820.567 562.094 806.993 571.201 783.323C537.732 772.705 503.861 760.922 470.624 749.58C460.96 765.766 440.81 771.605 425.692 758.459C407.175 742.356 418.878 708.83 444.167 709.232C464.028 709.548 473.256 723.549 473.136 742.261C506.218 754.184 541.92 765.688 575.42 776.964C590.783 756.22 607.7 746.76 633.845 746.255C635.533 732.598 635.722 707.042 636.416 692.177L641.294 592.758C534.791 581.759 520.587 443.928 618.72 408.695C617.724 404.94 616.544 401.204 615.267 397.536C601.908 359.147 587.984 320.955 575.63 282.223C539.767 283.667 529.389 247.792 553.968 230.898C583.919 210.313 621.713 256.05 582.656 279.782C583.811 283.912 585.378 287.878 586.738 291.938C599.607 330.367 613.846 368.477 626.619 406.913C641.165 403.469 652.501 404.604 666.88 407.035C669.375 395.46 674.619 379.853 678.103 368.31L698.131 302.004L721.122 225.671C725.163 212.391 729.101 198.205 733.817 185.257C708.743 177.93 694.772 159.099 687.875 135.079C615.245 160.676 539.511 184.129 466.279 209.024Z"/><path fill="#F8AA85" transform="scale(0.666667 0.666992)" d="M1068.48 196.219C1074.02 200.948 1079 206.269 1084.07 211.497C1139.32 187.847 1192.81 313.907 1221.55 346.163C1226.13 351.309 1233.31 356.166 1237.31 361.226C1248.16 372.038 1233.18 380.947 1230.61 387.89C1235.23 398.672 1235.4 407.131 1234.15 418.785C1236.15 425.504 1261.28 445.94 1268.81 449.478C1289.05 458.999 1310.47 462.991 1331.1 472.84C1399.29 505.394 1454.31 564.664 1475.26 638.071C1490.25 690.591 1489.4 751.188 1463.02 800.039C1459.59 806.404 1453.31 815.983 1448.24 820.922C1512.14 870.643 1487.99 965.379 1406.97 975.902C1394.71 977.495 1379.08 976.582 1366.41 976.586L1294.81 976.551L1237.79 976.56C1207.57 976.69 1179.9 978.955 1155.02 957.927C1144.27 948.837 1138.73 941.107 1132.37 928.786C1101.96 928.401 1069.3 924.818 1038.75 923.293C1051.63 885.78 1029.8 849.524 993.817 836.273C1006.85 800.217 1020.11 753.973 1031.68 716.915C1053 717.986 1072.62 706.108 1071.58 682.28C1070.17 649.888 1033.81 637.141 1010.43 662.013C986.412 650.174 959.782 634.568 935.767 621.654L738.632 514.976C743.878 485.253 735.511 461.137 717.348 437.853C722.515 425.532 725.818 416.85 731.898 404.486C757.652 352.114 814.405 301.398 870.51 283.509C872.708 283.034 874.969 281.846 877.046 280.892C880.191 279.465 886.436 278.244 888.09 276.033C887.71 274.791 887.698 273.92 887.597 272.644C891.94 268.169 905.421 271.023 912.253 269.487C914.083 268.047 914.158 268.041 916.556 267.969C920.575 269.422 921.775 272.095 923.543 275.72C963.714 266.409 1010.73 268.738 1050.73 277.955C1054.88 266.213 1058.29 255.981 1058.9 243.5C1059.01 241.114 1060.4 237.354 1060.99 234.846L1061.55 233.802C1063.08 232.372 1067 227.509 1068.65 225.68C1073.4 220.436 1077.29 216.923 1082.77 212.516C1077.82 207.61 1072.7 201.771 1067.08 197.819L1068.48 196.219Z"/><path fill="#F8AA85" transform="scale(0.666667 0.666992)" d="M1233.06 421.542L1234.15 418.785C1236.15 425.504 1261.28 445.94 1268.81 449.478C1289.05 458.999 1310.47 462.991 1331.1 472.84C1399.29 505.394 1454.31 564.664 1475.26 638.071C1490.25 690.591 1489.4 751.188 1463.02 800.039C1459.59 806.404 1453.31 815.983 1448.24 820.922C1512.14 870.643 1487.99 965.379 1406.97 975.902C1394.71 977.495 1379.08 976.582 1366.41 976.586L1294.81 976.551L1237.79 976.56C1207.57 976.69 1179.9 978.955 1155.02 957.927C1144.27 948.837 1138.73 941.107 1132.37 928.786C1120.02 897.642 1121.37 870.223 1141.68 842.636C1144.35 839.009 1151.87 832.395 1152.69 828.609C1155.86 827.369 1159.46 826.338 1162.72 825.246C1181.12 819.075 1199.24 812.115 1217.44 805.38C1222.07 803.605 1223.97 802.694 1228.26 800.203C1223.14 784.126 1221.86 778.629 1219.09 762.279L1208.69 762.211C1207.57 752.361 1204.33 736.994 1202.47 726.923C1201.63 723.429 1199.77 718.933 1201.88 715.884L1204.59 715.622C1206.87 715.431 1208.21 715.489 1210.29 714.486C1211.44 711.015 1209.72 692.55 1207.27 689.051C1205.78 686.921 1203.34 689.32 1200.76 686.981C1196.96 673.721 1194.02 650.864 1191.1 636.522C1188.24 622.46 1184.7 602.576 1183.5 588.441C1183.19 584.798 1189.26 564.75 1190.82 560.399L1191.41 557.585C1191.47 555.408 1192.17 553.815 1191.51 551.905C1191.92 547.089 1199.16 521.154 1200.81 515.921C1208.68 491.135 1217.44 446.948 1230.44 425.377C1231.72 425.107 1231.4 425.147 1232.59 424.475L1233.06 421.542Z"/><path fill="#AF6F65" transform="scale(0.666667 0.666992)" d="M1217.44 805.38C1221.18 806.998 1245.33 806.298 1250.61 806.253L1358.18 805.712C1394.57 805.705 1415.26 801.846 1448.24 820.922C1512.14 870.643 1487.99 965.379 1406.97 975.902C1394.71 977.495 1379.08 976.582 1366.41 976.586L1294.81 976.551L1237.79 976.56C1207.57 976.69 1179.9 978.955 1155.02 957.927C1144.27 948.837 1138.73 941.107 1132.37 928.786C1120.02 897.642 1121.37 870.223 1141.68 842.636C1144.35 839.009 1151.87 832.395 1152.69 828.609C1155.86 827.369 1159.46 826.338 1162.72 825.246C1181.12 819.075 1199.24 812.115 1217.44 805.38Z"/><path fill="#FEFEFE" transform="scale(0.666667 0.666992)" d="M1208.77 830.671C1218.37 829.919 1235.75 830.444 1245.82 830.423L1321.01 830.354L1371.42 830.255C1381.02 830.207 1395.14 829.382 1404.33 830.955C1477.84 843.53 1477.91 942.36 1401.28 952.414C1394.31 953.136 1377.07 952.645 1369.31 952.655L1303.6 952.656L1238.3 952.557C1225.76 952.534 1211.96 953.113 1199.73 951.601C1175.12 948.555 1154.85 926.812 1151.34 902.685C1145.96 865.754 1173.62 835.974 1208.77 830.671Z"/><path fill="#AF6F65" transform="scale(0.666667 0.666992)" d="M1317.18 853.107C1318.32 853.391 1319.48 853.82 1320.6 854.195C1322.66 858.582 1310.71 894.549 1308.53 902.105C1311.98 897.169 1319.94 882.562 1326.51 884.958C1330.38 890.346 1326.95 901.622 1324.01 907.025C1320.68 912.368 1313.45 920.408 1306.54 920.893C1303.28 921.122 1301.26 921.141 1299.59 918.244C1299.81 911.19 1313.77 861.002 1317.18 853.107Z"/><path fill="#FEFEFE" transform="scale(0.666667 0.666992)" d="M1321.27 890.948L1322.53 892.524C1323.7 900.467 1314.23 912.781 1306.87 916.08C1306.03 915.515 1305.91 915.219 1305.22 914.44C1305.1 906.889 1315.89 896.858 1321.27 890.948Z"/><path fill="#AF6F65" transform="scale(0.666667 0.666992)" d="M1355.38 883.021C1355.6 883.082 1360.15 884.478 1360.04 884.488C1361.81 884.324 1363.5 882.996 1365.42 883.726C1367.39 888.918 1360.63 903.632 1359.84 910.471C1359.33 914.899 1359.66 916.185 1359.37 920.059L1358.2 921.06L1356.29 920.59C1352.07 916.946 1354.89 912.198 1353.21 908.582L1351.57 910.628C1349.37 914.433 1344.45 923.295 1338.49 920.329C1331.88 917.042 1333.89 905.968 1336.53 900.42C1340.43 892.204 1346.71 886.188 1355.38 883.021Z"/><path fill="#FEFEFE" transform="scale(0.666667 0.666992)" d="M1355.86 887.273C1358.12 887.327 1357.11 887.016 1359.01 888.204C1360.05 894.418 1346.86 911.746 1342.7 917.068C1340.45 917.278 1341.36 917.468 1339.27 915.991C1338.57 913.836 1339.24 910.132 1340.01 908.026C1343.62 898.101 1346.83 892.311 1355.86 887.273Z"/><path fill="#AF6F65" transform="scale(0.666667 0.666992)" d="M1226.38 854.679L1229.34 854.326C1231.61 855.468 1230.85 854.754 1232.02 857.16L1231.39 858.904C1228.22 861.468 1209 863.316 1203.58 864.182C1201.38 869.991 1199.37 876.839 1197.47 882.837C1204.41 883.045 1211.5 882.816 1218.46 882.68C1220.34 884.189 1219.78 883.256 1220.3 885.497C1216.85 889.931 1201.19 889.125 1195.8 889.145L1192.16 901.613L1189.21 914.149C1188.42 917.371 1187.86 920.604 1185.03 922.305L1183.71 921.317C1178.99 910.987 1196.41 874.482 1195.42 858.645C1205.53 858.218 1216.43 856.427 1226.38 854.679Z"/><path fill="#AF6F65" transform="scale(0.666667 0.666992)" d="M1289.57 882.908C1299.71 884.774 1295.18 894.698 1290.62 899.888C1287.69 903.223 1276.33 907.992 1275.02 911.092C1275.53 913.713 1275.7 914.001 1277.29 916.159C1282.86 919.008 1284.3 914.014 1290.67 913.416L1292.6 916.179C1265.9 937.949 1261.32 893.981 1289.57 882.908Z"/><path fill="#FEFEFE" transform="scale(0.666667 0.666992)" d="M1288.41 887.773C1290.32 888.749 1289.59 888.041 1290.58 890.058C1289.61 894.845 1283.13 898.973 1279.17 902.112L1278.56 902.896L1278 902.536C1279.52 895.856 1283.19 891.856 1288.41 887.773Z"/><path fill="#96524A" transform="scale(0.666667 0.666992)" d="M1413.22 882.924C1414.03 883.13 1415.3 883.507 1415.95 884.033C1427.68 893.635 1403.91 904.609 1399.73 910.622C1401.65 921.663 1410.67 911.973 1415.76 912.979L1416.87 915.206C1395.49 936.568 1382.64 898.866 1413.22 882.924Z"/><path fill="#FEFEFE" transform="scale(0.666667 0.666992)" d="M1412.37 887.821L1414.01 888.717L1414.51 890.438C1413.21 894.992 1407.07 898.853 1403.18 901.833L1402.33 902.223L1402.04 901.225C1404.2 896.395 1408.49 891.396 1412.37 887.821Z"/><path fill="#96524A" transform="scale(0.666667 0.666992)" d="M1388.17 879.763C1390.04 879.817 1390.1 879.99 1391.71 880.849C1393.47 885.953 1379.07 890.807 1379.82 893.963C1383.17 908.092 1395.98 913.624 1370 924.041C1367.44 922.624 1365.32 921.857 1365.81 918.685C1368.5 916.13 1372.44 917.059 1376.97 914.825C1383.6 906.342 1360.1 893.387 1388.17 879.763Z"/><path fill="#AF6F65" transform="scale(0.666667 0.666992)" d="M1254.4 880.934C1255.63 881.301 1256 881.794 1256.97 882.652C1258.06 886.527 1253.2 897.442 1251.58 902.027C1255.71 896.163 1262.51 885.318 1268.41 882.13L1269.62 882.569C1270.17 890.693 1262.7 892.512 1258.15 897.612L1257.68 898.153C1252.48 905.209 1247.27 919.357 1244.19 922.301L1242.93 921.56C1242.11 913.367 1249.41 887.284 1254.4 880.934Z"/><path fill="#96524A" transform="scale(0.666667 0.666992)" d="M1234.03 883.268C1235.18 883.541 1236.41 883.98 1237.55 884.346C1237.81 884.85 1238.07 885.354 1238.32 885.859C1236.48 890.029 1233.28 898.386 1231.92 902.297C1229.42 909.489 1228.35 915.844 1227.2 923.021C1225.66 922.483 1223.35 921.508 1223.07 919.791C1221.31 908.883 1229.09 892.43 1234.03 883.268Z"/><path fill="#AF6F65" transform="scale(0.666667 0.666992)" d="M1241.01 867.659C1243.68 867.611 1244.21 867.715 1246.04 869.173L1246.14 870.889C1244.77 873.855 1243.31 874.411 1240.56 876.057C1238.39 876.897 1237.48 877.159 1235.93 875.491C1235.8 871.755 1238.38 869.768 1241.01 867.659Z"/><path fill="#433F45" transform="scale(0.666667 0.666992)" d="M1230.44 425.377C1231.72 425.107 1231.4 425.147 1232.59 424.475L1233.06 421.542C1240.11 455.727 1263.62 538.688 1274.13 573.603C1275.26 577.362 1349.49 636.833 1351.53 637.109L1352.76 636.115C1350.18 644.436 1323.55 677.321 1324.45 682.08L1323.94 684C1322 682.741 1322.59 683.572 1321.86 681.615C1323.1 679.686 1325.09 677.404 1322.49 675.686C1317.91 672.653 1313.16 669.842 1308.47 666.973L1280.39 649.49C1270.74 643.377 1232.14 620.126 1227.23 614.715C1222.51 609.518 1201.45 566.775 1196.93 558.057C1195.79 560.906 1195.4 562.617 1193.12 564.658L1191.87 564.577C1190.8 562.592 1190.87 562.686 1190.82 560.399L1191.41 557.585C1191.47 555.408 1192.17 553.815 1191.51 551.905C1191.92 547.089 1199.16 521.154 1200.81 515.921C1208.68 491.135 1217.44 446.948 1230.44 425.377Z"/><path fill="#FEFEFE" transform="scale(0.666667 0.666992)" d="M1191.41 557.585C1196.88 545.622 1222.74 465.562 1225.3 464.389C1224.57 470.718 1220.59 482.115 1218.52 488.61L1205.62 529.727C1203.67 535.76 1197.97 552.385 1196.93 558.057C1195.79 560.906 1195.4 562.617 1193.12 564.658L1191.87 564.577C1190.8 562.592 1190.87 562.686 1190.82 560.399L1191.41 557.585Z"/><path fill="#342A27" transform="scale(0.666667 0.666992)" d="M1353.97 633.986C1354.85 633.138 1355.15 632.446 1355.99 632.757C1361.96 634.98 1372.05 643.205 1377.42 646.535C1375.27 650.097 1372.97 654.106 1370.63 657.503C1374.37 659.692 1397.57 674.619 1400.22 674.21C1401.05 670.919 1400.86 669.562 1403.25 667.981C1408.54 668.084 1418.23 672.467 1423.66 674.1C1430.16 676.051 1436.15 677.279 1442.97 677.741C1446.65 680.914 1449.64 682.592 1453.76 685.07C1452.67 697.507 1447.29 709.78 1444.88 721.917C1442.32 734.871 1432.53 787.931 1421.38 794.927C1417.83 794.527 1409.25 790.652 1405.18 789.146C1401.7 763.275 1399.32 738.484 1392.88 713.006C1392.49 711.463 1388.4 710.115 1387.56 706.999C1387.71 703.933 1389.32 702.282 1391.23 699.817C1386.67 697.998 1355.35 683.166 1354.39 683.366C1353.48 685.602 1353.69 686.302 1352.08 687.225C1349.81 689.108 1348.51 691.434 1346.87 693.911C1340.8 691.338 1330.36 685.376 1324.45 682.08C1323.55 677.321 1350.18 644.436 1352.76 636.115L1353.97 633.986Z"/><path fill="#AF6F65" transform="scale(0.666667 0.666992)" d="M1353.97 633.986C1359.41 634.053 1370.63 643.187 1376.18 646.929C1373.06 651.841 1355.33 679.243 1354.39 683.366C1353.48 685.602 1353.69 686.302 1352.08 687.225C1349.81 689.108 1348.51 691.434 1346.87 693.911C1340.8 691.338 1330.36 685.376 1324.45 682.08C1323.55 677.321 1350.18 644.436 1352.76 636.115L1353.97 633.986Z"/><path fill="#FEFEFE" transform="scale(0.666667 0.666992)" d="M1402.1 668.73C1406.93 669.327 1415.74 673.094 1420.82 674.844C1429.94 677.985 1434.71 678.697 1444.09 679.731C1438.34 703.329 1434.37 726.058 1428.54 749.414C1425.93 759.867 1420.36 773.23 1416.23 783.438C1415.02 786.335 1414.58 788.407 1411.95 789.908C1403.39 790.755 1402.74 754.599 1401.6 746.685L1402.11 746.347C1404.04 745.01 1406.86 743.344 1407.21 740.821C1408.52 731.23 1402.87 715.308 1398.71 707.031C1405.33 702.774 1415.54 693.17 1415.05 685.285C1414.31 673.322 1400.97 685.621 1402.1 668.73Z"/><path fill="#FEFEFE" transform="scale(0.666667 0.666992)" d="M1370.39 659.397C1380.01 663.647 1394.93 673.726 1403.56 679.858C1406.05 681.625 1403.58 691.681 1400.25 694.171C1398.4 693.942 1397.46 693.615 1395.81 694.461C1394.3 697.385 1394.65 696.442 1395.04 700.226C1382.49 694.463 1370.06 688.526 1357.59 682.579C1362.19 674.668 1366.22 667.577 1370.39 659.397Z"/><path fill="#FEFEFE" transform="scale(0.666667 0.666992)" d="M1445.12 681.33L1452.32 685.176C1450.5 701.452 1446.17 707.851 1443.36 721.068C1437.31 749.557 1435.87 767.298 1421.71 793.885C1418.98 793.446 1418.6 793.355 1416.17 792.03C1415.95 791.527 1415.74 791.025 1415.52 790.523C1418.07 781.407 1424.71 767.916 1427.48 759.346C1433.16 741.732 1435.78 725.581 1439.27 707.736C1441.03 698.709 1443.28 690.178 1445.12 681.33Z"/><path fill="#FEFEFE" transform="scale(0.666667 0.666992)" d="M1392.34 700.37C1395.79 701.829 1398.34 700.984 1402.3 702.207C1392.05 710.342 1404.34 709.118 1397.32 716.848L1396.17 719.045L1395.22 719.021C1393.64 714.762 1396.13 714.707 1394.91 712.111C1393.36 708.808 1390.28 710.056 1388.97 706.312C1389.41 703.672 1390.67 702.503 1392.34 700.37Z"/><path fill="#FEFEFE" transform="scale(0.666667 0.666992)" d="M1406.91 680.107C1408.38 680.172 1409.51 680.432 1410.95 680.71C1415.88 685.782 1410.02 693.868 1406.93 698.764L1405.03 700.299L1403.98 699.601C1402.64 695.195 1406.1 686.296 1406.91 680.107Z"/><path fill="#FEFEFE" transform="scale(0.666667 0.666992)" d="M1401.52 724.643L1402.78 724.437C1403.85 727.523 1404.49 729.093 1403.66 732.277L1403.91 732.551L1404.21 731.799L1404.16 732.658C1402.73 731.799 1402.32 731.67 1401.54 730.1L1399.72 732.375L1400.48 733.639L1399.69 734.224C1397.52 732.175 1397.38 730.615 1398.42 727.965C1400.24 727.14 1400.57 727.034 1402.1 725.793L1401.27 725.263L1401.52 724.643Z"/><path fill="#FEFEFE" transform="scale(0.666667 0.666992)" d="M1399.71 715.993C1401.33 717.189 1402.13 719.012 1402.09 720.987C1400.34 723.395 1401.1 722.592 1397.47 723.762L1397.28 724.717L1396.75 723.892C1397.25 720.114 1397.87 719.292 1399.71 715.993Z"/><path fill="#FEFEFE" transform="scale(0.666667 0.666992)" d="M1396.36 695.268C1398.78 695.002 1399.13 694.941 1401.36 695.901C1402.83 698.378 1402.43 697.315 1402.29 700.759C1400.07 700.243 1399.13 699.898 1397.01 699.038C1395.67 697.07 1395.94 698.02 1396.36 695.268Z"/><path fill="#FEFEFE" transform="scale(0.666667 0.666992)" d="M1399.84 735.393C1400.99 735.769 1401.52 736.127 1402.56 736.696C1404.18 739.108 1403.92 741.353 1404.04 744.337C1399.45 742.431 1399.31 739.956 1399.84 735.393Z"/><path fill="#583E38" transform="scale(0.666667 0.666992)" d="M1324.45 682.08C1330.36 685.376 1340.8 691.338 1346.87 693.911C1348.51 691.434 1349.81 689.108 1352.08 687.225C1350.76 690.331 1348.99 692.692 1347.09 695.47C1339.44 691.963 1331.91 687.594 1323.94 684L1324.45 682.08Z"/><path fill="#FEFEFE" transform="scale(0.666667 0.666992)" d="M1068.48 196.219C1074.02 200.948 1079 206.269 1084.07 211.497C1139.32 187.847 1192.81 313.907 1221.55 346.163C1226.13 351.309 1233.31 356.166 1237.31 361.226C1248.16 372.038 1233.18 380.947 1230.61 387.89L1229.3 388.22C1209.82 393.218 1150.85 422.819 1135.21 435.591C1134.93 436.964 1133.64 444.655 1133.42 445.353L1131.89 448.412C1122.44 451.155 1114.53 451.453 1115.7 439.28C1116.39 432.008 1118.4 423.803 1117.94 416.413C1116.77 397.837 1100.01 367.544 1090.41 351.718L1088.43 349.937C1086.73 350.854 1087.45 350.225 1086.39 352.103L1084.95 351.534L1093.2 328.73C1082.8 323.112 1071.09 320.978 1059.42 320.143L1054.32 331.006L1053.84 327.624C1048.44 321.768 1036.06 308.695 1038.76 299.891C1044.77 291.403 1046.79 287.38 1050.73 277.955C1054.88 266.213 1058.29 255.981 1058.9 243.5C1059.01 241.114 1060.4 237.354 1060.99 234.846L1061.55 233.802C1063.08 232.372 1067 227.509 1068.65 225.68C1073.4 220.436 1077.29 216.923 1082.77 212.516C1077.82 207.61 1072.7 201.771 1067.08 197.819L1068.48 196.219Z"/><path fill="#433F45" transform="scale(0.666667 0.666992)" d="M1236.13 361.133L1237.31 361.226C1248.16 372.038 1233.18 380.947 1230.61 387.89L1229.3 388.22C1209.82 393.218 1150.85 422.819 1135.21 435.591C1134.93 436.964 1133.64 444.655 1133.42 445.353L1131.89 448.412C1122.44 451.155 1114.53 451.453 1115.7 439.28L1116.67 444.168C1129.58 433.644 1146.69 423.021 1160.35 412.72C1177.28 399.958 1193.16 385.395 1210.59 373.638C1217.38 369.057 1228.74 364.862 1236.13 361.133Z"/><path fill="#433F45" transform="scale(0.666667 0.666992)" d="M1038.76 299.891L1041.1 299.173C1046.12 301.106 1053.45 301.148 1059.07 302.961C1081.12 310.078 1106.04 324.498 1119.63 343.632L1121.74 343.712C1118.99 359.164 1100.35 350.754 1090.62 348.789L1090.07 349.388L1090.92 350.892L1090.41 351.718L1088.43 349.937C1086.73 350.854 1087.45 350.225 1086.39 352.103L1084.95 351.534L1093.2 328.73C1082.8 323.112 1071.09 320.978 1059.42 320.143L1054.32 331.006L1053.84 327.624C1048.44 321.768 1036.06 308.695 1038.76 299.891Z"/><path fill="#342A27" transform="scale(0.666667 0.666992)" d="M1068.48 196.219C1074.02 200.948 1079 206.269 1084.07 211.497C1139.32 187.847 1192.81 313.907 1221.55 346.163C1226.13 351.309 1233.31 356.166 1237.31 361.226L1236.13 361.133C1230.07 356.604 1223.51 350.955 1218.32 344.988C1189.99 312.412 1123.64 157.092 1067.42 229.018C1062.33 235.528 1060.39 241.901 1058.97 249.888C1059.87 249.143 1064.79 238.599 1065.8 236.384C1070.4 226.255 1086.36 215.801 1096.82 212.705C1089.56 218.874 1079.81 221.171 1072.09 230.032C1056.19 248.294 1057.83 280.4 1041.1 299.173L1038.76 299.891C1044.77 291.403 1046.79 287.38 1050.73 277.955C1054.88 266.213 1058.29 255.981 1058.9 243.5C1059.01 241.114 1060.4 237.354 1060.99 234.846L1061.55 233.802C1063.08 232.372 1067 227.509 1068.65 225.68C1073.4 220.436 1077.29 216.923 1082.77 212.516C1077.82 207.61 1072.7 201.771 1067.08 197.819L1068.48 196.219Z"/><path fill="#342A27" transform="scale(0.666667 0.666992)" d="M1090.92 350.892C1100.72 362.018 1112.59 391.23 1117.91 405.721C1121.4 415.205 1118.06 433.645 1116.67 444.168L1115.7 439.28C1116.39 432.008 1118.4 423.803 1117.94 416.413C1116.77 397.837 1100.01 367.544 1090.41 351.718L1090.92 350.892Z"/><path fill="#342A27" transform="scale(0.666667 0.666992)" d="M1119.71 332.746C1119.39 314.001 1119.17 298.05 1122.59 279.333L1123.28 278.572L1123.16 277.399L1122.85 278.2L1123.35 277.531L1122.97 278.43C1123.86 279.569 1121.27 306.361 1121.13 310.159C1121.16 314.708 1121.33 320.011 1121.12 324.495L1121.38 335.613L1119.71 332.746Z"/><path fill="#817F7F" transform="scale(0.666667 0.666992)" d="M1121.12 324.495C1120.01 319.119 1120.06 315.527 1121.13 310.159C1121.16 314.708 1121.33 320.011 1121.12 324.495Z"/><path fill="#433F45" transform="scale(0.666667 0.666992)" d="M1119.71 332.746L1121.38 335.613L1121.74 343.712L1119.63 343.632C1119.99 340.966 1119.76 335.652 1119.71 332.746Z"/><path fill="#AF6F65" transform="scale(0.666667 0.666992)" d="M1229.3 388.22L1230.61 387.89C1235.23 398.672 1235.4 407.131 1234.15 418.785L1233.06 421.542L1232.59 424.475C1231.4 425.147 1231.72 425.107 1230.44 425.377C1217.44 446.948 1208.68 491.135 1200.81 515.921C1199.16 521.154 1191.92 547.089 1191.51 551.905C1192.17 553.815 1191.47 555.408 1191.41 557.585L1190.82 560.399C1189.26 564.75 1183.19 584.798 1183.5 588.441C1184.7 602.576 1188.24 622.46 1191.1 636.522C1194.02 650.864 1196.96 673.721 1200.76 686.981C1203.34 689.32 1205.78 686.921 1207.27 689.051C1209.72 692.55 1211.44 711.015 1210.29 714.486C1208.21 715.489 1206.87 715.431 1204.59 715.622L1201.88 715.884C1199.77 718.933 1201.63 723.429 1202.47 726.923L1201.23 726.43L1200.46 725.011C1197.82 723.289 1176.59 723.147 1170.68 722.177C1170.13 721.402 1170.04 721.546 1169.07 721.027C1168.76 720.4 1168.54 718.961 1168.38 718.2C1164.06 719.768 1151.44 720.074 1146.33 720.335C1145.43 716.068 1139.36 694.685 1140.84 692.38C1142.55 692.316 1143.92 692.496 1145.27 691.541C1144.99 688.655 1139.31 670.122 1138.13 666.084L1124.04 617.373C1122.48 611.953 1116.75 594.953 1116.41 590.158C1115.33 575.193 1119.75 550.976 1121.52 535.764C1124.95 506.455 1127.98 477.377 1131.89 448.412L1133.42 445.353C1133.64 444.655 1134.93 436.964 1135.21 435.591C1150.85 422.819 1209.82 393.218 1229.3 388.22Z"/><path fill="#AF6F65" transform="scale(0.666667 0.666992)" d="M1141.57 693.966C1170.69 693.084 1177.54 695.957 1207.29 688.915C1207.56 694.19 1210.39 711.005 1208.53 713.922L1206.61 714.095L1204.59 715.622L1201.88 715.884C1199.77 718.933 1201.63 723.429 1202.47 726.923L1201.23 726.43L1200.46 725.011C1197.82 723.289 1176.59 723.147 1170.68 722.177C1170.13 721.402 1170.04 721.546 1169.07 721.027C1168.76 720.4 1168.54 718.961 1168.38 718.2L1168.66 717.231C1161.77 718.093 1154.55 718.316 1147.42 719.205C1146.18 711.822 1143.37 701.467 1141.57 693.966Z"/><path fill="#433F45" transform="scale(0.666667 0.666992)" d="M1168.66 717.231C1179.36 716.937 1195.79 715.16 1206.61 714.095L1204.59 715.622L1201.88 715.884C1199.77 718.933 1201.63 723.429 1202.47 726.923L1201.23 726.43L1200.46 725.011C1197.82 723.289 1176.59 723.147 1170.68 722.177C1170.13 721.402 1170.04 721.546 1169.07 721.027C1168.76 720.4 1168.54 718.961 1168.38 718.2L1168.66 717.231Z"/><path fill="#583E38" transform="scale(0.666667 0.666992)" d="M1131.89 448.412L1133.42 445.353C1129.45 491.476 1120.54 540.926 1117.47 587.222C1117.29 589.905 1123.46 610.206 1124.62 614.312L1139.24 665.007C1141.51 672.683 1145.57 684.914 1147.28 692.401C1167.84 692.482 1179.55 693.498 1199.62 689.363C1192.69 657.53 1186.71 621.207 1182.07 588.759C1181.65 585.821 1189.89 555.339 1191.51 551.905C1192.17 553.815 1191.47 555.408 1191.41 557.585L1190.82 560.399C1189.26 564.75 1183.19 584.798 1183.5 588.441C1184.7 602.576 1188.24 622.46 1191.1 636.522C1194.02 650.864 1196.96 673.721 1200.76 686.981C1203.34 689.32 1205.78 686.921 1207.27 689.051C1209.72 692.55 1211.44 711.015 1210.29 714.486C1208.21 715.489 1206.87 715.431 1204.59 715.622L1206.61 714.095L1208.53 713.922C1210.39 711.005 1207.56 694.19 1207.29 688.915C1177.54 695.957 1170.69 693.084 1141.57 693.966C1143.37 701.467 1146.18 711.822 1147.42 719.205C1154.55 718.316 1161.77 718.093 1168.66 717.231L1168.38 718.2C1164.06 719.768 1151.44 720.074 1146.33 720.335C1145.43 716.068 1139.36 694.685 1140.84 692.38C1142.55 692.316 1143.92 692.496 1145.27 691.541C1144.99 688.655 1139.31 670.122 1138.13 666.084L1124.04 617.373C1122.48 611.953 1116.75 594.953 1116.41 590.158C1115.33 575.193 1119.75 550.976 1121.52 535.764C1124.95 506.455 1127.98 477.377 1131.89 448.412Z"/><path fill="#342A27" transform="scale(0.666667 0.666992)" d="M1229.3 388.22L1230.61 387.89C1235.23 398.672 1235.4 407.131 1234.15 418.785L1233.06 421.542L1232.59 424.475C1231.4 425.147 1231.72 425.107 1230.44 425.377C1234.36 412.616 1235.04 400.669 1229.3 388.22Z"/><path fill="#FEFEFE" transform="scale(0.666667 0.666992)" d="M912.253 269.487C914.083 268.047 914.158 268.041 916.556 267.969C920.575 269.422 921.775 272.095 923.543 275.72C963.714 266.409 1010.73 268.738 1050.73 277.955C1046.79 287.38 1044.77 291.403 1038.76 299.891C1036.06 308.695 1048.44 321.768 1053.84 327.624L1054.32 331.006L1059.42 320.143C1071.09 320.978 1082.8 323.112 1093.2 328.73L1084.95 351.534L1086.39 352.103C1080.85 367.111 1070.41 392.762 1059.79 404.55C1057.07 407.566 1051.03 409.974 1046.84 409.351C1010.09 403.892 974.124 378.381 942.722 359.608C932.845 353.703 920.848 348.366 912.965 340.878C907.548 335.731 910.802 321.828 908.969 316.328C906.239 308.136 901.036 308.223 901.735 297.386C898.443 293.137 890.624 277.643 888.09 276.033C887.71 274.791 887.698 273.92 887.597 272.644C891.94 268.169 905.421 271.023 912.253 269.487Z"/><path fill="#F8AA85" transform="scale(0.666667 0.666992)" d="M923.543 275.72C963.714 266.409 1010.73 268.738 1050.73 277.955C1046.79 287.38 1044.77 291.403 1038.76 299.891C1036.06 308.695 1048.44 321.768 1053.84 327.624C1051.46 333.658 1048.7 339.877 1046.14 345.861C1023.66 336.631 993.186 335.273 970.345 324.864C957.867 319.178 957.566 297.907 943.944 305.496C940.648 306.143 930.388 285.204 926.867 281.95L923.543 275.72Z"/><path fill="#FEFEFE" transform="scale(0.666667 0.666992)" d="M943.944 305.496C957.566 297.907 957.867 319.178 970.345 324.864C993.186 335.273 1023.66 336.631 1046.14 345.861C1048.7 339.877 1051.46 333.658 1053.84 327.624L1054.32 331.006C1048.99 343.293 1043.72 355.259 1041.06 368.486C1040.6 370.776 1040.28 374.003 1039.15 375.814L1038.46 375.013C1038.65 373.134 1038.78 371.896 1039.16 370.049C1030.96 367.129 1012.01 359.973 1004.1 358.256L1003.4 356.067C990.862 352.083 977.868 347.352 965.397 342.996C961.396 337.106 943.77 312.076 944.561 306.209L943.944 305.496Z"/><path fill="#342A27" transform="scale(0.666667 0.666992)" d="M943.944 305.496C957.566 297.907 957.867 319.178 970.345 324.864C993.186 335.273 1023.66 336.631 1046.14 345.861C1048.7 339.877 1051.46 333.658 1053.84 327.624L1054.32 331.006C1048.99 343.293 1043.72 355.259 1041.06 368.486C1040.6 370.776 1040.28 374.003 1039.15 375.814L1038.46 375.013C1038.65 373.134 1038.78 371.896 1039.16 370.049C1030.96 367.129 1012.01 359.973 1004.1 358.256L1003.4 356.067L1039.43 368.133C1041.38 360.367 1042.99 354.692 1045.58 347.13C1019.65 339.082 990.956 336.166 966.74 324.171C956.228 318.964 957.687 302.599 944.561 306.209L943.944 305.496Z"/><path fill="#433F45" transform="scale(0.666667 0.666992)" d="M912.253 269.487C914.083 268.047 914.158 268.041 916.556 267.969C920.575 269.422 921.775 272.095 923.543 275.72L926.867 281.95C930.388 285.204 940.648 306.143 943.944 305.496L944.561 306.209C943.77 312.076 961.396 337.106 965.397 342.996C977.868 347.352 990.862 352.083 1003.4 356.067L1004.1 358.256C988.85 352.889 964.254 346.712 950.886 338.448C946.53 335.755 931.985 303.289 922.684 302.633C917.436 308.038 925.773 314.634 929.332 319.642C925.229 316.392 905.882 300.412 902.916 299.441C902.409 298.006 902.736 298.459 901.735 297.386C898.443 293.137 890.624 277.643 888.09 276.033C887.71 274.791 887.698 273.92 887.597 272.644C891.94 268.169 905.421 271.023 912.253 269.487Z"/><path fill="#342A27" transform="scale(0.666667 0.666992)" d="M912.253 269.487C914.083 268.047 914.158 268.041 916.556 267.969C920.575 269.422 921.775 272.095 923.543 275.72L926.867 281.95C924.807 280.561 922.976 277.933 921.37 275.928C918.928 274.699 915.598 271.67 913.389 269.813L912.253 269.487Z"/><path fill="#AF6F65" transform="scale(0.666667 0.666992)" d="M913.389 269.813C918.81 270.09 919.408 270.865 921.37 275.928C918.928 274.699 915.598 271.67 913.389 269.813Z"/><path fill="#342A27" transform="scale(0.666667 0.666992)" d="M901.735 297.386C902.736 298.459 902.409 298.006 902.916 299.441C905.007 310.523 910.023 310.81 913.599 320.066L913.109 320.564L910.966 319.326C911.696 323.154 913.529 322.476 913.181 325.446L911.362 323.516C910.146 325.212 912.05 335.987 912.571 338.676C920.631 346.171 935.837 353.619 945.58 359.517C974.818 377.074 1003.82 396.895 1037.08 405.972C1045.57 408.286 1054.53 409.519 1060.4 401.672C1071.19 387.263 1078.45 368.162 1084.95 351.534L1086.39 352.103C1080.85 367.111 1070.41 392.762 1059.79 404.55C1057.07 407.566 1051.03 409.974 1046.84 409.351C1010.09 403.892 974.124 378.381 942.722 359.608C932.845 353.703 920.848 348.366 912.965 340.878C907.548 335.731 910.802 321.828 908.969 316.328C906.239 308.136 901.036 308.223 901.735 297.386Z"/><path fill="#342A27" transform="scale(0.666667 0.666992)" d="M1169.07 721.027C1170.04 721.546 1170.13 721.402 1170.68 722.177C1176.59 723.147 1197.82 723.289 1200.46 725.011L1201.23 726.43L1202.47 726.923C1204.33 736.994 1207.57 752.361 1208.69 762.211L1219.09 762.279C1221.86 778.629 1223.14 784.126 1228.26 800.203C1223.97 802.694 1222.07 803.605 1217.44 805.38C1199.24 812.115 1181.12 819.075 1162.72 825.246C1159.46 826.338 1155.86 827.369 1152.69 828.609L1151.66 828.864C1133.54 833.359 1103.92 842.605 1125.7 811.336C1128.54 807.26 1134.9 802.383 1138.58 798.796C1149.53 788.149 1162.89 778.13 1171.61 765.53L1178.95 762.661C1175.54 752.684 1170.31 731.418 1169.07 721.027Z"/><path fill="#FEFEFE" transform="scale(0.666667 0.666992)" d="M1170.68 722.177C1176.59 723.147 1197.82 723.289 1200.46 725.011L1201.23 726.43C1201.33 731.702 1207.03 761.476 1208.11 768.892C1203.78 771.814 1194.83 774.566 1189.99 772.154C1188.43 769.903 1188.9 769.791 1189.19 766.644C1186.74 763.523 1185.33 763.687 1181.22 762.883C1177.31 758.83 1172.11 729.109 1170.68 722.177Z"/><path fill="#FEFEFE" transform="scale(0.666667 0.666992)" d="M1208.45 763.607C1211.94 763.448 1213.19 763.364 1216.68 763.865C1218.31 765.415 1222.42 786.622 1224.41 792.525C1209.42 797.72 1131.96 825.287 1120.85 823.424L1120.74 821.929C1123.83 814.052 1131.35 805.449 1138.43 800.857C1144.84 796.7 1145.99 797.085 1153.13 798.62C1159.88 794.189 1165.55 788.173 1170.89 782.13C1176.79 775.453 1170.17 774.512 1170.13 770.258C1171.61 766.844 1175.52 763.498 1179.38 764.643L1179.9 768.313C1182.8 772.915 1194.46 775.413 1200.07 776.903C1204.48 775.522 1206.4 774.65 1210.58 772.6L1208.45 763.607Z"/><path fill="#FEFEFE" transform="scale(0.666667 0.666992)" d="M1223.54 794.437C1224.11 794.579 1225.23 795.342 1225.8 795.692C1226.48 797.586 1226.3 796.923 1225.63 799.234C1222.43 802.477 1212.51 805.938 1207.98 807.444C1180.95 816.43 1152.09 830.6 1123.42 832.136C1121.01 831.273 1120.76 829.629 1120.82 827.545C1123.19 825.042 1128.53 824.213 1131.9 823.45C1163.09 816.391 1193.47 805.311 1223.54 794.437Z"/><path fill="#FEFEFE" transform="scale(0.666667 0.666992)" d="M1163.04 778.159L1165.61 778.332C1168.18 780.529 1168.08 779.761 1168.83 782.476C1166.41 786.396 1160.76 786.25 1156.34 786.918L1156.13 787.714C1157.87 790.263 1157.71 789.22 1157.26 791.72C1155.46 793.446 1156.47 793.096 1154.26 793.148L1153.58 790.323L1151.81 790.006L1150.95 789.34C1155.11 785.862 1159.11 781.919 1163.04 778.159Z"/><path fill="#FEFEFE" transform="scale(0.666667 0.666992)" d="M1163.04 778.159C1164.63 776.006 1165.53 774.115 1167.97 773.455C1170.56 774.165 1169.65 773.602 1171.43 775.552L1171.61 777.582C1169.48 779.981 1168.63 779.26 1165.61 778.332L1163.04 778.159Z"/><path fill="#FEFEFE" transform="scale(0.666667 0.666992)" d="M1150.95 789.34L1151.81 790.006C1152.3 793.007 1152.8 792.867 1151.55 795.179C1149.5 796.292 1149.43 796.371 1147.15 796.335L1145.9 794.944C1146.43 792.488 1148.85 791.065 1150.95 789.34Z"/><path fill="#FEFEFE" transform="scale(0.666667 0.666992)" d="M1182.16 764.337C1184.68 764.892 1184.91 764.863 1187 766.277C1187.85 769.008 1187.56 768.208 1186.69 771.437C1184.07 770.454 1183.01 770.303 1181.15 768.191C1180.83 765.68 1180.65 766.704 1182.16 764.337Z"/><path fill="#F7E2C5" transform="scale(0.666667 0.666992)" d="M740.185 187.001C762.435 190.201 774.3 186.859 793.598 176.383C819.403 211.134 846.257 247.745 870.51 283.509C814.405 301.398 757.652 352.114 731.898 404.486C725.818 416.85 722.515 425.532 717.348 437.853C703.558 422.613 692.598 415.903 673.423 409.047C685.252 372.486 695.919 333.855 707.153 296.941C718.179 260.711 730.07 223.422 740.185 187.001Z"/><path fill="#FEFEFE" transform="scale(0.666667 0.666992)" d="M104.315 60.388C127.786 60.0121 152.231 60.4142 175.794 60.4142L312.46 60.4079L390.931 60.4055C405.376 60.4092 419.758 60.3297 434.204 60.7682C446.982 61.1561 449.946 64.7461 449.973 77.6087C450.048 113.116 450.04 148.628 450.043 184.137L450.023 391.118L449.942 530.693C449.936 551.959 450.15 573.224 450.143 594.488C450.138 607.297 445.434 608.263 434.126 608.376L207.924 608.439L137.055 608.413C125.034 608.408 112.918 608.53 100.906 608.354C98.6748 608.321 90.7251 607.538 89.1705 606.018C87.1587 604.05 85.6426 600.38 85.6213 597.44C85.3811 564.181 85.5405 530.738 85.5507 497.493L85.535 305.234L85.5144 151.511C85.532 126.364 85.3691 100.923 85.763 75.7526C85.9877 61.3919 92.3825 60.6319 104.315 60.388Z"/><path fill="#583E38" transform="scale(0.666667 0.666992)" d="M254.221 82.0981C329.158 74.7341 395.883 129.507 403.283 204.458C410.683 279.41 355.958 346.179 281.028 353.619C206.045 361.064 139.234 306.277 131.829 231.272C124.424 156.267 179.23 89.4674 254.221 82.0981Z"/><path fill="#FEFEFE" transform="scale(0.666667 0.666992)" d="M253.829 86.5553C290.826 84.4277 323.427 92.3506 353.329 115.035C448.534 187.262 398.809 335.476 283.651 349.43C257.753 351.556 231.344 348.447 207.92 336.761C85.4685 275.672 117.576 102.707 253.829 86.5553Z"/><path fill="#583E38" transform="scale(0.666667 0.666992)" d="M255.67 95.7058C323.065 88.9934 383.157 138.159 389.941 205.564C396.725 272.969 347.637 333.128 280.256 339.987C212.771 346.857 152.514 297.664 145.719 230.156C138.925 162.648 188.171 102.429 255.67 95.7058Z"/><path fill="#AF6F65" transform="scale(0.666667 0.666992)" d="M162.133 277.636C165.424 273.235 169.408 269.94 172.327 265.049C176.336 258.334 171.063 247.416 174.712 241.133C181.282 229.822 195.87 224.685 204.549 214.49C215.619 201.487 203.484 190.985 207.663 177.459C210.008 169.871 220.817 161.798 225.407 155.689C227.931 152.328 231.136 144.976 233.515 140.943C237.746 133.189 247.764 127.233 256.218 125.539C287.518 119.293 345.953 130.341 340.314 173.245C339.956 175.963 339.491 181.459 340.235 183.806L341.218 185.436C358.101 192.44 353.668 213.139 338.034 219.49C335.802 238.717 327.68 251.353 309.024 258.294C308.468 263.421 308.883 267.248 310.159 272.213L308.981 274.039C306.48 273.861 304.606 273.066 302.825 275.034L302.262 274.884L301.368 273.377L298.884 272.893L296.88 272.701C296.227 274.718 294.534 276.995 293.277 278.721C277.186 300.806 256.514 286.751 240.007 273.163C248.08 260.198 252.878 244.432 256.855 229.835L255.343 226.918C253.024 239.406 246.549 257.966 239.982 268.832C229.943 270.732 215.582 274.041 206.619 278.762C193.549 285.646 190.179 293.638 186.172 306.617C176.092 298.205 169.055 288.682 162.133 277.636Z"/><path fill="#FEFEFE" transform="scale(0.666667 0.666992)" d="M287.419 172.689C307.355 173.941 310.278 172.953 318.222 155.026C326.168 154.117 323.119 164.535 324.462 168.25C326.674 174.365 335.464 182.492 341.218 185.436C358.101 192.44 353.668 213.139 338.034 219.49C335.802 238.717 327.68 251.353 309.024 258.294C308.468 263.421 308.883 267.248 310.159 272.213L308.981 274.039C306.48 273.861 304.606 273.066 302.825 275.034L302.262 274.884L301.368 273.377L298.884 272.893L296.88 272.701C296.227 274.718 294.534 276.995 293.277 278.721C277.186 300.806 256.514 286.751 240.007 273.163C248.08 260.198 252.878 244.432 256.855 229.835L255.343 226.918L245.323 212.082C239.79 205.194 239.611 196.704 246.525 190.728C250.913 185.242 267.17 193.397 270.339 190.031C275.709 184.324 280.486 177.774 287.419 172.689Z"/><path fill="#342A27" transform="scale(0.666667 0.666992)" d="M287.419 172.689C307.355 173.941 310.278 172.953 318.222 155.026C326.168 154.117 323.119 164.535 324.462 168.25C326.674 174.365 335.464 182.492 341.218 185.436C358.101 192.44 353.668 213.139 338.034 219.49C335.802 238.717 327.68 251.353 309.024 258.294C308.63 257.013 308.566 256.078 308.412 254.765C326.632 251.168 333.407 236.549 336.656 220.003C327.421 218.509 325.244 216.655 317.822 211.125L317.862 209.694C314.541 210.242 312.607 215.224 309.743 216.803C294.478 225.219 282.58 216.888 277.93 201.952C273.828 200.592 271.091 199.792 267.486 197.107C263.056 193.807 252.979 187.285 247.665 192.037C240.862 198.12 241.361 203.555 246.154 210.614L245.323 212.082C239.79 205.194 239.611 196.704 246.525 190.728C250.913 185.242 267.17 193.397 270.339 190.031C275.709 184.324 280.486 177.774 287.419 172.689Z"/><path fill="#FEFEFE" transform="scale(0.666667 0.666992)" d="M319.72 156.366L321.885 158.176C322.961 160.943 322.232 163.739 321.84 166.798C324.821 172.752 328.423 177.922 333.183 182.606L333.863 183.268C325.902 186.36 322.82 190.991 318.631 197.834C314.077 183.926 308.346 177.951 293.242 179.302C284.868 183.066 279.966 196.601 274.052 192.845L273.727 191.071C275.294 185.025 282.75 178.034 287.615 174.323C305.658 175.075 312.556 174.331 319.72 156.366Z"/><path fill="#FEFEFE" transform="scale(0.666667 0.666992)" d="M298.101 184.673C311.931 184.978 319.971 201.718 311.401 205.958C307.929 204.21 307.355 200.064 303.394 196.901L301.915 197.312C299.526 201.04 303.299 203.761 306.389 205.53L310.67 207.41L310.534 208.848C303.672 217.077 285.134 214.026 284.812 201.511C284.563 191.826 289.895 187.531 298.101 184.673Z"/><path fill="#FEFEFE" transform="scale(0.666667 0.666992)" d="M333.886 189.847C348.613 189.913 350.429 209.681 335.072 213.972C318.273 210.083 320.971 196.63 333.886 189.847Z"/><path fill="#F8AA85" transform="scale(0.666667 0.666992)" d="M293.215 180.967C299.562 180.293 313.115 182.342 313.045 190.435C290.969 167.072 268.119 207.663 296.281 215.208C301.437 216.59 306.994 213.169 310.934 210.282C315.372 205.445 315.114 204.115 316.167 197.585L316.669 198.008C317.602 201.45 316.765 204.737 316.207 208.293C313.777 210.967 311.973 213.054 308.858 215.157C294.938 224.549 276.601 211.76 280.622 195.559C282.28 188.88 287.309 184.464 293.215 180.967Z"/><path fill="#F8AA85" transform="scale(0.666667 0.666992)" d="M334.176 185.197C352.123 186.34 354.786 207.175 341.247 215.654C333.104 220.752 322.783 215.21 319.214 207.131C317.581 203.431 318.924 201.027 320.347 197.621L321.038 197.52C321.2 202.98 320.418 204.824 323.054 209.392C350.205 230.101 354.288 186.894 334.338 187.862C329.387 188.102 324.17 196.86 321.867 201.242C323.752 191.734 325.028 189.377 334.176 185.197Z"/><path fill="#F8AA85" transform="scale(0.666667 0.666992)" d="M262.849 192.057C268.216 192.156 274.361 194.099 278.637 197.355L278.912 199.674C275.16 200.661 265.873 194.337 262.849 192.057Z"/><path fill="#433F45" transform="scale(0.666667 0.666992)" d="M264.415 233.27C278.546 248.282 287.13 254.889 308.412 254.765C308.566 256.078 308.63 257.013 309.024 258.294C308.468 263.421 308.883 267.248 310.159 272.213L308.981 274.039C306.48 273.861 304.606 273.066 302.825 275.034L302.262 274.884L301.368 273.377L298.884 272.893L296.88 272.701C275.508 268.068 269.206 252.538 264.415 233.27Z"/><path fill="#AF6F65" transform="scale(0.666667 0.666992)" d="M306.621 264.142C307.467 265.157 308.557 270.93 308.947 272.646C303.945 272.041 299.066 271.455 294.082 270.672L291.796 269.692C292.984 268.065 301.533 267.086 306.621 264.142Z"/><path fill="#433F45" transform="scale(0.666667 0.666992)" d="M246.154 210.614C251.775 214.517 253.501 213.981 260.559 214.154L256.855 229.835L255.343 226.918L245.323 212.082L246.154 210.614Z"/><path fill="#342A27" transform="scale(0.666667 0.666992)" d="M298.375 227.158C301.049 227.867 305.42 233.214 309.512 233.617C312.972 233.958 312.693 231.483 316.456 228.755L318.002 229.149L319.261 231.406L320.92 233.257L320.267 234.531C312.943 238.537 302.952 233.54 298.375 227.158Z"/><path fill="#433F45" transform="scale(0.666667 0.666992)" d="M253.083 193.544C255.667 194.395 256.087 194.356 257.756 196.342C258.611 199.824 259.613 202.973 258.218 206.33C256.375 205.002 256.538 204.104 255.659 201.641C251.626 203.738 253.936 205.32 250.958 206.79C249.749 203.123 253.035 200.789 255.435 198.402C255.704 196.324 254.613 195.692 253.083 193.544Z"/><path fill="#FEFEFE" transform="scale(0.666667 0.666992)" d="M161.122 276.376C158.614 271.412 156.179 266.629 154.17 261.427C116.518 163.935 210.763 73.891 307.677 106.22C371.741 127.59 404.536 188.908 383.64 253.51C376.828 273.262 365.863 290.686 350.358 304.562C341.701 285.514 330.955 276.289 310.159 272.213C308.883 267.248 308.468 263.421 309.024 258.294C327.68 251.353 335.802 238.717 338.034 219.49C353.668 213.139 358.101 192.44 341.218 185.436L340.235 183.806C343.691 177.298 342.615 163.388 340.696 156.339C330.645 119.42 243.391 106.252 229.076 145.56C224.404 158.305 213.102 163.39 206.599 174.982C200.828 185.271 210.541 199.613 206.336 207.685C193.941 231.479 165.719 225.636 172.592 259.661C170.04 265.587 165.009 270.641 161.122 276.376Z"/><path fill="#F7E2C5" transform="scale(0.666667 0.666992)" d="M232.133 272.154C246.642 289.617 271.076 308.933 292.103 290.273C296.493 286.376 301.531 280.931 302.825 275.034C304.606 273.066 306.48 273.861 308.981 274.039C329.668 278.174 340.166 286.485 348.609 305.901C341.086 312.059 335.302 316.626 326.861 321.587C325.34 302.905 317.401 293.086 300.738 284.675C310.191 293.837 340.261 317.303 313.37 328.376C284.242 340.369 257.108 338.687 227.339 330.268C236.282 305.602 236.034 295.662 215.023 277.239C220.805 275.416 226.285 273.76 232.133 272.154Z"/><path fill="#F7E2C5" transform="scale(0.666667 0.666992)" d="M213.221 277.679C232.516 295.989 235.502 304.309 223.502 328.707C219.939 327.273 216.162 325.477 212.637 323.887C202.181 318.372 197.225 315.068 187.864 307.813C192.512 290.418 197.065 285.086 213.221 277.679Z"/><path fill="#F7E2C5" transform="scale(0.666667 0.666992)" d="M302.262 274.884C296.33 286.825 290.221 292.188 277.095 296.258C265.112 299.973 235.991 280.79 234.435 271.286C236.908 271.281 242.546 277.591 245.196 279.615C265.802 295.357 285.083 298.801 298.884 272.893L301.368 273.377L302.262 274.884Z"/><path fill="#AF6F65" transform="scale(0.666667 0.666992)" d="M264.785 463.636C266.144 463.635 268.882 463.596 270.051 464.077C276.612 466.783 283.327 483.507 286.851 490.323C293.628 491.686 300.74 492.266 307.383 493.735C332.48 499.286 307.002 518.482 297.852 526.88C306.404 565.867 304.737 571.067 268.139 550.547C260.157 554.495 248.158 563.369 239.111 562.352C226.86 560.976 235.406 534.645 236.997 527.083C232.579 523.051 227.719 518.91 223.588 514.621C202.302 492.521 233.518 492.485 247.271 491.259C253.976 481.261 254.905 469.54 264.785 463.636Z"/><path fill="#F7E2C5" transform="scale(0.666667 0.666992)" d="M264.706 467.049C265.623 467.021 268.206 466.963 268.857 467.371C274.68 471.018 281.215 487.735 284.447 494.163C292.177 495.029 310.961 495.057 313.559 502.695C312.868 509.524 299.806 520.215 294.272 525.41C295.428 537.569 308.108 569.388 283.422 555.086C278.301 552.12 272.896 549.401 267.666 546.61C259.716 550.49 247.656 560.129 239.311 558.594C232.29 553.761 239.322 533.767 241.125 526.095C216.408 500.875 205.983 499.926 250.044 494.06C255.183 485.745 258.545 474.056 264.706 467.049Z"/><path fill="#AF6F65" transform="scale(0.666667 0.666992)" d="M117.176 421.037C215.698 422.787 315.193 419.846 413.81 420.901C416.736 420.932 421.959 420.453 424.585 421.364C426.528 423.786 425.947 422.688 426.388 426.267C422.414 427.187 402.814 426.791 397.48 426.762L341.4 426.612L150.197 426.61C143.064 426.587 123.42 428.188 118.014 425.692C116.511 423.621 116.986 424.281 117.176 421.037Z"/><path fill="#96524A" transform="scale(0.666667 0.666992)" d="M270.088 371.487C275.039 371.52 282.325 370.759 285.704 375.727C289.019 380.602 284.517 385.329 280.646 388.156C282.776 391.329 286.207 396.318 286.809 400.065L285.318 400.645L283.608 399.201C281.798 396.185 278.93 390.62 276.26 388.753C272.371 390.269 274.783 397.507 272.341 400.385L270.653 400.244C269.578 397.92 270.083 375.617 270.088 371.487Z"/><path fill="#FEFEFE" transform="scale(0.666667 0.666992)" d="M273.584 375.144C277.784 375.047 279.437 374.579 282.482 377.697C283.296 380.398 282.772 381.578 282.077 384.25C279.082 385.266 277.151 385.921 274.413 384.706C272.939 382.066 273.474 378.359 273.584 375.144Z"/><path fill="#96524A" transform="scale(0.666667 0.666992)" d="M403.336 399.326C401.559 398.32 397.615 401.186 395.418 400.182C387.707 396.658 387.392 386.98 394.562 382.582C398.227 380.335 400.476 381.443 404.042 382.35L405.054 381.478C406.499 383.752 406.431 396.461 405.941 399.741C404.849 407.052 400.223 408.769 393.545 407.016L391.869 405.615C395.388 402.867 401.707 408.111 403.336 399.326Z"/><path fill="#FEFEFE" transform="scale(0.666667 0.666992)" d="M403.153 390.276C403.124 393.616 402.369 397.799 398.48 398.124C393.778 396.059 390.722 387.188 396.477 384.002C399.545 383.894 399.911 383.939 402.676 385.26L403.153 390.276Z"/><path fill="#96524A" transform="scale(0.666667 0.666992)" d="M404.042 382.35L405.054 381.478C406.499 383.752 406.431 396.461 405.941 399.741C404.849 407.052 400.223 408.769 393.545 407.016L391.869 405.615C395.388 402.867 401.707 408.111 403.336 399.326C403.536 396.706 404.196 392.407 403.153 390.276L402.676 385.26L404.042 382.35Z"/><path fill="#96524A" transform="scale(0.666667 0.666992)" d="M244.783 371.715L246.176 372.511C247.337 375.702 247.44 395.707 246.156 399.383C242.266 400.103 238.958 400.998 235.07 400.232C227.739 390.368 230.957 383.356 242.787 381.191C243.589 380.086 243.978 374.849 244.613 372.36L244.783 371.715Z"/><path fill="#FEFEFE" transform="scale(0.666667 0.666992)" d="M238.21 383.855L239.192 383.905C247.089 384.384 245.409 394.816 240.383 398.686C233.143 395.868 233.438 389.046 238.21 383.855Z"/><path fill="#96524A" transform="scale(0.666667 0.666992)" d="M295.511 381.228C308.212 380.056 307.387 390.092 305.403 399.592C300.458 400.106 298.976 401.046 294.018 400.424C292.936 397.541 292.307 395.3 293.358 392.382C295.709 389.834 297.48 389.931 301.271 388.886C302.747 386.999 302.337 387.846 302.518 385.249C300.419 383.67 297.942 384.298 294.726 384.131L294.304 383.127L295.511 381.228Z"/><path fill="#FEFEFE" transform="scale(0.666667 0.666992)" d="M299.318 390.383C302.342 390.755 302.356 391.027 303.227 393.406C302.718 396.161 302.268 396.481 300.267 398.499C297.632 397.761 296.945 397.611 295.941 395.018C296.481 392.625 297.445 392.097 299.318 390.383Z"/><path fill="#96524A" transform="scale(0.666667 0.666992)" d="M192.777 381.073C198.161 381.687 201.099 382.24 202.378 388.439C200.451 392.912 195.414 389.667 190.698 392.162L190.657 393.697C193.531 398.285 194.16 397.75 199.351 397.775L200.765 396.966L201.194 397.761L199.927 399.486C189.493 405.533 182.495 390.508 192.777 381.073Z"/><path fill="#FEFEFE" transform="scale(0.666667 0.666992)" d="M192.999 383.884C196.277 383.963 197.824 384.046 199.12 387.145L198.506 388.606C195.982 388.726 194.029 388.985 191.567 388.412L191.204 387.269L192.999 383.884Z"/><path fill="#96524A" transform="scale(0.666667 0.666992)" d="M336.79 370.714L338.488 371.444C339.868 374.237 339.288 385.746 339.204 389.605C341.254 387.187 344.945 382.328 348.105 381.79C347.745 384.208 345.343 386.509 343.659 388.534C345.874 391.669 348.131 395.421 350.208 398.698L350.635 399.485C349.052 400.73 349.981 400.382 347.627 400.14C346.043 397.563 343.249 391.762 340.184 391.502C339.117 393.297 339.095 398.062 338.943 400.433L338.235 400.015C335.451 394.992 336.713 377.489 336.79 370.714Z"/><path fill="#96524A" transform="scale(0.666667 0.666992)" d="M376.282 381.53C379.012 381.133 377.891 381.002 380.542 382.184C383.104 385.465 383.615 397.872 381.158 399.987C377.231 396.072 382.501 388.57 376.351 383.07C369.709 387.281 374.703 395.786 370.887 400.281C369.403 396.828 369.588 386.554 369.678 382.537L370.788 381.817C373.154 382.434 373.95 382.215 376.282 381.53Z"/><path fill="#96524A" transform="scale(0.666667 0.666992)" d="M210.56 381.024C216.483 383.562 215.53 380.02 220.695 382.033C225.2 386.329 224.356 394.252 221.911 399.441L221.102 399.615C220.481 395.407 220.56 390.503 220.503 386.198C218.488 383.858 216.714 382.829 214.418 385.071C213.063 389.297 214.546 398.497 212.579 400.451L211.964 400.132C210.195 397.824 210.319 384.309 210.56 381.024Z"/><path fill="#96524A" transform="scale(0.666667 0.666992)" d="M137.678 385.346L142.523 385.308C145.503 385.265 145.644 385.196 148.445 386.525L148.402 387.454C145.196 389.096 141.681 388.688 138.02 388.656C138.114 391.868 138.695 398.064 136.25 400.419C133.252 397.014 133.993 389.645 134.078 385.102L137.678 385.346Z"/><path fill="#AF6F65" transform="scale(0.666667 0.666992)" d="M134.129 372.198C138.238 372.128 148.134 371.582 151.225 373.872C148.292 377.007 143.105 375.833 139.254 376.57C137.286 378.776 137.713 382.227 137.678 385.346L134.078 385.102L134.129 372.198Z"/><path fill="#96524A" transform="scale(0.666667 0.666992)" d="M318.215 382.481C320.679 381.395 321.323 380.918 323.895 381.507C329.278 384.87 328.415 394.35 327.011 399.706L325.845 400.352C321.825 395.773 330.131 384.752 318.555 383.547L318.215 382.481Z"/><path fill="#96524A" transform="scale(0.666667 0.666992)" d="M318.555 383.547C317.058 388.429 318.601 398.328 316.842 400.561C314.139 398.576 314.257 385.587 315.041 382.271L316.373 381.509L318.215 382.481L318.555 383.547Z"/><path fill="#96524A" transform="scale(0.666667 0.666992)" d="M357.748 380.908C361.527 382.962 360.573 397.306 359.053 400.756C357.759 400.076 358.21 400.323 357.233 399.061C356.762 394.617 356.437 385.141 357.748 380.908Z"/><path fill="#96524A" transform="scale(0.666667 0.666992)" d="M161.875 384.677C158.59 389.036 160.78 394.332 158.565 400.233C157.438 396.948 155.23 383.768 158.991 381.928L161.065 384.158L161.875 384.677Z"/><path fill="#96524A" transform="scale(0.666667 0.666992)" d="M177.68 380.652C180.952 382.968 179.818 397.23 178.96 401.157C175.679 398.264 176.842 384.987 177.68 380.652Z"/><path fill="#96524A" transform="scale(0.666667 0.666992)" d="M161.065 384.158C162.833 382.383 163.146 381.728 165.467 381.338C167.904 381.926 167.723 381.442 168.705 382.982C167.024 384.855 166.099 384.456 163.271 384.607L161.875 384.677L161.065 384.158Z"/><path fill="#F8AA85" transform="scale(0.666667 0.666992)" d="M737.129 523.207C766.417 538.429 794.805 554.658 823.788 570.358L935.884 630.329C958.83 642.732 982.937 656.598 1006.03 668.274C998.679 688.739 1004.75 704.854 1023.93 714.883C1016.22 740.393 1007.74 765.682 999.881 791.134C995.644 804.85 990.058 820.952 987.035 834.89C957.8 830.29 935.941 837.821 916.908 860.808L916.206 862.081C910.861 868.871 907.412 878.432 904.926 886.642L699.25 831.805C709.173 789.713 683.335 753.478 641.019 746.907C641.364 729.703 642.647 710.818 643.47 693.52L648.431 592.674C675.433 591.898 692.434 582.797 712.261 565.665C724.147 553.039 731.776 539.736 737.129 523.207Z"/><path fill="#F7E2C5" transform="scale(0.666667 0.666992)" d="M712.261 565.665C714.644 575.33 715.727 586.698 718.264 595.972C726.743 626.976 739.84 657.003 759.592 682.537C761.848 685.454 767.931 693.209 770.57 695.606C773.583 699.166 778.354 704.465 782.061 707.4C789.28 718.022 816.595 734.999 827.228 743.957C843.511 757.675 857.584 772.965 867.704 791.843C878.306 811.618 886.015 830.687 901.746 847.144C905.886 848.526 913.115 857.433 916.908 860.808L916.206 862.081C910.861 868.871 907.412 878.432 904.926 886.642L699.25 831.805C709.173 789.713 683.335 753.478 641.019 746.907C641.364 729.703 642.647 710.818 643.47 693.52L648.431 592.674C675.433 591.898 692.434 582.797 712.261 565.665Z"/><path fill="#E69977" transform="scale(0.666667 0.666992)" d="M901.746 847.144C905.886 848.526 913.115 857.433 916.908 860.808L916.206 862.081C911.11 857.056 906.477 852.508 901.746 847.144Z"/><path fill="#E69977" transform="scale(0.666667 0.666992)" d="M770.57 695.606C773.845 696.321 781.19 703.77 782.061 707.4C778.354 704.465 773.583 699.166 770.57 695.606Z"/><path fill="#FEFEFE" transform="scale(0.666667 0.666992)" d="M125.585 825.506L314.477 825.432L367.35 825.402C378.538 825.4 393.223 824.641 404.008 826.586C483.021 840.836 482.219 954.469 397.07 961.492L205.263 961.649L153.284 961.562C142.211 961.527 128.142 962.107 117.374 960.192C36.986 945.896 43.0132 832.644 125.585 825.506Z"/><path fill="#AF6F65" transform="scale(0.666667 0.666992)" d="M116.567 853.925C126.818 854.614 139.491 852.313 148.743 856.947C161.18 863.176 156.192 879.441 147.824 886.84C142.928 891.169 140.483 891.888 134.132 893.674C139.421 902.954 144.469 912.44 149.549 921.841L136.443 921.837L133.52 915.811C131.275 910.973 125.036 893.352 119.097 894.807C115.48 898.79 112.24 915.853 110.767 922.014L99.8357 921.983L116.567 853.925Z"/><path fill="#FEFEFE" transform="scale(0.666667 0.666992)" d="M125.392 862.877C131.282 862.612 136.386 861.864 141.434 865.589C149.921 871.85 143.178 879.786 136.883 884.068C131.256 886.173 125.407 885.893 119.493 885.823C121.609 878.75 123.558 870.134 125.392 862.877Z"/><path fill="#AF6F65" transform="scale(0.666667 0.666992)" d="M218.66 878.561C226.441 878.162 225.297 880.576 231.245 881.711L232.336 879.771C233.851 878.802 239.655 879.199 241.837 879.231C238.362 892.661 233.961 908.241 231.244 921.659C227.644 921.861 225.01 922.545 222.147 920.803L221.851 918.152L221.624 917.885C216.985 920.455 209.71 924.732 204.273 921.499C190.817 913.497 196.388 892.908 206.74 884.621C211.014 881.199 213.396 880.098 218.66 878.561Z"/><path fill="#FEFEFE" transform="scale(0.666667 0.666992)" d="M217.474 888.337C236.822 887.209 226.069 906.864 216.204 912.688C201.091 915.511 204.976 895.662 217.474 888.337Z"/><path fill="#AF6F65" transform="scale(0.666667 0.666992)" d="M177.458 878.609C185.67 877.899 192.663 878.781 193.928 888.27C195.899 903.056 181.474 904.693 170.446 904.905C168.334 904.945 166.965 904.997 165.663 906.543C165.922 908.754 166.808 910.072 168.309 911.761C173.688 917.813 180.8 910.334 185.723 910.97C186.388 913.785 187.176 915.269 186.008 917.768C183.16 920.901 175.87 922.567 171.7 922.573C155.029 922.594 152.812 903.463 159.598 891.981C164.292 884.039 168.746 881.114 177.458 878.609Z"/><path fill="#FEFEFE" transform="scale(0.666667 0.666992)" d="M176.406 886.727C180.431 886.432 183.301 886.323 184.679 890.57C183.571 896.34 179.288 897.498 174.339 898.58L165.448 899.285C168.564 892.312 169.7 890.354 176.406 886.727Z"/><path fill="#AF6F65" transform="scale(0.666667 0.666992)" d="M369.264 856.037L379.893 856.165C370.737 880.024 369.565 922.381 338.5 922.591C334.272 921.671 331.169 920.722 330.458 916.07C334.783 906.133 345.007 914.992 349.402 911.212C358.22 903.631 365.673 868.178 369.264 856.037Z"/><path fill="#AF6F65" transform="scale(0.666667 0.666992)" d="M303.776 868.111L303.925 868.282C304.635 870.274 302.147 876.986 301.395 879.464L310.782 879.455L308.311 888.34L299.196 888.048C298.832 889.374 292.587 911.039 294 911.869C295.857 912.96 300.391 913.074 302.889 916.189L302.35 917.923C299.749 920.607 299.266 920.797 295.902 922.174C270.167 925.701 291.991 894.578 288.045 887.829C285.958 887.856 284.86 888.084 283.062 887.174C282.779 883.563 284.403 880.192 288.166 879.268L289.892 878.854L290.775 878.661C291.804 876.435 292.273 874.562 292.952 872.225L303.776 868.111Z"/><path fill="#AF6F65" transform="scale(0.666667 0.666992)" d="M266.027 878.559C270.614 878.336 273.551 877.972 277.193 881.378C278.385 884.338 278.215 883.048 277.736 886.293C273.162 893.401 269.456 885.054 262.568 889.299C255.606 893.588 252.059 903.968 256.63 911.152C259.627 915.862 265.286 909.614 269.728 910.971C272.438 911.798 273.246 914.06 274.812 916.313C270.79 922.141 259.866 925.044 253.928 921.04C234.502 907.939 246.956 883.478 266.027 878.559Z"/><path fill="#AF6F65" transform="scale(0.666667 0.666992)" d="M391.063 878.66C395.829 878.618 397.976 877.647 400.999 881.652C401.608 884.444 401.941 886.022 399.432 887.664C395.452 886.276 391.343 884.352 387.69 887.579C385.647 895.855 414.183 915.145 382.662 922.077C379.951 921.867 373.482 921.263 372.781 918.326C373.593 916.245 374.489 913.062 376.144 911.825C380.096 914.3 384.938 916.201 388.526 911.691C390.064 903.938 364.819 884.96 391.063 878.66Z"/><path fill="#AF6F65" transform="scale(0.666667 0.666992)" d="M314.402 908.467C326.052 908.105 327.716 916.749 318.963 922.872C307.467 923.046 306.014 914.975 314.402 908.467Z"/><path fill="#AF6F65" transform="scale(0.666667 0.666992)" d="M316.123 881.783C317.236 880.97 318.721 880.881 319.923 881.556C321.124 882.231 321.821 883.546 321.706 884.919C321.591 886.293 320.685 887.473 319.387 887.938C317.741 888.529 315.91 887.82 315.091 886.274C314.271 884.729 314.711 882.815 316.123 881.783Z"/><path fill="#FEFEFE" transform="scale(0.666667 0.666992)" d="M638.758 418.386C683.242 413.928 722.885 446.463 727.201 490.973C731.517 535.482 698.863 575.031 654.351 579.205C610.039 583.361 570.716 550.879 566.42 506.569C562.124 462.26 594.473 422.825 638.758 418.386Z"/><path fill="#AF6F65" transform="scale(0.666667 0.666992)" d="M637.818 422.031C680.167 417.027 718.55 447.319 723.537 489.68C728.524 532.042 698.225 570.424 655.872 575.396C613.541 580.366 575.194 550.079 570.21 507.739C565.225 465.4 595.49 427.032 637.818 422.031Z"/><path fill="#FEFEFE" transform="scale(0.666667 0.666992)" d="M644.94 433.6C680.747 432.542 710.642 460.702 711.733 496.517C712.824 532.333 684.7 562.26 648.894 563.386C613.041 564.512 583.072 536.335 581.979 500.473C580.887 464.61 609.085 434.66 644.94 433.6Z"/><path fill="#AF6F65" transform="scale(0.666667 0.666992)" d="M641.349 457.743C665.416 454.869 674.873 479.401 653.624 493.304C680.934 503.001 690.343 536.874 649.24 539.798C632.289 540.7 607.502 533.742 618.222 511.215C623.251 500.649 629.42 497.287 639.913 493.637C624.154 482.686 622.103 465.903 641.349 457.743Z"/><path fill="#FEFEFE" transform="scale(0.666667 0.666992)" d="M970.312 843.074C1002.87 841.755 1030.31 867.151 1031.51 899.724C1032.71 932.298 1007.23 959.649 974.656 960.735C942.25 961.816 915.074 936.479 913.878 904.069C912.681 871.66 937.915 844.387 970.312 843.074Z"/><path fill="#AF6F65" transform="scale(0.666667 0.666992)" d="M962.756 847.623C992.817 842.078 1021.65 862.047 1027.05 892.144C1032.44 922.24 1012.33 950.983 982.212 956.224C952.31 961.428 923.823 941.488 918.47 911.605C913.116 881.722 932.907 853.128 962.756 847.623Z"/><path fill="#FEFEFE" transform="scale(0.666667 0.666992)" d="M961.068 900.257C960.284 900.393 984.999 901.108 984.635 900.969C1004.4 908.523 1003.57 924.525 986.013 932.755C957.146 941.987 930.072 916.911 961.068 900.257Z"/><path fill="#FEFEFE" transform="scale(0.666667 0.666992)" d="M969.133 868.814C989.267 866.922 997.434 891.125 976.801 898.048C955.913 898.473 948.745 877.945 969.133 868.814Z"/><path fill="#FEFEFE" transform="scale(0.666667 0.666992)" d="M624.313 756.832C655.942 752.221 685.279 774.245 689.686 805.911C694.093 837.578 671.885 866.779 640.199 870.983C608.8 875.149 579.928 853.181 575.561 821.802C571.194 790.423 592.97 761.403 624.313 756.832Z"/><path fill="#AF6F65" transform="scale(0.666667 0.666992)" d="M625.494 760.391C654.928 756.543 681.948 777.179 685.992 806.594C690.036 836.008 669.587 863.173 640.207 867.415C610.548 871.697 583.074 851.005 578.992 821.311C574.91 791.616 595.78 764.275 625.494 760.391Z"/><path fill="#FEFEFE" transform="scale(0.666667 0.666992)" d="M618.816 810.181C627.942 810.237 637.892 810.163 646.942 810.674C659.481 821.204 663.093 833.03 645.161 840.535C638.252 842.212 633.22 842.646 626.192 841.751C614.946 840.318 600.3 832.034 609.56 819.03C612.528 814.863 614.502 812.949 618.816 810.181Z"/><path fill="#FEFEFE" transform="scale(0.666667 0.666992)" d="M628.804 778.503C633.957 777.082 639.476 778.542 643.252 782.327C647.028 786.111 648.477 791.634 647.046 796.786C645.615 801.937 641.525 805.92 636.338 807.214C628.456 809.179 620.459 804.439 618.396 796.58C616.334 788.721 620.973 780.664 628.804 778.503Z"/><path fill="#FEFEFE" transform="scale(0.666667 0.666992)" d="M746.178 64.4256C777.754 59.775 807.092 81.6918 811.596 113.297C816.101 144.902 794.055 174.146 762.437 178.507C731.024 182.839 702.017 160.961 697.542 129.56C693.067 98.1597 714.806 69.0461 746.178 64.4256Z"/><path fill="#AF6F65" transform="scale(0.666667 0.666992)" d="M752.778 84.915C772.811 84.1003 781.06 106.06 761.099 118.32C795.478 120.153 784.711 155.093 755.924 157.959C724.294 157.073 711.269 118.912 748.593 118.507C740.245 112.955 738.872 111.334 736.139 101.722C738.966 90.7152 741.762 88.0311 752.778 84.915Z"/><path fill="#FEFEFE" transform="scale(0.666667 0.666992)" d="M1032.14 658.966C1045.37 655.877 1058.58 664.161 1061.56 677.418C1064.55 690.674 1056.17 703.825 1042.89 706.71C1029.76 709.563 1016.78 701.287 1013.83 688.175C1010.88 675.062 1019.05 662.021 1032.14 658.966Z"/><path fill="#433F45" transform="scale(0.666667 0.666992)" d="M980.128 195.686C962.746 188.652 958.156 175.099 965.745 157.496C971.624 143.859 991.962 127.747 1005.49 122.596C1015.87 118.946 1030.09 116.049 1041.16 118.3C1045.51 119.184 1055.76 123.086 1058.92 122.703C1061.91 122.34 1068.52 113.399 1071.44 110.805C1081.02 102.299 1097.04 100.612 1108.42 106.204C1147.79 125.537 1140.74 194.937 1199.57 177.02C1190.85 186.187 1176.54 195.232 1163.55 194.714C1121.74 193.046 1106.89 147.307 1069.97 132.348C1079.03 148.797 1082.66 158.235 1078.02 177.8C1075.52 188.324 1070.78 190.793 1068.48 196.219L1067.08 197.819C1072.7 201.771 1077.82 207.61 1082.77 212.516C1077.29 216.923 1073.4 220.436 1068.65 225.68C1067 227.509 1063.08 232.372 1061.55 233.802L1060.99 234.846C1057.05 232.123 1053.15 229.433 1049.14 226.809C1040 233.136 1036.55 235.272 1025.37 237.479C996.038 241.459 996.153 222.04 983.153 218.827C981.676 218.462 980.582 217.966 979.282 217.194C977.865 215.284 977.926 215.155 977.959 212.671C978.914 209.815 981.942 207.817 984.341 205.84C983.219 202.703 981.455 198.825 980.128 195.686Z"/><path fill="#FEFEFE" transform="scale(0.666667 0.666992)" d="M984.522 159.626C997.807 170.61 1008 177.623 1025.83 179.018C1035.51 159.045 1053.29 183.598 1041.69 192.446C1039.63 194.017 1038.09 194.397 1036.12 196.498C1037.28 198.942 1041.19 200.461 1043.59 199.79C1054.4 196.767 1055.52 192.719 1067.08 197.819C1072.7 201.771 1077.82 207.61 1082.77 212.516C1077.29 216.923 1073.4 220.436 1068.65 225.68C1067 227.509 1063.08 232.372 1061.55 233.802L1060.99 234.846C1057.05 232.123 1053.15 229.433 1049.14 226.809C1040 233.136 1036.55 235.272 1025.37 237.479C996.038 241.459 996.153 222.04 983.153 218.827C981.676 218.462 980.582 217.966 979.282 217.194C977.865 215.284 977.926 215.155 977.959 212.671C978.914 209.815 981.942 207.817 984.341 205.84C983.219 202.703 981.455 198.825 980.128 195.686L981.338 194.646C975.599 181.161 978.918 172.476 984.522 159.626Z"/><path fill="#342A27" transform="scale(0.666667 0.666992)" d="M1044.18 219.251C1049.45 225.027 1055.41 228.899 1061.55 233.802L1060.99 234.846C1057.05 232.123 1053.15 229.433 1049.14 226.809C1040 233.136 1036.55 235.272 1025.37 237.479L1024.91 236.103C1035.07 232.146 1037.78 227.827 1044.18 219.251Z"/><path fill="#342A27" transform="scale(0.666667 0.666992)" d="M981.338 194.646C982.975 198.324 984.918 202.43 986.3 206.168C983.985 208.247 980.718 210.727 979.605 213.461C980.721 217.668 982.167 217.124 986.285 217.808C999.473 229.964 1003.1 237.065 1022.8 236.21L1024.91 236.103L1025.37 237.479C996.038 241.459 996.153 222.04 983.153 218.827C981.676 218.462 980.582 217.966 979.282 217.194C977.865 215.284 977.926 215.155 977.959 212.671C978.914 209.815 981.942 207.817 984.341 205.84C983.219 202.703 981.455 198.825 980.128 195.686L981.338 194.646Z"/><path fill="#583E38" transform="scale(0.666667 0.666992)" d="M986.979 173.817C990.985 173.706 992.502 173.627 995.435 176.526L995.372 177.626C992.948 178.425 991.946 177.527 989.047 176.624C987.247 178.389 986.157 179.876 983.774 180.461L982.958 179.646C983.714 176.766 984.916 175.884 986.979 173.817Z"/><path fill="#342A27" transform="scale(0.666667 0.666992)" d="M1011.41 211.375L1012.04 212.047C1012.67 214.255 1013.72 219.14 1012.7 221.227C1009.61 220.889 1008.83 220.82 1005.91 221.993C1004.44 221.951 1004.98 222.263 1004.1 221.361C1007.76 217.444 1009.19 216.171 1011.41 211.375Z"/><path fill="#342A27" transform="scale(0.666667 0.666992)" d="M991.776 190.84C997.325 192.51 998.039 195.52 997.044 200.757C992.035 199.368 991.225 195.521 991.776 190.84Z"/><path fill="#342A27" transform="scale(0.666667 0.666992)" d="M1032.6 177.924C1037.22 178.752 1039.54 180.762 1038.45 185.565C1036.22 187.939 1037.3 187.192 1033.47 187.991C1035.78 186.142 1036.73 185.176 1036.52 182.202C1034.61 180.375 1033.87 180.127 1031.33 179.437L1032.6 177.924Z"/><path fill="#FEFEFE" transform="scale(0.666667 0.666992)" d="M1062.12 122.547C1065.85 123.509 1069.2 128.062 1070.17 131.668L1069.45 132.869C1066.6 129.709 1063.34 128.04 1061.08 124.464L1062.12 122.547Z"/></svg>