<?xml version="1.0" encoding="utf-8" ?><svg xmlns="http://www.w3.org/2000/svg" xmlns:xlink="http://www.w3.org/1999/xlink" width="1024" height="683" viewBox="0 0 1024 683"><path fill="#152A5F" transform="scale(0.666667 0.666992)" d="M0 0L1536 0L1536 361.992L1536 513.141L1536 1024L0 1024L0 880.264L0 800.766L0 0Z"/><path fill="#343F70" transform="scale(0.666667 0.666992)" d="M0 0L1536 0L1536 361.992C1513.87 348.105 1498.37 338.843 1474.74 327.315C1347.49 265.24 1198.38 264.885 1064.3 304.045C1041.45 310.719 1017.44 318.685 995.212 327.21C979.349 333.292 963.037 341.731 947.056 347.34C944.381 347.905 943.671 347.542 942.248 349.312C938.547 351.3 929.116 355.43 925.098 356.513L920.876 358.857L798.937 416.216C720.483 453.498 637.619 493.881 560.403 533.279L490.365 568.975C482.937 572.718 458.255 584.676 452.289 588.8C442.201 588.96 391.572 589.651 384.834 587.746C379.884 587.326 373.986 586.309 369.495 588.19C368.531 589.714 368.702 590.156 368.794 591.944C365.914 589.812 363.531 589.708 359.976 589.667C317.439 589.187 274.905 590.316 232.366 590.049L159.165 589.678C149.505 589.704 139.402 589.69 129.707 589.917C127.97 589.957 127.27 591.078 126.382 592.181C125.218 600.742 125.867 624.434 125.871 634.416L125.804 706.41C125.797 717.421 126.251 731.949 125.814 742.64L125.259 880.604C84.0538 879.622 41.2936 880.045 0 880.264L0 800.766L0 0Z"/><path fill="#18A4AC" transform="scale(0.666667 0.666992)" d="M0 800.766C23.6609 788.487 52.759 776.9 77.067 765.205C89.6086 759.17 113.749 746.785 125.814 742.64L125.259 880.604C84.0538 879.622 41.2936 880.045 0 880.264L0 800.766Z"/><path fill="#FEFEFD" transform="scale(0.666667 0.666992)" d="M199.382 143.227C220.283 142.597 243.899 143.132 265.012 143.158L388.373 143.452C389.68 189.875 388.498 241.934 388.502 288.712L388.513 347.269C388.513 356.675 388.943 370.621 388.147 379.652C344.602 380.507 300.32 378.848 256.696 379.467C238.041 379.732 217.961 379.947 199.394 379.124C198.283 320.973 200.264 262.183 199.223 203.963C198.864 183.943 198.722 163.22 199.382 143.227Z"/><path fill="#343F70" transform="scale(0.666667 0.666992)" d="M202.659 201.392L385.165 201.582L385.138 375.737C370.406 376.781 341.81 375.672 326.025 375.659L202.625 375.81C202.972 317.964 201.718 259.1 202.659 201.392Z"/><path fill="#FEFEFD" transform="scale(0.666667 0.666992)" d="M330.687 269.687C340.584 269.468 353.329 269.124 363.008 269.744C363.088 276.935 363.759 302.007 362.708 307.667C360.315 309.309 360.309 308.834 357.188 309.045L323.972 308.995C323.916 302.53 323.302 276.238 324.32 271.388C326.328 269.568 327.897 269.836 330.687 269.687Z"/><path fill="#FEFEFD" transform="scale(0.666667 0.666992)" d="M324.428 218.281C337.198 218.096 349.978 218.182 362.749 218.222C363.093 225.573 363.5 250.511 362.672 256.887C355.899 257.906 331.747 257.23 324.003 257.119C323.898 248.15 323.257 225.927 324.428 218.281Z"/><path fill="#FEFEFD" transform="scale(0.666667 0.666992)" d="M324.21 321.854C334.372 321.088 352.579 321.326 362.772 321.919C363.343 328.391 363.505 355.323 362.197 360.416C354.963 361.194 332.043 360.544 324.033 360.322C323.593 349.423 323.597 332.621 324.21 321.854Z"/><path fill="#FEFEFD" transform="scale(0.666667 0.666992)" d="M279.587 269.522C289.5 269.376 301.362 268.548 310.97 270.194C314.512 270.801 313.596 290.29 313.483 293.488C313.325 297.958 314.737 307.701 309.937 309.094L274.955 309.075C274.464 300.403 274.108 280.017 274.933 271.752C276.496 269.557 276.359 270.169 279.587 269.522Z"/><path fill="#FEFEFD" transform="scale(0.666667 0.666992)" d="M275.354 218.335C287.499 218.021 300.485 218.203 312.693 218.168C313.178 226.273 313.409 249.957 312.566 256.965C301.595 257.524 285.981 257.472 275.021 256.989C274.524 246.479 274.906 228.97 275.354 218.335Z"/><path fill="#FEFEFD" transform="scale(0.666667 0.666992)" d="M275.49 321.854C319.219 321.39 314.138 314.671 313.147 359.922C303.178 360.711 285.504 360.255 275.305 360.044C274.769 353.853 274.395 326.731 275.49 321.854Z"/><path fill="#FEFEFD" transform="scale(0.666667 0.666992)" d="M242.996 269.691C250.46 269.606 257.257 269.542 264.705 269.912C264.758 276.94 265.91 303.984 262.997 308.474C259.799 309.47 252.993 309.092 249.375 309.056L227.583 308.989C227.321 303.002 226.091 273.711 229.294 270.438C232.948 269.349 238.999 269.675 242.996 269.691Z"/><path fill="#FEFEFD" transform="scale(0.666667 0.666992)" d="M228.424 218.349C234.668 218.279 259.378 217.158 263.713 219.598C265.321 220.503 264.872 253.823 263.887 257.204C257.18 257.302 231.889 258.645 227.924 255.458C226.832 251.436 227.293 222.92 228.424 218.349Z"/><path fill="#FEFEFD" transform="scale(0.666667 0.666992)" d="M229.828 321.443C236.072 321.332 258.666 320.159 263.126 322.386C266.252 328.801 264.516 348.258 264.659 355.996C264.704 358.402 263.848 358.885 262.403 360.076L227.694 360.087C226.937 350.689 227.373 333.919 227.919 324.099C228.016 322.349 228.667 322.179 229.828 321.443Z"/><path fill="#343F70" transform="scale(0.666667 0.666992)" d="M202.614 146.441L385.034 146.394L385.199 198.128L202.604 198.073L202.614 146.441Z"/><path fill="#FEFEFD" transform="scale(0.666667 0.666992)" d="M342.105 157.998C347.759 157.136 353.048 161 353.948 166.65C354.847 172.3 351.018 177.616 345.376 178.552C339.681 179.498 334.306 175.625 333.398 169.922C332.491 164.22 336.398 158.869 342.105 157.998Z"/><path fill="#343F70" transform="scale(0.666667 0.666992)" d="M340.449 161.728C342.857 160.583 345.699 160.849 347.853 162.421C350.007 163.992 351.127 166.618 350.772 169.261C350.418 171.904 348.644 174.141 346.152 175.088C342.506 176.475 338.417 174.735 336.886 171.148C335.354 167.56 336.927 163.403 340.449 161.728Z"/><path fill="#FEFEFD" transform="scale(0.666667 0.666992)" d="M222.289 170.021C226.929 168.065 232.282 170.17 234.348 174.763C236.414 179.356 234.439 184.759 229.898 186.935C226.862 188.39 223.276 188.085 220.53 186.138C217.783 184.192 216.307 180.909 216.672 177.562C217.037 174.215 219.187 171.329 222.289 170.021Z"/><path fill="#343F70" transform="scale(0.666667 0.666992)" d="M224.206 172.87C226.276 172.216 228.537 172.748 230.099 174.256C231.661 175.764 232.272 178.006 231.692 180.098C231.112 182.191 229.433 183.797 227.318 184.285C224.221 185 221.113 183.141 220.277 180.074C219.44 177.006 221.175 173.826 224.206 172.87Z"/><path fill="#FEFEFD" transform="scale(0.666667 0.666992)" d="M311.39 169.863C316.124 168.059 321.428 170.392 323.3 175.099C325.172 179.807 322.918 185.146 318.239 187.087C315.151 188.368 311.613 187.886 308.98 185.826C306.347 183.766 305.027 180.447 305.527 177.141C306.026 173.835 308.267 171.054 311.39 169.863Z"/><path fill="#343F70" transform="scale(0.666667 0.666992)" d="M312.474 172.871C315.594 171.645 319.12 173.158 320.382 176.265C321.644 179.371 320.172 182.915 317.081 184.213C315.049 185.066 312.716 184.761 310.972 183.414C309.228 182.068 308.342 179.887 308.653 177.705C308.964 175.523 310.423 173.677 312.474 172.871Z"/><path fill="#FEFEFD" transform="scale(0.666667 0.666992)" d="M283.765 169.291C288.657 168.663 293.173 172.008 293.999 176.872C294.824 181.736 291.665 186.385 286.84 187.407C283.54 188.106 280.122 186.941 277.935 184.372C275.749 181.802 275.144 178.242 276.361 175.095C277.577 171.948 280.419 169.72 283.765 169.291Z"/><path fill="#343F70" transform="scale(0.666667 0.666992)" d="M282.455 172.982C284.48 172.061 286.85 172.352 288.593 173.736C290.335 175.119 291.156 177.362 290.719 179.544C290.282 181.726 288.661 183.479 286.52 184.085C283.537 184.928 280.408 183.33 279.341 180.419C278.275 177.507 279.632 174.265 282.455 172.982Z"/><path fill="#FEFEFD" transform="scale(0.666667 0.666992)" d="M253.256 170.005C256.465 169.061 259.932 169.956 262.284 172.334C264.636 174.712 265.492 178.19 264.513 181.389C263.535 184.588 260.879 186.991 257.599 187.645C252.83 188.596 248.157 185.625 246.994 180.902C245.832 176.179 248.591 171.378 253.256 170.005Z"/><path fill="#343F70" transform="scale(0.666667 0.666992)" d="M254.157 173.001C257.222 172.11 260.434 173.85 261.361 176.906C262.289 179.961 260.586 183.194 257.542 184.157C255.542 184.79 253.355 184.298 251.818 182.87C250.281 181.441 249.63 179.296 250.114 177.254C250.598 175.212 252.142 173.588 254.157 173.001Z"/><path fill="#FEFEFD" transform="scale(0.666667 0.666992)" d="M855.445 178.799C857.38 178.425 857.862 178.488 859.856 178.567C867.557 185.177 858.897 200.072 859.126 202.328C861.413 224.774 864.437 247.511 866.764 269.947C893.538 258.926 964.288 228.859 993.678 214.205C993.684 214.202 994.962 205.869 996.176 203.947C997.938 201.157 999.397 200.178 1002.87 199.244C1006.1 198.378 1010.15 199.227 1012.8 201.104C1015.33 202.903 1017.58 206.13 1017.91 209.275C1018.22 212.299 1017.15 215.186 1015.19 217.461C1012.85 220.167 1009.38 221.958 1005.8 222.162C1001.43 222.412 999.282 220.921 996.184 218.301L995.536 217.748C990.228 220.63 984.283 223.244 978.746 225.761C939.033 243.811 898.843 260.337 858.778 277.591C728.901 333.523 595.675 387.446 456.395 414.732C371.883 431.288 284.816 436.312 198.921 434.956C165.887 434.434 133.075 432.382 100.187 429.425C94.4401 428.909 81.2537 428.453 76.2199 426.562L76.049 425.323C77.5179 424.059 78.462 423.624 80.5757 423.836C120.325 427.824 160.431 430.192 200.317 431.34C311.356 431.636 419.611 424.421 527.145 394.47C539.55 391.014 551.959 387.583 564.355 384.092L553.855 323.671C553.115 319.392 550.42 302.005 549.254 298.736C547.84 298.704 547.293 298.865 546.144 298.089C544.562 293.689 543.811 285.084 543.202 280.156C567.205 277.09 590.76 274.162 614.697 270.587C615.444 276.586 616.333 282.324 616.202 288.375C615.636 289.297 614.082 291.955 614.172 293.012C616.284 317.635 618.83 341.954 619.877 366.691L643.696 358.608C641.507 348.12 634.335 287.813 630.862 274.129C630.826 273.985 629.655 274.595 627.799 273.138C626.505 269.439 626.046 260.652 625.676 256.389C649.968 253.738 674.622 250.481 698.897 247.456C699.646 252.237 700.807 259.416 700.524 264.068C699.785 264.878 699.116 265.412 698.188 265.995C697.984 285.462 700.656 316.761 701.812 337.034C709.786 334.756 718.987 330.896 726.831 327.825C725.916 323.428 725.481 318.216 724.893 313.693C720.934 283.221 717.144 252.723 713.377 222.227C712.973 218.956 711.22 221.527 708.541 219.659C707.218 215.383 706.809 206.766 706.42 201.998C731.26 199.457 756.403 195.057 781.324 192.517C781.536 198.343 783.403 204.748 783.128 210.159C783.092 210.855 780.737 211.313 779.715 211.634C778.98 213.064 789.835 293.93 790.726 301.71C795.65 299.821 800.871 297.572 805.782 295.56C801.232 266.36 798.557 237.695 794.675 208.562C791.679 206.316 792.731 209.339 788.798 207.53C787.395 204.018 786.79 193.811 786.402 189.516C808.104 185.418 833.186 182.274 855.445 178.799Z"/><path fill="#343F70" transform="scale(0.666667 0.666992)" d="M771.434 212.615C773.93 212.302 773.359 212.025 775.414 212.865C776.906 217.51 778.557 233.536 779.365 239.127C782.408 260.203 784.35 281.969 787.912 302.951C769.241 309.6 749.23 319.226 729.906 326.341C729.114 321.734 728.58 316.18 728.004 311.473C727.304 308.039 726.911 303.614 726.489 300.063C723.29 273.152 720.121 246.332 716.1 219.526C721.557 218.85 727.151 217.94 732.602 217.126C732.883 226.696 733.143 236.902 745.731 236.772C764.109 236.582 763.774 228.526 763.287 213.542L771.434 212.615Z"/><path fill="#343F70" transform="scale(0.666667 0.666992)" d="M850.302 199.074C853.111 198.735 852.845 198.294 854.814 199.406C856.319 205.623 857.366 216.701 858.18 223.308L863.746 271.206C846.195 279.078 826.714 287.646 808.677 294.256C808.458 290.352 807.748 285.446 807.287 281.487C804.017 257.632 800.341 230.55 798.338 206.562C803.035 205.999 807.751 205.228 812.43 204.507C814.391 220.701 816.497 227.663 838.592 220.785C844.677 218.89 842.209 206.837 843.526 200.941C845.702 199.157 847.115 199.519 850.302 199.074Z"/><path fill="#343F70" transform="scale(0.666667 0.666992)" d="M680.165 267.523L694.536 266.072C696.111 288.989 697.686 315.779 698.444 338.824L662.733 351.931L646.108 351.775C641.872 325.621 638.882 299.347 634.625 273.14C640.113 272.358 645.228 271.585 650.771 271.199C650.906 277.248 650.578 282.142 655.23 286.725C661.369 292.773 671.886 290.718 677.05 284.476C681.558 279.026 680.685 274.058 680.165 267.523Z"/><path fill="#343F70" transform="scale(0.666667 0.666992)" d="M606.634 290.637C607.938 290.352 608.761 290.488 610.074 290.579C611.768 293.047 616.034 358.86 616.669 367.727C596.123 374.407 588.421 378.69 566.717 378.618C565.897 372.458 564.536 365.445 563.477 359.251C560.364 341.634 554.718 314.75 553.058 297.892C557.472 297.107 562.438 296.532 566.918 295.912C567.238 302.011 566.963 308.872 572.108 313.517C578.066 318.897 591.513 315.636 596.262 310.102C598.952 306.966 596.722 296.095 595.963 292.014C599.277 291.434 603.242 291.049 606.634 290.637Z"/><path fill="#343F70" transform="scale(0.666667 0.666992)" d="M854.281 182.582C856.051 182.203 856.005 182.119 857.819 182.69C859.193 184.879 859.517 190.886 859.874 193.795C838.924 196.993 816.606 199.807 795.892 203.593C794.156 203.818 793.581 204.068 792.055 203.217C790.258 200.434 790.351 195.615 790.124 192.142C810.204 188.506 833.833 185.573 854.281 182.582Z"/><path fill="#343F70" transform="scale(0.666667 0.666992)" d="M773.701 196.836C774.787 196.571 775.868 196.654 777.011 196.644C779.348 198.712 779.468 204.594 779.863 207.895C759.902 210.7 738.496 212.953 718.311 215.559C716.059 216.058 714.521 216.656 712.342 216.041C709.955 213.223 710.287 209.197 709.893 205.053L773.701 196.836Z"/><path fill="#343F70" transform="scale(0.666667 0.666992)" d="M606.108 275.596C608.009 275.235 608.476 275.012 610.366 275.568C612.673 277.835 612.585 282.865 612.91 286.266C595.117 287.61 571.887 291.489 553.875 294.006C551.799 294.347 551.39 294.535 549.391 294.089C547.164 291.643 547.328 286.636 546.935 282.959C565.996 281.195 587.003 278.082 606.108 275.596Z"/><path fill="#343F70" transform="scale(0.666667 0.666992)" d="M693.735 251.621L695.549 251.564C697.155 253.352 697.084 259.002 697.353 261.948C677.519 264.918 652.954 267.08 632.444 269.617C631.916 269.675 631.438 269.457 630.859 269.298C629.652 267.114 629.368 262.265 629.055 259.57C649.46 256.492 672.979 254.263 693.735 251.621Z"/><path fill="#343F70" transform="scale(0.666667 0.666992)" d="M589.912 292.873C591.446 292.539 590.864 292.629 592.534 293.02C593.616 295.133 594.94 299.128 594.836 301.52C594.357 312.563 582.536 311.798 575.344 311.91C569.632 308.221 570.411 301.599 570.19 295.497L589.912 292.873Z"/><path fill="#343F70" transform="scale(0.666667 0.666992)" d="M758.947 214.155L759.642 214.638C764.579 229.579 752.545 236.173 739.759 232.24C735.643 227.118 736.112 223.517 735.741 217.042L758.947 214.155Z"/><path fill="#343F70" transform="scale(0.666667 0.666992)" d="M835.181 201.325C836.94 201.01 837.62 200.692 839.211 201.483C842.258 206.249 842.282 211.254 838.158 215.469C833.593 220.136 827.955 219.828 821.911 219.991C816.199 217.569 816.141 209.541 815.474 204.04C821.657 202.978 828.89 202.174 835.181 201.325Z"/><path fill="#343F70" transform="scale(0.666667 0.666992)" d="M676.499 268.236L677.016 268.728C679.444 282.83 669.804 289.729 657.257 284.878C654.039 280.036 654.224 276.378 653.852 270.635C661.436 269.753 668.898 268.962 676.499 268.236Z"/><path fill="#FEFEFD" transform="scale(0.666667 0.666992)" d="M570.18 146.474C579.315 146.254 581.087 144.942 584.723 153.35C585.38 154.87 591.459 156.934 593.376 157.643C595.534 156.163 597.757 154.816 599.98 153.437C602.069 155.493 603.804 158.03 605.565 160.399L601.898 166.652C607.33 181.013 606.095 171.868 611.604 175.642C613.314 183.727 612.96 184.077 606.414 187.357C599.109 191.017 608.824 203.419 600.117 206.664C596.839 206.497 596.187 205.811 593.624 203.938C586.112 206.765 584.561 205.882 583.45 213.945C571.501 215.854 573.385 214.398 567.309 206.797C566.959 206.36 561.718 204.713 560.647 204.38L554.239 208.679L549.019 202.89C549.809 200.881 551.199 198.328 552.2 196.35C549.493 188.852 550.014 188.236 542.125 186.345C540.749 169.311 548.237 177.403 551.073 170.059C550.856 165.935 550.133 164.893 548.198 161.195C550.275 158.761 552.446 155.678 555.238 154.471C558.43 154.904 557.761 155.045 560.603 157.327C568.478 154.29 570.111 154.959 570.18 146.474Z"/><path fill="#343F70" transform="scale(0.666667 0.666992)" d="M573.515 149.102C576.633 149.093 577.782 148.775 579.919 150.552C580.112 158.503 586.781 157.022 594.076 161.42C596.747 159.044 597.287 157.974 600.691 158.448L601.477 159.962C601.413 162.792 599.901 164.074 598.081 166.218C599.937 169.771 600.731 172.964 603.236 176.174C606.109 177.116 606.496 177.243 608.582 179.408C609.015 182.332 609.372 181.626 608.178 183.668C601.792 184.814 600.797 190.431 598.42 195.939C600.054 197.848 600.998 198.537 601.227 200.95C598.134 204.618 582.577 196.691 581.016 211.381C578.114 211.555 576.264 211.887 573.925 210.54C573.447 203.565 566.746 203.671 560.456 200.636C557.711 203.19 557.157 203.783 553.878 203.77L553.013 202.7C553.339 199.434 553.63 199.936 555.725 196.927C553.889 193.195 552.47 189.858 551.005 185.965C550.388 184.326 547.846 184.253 546.018 183.898C544.39 181.887 544.897 182.512 544.533 179.538C546.441 176.504 548.038 178.995 549.981 177.528C550.837 176.882 555.62 167.318 555.034 166.31C553.668 163.963 552.203 164.419 552.415 160.982C553.014 160.283 553.713 159.468 554.511 158.536C559.735 159.351 564.505 160.383 569.172 156.953C572.834 154.26 572.715 153.893 573.515 149.102Z"/><path fill="#FEFEFD" transform="scale(0.666667 0.666992)" d="M573.218 169.17C579.414 167.227 586.01 170.687 587.933 176.891C589.856 183.095 586.375 189.681 580.166 191.584C573.986 193.479 567.438 190.017 565.524 183.841C563.61 177.666 567.05 171.105 573.218 169.17Z"/><path fill="#343F70" transform="scale(0.666667 0.666992)" d="M575.486 172.072C580.052 171.405 584.329 174.47 585.167 179.009C586.006 183.549 583.106 187.939 578.602 188.948C575.534 189.636 572.335 188.59 570.264 186.223C568.194 183.857 567.583 180.547 568.671 177.596C569.76 174.645 572.374 172.526 575.486 172.072Z"/><path fill="#FEFEFD" transform="scale(0.666667 0.666992)" d="M178.75 479.424C174.017 481.901 169.226 490.139 164.189 492.299L162.874 491.439C160.504 485.701 172.104 483.969 173.326 476.036C168.746 471.84 157.336 477.226 154.318 472.611L155.023 470.875C160.072 468.315 170.352 473.219 173.373 468.517C172.801 462.488 167.342 462.49 163.121 456.762C162.579 454.202 162.418 455.134 163.32 452.9C169.57 452.757 173.346 463.358 178.718 464.112C183.772 459.876 178.169 446.432 183.092 444.046L184.295 444.868C186.118 448.035 184.754 458.434 185.505 464.012L185.608 464.733L186.124 465.193C187.395 466.78 189.131 468.638 189.742 470.507L189.677 474.682C188.965 475.725 187.507 477.742 186.997 478.768L185.545 479.572C184.124 479.398 181.68 479.464 180.178 479.454L178.75 479.424Z"/><path fill="#343F70" transform="scale(0.666667 0.666992)" d="M185.608 464.733L186.124 465.193C187.395 466.78 189.131 468.638 189.742 470.507L189.677 474.682C188.965 475.725 187.507 477.742 186.997 478.768L185.545 479.572C184.124 479.398 181.68 479.464 180.178 479.454L178.75 479.424C171.715 471.144 175.109 464.953 185.608 464.733Z"/><path fill="#FEFEFD" transform="scale(0.666667 0.666992)" d="M186.124 465.193L186.738 464.701C192.602 459.946 196.487 452.315 202.157 452.618C204.249 459.864 191.842 461.395 190.94 469.951L189.742 470.507C189.131 468.638 187.395 466.78 186.124 465.193Z"/><path fill="#FEFEFD" transform="scale(0.666667 0.666992)" d="M154.31 116.77C156.677 118.483 156.366 117.696 156.719 119.879C154.103 125.579 149.265 129.353 144.663 133.679C142.854 132.856 143.635 133.435 142.364 131.721C142.933 127.406 151.017 120.134 154.31 116.77Z"/><path fill="#FEFEFD" transform="scale(0.666667 0.666992)" d="M143.017 92.6035C147.231 94.3046 154.872 101.329 156.647 105.644C157.262 107.139 156.843 107.096 156.023 108.935C152.151 107.025 144.545 100.891 142.596 96.9172C141.65 94.9895 142.242 94.7296 143.017 92.6035Z"/><path fill="#FEFEFD" transform="scale(0.666667 0.666992)" d="M189.742 470.507L190.94 469.951L191.716 470.043C197.702 470.721 204.605 469.854 209.824 470.827L210.5 472.022C208.923 476.772 195.289 474.303 190.258 474.837L189.677 474.682L189.742 470.507Z"/><path fill="#FEFEFD" transform="scale(0.666667 0.666992)" d="M159.552 85.0014C160.665 85.2101 161.553 85.5009 162.634 85.8168C165.107 90.1597 163.97 101.404 162.789 106.149L160.501 105.423C157.893 101.138 158.931 90.0252 159.552 85.0014Z"/><path fill="#FEFEFD" transform="scale(0.666667 0.666992)" d="M178.356 92.7491C180.517 93.6378 179.771 92.9096 180.769 94.8961C180.058 99.2762 172.118 104.921 168.972 108.885C167.439 107.564 167.437 107.674 166.885 105.771C168.236 100.658 174.262 96.3356 178.356 92.7491Z"/><path fill="#FEFEFD" transform="scale(0.666667 0.666992)" d="M167.57 116.596C170.133 117.75 179.878 125.844 180.998 129.098C181.609 130.874 180.943 131.278 180.102 133.064C177.468 131.859 168.007 123.32 166.928 120.232C166.351 118.583 166.79 118.65 167.57 116.596Z"/><path fill="#FEFEFD" transform="scale(0.666667 0.666992)" d="M189.677 474.682L190.258 474.837C192.477 481.476 202.313 485.413 203.406 490.795L202.801 491.68C195.809 491.22 192.266 483.249 186.997 478.768C187.507 477.742 188.965 475.725 189.677 474.682Z"/><path fill="#FEFEFD" transform="scale(0.666667 0.666992)" d="M180.178 479.454C181.68 479.464 184.124 479.398 185.545 479.572C183.116 486.357 186.896 496.187 183.177 500.852L181.87 500.737C179.751 497.073 181.125 484.987 180.178 479.454Z"/><path fill="#FEFEFD" transform="scale(0.666667 0.666992)" d="M134.464 111.082C138.447 110.744 149.694 109.605 153.258 111.733C154.17 112.277 154.04 113.84 154.227 115.246C148.507 115.393 141.832 116.049 136.429 114.885C134.319 113.218 134.922 114.162 134.464 111.082Z"/><path fill="#FEFEFD" transform="scale(0.666667 0.666992)" d="M169.135 110.941L180.516 110.672C183.496 110.616 186.72 110.463 188.867 112.52L188.813 115.162C184.561 115.365 174.264 116.477 170.559 114.452C169.555 113.903 169.495 112.348 169.135 110.941Z"/><path fill="#FEFEFD" transform="scale(0.666667 0.666992)" d="M160.427 119.533L163.031 120.264C165.426 123.537 164.16 135.45 163.94 140.096C162.813 139.826 162.117 139.55 161.039 139.166C158.427 135.246 159.985 124.342 160.427 119.533Z"/><path fill="#FEFEFD" transform="scale(0.666667 0.666992)" d="M160.19 109.103C161.479 108.499 162.996 108.654 164.135 109.506C165.275 110.359 165.853 111.771 165.637 113.178C165.421 114.585 164.448 115.759 163.105 116.232C161.168 116.913 159.036 115.955 158.259 114.054C157.481 112.152 158.33 109.975 160.19 109.103Z"/><path fill="#18A4AC" transform="scale(0.666667 0.666992)" d="M947.056 347.34C963.037 341.731 979.349 333.292 995.212 327.21C1017.44 318.685 1041.45 310.719 1064.3 304.045C1198.38 264.885 1347.49 265.24 1474.74 327.315C1498.37 338.843 1513.87 348.105 1536 361.992L1536 513.141C1511.03 522.168 1485.89 532.187 1461.07 541.684C1455.7 543.739 1431.85 553.06 1427.92 555.76C1440.25 555.573 1442.97 553.957 1443.06 567.294L1442.91 647.597C1442.89 657.483 1443.92 703.007 1440.45 709.287C1437.79 710.172 1434.48 710.811 1431.67 710.837C1404.54 711.089 1377.39 710.929 1350.26 711.138C1346.31 711.169 1341.96 711.334 1338.05 711.057C1336.06 709.536 1331.15 709.777 1328.95 710.88C1327.14 711.028 1322.3 711.168 1321.03 711.802L1320.23 710.707C1317.31 710.519 1315.88 710.278 1313 711.09L1312.19 712.49C1312.07 712.328 1311.98 712.143 1311.84 712.005C1309.74 709.976 1219.52 711.012 1208.29 710.836C1208.06 706.878 1208.11 702.402 1208.06 698.399C1200.39 699.854 1197.47 700.502 1189.55 699.795L1189.38 607.239C1189.37 592.594 1189.68 577.763 1188.86 563.165C1188.67 559.684 1186.45 556.048 1182.71 555.938C1172.13 555.627 1161.5 555.773 1150.92 555.791L1091.95 555.893L1015.86 555.85C1011.7 555.849 965.49 555.075 964.428 557.598C960.765 566.305 962.041 588.531 962.047 598.925L962.082 655.771L962.079 688.897C962.068 694.366 961.545 700.51 962.339 705.902C962.564 707.427 963.117 708.606 964.271 709.646C967.846 712.871 1042.72 711.098 1052.78 711.076C1052.76 722.03 1052.86 733.282 1052.69 744.213C1046.34 744.202 1039.81 744.411 1033.57 743.41C1031.95 747.724 1029.41 753.913 1028.23 758.202C1016.41 758.123 932.901 756.327 929.126 759.47C926.178 764.343 926.315 777.991 928.856 782.524C925.323 785.151 894.935 790.834 886.737 797.688C887.781 792.222 887.24 780.748 887.238 774.894L887.189 730.982C887.169 716.762 887.809 593.918 885.222 590.555C874.866 587.861 840.063 588.884 827.481 588.882L727.172 588.845L672.958 588.823C664.8 588.823 656.243 588.739 648.053 588.926C646.14 588.969 644.929 590.509 643.766 591.934C642.707 598.805 643.01 611.074 643.032 618.457L643.202 659.246L643.22 704.683C643.214 712.049 642.901 722.891 643.395 729.965C642.686 735.621 642.987 750.177 642.966 756.395L642.926 807.763L642.772 877.022C642.735 888.954 642.292 903.597 642.867 915.237C642.787 922.252 642.182 949.808 643.072 955.76L629.294 955.939C630.16 895.448 629.373 833.567 629.336 772.997L629.535 711.316C629.607 699.48 630.062 684.261 629.335 672.661L629.318 670.909C630.184 663.397 630.734 594.366 627.695 590.508C620.144 587.882 573.4 588.848 562.846 588.842L452.289 588.8C458.255 584.676 482.937 572.718 490.365 568.975L560.403 533.279C637.619 493.881 720.483 453.498 798.937 416.216L920.876 358.857L925.098 356.513C929.116 355.43 938.547 351.3 942.248 349.312C943.671 347.542 944.381 347.905 947.056 347.34Z"/><path fill="#152A5F" transform="scale(0.666667 0.666992)" d="M1208.06 698.399L1208.03 614.578C1208 598.279 1207.83 581.954 1208.16 565.662C1208.26 560.828 1209.19 556.436 1215.06 555.98C1222.15 555.428 1229.46 555.619 1236.58 555.641L1275.11 555.706C1325.79 555.621 1377.39 556.369 1427.92 555.76C1440.25 555.573 1442.97 553.957 1443.06 567.294L1442.91 647.597C1442.89 657.483 1443.92 703.007 1440.45 709.287C1437.79 710.172 1434.48 710.811 1431.67 710.837C1404.54 711.089 1377.39 710.929 1350.26 711.138C1346.31 711.169 1341.96 711.334 1338.05 711.057C1336.06 709.536 1331.15 709.777 1328.95 710.88C1327.14 711.028 1322.3 711.168 1321.03 711.802L1320.23 710.707C1317.31 710.519 1315.88 710.278 1313 711.09L1312.19 712.49C1312.07 712.328 1311.98 712.143 1311.84 712.005C1309.74 709.976 1219.52 711.012 1208.29 710.836C1208.06 706.878 1208.11 702.402 1208.06 698.399Z"/><path fill="#152A5F" transform="scale(0.666667 0.666992)" d="M1216.89 569.688L1216.91 566.092C1218.71 564.476 1223.22 565.089 1225.89 565.106C1234.44 565.16 1242.99 565.25 1251.54 565.277L1372.73 565.114C1386.5 565.11 1419.01 566.157 1431.65 564.921C1432.59 565.419 1433.54 565.61 1433.9 566.652C1434.76 569.177 1434.85 694.066 1433.62 702.235L1281.26 702.005L1241.03 702.206C1235.24 702.243 1222.44 702.56 1217.33 701.611C1217.15 657.704 1217.56 613.556 1216.89 569.688Z"/><path fill="#F6EEEB" transform="scale(0.666667 0.666992)" d="M1216.89 569.688L1216.91 566.092C1218.71 564.476 1223.22 565.089 1225.89 565.106C1234.44 565.16 1242.99 565.25 1251.54 565.277L1372.73 565.114C1386.5 565.11 1419.01 566.157 1431.65 564.921L1430.76 567.733C1410.33 568.185 1388.5 567.787 1367.93 567.795L1245.2 567.772C1239.1 567.356 1222.76 565.885 1217.75 567.274L1216.89 569.688Z"/><path fill="#FEFEFD" transform="scale(0.666667 0.666992)" d="M1221.32 700.287C1235.09 699.352 1255.94 699.93 1270.22 699.927L1359.31 699.96L1404.84 699.958C1410.25 699.951 1426.2 699.557 1430.27 700.657C1431.43 702.126 1431.29 701.682 1433.62 702.235L1281.26 702.005L1241.03 702.206C1235.24 702.243 1222.44 702.56 1217.33 701.611C1219.67 701.096 1222.46 701.119 1224.89 701.03L1221.32 700.287Z"/><path fill="#F6EEEB" transform="scale(0.666667 0.666992)" d="M1431.65 564.921C1432.59 565.419 1433.54 565.61 1433.9 566.652C1434.76 569.177 1434.85 694.066 1433.62 702.235C1431.29 701.682 1431.43 702.126 1430.27 700.657C1431.34 698.112 1431.59 580.486 1430.76 567.733L1431.65 564.921Z"/><defs><linearGradient id="gradient_0" gradientUnits="userSpaceOnUse" x1="1224.2025" y1="633.50659" x2="1217.453" y2="633.56165"><stop offset="0" stop-color="#D7D3DA"/><stop offset="1" stop-color="#FFF2E6"/></linearGradient></defs><path fill="url(#gradient_0)" transform="scale(0.666667 0.666992)" d="M1216.89 569.688L1217.75 567.274C1222.76 565.885 1239.1 567.356 1245.2 567.772C1236.84 568.159 1228.05 567.907 1219.65 567.796C1219.64 598.968 1219.45 664.342 1220 698.963C1220.44 699.404 1220.88 699.846 1221.32 700.287L1224.89 701.03C1222.46 701.119 1219.67 701.096 1217.33 701.611C1217.15 657.704 1217.56 613.556 1216.89 569.688Z"/><path fill="#FEFEFD" transform="scale(0.666667 0.666992)" d="M1253.72 577.26C1309.21 577.29 1366.69 576.63 1421.99 577.483L1421.99 690.723L1396.9 690.668L1229.04 690.64L1228.76 577.427L1253.72 577.26Z"/><path fill="#11919E" transform="scale(0.666667 0.666992)" d="M1404.68 608.002C1405.54 610.099 1405.46 674.969 1405.51 682.836L1393.55 682.892C1391.92 681.017 1392.53 616.253 1392.53 608.06L1404.68 608.002Z"/><path fill="#11919E" transform="scale(0.666667 0.666992)" d="M1372.49 619.59L1385.31 619.577L1385.29 682.738L1372.37 682.857C1372.18 661.852 1372.41 640.613 1372.49 619.59Z"/><path fill="#131218" transform="scale(0.666667 0.666992)" d="M1257.79 595.99C1266.59 594.881 1274.62 601.103 1275.75 609.899C1276.88 618.696 1270.68 626.748 1261.89 627.901C1253.07 629.058 1244.98 622.83 1243.85 614.002C1242.71 605.175 1248.96 597.103 1257.79 595.99Z"/><path fill="#FEFEFD" transform="scale(0.666667 0.666992)" d="M1256.37 598.209C1263.81 596.35 1271.37 600.765 1273.42 608.159C1275.47 615.553 1271.25 623.231 1263.91 625.463C1258.99 626.958 1253.65 625.669 1249.96 622.096C1246.27 618.524 1244.81 613.23 1246.14 608.268C1247.47 603.305 1251.38 599.455 1256.37 598.209Z"/><path fill="#11919E" transform="scale(0.666667 0.666992)" d="M1353.17 629.324L1366.57 629.293C1365.38 644.611 1365.96 667.042 1365.99 682.638C1363.98 683.005 1355.54 682.924 1353.04 682.947L1353.17 629.324Z"/><path fill="#11919E" transform="scale(0.666667 0.666992)" d="M1333.54 635.376L1346.14 635.392C1345.86 650.989 1345.88 667.161 1346.11 682.746L1333.82 682.799L1333.54 635.376Z"/><path fill="#11919E" transform="scale(0.666667 0.666992)" d="M1314.98 648.343L1327.45 648.707C1326.93 659.963 1327.1 671.448 1327.13 682.731L1315.2 682.706C1314.95 671.302 1315.3 659.918 1314.98 648.343Z"/><path fill="#11919E" transform="scale(0.666667 0.666992)" d="M1295.78 656.291L1308.04 656.264L1308.06 682.839L1295.69 682.908L1295.78 656.291Z"/><path fill="#131218" transform="scale(0.666667 0.666992)" d="M1393.37 582.104L1394.59 582.413C1393.33 585.656 1259.41 649.009 1246.1 655.155L1245.07 655.226L1245.1 654.313C1248.3 651.872 1258.97 647.228 1263.35 645.103L1309.96 622.898C1337.64 609.906 1365.73 595.529 1393.37 582.104Z"/><path fill="#11919E" transform="scale(0.666667 0.666992)" d="M1275.74 664.555L1288.98 664.57L1288.76 682.525C1285.53 682.856 1279.47 682.733 1276.02 682.77L1275.74 664.555Z"/><path fill="#11919E" transform="scale(0.666667 0.666992)" d="M942.248 349.312C943.671 347.542 944.381 347.905 947.056 347.34C947.448 354.478 947.781 364.981 946.887 371.971L948.739 372.763C949.652 373.19 950.202 373.471 951.21 373.63C951.919 376.759 950.775 378.13 951.995 380.382L952.861 382.073C951.719 383.263 949.73 385.192 948.848 386.458L947.364 387.203L945.128 388.376L943.5 387.809L940.362 386.253C939.46 384.708 938.775 383.44 937.986 381.835L937.009 380.643L937.374 376.147L938.253 375.824C939.936 374.586 940.629 373.54 940.893 371.579C935.355 366.638 932.432 361.265 925.098 356.513C929.116 355.43 938.547 351.3 942.248 349.312Z"/><path fill="#18A4AC" transform="scale(0.666667 0.666992)" d="M925.098 356.513C929.116 355.43 938.547 351.3 942.248 349.312C942.225 353.496 941.912 367.327 942.571 370.677L940.893 371.579C935.355 366.638 932.432 361.265 925.098 356.513Z"/><path fill="#FEFEFD" transform="scale(0.666667 0.666992)" d="M942.248 349.312C943.671 347.542 944.381 347.905 947.056 347.34C947.448 354.478 947.781 364.981 946.887 371.971C944.843 369.074 945.241 355.076 945.13 350.533C944.017 356.029 945.148 366.757 943.577 371.185L942.571 370.677C941.912 367.327 942.225 353.496 942.248 349.312Z"/><path fill="#FEFEFD" transform="scale(0.666667 0.666992)" d="M948.739 372.763C952.164 369.026 959.582 359.827 964.714 359.747C966.56 363.858 954.708 373.258 951.56 375.901C957.349 376.19 970.038 376.024 974.602 376.838L975.259 377.995C973.28 382.074 956.302 380.835 951.995 380.382C950.775 378.13 951.919 376.759 951.21 373.63C950.202 373.471 949.652 373.19 948.739 372.763Z"/><path fill="#FEFEFD" transform="scale(0.666667 0.666992)" d="M920.876 358.857L925.098 356.513C932.432 361.265 935.355 366.638 940.893 371.579C940.629 373.54 939.936 374.586 938.253 375.824C932.281 369.622 927.239 364.646 920.876 358.857Z"/><path fill="#FEFEFD" transform="scale(0.666667 0.666992)" d="M952.861 382.073C957.202 385.218 966.343 394.381 967.708 399.395C963.269 399.535 954.202 389.771 948.848 386.458C949.73 385.192 951.719 383.263 952.861 382.073Z"/><path fill="#FEFEFD" transform="scale(0.666667 0.666992)" d="M937.986 381.835C938.775 383.44 939.46 384.708 940.362 386.253C937.085 389.913 928.909 399.16 924.344 399.68C922.593 398.267 923.16 399.182 922.875 396.683C925.181 393.643 934.519 385.207 937.986 381.835Z"/><path fill="#FEFEFD" transform="scale(0.666667 0.666992)" d="M943.5 387.809L945.128 388.376L947.364 387.203C947.423 392.789 947.829 405.689 946.669 410.386L943.316 410.289C942.441 406.604 941.829 391.147 943.5 387.809Z"/><path fill="#7EADB4" transform="scale(0.666667 0.666992)" d="M943.316 410.289C944.536 407.779 944.375 395.385 945.028 391.036C946.471 395.932 944.592 406.173 946.669 410.386L943.316 410.289Z"/><path fill="#FEFEFD" transform="scale(0.666667 0.666992)" d="M937.374 376.147L937.009 380.643C932.047 380.721 920.204 382.152 917.491 378.013L917.954 376.918C922.132 375.961 932.375 376.226 937.374 376.147Z"/><path fill="#FEFEFD" transform="scale(0.666667 0.666992)" d="M1536 513.141L1536 1024L0 1024L0 880.264C41.2936 880.045 84.0538 879.622 125.259 880.604C125.715 905.419 125.326 931.296 125.25 956.188C117.539 956.212 75.2635 955.679 70.666 957.05C69.6156 958.238 68.874 959.003 69.126 960.709C69.2484 961.538 69.7895 963.178 70.534 963.631C74.0062 965.745 277.562 964.692 303.09 964.71L1122.05 964.636L1371.27 964.734L1442.84 964.727C1454.36 964.769 1466.87 965.37 1478.33 964.606C1480.92 964.433 1481.35 963.482 1482.66 961.71C1482.75 959.117 1483.08 960.089 1481.57 958.117C1475.93 954.973 1454.84 956.252 1446.78 956.297C1448.19 899.423 1446.57 839.824 1447.23 782.436C1457.81 782.241 1470.25 783.953 1480.28 781.432C1486.26 779.932 1485.15 764.137 1483.21 759.929C1479.04 756.482 1456.88 757.692 1450.6 757.695L1395.59 757.866C1386.89 757.932 1372.67 758.475 1364.35 757.903L1363.65 757.852C1364.95 756.153 1365.72 754.523 1365.72 752.354C1365.7 742.583 1344.04 745.424 1337.98 745.646L1338.05 711.057C1341.96 711.334 1346.31 711.169 1350.26 711.138C1377.39 710.929 1404.54 711.089 1431.67 710.837C1434.48 710.811 1437.79 710.172 1440.45 709.287C1443.92 703.007 1442.89 657.483 1442.91 647.597L1443.06 567.294C1442.97 553.957 1440.25 555.573 1427.92 555.76C1431.85 553.06 1455.7 543.739 1461.07 541.684C1485.89 532.187 1511.03 522.168 1536 513.141Z"/><path fill="#FEFEFD" transform="scale(0.666667 0.666992)" d="M928.856 782.524C932.732 782.554 940.391 782.354 943.859 783.22C947.728 783.016 952.42 782.639 956.226 782.623L956.231 956.407L886.923 956.407C885.858 911.586 887.228 866.334 886.864 821.474C886.806 814.269 886.774 806.647 887.11 799.458L886.737 797.688C894.935 790.834 925.323 785.151 928.856 782.524Z"/><defs><linearGradient id="gradient_1" gradientUnits="userSpaceOnUse" x1="916.94666" y1="792.47949" x2="912.74243" y2="784.57086"><stop offset="0" stop-color="#037688"/><stop offset="1" stop-color="#1E9CA5"/></linearGradient></defs><path fill="url(#gradient_1)" transform="scale(0.666667 0.666992)" d="M928.856 782.524C932.732 782.554 940.391 782.354 943.859 783.22C921.239 788.639 909.14 791.707 887.11 799.458L886.737 797.688C894.935 790.834 925.323 785.151 928.856 782.524Z"/><path fill="#FEFEFD" transform="scale(0.666667 0.666992)" d="M1189.55 699.795C1197.47 700.502 1200.39 699.854 1208.06 698.399C1208.11 702.402 1208.06 706.878 1208.29 710.836C1219.52 711.012 1309.74 709.976 1311.84 712.005C1311.98 712.143 1312.07 712.328 1312.19 712.49C1311.73 717.276 1311.25 740.935 1312.21 745.238L1311.46 745.336C1302.97 746.381 1276.74 740.887 1285.05 757.94C1281.05 759.057 1248.35 757.798 1242.71 757.774L1105.55 757.397C1105.12 752.791 1104.96 748.384 1104.77 743.771L1091.95 744.052C1089.57 744.27 1084.53 744.142 1081.94 744.155C1096.33 738.169 1113.1 732.333 1127.68 726.436C1136.27 722.961 1160.12 715.728 1167.26 711.175C1172.24 710.965 1175.33 710.511 1180.2 711.828C1183.07 711.474 1186.52 711.283 1189.45 711.052C1189.64 707.471 1189.55 703.421 1189.55 699.795Z"/><path fill="#11919E" transform="scale(0.666667 0.666992)" d="M1167.26 711.175C1172.24 710.965 1175.33 710.511 1180.2 711.828C1167.86 715.849 1098.99 738.486 1091.95 744.052C1089.57 744.27 1084.53 744.142 1081.94 744.155C1096.33 738.169 1113.1 732.333 1127.68 726.436C1136.27 722.961 1160.12 715.728 1167.26 711.175Z"/><path fill="#18A4AC" transform="scale(0.666667 0.666992)" d="M368.794 591.944C368.702 590.156 368.531 589.714 369.495 588.19C373.986 586.309 379.884 587.326 384.834 587.746C382.976 591.123 382.7 593.932 382.76 597.754C383.218 626.628 381.74 656.571 382.688 685.344C382.21 718.544 381.813 757.008 382.689 790.136C381.746 804.348 382.584 830.079 382.588 844.994L382.597 956.484L369 956.488L369.148 723.325C369.16 681.328 370.154 633.645 368.794 591.944Z"/><path fill="#343F70" transform="scale(0.666667 0.666992)" d="M1328.95 710.88C1331.15 709.777 1336.06 709.536 1338.05 711.057L1337.98 745.646C1344.04 745.424 1365.7 742.583 1365.72 752.354C1365.72 754.523 1364.95 756.153 1363.65 757.852C1360.19 757.579 1358 757.777 1354.55 758.021C1349.04 759.225 1299.9 759.136 1293.37 757.984C1290.36 757.357 1288.1 757.712 1285.05 757.94C1276.74 740.887 1302.97 746.381 1311.46 745.336L1312.21 745.238C1311.25 740.935 1311.73 717.276 1312.19 712.49L1313 711.09C1315.88 710.278 1317.31 710.519 1320.23 710.707L1321.03 711.802C1322.3 711.168 1327.14 711.028 1328.95 710.88Z"/><path fill="#FEFEFD" transform="scale(0.666667 0.666992)" d="M1295.42 753.1C1304.94 755.022 1347.47 752.021 1352.76 753.681C1353.7 755.466 1353.96 756.095 1354.55 758.021C1349.04 759.225 1299.9 759.136 1293.37 757.984L1295.42 753.1Z"/><path fill="#FEFEFD" transform="scale(0.666667 0.666992)" d="M1321.03 711.802C1322.3 711.168 1327.14 711.028 1328.95 710.88C1329 718.09 1329.51 738.531 1328.66 744.532C1327.05 746.149 1323.88 745.785 1321.72 745.368C1320.05 741.658 1321.13 717.669 1321.03 711.802Z"/><path fill="#111B4E" transform="scale(0.666667 0.666992)" d="M1285.05 757.94C1276.74 740.887 1302.97 746.381 1311.46 745.336L1312.21 745.238C1314.29 746.3 1314.32 745.863 1315 747.502C1310.62 749.385 1289.84 745.161 1284.63 751.427C1284.92 753.857 1286.13 755.649 1288 757.355L1290.38 757.304C1291.77 754.5 1291.76 753.747 1292.08 750.706C1293.72 750.4 1294.62 751.933 1295.42 753.1L1293.37 757.984C1290.36 757.357 1288.1 757.712 1285.05 757.94Z"/><path fill="#18A4AC" transform="scale(0.666667 0.666992)" d="M1076.67 711.3C1106.84 711.128 1137.1 710.838 1167.26 711.175C1160.12 715.728 1136.27 722.961 1127.68 726.436C1113.1 732.333 1096.33 738.169 1081.94 744.155C1079.71 744.363 1079.57 744.338 1077.39 743.865C1076.37 740.863 1076.68 716.301 1076.67 711.3Z"/><path fill="#343F70" transform="scale(0.666667 0.666992)" d="M382.688 685.344C383.847 680.346 383.551 673.492 383.599 668.264C384.665 670.307 384.79 671.956 384.744 674.251C384.071 708.171 384.998 742.34 384.189 776.217C383.352 811.279 385.836 850.85 383.792 885.439C382.839 873.841 384.508 793.039 382.689 790.136C381.813 757.008 382.21 718.544 382.688 685.344Z"/><path fill="#343F70" transform="scale(0.666667 0.666992)" d="M643.766 591.934C646.075 596.211 645.187 617.476 645.156 623.33L644.513 677.553C644.256 695.569 646.073 711.58 643.395 729.965C642.901 722.891 643.214 712.049 643.22 704.683L643.202 659.246L643.032 618.457C643.01 611.074 642.707 598.805 643.766 591.934Z"/><path fill="#111B4E" transform="scale(0.666667 0.666992)" d="M642.867 915.237C643.724 902.496 642.453 878.643 644.247 867.477C647.271 891.812 644.837 930.901 643.314 955.533L643.072 955.76C642.182 949.808 642.787 922.252 642.867 915.237Z"/><path fill="#343F70" transform="scale(0.666667 0.666992)" d="M629.335 672.661C627.024 668.888 627.133 623.663 628.911 619.254C629.532 634.931 628.052 655.258 629.244 670.039L629.318 670.909L629.335 672.661Z"/><path fill="#FEFEFD" transform="scale(0.666667 0.666992)" d="M392.324 658.898C466.839 657.873 544.394 658.899 619.16 658.823C618.328 708.756 619.463 761.184 619.434 811.379L619.256 855.04C619.221 861.332 618.842 876.823 619.971 882.165L621.238 882.987C621.495 885.774 621.794 884.984 620.749 887.271L619.997 887.507C618.726 894.728 619.495 928.792 619.419 937.743L392.268 937.7C392.276 927.091 392.989 899.258 391.858 889.542C390.268 886.929 389.294 886.044 389.672 883.524L391.411 882.624C393.389 877.757 392.302 682.309 392.324 658.898Z"/><path fill="#FEFEFD" transform="scale(0.666667 0.666992)" d="M619.971 882.165L621.238 882.987C621.495 885.774 621.794 884.984 620.749 887.271L619.997 887.507C618.726 894.728 619.495 928.792 619.419 937.743L392.268 937.7C392.276 927.091 392.989 899.258 391.858 889.542C390.268 886.929 389.294 886.044 389.672 883.524L391.411 882.624C396.654 883.386 411.249 883.072 417.14 883.074L464.917 883.076C481.521 883.074 615.283 884.105 619.971 882.165Z"/><path fill="#111B4E" transform="scale(0.666667 0.666992)" d="M619.971 882.165L621.238 882.987C621.495 885.774 621.794 884.984 620.749 887.271L619.997 887.507C616.128 886.087 575.069 886.731 568.519 886.726L455.078 886.688L414.342 886.702C409.016 886.706 397.833 886.431 393.033 886.939C392.195 888.16 392.105 888.108 391.858 889.542C390.268 886.929 389.294 886.044 389.672 883.524L391.411 882.624C396.654 883.386 411.249 883.072 417.14 883.074L464.917 883.076C481.521 883.074 615.283 884.105 619.971 882.165Z"/><path fill="#152A5F" transform="scale(0.666667 0.666992)" d="M496.493 684.308C542.039 678.898 583.368 711.383 588.883 756.927C594.397 802.47 562.017 843.885 516.497 849.507C470.828 855.148 429.257 822.629 423.724 776.935C418.191 731.242 450.798 689.736 496.493 684.308Z"/><path fill="#FEFEFD" transform="scale(0.666667 0.666992)" d="M453.893 771.309C453.176 754.358 457.796 741.453 470.115 729.515C490.168 710.083 523.492 712.124 543.035 731.182C549.492 737.48 552.324 742.95 556.105 750.855C553.224 751.11 550.119 750.998 547.21 750.974C548.285 756.315 548.823 782.851 546.234 786.447C549.089 787.219 553.445 786.901 556.539 786.834C554.104 791.294 550.965 796.675 547.322 800.255C514.705 833.927 459.845 819.609 453.893 771.309Z"/><path fill="#18A4AC" transform="scale(0.666667 0.666992)" d="M453.893 771.309C453.176 754.358 457.796 741.453 470.115 729.515C490.168 710.083 523.492 712.124 543.035 731.182C549.492 737.48 552.324 742.95 556.105 750.855C553.224 751.11 550.119 750.998 547.21 750.974C548.285 756.315 548.823 782.851 546.234 786.447C549.089 787.219 553.445 786.901 556.539 786.834C554.104 791.294 550.965 796.675 547.322 800.255C537.753 792.267 534.499 779.817 527.066 769.021C511.431 746.313 484.226 744.142 463.8 761.955C460.576 764.766 457.407 768.796 453.893 771.309Z"/><path fill="#343F70" transform="scale(0.666667 0.666992)" d="M546.234 786.447C545.661 785.237 544.881 782.641 544.948 781.397C545.321 774.531 542.679 756.122 547.21 750.974C548.285 756.315 548.823 782.851 546.234 786.447Z"/><path fill="#FEFEFD" transform="scale(0.666667 0.666992)" d="M504.194 691.989C543.44 693.392 569.134 714.044 581.123 750.884C575.333 750.917 569.74 750.736 563.957 750.549C553.742 725.524 532.431 706.336 504.82 707.99C425.215 712.758 427.31 825.718 508.004 826.101C525.783 826.186 541.427 817.258 553.563 804.491C560.038 796.756 562.893 790.612 566.307 781.454L552.808 781.378L552.785 757.781C562.873 757.733 572.981 757.869 583.07 757.966C584.083 779.014 579.722 797.063 565.957 813.679C542.555 841.929 499.146 851.031 467.355 831.604C402.734 792.117 426.508 695.684 504.194 691.989Z"/><path fill="#FEFEFD" transform="scale(0.666667 0.666992)" d="M652.499 659.028C678.204 658.474 705.587 658.851 731.43 658.834L878.35 658.785L878.124 882.999C803.164 882.83 727.072 883.706 652.254 882.778L652.396 758.646C652.419 725.599 652.057 692.033 652.499 659.028Z"/><path fill="#152A5F" transform="scale(0.666667 0.666992)" d="M755.504 684.293C800.651 677.771 842.566 709.01 849.231 754.147C855.897 799.285 824.801 841.31 779.696 848.122C734.386 854.965 692.137 823.689 685.442 778.345C678.746 733.002 710.15 690.844 755.504 684.293Z"/><path fill="#FEFEFD" transform="scale(0.666667 0.666992)" d="M715.286 769.336C715.612 753.688 718.465 740.927 730.417 729.684C758.052 703.689 801.87 712.571 816.498 748.13C813.169 748.26 809.297 748.314 806.025 748.573C805.465 754.581 804.096 782.294 806.601 786.207C808.63 786.958 809.276 787.095 811.417 787.433C812.067 787.164 813.167 787.048 813.906 786.927L814.182 787.927C812.704 790.67 811.265 793.109 809.52 795.671C793.138 819.719 759.304 823.581 736.256 806.877C724.927 798.666 718.209 786.928 715.967 773.124C715.883 772.605 715.879 770.755 716.045 770.113C720.354 767.358 722.076 765.674 725.002 761.668C721.532 762.795 719.383 766.81 715.286 769.336Z"/><path fill="#18A4AC" transform="scale(0.666667 0.666992)" d="M715.286 769.336C715.612 753.688 718.465 740.927 730.417 729.684C758.052 703.689 801.87 712.571 816.498 748.13C813.169 748.26 809.297 748.314 806.025 748.573C805.465 754.581 804.096 782.294 806.601 786.207C808.63 786.958 809.276 787.095 811.417 787.433C809.662 789.195 806.468 791.734 804.455 793.423C800.41 787.565 797.387 781.692 792.904 775.863C776.404 754.41 747.942 737.951 725.002 761.668C721.532 762.795 719.383 766.81 715.286 769.336Z"/><path fill="#FEFEFD" transform="scale(0.666667 0.666992)" d="M757.738 691.917C789.884 688.949 820.335 703.782 835.468 733.074C838.042 738.056 839.676 743.2 841.459 748.501L825.314 748.576C808.757 707.472 761.648 692.966 726.871 722.629C702.998 743.207 701.303 783.762 723.501 806.115C749.438 832.232 785.623 830.297 811.198 805.871C818.527 797.86 821.254 791.749 824.725 781.701C821.038 781.309 816.941 781.114 813.211 780.857C812.932 772.707 813.057 763.746 813.004 755.532L842.572 755.697C844.506 774.447 841.586 791.551 830.631 807.562C806.934 842.196 755.573 852.254 721.48 825.967C668.175 784.867 689.753 701.585 757.738 691.917Z"/><path fill="#FEFEFD" transform="scale(0.666667 0.666992)" d="M135.057 659.008L360.03 659.306C359.882 733.657 360.792 808.99 359.924 883.219L134.848 883.097L134.755 774.389C134.641 735.881 134.189 697.522 135.057 659.008Z"/><path fill="#152A5F" transform="scale(0.666667 0.666992)" d="M241.003 681.708C286.347 677.978 326.184 711.593 330.147 756.928C334.111 802.263 300.711 842.283 255.408 846.482C209.772 850.711 169.404 817.004 165.412 771.336C161.42 725.668 195.326 685.465 241.003 681.708Z"/><path fill="#FEFEFD" transform="scale(0.666667 0.666992)" d="M198.535 761.524L196.116 761.695L195.375 760.812C201.619 701.993 276.412 695.573 296.625 745.304C293.316 745.299 289.908 744.901 287.126 746.513C284.421 749.783 284.055 775.407 283.821 781.371L296.403 784.237C294.836 786.928 290.98 794.521 288.44 795.472C287.567 797.963 286.174 799.353 284.336 801.134C252.81 831.673 198.295 811.268 195.305 767.137C195.107 764.219 196.721 763.166 198.535 761.524Z"/><path fill="#18A4AC" transform="scale(0.666667 0.666992)" d="M198.535 761.524L196.116 761.695L195.375 760.812C201.619 701.993 276.412 695.573 296.625 745.304C293.316 745.299 289.908 744.901 287.126 746.513C284.421 749.783 284.055 775.407 283.821 781.371L296.403 784.237C294.836 786.928 290.98 794.521 288.44 795.472C274.713 784.645 261.51 750.438 237.974 746.573C218.3 743.342 212.268 752.416 198.981 761.232L198.535 761.524Z"/><path fill="#FEFEFD" transform="scale(0.666667 0.666992)" d="M242.775 688.958C278.79 686.149 307.439 709.385 320.102 741.808C315.299 742.804 309.304 743.669 304.385 744.5C298.885 733.371 292.942 722.913 282.341 715.999C215.051 672.112 150.511 764.945 213.879 812.747C240.037 832.479 279.775 823.192 298.107 795.652C301.414 790.021 302.776 786.955 305.301 780.946C300.807 779.664 295.765 778.464 291.203 777.281L292.153 752.394C301.332 751.679 312.366 750.081 321.363 748.22L321.831 751.322C324.769 771.361 321.376 793.983 308.073 809.587C242.815 886.127 128.749 800.673 189.047 716.803C200.817 700.432 223.015 691.248 242.775 688.958Z"/><path fill="#FEFEFD" transform="scale(0.666667 0.666992)" d="M1315.22 782.816L1424.26 782.476L1424.28 956.291L1321.12 956.382L1212.47 956.243C1212.03 899.201 1211.47 840.015 1212.5 783.131C1246.64 783.398 1281.08 783.132 1315.22 782.816Z"/><path fill="#FEFEFD" transform="scale(0.666667 0.666992)" d="M979.355 782.623C1001.87 782.048 1027.52 782.81 1050.3 782.89L1189.3 783.218L1188.71 956.352L978.933 956.348L978.832 832.768C978.835 824.611 978.369 787.778 979.355 782.623Z"/><path fill="#F6EEEB" transform="scale(0.666667 0.666992)" d="M972.176 565.258L1180.49 565.391L1180.49 651.938C1180.49 667.131 1180.56 682.591 1180.39 697.803C1180.36 700.366 1180.32 700.671 1178.84 701.958L970.548 702.052L970.603 611.763C970.616 597.84 970.591 583.801 970.726 569.874C970.751 567.332 970.658 566.622 972.176 565.258Z"/><path fill="#152A5F" transform="scale(0.666667 0.666992)" d="M973.471 567.854L1178.12 567.79C1178.26 573.006 1178.22 578.349 1178.17 583.573C1177.75 622.239 1178.55 661.007 1177.91 699.659C1160.35 700.994 1127.07 699.949 1108.12 699.935L973.334 699.751L973.471 567.854Z"/><path fill="#FEFEFD" transform="scale(0.666667 0.666992)" d="M983.095 577.535L1168.49 577.51L1168.49 690.969L983.191 691.061L983.095 577.535Z"/><path fill="#131218" transform="scale(0.666667 0.666992)" d="M1015.4 647.203C1023.9 644.819 1032.73 649.771 1035.13 658.272C1037.53 666.772 1032.6 675.612 1024.1 678.03C1015.59 680.456 1006.72 675.505 1004.31 666.98C1001.9 658.455 1006.87 649.594 1015.4 647.203Z"/><path fill="#FEFEFD" transform="scale(0.666667 0.666992)" d="M1016.23 648.836C1023.92 646.997 1031.63 651.78 1033.4 659.487C1035.18 667.194 1030.33 674.867 1022.61 676.571C1014.98 678.254 1007.43 673.475 1005.68 665.864C1003.93 658.253 1008.64 650.653 1016.23 648.836Z"/><path fill="#131218" transform="scale(0.666667 0.666992)" d="M1126.14 612.555C1131.44 611.512 1134.66 611.837 1139.97 612.077C1140.02 615.679 1140.01 618.411 1139.73 621.994L1138.79 622.769C1136.37 620.887 1138.88 619.059 1137.05 616.748C1132.28 620.314 1115.17 643.44 1110.39 649.685L1075.26 649.964C1067.96 658.619 1061.13 667.252 1054.12 676.132C1052.49 678.386 1051.49 680.258 1048.89 681.312C1049.12 678.683 1070.92 651.775 1074.07 648.093L1109.02 647.576C1117.86 637.949 1126.92 624.665 1136.08 614.062C1132.41 614.009 1129.14 614.505 1126.14 612.555Z"/><path fill="#FEFEFD" transform="scale(0.666667 0.666992)" d="M392.456 598.031L619.477 597.979C619.486 614.673 620.01 634.094 619.279 650.497C584.404 651.29 548.16 650.795 513.234 650.655L392.703 650.515L392.456 598.031Z"/><path fill="#343F70" transform="scale(0.666667 0.666992)" d="M406.397 609.32L440.074 609.432C440.13 619.316 440.411 630.204 439.857 639.993L406.219 640.028C406.178 629.715 406.209 619.641 406.397 609.32Z"/><path fill="#343F70" transform="scale(0.666667 0.666992)" d="M450.254 608.577L480.512 608.618C480.539 618.791 480.35 629.091 480.248 639.274L450.114 639.325C450.021 629.094 450.167 618.812 450.254 608.577Z"/><path fill="#FEFEFD" transform="scale(0.666667 0.666992)" d="M454.517 612.934L476.111 613.008L476.071 635.447L454.491 635.49L454.517 612.934Z"/><path fill="#111B4E" transform="scale(0.666667 0.666992)" d="M459.4 622.362C459.5 621.489 459.427 619.224 460.263 618.852C471.032 614.054 473.706 627.665 466.122 632.183C464.549 631.672 465.155 632.12 464.181 630.887L463.417 630.039C462.308 631.204 462.978 630.819 461.267 631.081L459.369 629.656C458.461 626.783 458.923 625.28 459.4 622.362Z"/><path fill="#111B4E" transform="scale(0.666667 0.666992)" d="M548.505 634.039C551.051 634.001 551.553 633.949 554 634.496C555.504 636.783 555.047 637.11 555.172 640.105C552.679 640.134 551.794 640.26 549.419 639.647C548.014 637.425 548.496 636.975 548.505 634.039Z"/><path fill="#111B4E" transform="scale(0.666667 0.666992)" d="M588.907 616.732C590.652 616.757 592.375 616.846 594.118 616.927C595.829 618.682 595.312 619.294 595.498 622.28C593.677 622.25 591.972 622.165 590.154 622.064C588.42 620.243 588.984 619.838 588.907 616.732Z"/><path fill="#111B4E" transform="scale(0.666667 0.666992)" d="M588.805 634.392L594.144 634.554C596.097 636.332 595.559 636.817 595.93 640.022C593.864 640.057 592.64 640.012 590.584 639.81C588.824 637.858 589.244 637.325 588.805 634.392Z"/><path fill="#FEFEFD" transform="scale(0.666667 0.666992)" d="M652.487 597.86L878.202 597.878L878.072 650.376C803.772 651.477 726.939 650.338 652.427 650.263L652.487 597.86Z"/><path fill="#111B4E" transform="scale(0.666667 0.666992)" d="M665.295 609.254L700.543 609.293L700.651 640.092C688.903 639.928 677.044 640.066 665.287 640.116L665.295 609.254Z"/><path fill="#343F70" transform="scale(0.666667 0.666992)" d="M708.649 609.151L741.096 609.165C741.465 618.582 741.147 630.52 741.133 640.123C730.408 639.891 719.373 640.015 708.623 640.007L708.649 609.151Z"/><path fill="#FEFEFD" transform="scale(0.666667 0.666992)" d="M713.258 613.666L736.667 613.628L736.551 635.505L713.237 635.606L713.258 613.666Z"/><path fill="#111B4E" transform="scale(0.666667 0.666992)" d="M724.05 618.657C724.926 618.488 724.83 618.639 725.839 618.97L726.609 621.454C728.557 619.655 728.135 619.435 730.212 619.245L731.441 620.336C731.745 622.946 731.446 622.454 730.125 625.271C731.295 627.664 732.328 629.062 731.117 631.538C729.754 631.436 728.843 631.358 727.467 631.491L726.55 631.587C725.995 631.754 724.619 631.225 723.908 631.027C722.459 631.453 721.808 631.579 720.36 631.832C718.945 629.798 719.417 629.361 719.391 626.543C720.148 626.224 720.634 626.03 721.426 625.772L722.067 625.569L721.739 624.28L719.181 623.171L719.001 622.697L720.279 620.595C721.999 620.036 722.592 619.728 724.05 618.657Z"/><path fill="#343F70" transform="scale(0.666667 0.666992)" d="M826.238 632.131C827.471 631.3 829.058 631.203 830.383 631.877C831.709 632.551 832.565 633.891 832.62 635.377C832.675 636.864 831.92 638.263 830.647 639.033C828.745 640.184 826.273 639.608 825.076 637.734C823.879 635.861 824.395 633.374 826.238 632.131Z"/><path fill="#111B4E" transform="scale(0.666667 0.666992)" d="M808.491 631.814C809.821 631.174 811.393 631.299 812.605 632.142C813.818 632.986 814.482 634.416 814.345 635.886C814.208 637.357 813.29 638.64 811.943 639.244C809.899 640.161 807.497 639.265 806.553 637.233C805.608 635.2 806.472 632.786 808.491 631.814Z"/><path fill="#152A5F" transform="scale(0.666667 0.666992)" d="M826.903 615.469C828.786 614.28 831.276 614.832 832.481 616.705C833.686 618.579 833.157 621.074 831.295 622.296C829.409 623.533 826.876 622.995 825.656 621.098C824.436 619.201 824.996 616.673 826.903 615.469Z"/><path fill="#152A5F" transform="scale(0.666667 0.666992)" d="M845.096 632.007C846.332 631.349 847.826 631.408 849.006 632.163C850.185 632.918 850.865 634.25 850.786 635.648C850.706 637.046 849.879 638.292 848.622 638.908C846.723 639.838 844.429 639.074 843.467 637.191C842.505 635.308 843.23 633.001 845.096 632.007Z"/><path fill="#FEFEFD" transform="scale(0.666667 0.666992)" d="M135.002 598.698L359.979 598.589C360.009 605.382 360.861 648.098 359.046 651.106L135.044 651.039L135.002 598.698Z"/><path fill="#343F70" transform="scale(0.666667 0.666992)" d="M147.506 609.198C158.271 609.01 169.478 609.224 180.277 609.279C180.48 619.478 180.313 629.837 180.242 640.05C169.763 640.363 158.147 640.185 147.582 640.231L147.506 609.198Z"/><path fill="#343F70" transform="scale(0.666667 0.666992)" d="M191.363 608.187L220.473 608.095C220.661 617.855 220.778 630.128 220.274 639.754C210.669 639.653 200.878 639.78 191.257 639.807L191.363 608.187Z"/><path fill="#F6EEEB" transform="scale(0.666667 0.666992)" d="M194.991 612.326L216.713 612.382L216.727 636.003C212.988 636.572 202.746 636.679 198.946 636.176L196.263 635.689C193.875 632.496 194.937 617.16 194.991 612.326Z"/><path fill="#152A5F" transform="scale(0.666667 0.666992)" d="M201.079 623.279C205.514 623.591 207.384 623.542 211.831 623.16L211.818 623.595C211.647 628.366 211.46 629.107 208.772 632.984L208.859 634.685C211.185 636.073 213.913 635.868 216.727 636.003C212.988 636.572 202.746 636.679 198.946 636.176C201.14 635.996 203.554 636.127 205.166 634.786C204.251 631.683 201.483 631.812 201.316 629.962C201.073 627.274 201.823 626.912 201.079 623.279Z"/><path fill="#343F70" transform="scale(0.666667 0.666992)" d="M201.079 623.279L201.334 620.437C204.531 617.981 207.996 616.883 211.114 620.355L211.831 623.16C207.384 623.542 205.514 623.591 201.079 623.279Z"/><path fill="#111B4E" transform="scale(0.666667 0.666992)" d="M314.784 614.182C317 614.208 318.459 614.262 320.657 614.521C322.293 616.415 321.773 615.795 321.68 619.11C320.042 619.233 318.402 619.238 316.76 619.269C314.776 617.542 315.295 617.279 314.784 614.182Z"/><path fill="#152A5F" transform="scale(0.666667 0.666992)" d="M333.914 614.421C336.228 614.254 337.502 614.192 339.813 614.329C341.792 616.034 341.179 615.694 341.855 618.906C339.37 619.142 338.437 619.226 335.963 618.999C334.032 617.246 334.617 617.537 333.914 614.421Z"/><path fill="#343F70" transform="scale(0.666667 0.666992)" d="M278.165 615.01C278.863 614.091 280.01 613.631 281.149 613.814C282.288 613.997 283.234 614.792 283.61 615.883C283.985 616.975 283.73 618.184 282.944 619.029C281.81 620.25 279.918 620.367 278.643 619.294C277.367 618.222 277.157 616.337 278.165 615.01Z"/><path fill="#343F70" transform="scale(0.666667 0.666992)" d="M277.418 636.293C279.708 636.251 280.922 636.209 283.18 636.491C284.76 638.181 284.253 637.897 284.566 640.781C282.641 640.777 280.829 640.741 278.906 640.665C277.141 639.034 277.711 639.471 277.418 636.293Z"/><path fill="#111B4E" transform="scale(0.666667 0.666992)" d="M296.062 614.408C297.78 614.382 299.523 614.394 301.243 614.39C303.31 616.028 302.653 615.414 303.355 618.653C301.913 618.991 300.24 619.093 298.749 619.239C296.404 617.652 296.994 617.623 296.062 614.408Z"/><path fill="#343F70" transform="scale(0.666667 0.666992)" d="M333.731 637.103L339.126 636.698C341.702 638.004 340.867 637.112 342.001 640.463L336.628 640.83C334.103 639.551 334.942 640.401 333.731 637.103Z"/><path fill="#FEFEFD" transform="scale(0.666667 0.666992)" d="M652.028 886.752L878.094 886.747L878.079 937.703L652.108 937.58C651.51 921.521 651.986 902.992 652.028 886.752Z"/><path fill="#FEFEFD" transform="scale(0.666667 0.666992)" d="M134.797 886.97C159.715 886.054 188.665 886.739 213.781 886.744L360.009 886.816L359.928 937.724L134.802 937.758C134.803 921.066 134.281 903.588 134.797 886.97Z"/><path fill="#FEFEFD" transform="scale(0.666667 0.666992)" d="M1351.25 766.308L1474.97 765.984L1474.87 774.48C1423.37 773.783 1371.28 774.289 1319.71 774.268L1060.12 774.136L976.425 774.209C969.799 774.231 939.479 775.637 936.483 773.653C935.957 770.819 935.842 770.31 936.211 767.47C936.652 767.198 937.092 766.927 937.532 766.655C957.519 766.764 1003.64 766.687 1021.31 766.676L1351.25 766.308Z"/><path fill="#FEFEFD" transform="scale(0.666667 0.666992)" d="M392.358 946.199L619.105 946.152L618.91 956.156L392.361 955.985L392.358 946.199Z"/><path fill="#FEFEFD" transform="scale(0.666667 0.666992)" d="M652.216 946.075L878.044 946.659L877.701 956.216C851.711 956.873 822.813 956.141 796.523 956.146L652.449 956.052L652.216 946.075Z"/><path fill="#FEFEFD" transform="scale(0.666667 0.666992)" d="M134.915 946.255C159.774 945.76 186.025 946.184 211.007 946.196L359.835 946.235L359.796 955.989L134.828 955.866L134.915 946.255Z"/><path fill="#F6EEEB" transform="scale(0.666667 0.666992)" d="M1432.57 782.565C1434.94 782.514 1436.44 782.24 1438.53 783.305C1439.76 788.271 1438.73 815.74 1438.74 823.222L1438.64 956.252C1436.14 956.35 1435.18 956.671 1433.22 955.368C1431.91 953.115 1432.53 942.57 1432.53 939.324L1432.52 902.594L1432.57 782.565Z"/><path fill="#F6EEEB" transform="scale(0.666667 0.666992)" d="M1197.94 783.154C1200.24 783.059 1200.98 782.873 1203.1 783.595C1203.79 784.94 1204 943.369 1203.28 956.599C1200.13 956.327 1200.63 956.82 1198.34 955.263C1197.15 952.735 1197.92 943.656 1197.94 940.208L1198.12 901.606L1197.94 783.154Z"/><path fill="#F6EEEB" transform="scale(0.666667 0.666992)" d="M964.908 782.635C966.272 782.751 967.634 782.935 968.994 783.101C970.662 785.862 969.802 823.098 969.783 828.56L969.748 956.742C967.477 956.255 967.231 956.234 965.213 955.15C964.628 951.788 964.955 941.19 964.982 937.381L965.081 905.025L964.908 782.635Z"/><path fill="#F6EEEB" transform="scale(0.666667 0.666992)" d="M1038.39 754.012C1054.31 754.004 1079.2 753.208 1094.41 754.314C1095.45 755.957 1094.97 757.771 1094.76 759.779C1094.13 759.001 1093.17 757.465 1092.29 757.345C1078.99 755.534 1063.45 756.952 1049.91 756.76C1047.14 756.721 1040.77 757.366 1039.17 756.892L1038.39 754.012Z"/><path fill="#F6EEEB" transform="scale(0.666667 0.666992)" d="M1065.2 710.987C1067.69 713.162 1067.32 741.534 1065.59 745.101C1063.29 742.699 1063.82 714.877 1065.2 710.987Z"/></svg>